G04 #@! TF.GenerationSoftware,KiCad,Pcbnew,(5.1.5-0-10_14)*
G04 #@! TF.CreationDate,2020-02-28T10:22:06-08:00*
G04 #@! TF.ProjectId,esp-prog,6573702d-7072-46f6-972e-6b696361645f,rev?*
G04 #@! TF.SameCoordinates,Original*
G04 #@! TF.FileFunction,Legend,Top*
G04 #@! TF.FilePolarity,Positive*
%FSLAX46Y46*%
G04 Gerber Fmt 4.6, Leading zero omitted, Abs format (unit mm)*
G04 Created by KiCad (PCBNEW (5.1.5-0-10_14)) date 2020-02-28 10:22:06*
%MOMM*%
%LPD*%
G04 APERTURE LIST*
%ADD10C,0.150000*%
%ADD11C,0.200000*%
%ADD12C,0.120000*%
%ADD13C,0.100000*%
%ADD14C,0.152400*%
%ADD15C,0.203200*%
%ADD16C,0.127000*%
G04 APERTURE END LIST*
D10*
X56655714Y-33140714D02*
X56655714Y-33574047D01*
X56655714Y-33202619D02*
X56693809Y-33171666D01*
X56770000Y-33140714D01*
X56884285Y-33140714D01*
X56960476Y-33171666D01*
X56998571Y-33233571D01*
X56998571Y-33574047D01*
X57722380Y-33543095D02*
X57646190Y-33574047D01*
X57493809Y-33574047D01*
X57417619Y-33543095D01*
X57379523Y-33512142D01*
X57341428Y-33450238D01*
X57341428Y-33264523D01*
X57379523Y-33202619D01*
X57417619Y-33171666D01*
X57493809Y-33140714D01*
X57646190Y-33140714D01*
X57722380Y-33171666D01*
D11*
X48910000Y-49760000D02*
X62680000Y-49760000D01*
D12*
X58130000Y-69090000D02*
X58480000Y-69090000D01*
X58130000Y-69090000D02*
X58130000Y-68690000D01*
X58640000Y-68280000D02*
X58130000Y-69090000D01*
D10*
X33374047Y-70819523D02*
X33900238Y-70819523D01*
X33962142Y-70781428D01*
X33993095Y-70743333D01*
X34024047Y-70667142D01*
X34024047Y-70514761D01*
X33993095Y-70438571D01*
X33962142Y-70400476D01*
X33900238Y-70362380D01*
X33374047Y-70362380D01*
X33993095Y-70019523D02*
X34024047Y-69905238D01*
X34024047Y-69714761D01*
X33993095Y-69638571D01*
X33962142Y-69600476D01*
X33900238Y-69562380D01*
X33838333Y-69562380D01*
X33776428Y-69600476D01*
X33745476Y-69638571D01*
X33714523Y-69714761D01*
X33683571Y-69867142D01*
X33652619Y-69943333D01*
X33621666Y-69981428D01*
X33559761Y-70019523D01*
X33497857Y-70019523D01*
X33435952Y-69981428D01*
X33405000Y-69943333D01*
X33374047Y-69867142D01*
X33374047Y-69676666D01*
X33405000Y-69562380D01*
X33683571Y-68952857D02*
X33714523Y-68838571D01*
X33745476Y-68800476D01*
X33807380Y-68762380D01*
X33900238Y-68762380D01*
X33962142Y-68800476D01*
X33993095Y-68838571D01*
X34024047Y-68914761D01*
X34024047Y-69219523D01*
X33374047Y-69219523D01*
X33374047Y-68952857D01*
X33405000Y-68876666D01*
X33435952Y-68838571D01*
X33497857Y-68800476D01*
X33559761Y-68800476D01*
X33621666Y-68838571D01*
X33652619Y-68876666D01*
X33683571Y-68952857D01*
X33683571Y-69219523D01*
X57510952Y-67281904D02*
X57882380Y-67281904D01*
X57696666Y-68081904D02*
X57696666Y-67281904D01*
X58377619Y-68081904D02*
X58377619Y-67662857D01*
X58346666Y-67586666D01*
X58284761Y-67548571D01*
X58160952Y-67548571D01*
X58099047Y-67586666D01*
X58377619Y-68043809D02*
X58315714Y-68081904D01*
X58160952Y-68081904D01*
X58099047Y-68043809D01*
X58068095Y-67967619D01*
X58068095Y-67891428D01*
X58099047Y-67815238D01*
X58160952Y-67777142D01*
X58315714Y-67777142D01*
X58377619Y-67739047D01*
X58687142Y-68081904D02*
X58687142Y-67548571D01*
X58687142Y-67700952D02*
X58718095Y-67624761D01*
X58749047Y-67586666D01*
X58810952Y-67548571D01*
X58872857Y-67548571D01*
X59368095Y-67548571D02*
X59368095Y-68196190D01*
X59337142Y-68272380D01*
X59306190Y-68310476D01*
X59244285Y-68348571D01*
X59151428Y-68348571D01*
X59089523Y-68310476D01*
X59368095Y-68043809D02*
X59306190Y-68081904D01*
X59182380Y-68081904D01*
X59120476Y-68043809D01*
X59089523Y-68005714D01*
X59058571Y-67929523D01*
X59058571Y-67700952D01*
X59089523Y-67624761D01*
X59120476Y-67586666D01*
X59182380Y-67548571D01*
X59306190Y-67548571D01*
X59368095Y-67586666D01*
X59925238Y-68043809D02*
X59863333Y-68081904D01*
X59739523Y-68081904D01*
X59677619Y-68043809D01*
X59646666Y-67967619D01*
X59646666Y-67662857D01*
X59677619Y-67586666D01*
X59739523Y-67548571D01*
X59863333Y-67548571D01*
X59925238Y-67586666D01*
X59956190Y-67662857D01*
X59956190Y-67739047D01*
X59646666Y-67815238D01*
X60141904Y-67548571D02*
X60389523Y-67548571D01*
X60234761Y-67281904D02*
X60234761Y-67967619D01*
X60265714Y-68043809D01*
X60327619Y-68081904D01*
X60389523Y-68081904D01*
X61410952Y-68081904D02*
X61101428Y-68081904D01*
X61101428Y-67281904D01*
X61627619Y-67662857D02*
X61844285Y-67662857D01*
X61937142Y-68081904D02*
X61627619Y-68081904D01*
X61627619Y-67281904D01*
X61937142Y-67281904D01*
X62215714Y-68081904D02*
X62215714Y-67281904D01*
X62370476Y-67281904D01*
X62463333Y-67320000D01*
X62525238Y-67396190D01*
X62556190Y-67472380D01*
X62587142Y-67624761D01*
X62587142Y-67739047D01*
X62556190Y-67891428D01*
X62525238Y-67967619D01*
X62463333Y-68043809D01*
X62370476Y-68081904D01*
X62215714Y-68081904D01*
D12*
X49630000Y-69030000D02*
X49770000Y-68720000D01*
X49630000Y-69030000D02*
X49320000Y-68940000D01*
X49240000Y-68010000D02*
X49630000Y-69030000D01*
X50050000Y-68000000D02*
X49240000Y-68010000D01*
D10*
X50235238Y-67941547D02*
X50235238Y-67291547D01*
X50540000Y-67291547D01*
X50616190Y-67322500D01*
X50654285Y-67353452D01*
X50692380Y-67415357D01*
X50692380Y-67508214D01*
X50654285Y-67570119D01*
X50616190Y-67601071D01*
X50540000Y-67632023D01*
X50235238Y-67632023D01*
X51035238Y-67941547D02*
X51035238Y-67508214D01*
X51035238Y-67291547D02*
X50997142Y-67322500D01*
X51035238Y-67353452D01*
X51073333Y-67322500D01*
X51035238Y-67291547D01*
X51035238Y-67353452D01*
X51759047Y-67910595D02*
X51682857Y-67941547D01*
X51530476Y-67941547D01*
X51454285Y-67910595D01*
X51416190Y-67879642D01*
X51378095Y-67817738D01*
X51378095Y-67632023D01*
X51416190Y-67570119D01*
X51454285Y-67539166D01*
X51530476Y-67508214D01*
X51682857Y-67508214D01*
X51759047Y-67539166D01*
X52216190Y-67941547D02*
X52140000Y-67910595D01*
X52101904Y-67879642D01*
X52063809Y-67817738D01*
X52063809Y-67632023D01*
X52101904Y-67570119D01*
X52140000Y-67539166D01*
X52216190Y-67508214D01*
X52330476Y-67508214D01*
X52406666Y-67539166D01*
X52444761Y-67570119D01*
X52482857Y-67632023D01*
X52482857Y-67817738D01*
X52444761Y-67879642D01*
X52406666Y-67910595D01*
X52330476Y-67941547D01*
X52216190Y-67941547D01*
X53359047Y-67291547D02*
X53854285Y-67291547D01*
X53587619Y-67539166D01*
X53701904Y-67539166D01*
X53778095Y-67570119D01*
X53816190Y-67601071D01*
X53854285Y-67662976D01*
X53854285Y-67817738D01*
X53816190Y-67879642D01*
X53778095Y-67910595D01*
X53701904Y-67941547D01*
X53473333Y-67941547D01*
X53397142Y-67910595D01*
X53359047Y-67879642D01*
X54197142Y-67879642D02*
X54235238Y-67910595D01*
X54197142Y-67941547D01*
X54159047Y-67910595D01*
X54197142Y-67879642D01*
X54197142Y-67941547D01*
X54501904Y-67291547D02*
X54997142Y-67291547D01*
X54730476Y-67539166D01*
X54844761Y-67539166D01*
X54920952Y-67570119D01*
X54959047Y-67601071D01*
X54997142Y-67662976D01*
X54997142Y-67817738D01*
X54959047Y-67879642D01*
X54920952Y-67910595D01*
X54844761Y-67941547D01*
X54616190Y-67941547D01*
X54540000Y-67910595D01*
X54501904Y-67879642D01*
X55225714Y-67291547D02*
X55492380Y-67941547D01*
X55759047Y-67291547D01*
X50273333Y-68633214D02*
X50578095Y-68633214D01*
X50387619Y-68416547D02*
X50387619Y-68973690D01*
X50425714Y-69035595D01*
X50501904Y-69066547D01*
X50578095Y-69066547D01*
X50959047Y-69066547D02*
X50882857Y-69035595D01*
X50844761Y-69004642D01*
X50806666Y-68942738D01*
X50806666Y-68757023D01*
X50844761Y-68695119D01*
X50882857Y-68664166D01*
X50959047Y-68633214D01*
X51073333Y-68633214D01*
X51149523Y-68664166D01*
X51187619Y-68695119D01*
X51225714Y-68757023D01*
X51225714Y-68942738D01*
X51187619Y-69004642D01*
X51149523Y-69035595D01*
X51073333Y-69066547D01*
X50959047Y-69066547D01*
X52063809Y-68416547D02*
X52520952Y-68416547D01*
X52292380Y-69066547D02*
X52292380Y-68416547D01*
X53130476Y-69066547D02*
X53130476Y-68726071D01*
X53092380Y-68664166D01*
X53016190Y-68633214D01*
X52863809Y-68633214D01*
X52787619Y-68664166D01*
X53130476Y-69035595D02*
X53054285Y-69066547D01*
X52863809Y-69066547D01*
X52787619Y-69035595D01*
X52749523Y-68973690D01*
X52749523Y-68911785D01*
X52787619Y-68849880D01*
X52863809Y-68818928D01*
X53054285Y-68818928D01*
X53130476Y-68787976D01*
X53511428Y-69066547D02*
X53511428Y-68633214D01*
X53511428Y-68757023D02*
X53549523Y-68695119D01*
X53587619Y-68664166D01*
X53663809Y-68633214D01*
X53740000Y-68633214D01*
X54349523Y-68633214D02*
X54349523Y-69159404D01*
X54311428Y-69221309D01*
X54273333Y-69252261D01*
X54197142Y-69283214D01*
X54082857Y-69283214D01*
X54006666Y-69252261D01*
X54349523Y-69035595D02*
X54273333Y-69066547D01*
X54120952Y-69066547D01*
X54044761Y-69035595D01*
X54006666Y-69004642D01*
X53968571Y-68942738D01*
X53968571Y-68757023D01*
X54006666Y-68695119D01*
X54044761Y-68664166D01*
X54120952Y-68633214D01*
X54273333Y-68633214D01*
X54349523Y-68664166D01*
X55035238Y-69035595D02*
X54959047Y-69066547D01*
X54806666Y-69066547D01*
X54730476Y-69035595D01*
X54692380Y-68973690D01*
X54692380Y-68726071D01*
X54730476Y-68664166D01*
X54806666Y-68633214D01*
X54959047Y-68633214D01*
X55035238Y-68664166D01*
X55073333Y-68726071D01*
X55073333Y-68787976D01*
X54692380Y-68849880D01*
X55301904Y-68633214D02*
X55606666Y-68633214D01*
X55416190Y-68416547D02*
X55416190Y-68973690D01*
X55454285Y-69035595D01*
X55530476Y-69066547D01*
X55606666Y-69066547D01*
D12*
X50490000Y-42590000D02*
X50490000Y-24190000D01*
D10*
X50160000Y-44619523D02*
X50121904Y-44695714D01*
X50121904Y-44810000D01*
X50160000Y-44924285D01*
X50236190Y-45000476D01*
X50312380Y-45038571D01*
X50464761Y-45076666D01*
X50579047Y-45076666D01*
X50731428Y-45038571D01*
X50807619Y-45000476D01*
X50883809Y-44924285D01*
X50921904Y-44810000D01*
X50921904Y-44733809D01*
X50883809Y-44619523D01*
X50845714Y-44581428D01*
X50579047Y-44581428D01*
X50579047Y-44733809D01*
X50921904Y-44238571D02*
X50121904Y-44238571D01*
X50921904Y-43781428D01*
X50121904Y-43781428D01*
X50921904Y-43400476D02*
X50121904Y-43400476D01*
X50121904Y-43210000D01*
X50160000Y-43095714D01*
X50236190Y-43019523D01*
X50312380Y-42981428D01*
X50464761Y-42943333D01*
X50579047Y-42943333D01*
X50731428Y-42981428D01*
X50807619Y-43019523D01*
X50883809Y-43095714D01*
X50921904Y-43210000D01*
X50921904Y-43400476D01*
X49795714Y-46828571D02*
X49795714Y-47361904D01*
X49795714Y-46904761D02*
X49833809Y-46866666D01*
X49910000Y-46828571D01*
X50024285Y-46828571D01*
X50100476Y-46866666D01*
X50138571Y-46942857D01*
X50138571Y-47361904D01*
X50862380Y-47323809D02*
X50786190Y-47361904D01*
X50633809Y-47361904D01*
X50557619Y-47323809D01*
X50519523Y-47285714D01*
X50481428Y-47209523D01*
X50481428Y-46980952D01*
X50519523Y-46904761D01*
X50557619Y-46866666D01*
X50633809Y-46828571D01*
X50786190Y-46828571D01*
X50862380Y-46866666D01*
X56727619Y-23938571D02*
X56727619Y-24471904D01*
X56727619Y-24014761D02*
X56765714Y-23976666D01*
X56841905Y-23938571D01*
X56956190Y-23938571D01*
X57032381Y-23976666D01*
X57070476Y-24052857D01*
X57070476Y-24471904D01*
X57794285Y-24433809D02*
X57718095Y-24471904D01*
X57565714Y-24471904D01*
X57489524Y-24433809D01*
X57451428Y-24395714D01*
X57413333Y-24319523D01*
X57413333Y-24090952D01*
X57451428Y-24014761D01*
X57489524Y-23976666D01*
X57565714Y-23938571D01*
X57718095Y-23938571D01*
X57794285Y-23976666D01*
X56727619Y-26388571D02*
X56727619Y-26921904D01*
X56727619Y-26464761D02*
X56765714Y-26426666D01*
X56841905Y-26388571D01*
X56956190Y-26388571D01*
X57032381Y-26426666D01*
X57070476Y-26502857D01*
X57070476Y-26921904D01*
X57794285Y-26883809D02*
X57718095Y-26921904D01*
X57565714Y-26921904D01*
X57489524Y-26883809D01*
X57451428Y-26845714D01*
X57413333Y-26769523D01*
X57413333Y-26540952D01*
X57451428Y-26464761D01*
X57489524Y-26426666D01*
X57565714Y-26388571D01*
X57718095Y-26388571D01*
X57794285Y-26426666D01*
X56613332Y-46471904D02*
X56879999Y-47271904D01*
X57146666Y-46471904D01*
X57299047Y-46471904D02*
X57756189Y-46471904D01*
X57527618Y-47271904D02*
X57527618Y-46471904D01*
X58022856Y-47271904D02*
X58022856Y-46738571D01*
X58022856Y-46890952D02*
X58060951Y-46814761D01*
X58099047Y-46776666D01*
X58175237Y-46738571D01*
X58251428Y-46738571D01*
X58822856Y-47233809D02*
X58746666Y-47271904D01*
X58594285Y-47271904D01*
X58518094Y-47233809D01*
X58479999Y-47157619D01*
X58479999Y-46852857D01*
X58518094Y-46776666D01*
X58594285Y-46738571D01*
X58746666Y-46738571D01*
X58822856Y-46776666D01*
X58860951Y-46852857D01*
X58860951Y-46929047D01*
X58479999Y-47005238D01*
X59089523Y-46738571D02*
X59394285Y-46738571D01*
X59203809Y-47271904D02*
X59203809Y-46586190D01*
X59241904Y-46510000D01*
X59318094Y-46471904D01*
X59394285Y-46471904D01*
X57184761Y-44771904D02*
X56918095Y-44390952D01*
X56727618Y-44771904D02*
X56727618Y-43971904D01*
X57032380Y-43971904D01*
X57108571Y-44010000D01*
X57146666Y-44048095D01*
X57184761Y-44124285D01*
X57184761Y-44238571D01*
X57146666Y-44314761D01*
X57108571Y-44352857D01*
X57032380Y-44390952D01*
X56727618Y-44390952D01*
X57489523Y-44733809D02*
X57603809Y-44771904D01*
X57794285Y-44771904D01*
X57870476Y-44733809D01*
X57908571Y-44695714D01*
X57946666Y-44619523D01*
X57946666Y-44543333D01*
X57908571Y-44467142D01*
X57870476Y-44429047D01*
X57794285Y-44390952D01*
X57641904Y-44352857D01*
X57565714Y-44314761D01*
X57527618Y-44276666D01*
X57489523Y-44200476D01*
X57489523Y-44124285D01*
X57527618Y-44048095D01*
X57565714Y-44010000D01*
X57641904Y-43971904D01*
X57832380Y-43971904D01*
X57946666Y-44010000D01*
X58175237Y-43971904D02*
X58632380Y-43971904D01*
X58403809Y-44771904D02*
X58403809Y-43971904D01*
X56712857Y-28968571D02*
X56712857Y-29501904D01*
X56712857Y-29044761D02*
X56750952Y-29006666D01*
X56827142Y-28968571D01*
X56941428Y-28968571D01*
X57017619Y-29006666D01*
X57055714Y-29082857D01*
X57055714Y-29501904D01*
X57893809Y-29501904D02*
X57627142Y-29120952D01*
X57436666Y-29501904D02*
X57436666Y-28701904D01*
X57741428Y-28701904D01*
X57817619Y-28740000D01*
X57855714Y-28778095D01*
X57893809Y-28854285D01*
X57893809Y-28968571D01*
X57855714Y-29044761D01*
X57817619Y-29082857D01*
X57741428Y-29120952D01*
X57436666Y-29120952D01*
X58198571Y-29463809D02*
X58312857Y-29501904D01*
X58503333Y-29501904D01*
X58579523Y-29463809D01*
X58617619Y-29425714D01*
X58655714Y-29349523D01*
X58655714Y-29273333D01*
X58617619Y-29197142D01*
X58579523Y-29159047D01*
X58503333Y-29120952D01*
X58350952Y-29082857D01*
X58274761Y-29044761D01*
X58236666Y-29006666D01*
X58198571Y-28930476D01*
X58198571Y-28854285D01*
X58236666Y-28778095D01*
X58274761Y-28740000D01*
X58350952Y-28701904D01*
X58541428Y-28701904D01*
X58655714Y-28740000D01*
X58884285Y-28701904D02*
X59341428Y-28701904D01*
X59112857Y-29501904D02*
X59112857Y-28701904D01*
X56613332Y-31491904D02*
X57070475Y-31491904D01*
X56841904Y-32291904D02*
X56841904Y-31491904D01*
X57337142Y-32291904D02*
X57337142Y-31491904D01*
X57527618Y-31491904D01*
X57641904Y-31530000D01*
X57718094Y-31606190D01*
X57756190Y-31682380D01*
X57794285Y-31834761D01*
X57794285Y-31949047D01*
X57756190Y-32101428D01*
X57718094Y-32177619D01*
X57641904Y-32253809D01*
X57527618Y-32291904D01*
X57337142Y-32291904D01*
X58289523Y-31491904D02*
X58441904Y-31491904D01*
X58518094Y-31530000D01*
X58594285Y-31606190D01*
X58632380Y-31758571D01*
X58632380Y-32025238D01*
X58594285Y-32177619D01*
X58518094Y-32253809D01*
X58441904Y-32291904D01*
X58289523Y-32291904D01*
X58213332Y-32253809D01*
X58137142Y-32177619D01*
X58099047Y-32025238D01*
X58099047Y-31758571D01*
X58137142Y-31606190D01*
X58213332Y-31530000D01*
X58289523Y-31491904D01*
X56561428Y-37321904D02*
X57018571Y-37321904D01*
X56790000Y-38121904D02*
X56790000Y-37321904D01*
X57742380Y-38045714D02*
X57704285Y-38083809D01*
X57590000Y-38121904D01*
X57513809Y-38121904D01*
X57399523Y-38083809D01*
X57323333Y-38007619D01*
X57285238Y-37931428D01*
X57247142Y-37779047D01*
X57247142Y-37664761D01*
X57285238Y-37512380D01*
X57323333Y-37436190D01*
X57399523Y-37360000D01*
X57513809Y-37321904D01*
X57590000Y-37321904D01*
X57704285Y-37360000D01*
X57742380Y-37398095D01*
X58085238Y-38121904D02*
X58085238Y-37321904D01*
X58542380Y-38121904D02*
X58199523Y-37664761D01*
X58542380Y-37321904D02*
X58085238Y-37779047D01*
X56613333Y-39051904D02*
X57070476Y-39051904D01*
X56841904Y-39851904D02*
X56841904Y-39051904D01*
X57337142Y-39851904D02*
X57337142Y-39051904D01*
X57603809Y-39623333D01*
X57870476Y-39051904D01*
X57870476Y-39851904D01*
X58213333Y-39813809D02*
X58327619Y-39851904D01*
X58518095Y-39851904D01*
X58594285Y-39813809D01*
X58632380Y-39775714D01*
X58670476Y-39699523D01*
X58670476Y-39623333D01*
X58632380Y-39547142D01*
X58594285Y-39509047D01*
X58518095Y-39470952D01*
X58365714Y-39432857D01*
X58289523Y-39394761D01*
X58251428Y-39356666D01*
X58213333Y-39280476D01*
X58213333Y-39204285D01*
X58251428Y-39128095D01*
X58289523Y-39090000D01*
X58365714Y-39051904D01*
X58556190Y-39051904D01*
X58670476Y-39090000D01*
X56613333Y-41521904D02*
X57070476Y-41521904D01*
X56841904Y-42321904D02*
X56841904Y-41521904D01*
X57337142Y-42321904D02*
X57337142Y-41521904D01*
X57527619Y-41521904D01*
X57641904Y-41560000D01*
X57718095Y-41636190D01*
X57756190Y-41712380D01*
X57794285Y-41864761D01*
X57794285Y-41979047D01*
X57756190Y-42131428D01*
X57718095Y-42207619D01*
X57641904Y-42283809D01*
X57527619Y-42321904D01*
X57337142Y-42321904D01*
X58137142Y-42321904D02*
X58137142Y-41521904D01*
D12*
X30560000Y-23280000D02*
X36520000Y-22200000D01*
X30520000Y-22200000D02*
X36500000Y-23280000D01*
D10*
X62536666Y-43118571D02*
X62498571Y-43156666D01*
X62384285Y-43232857D01*
X62308095Y-43270952D01*
X62193809Y-43309047D01*
X62003333Y-43347142D01*
X61850952Y-43347142D01*
X61660476Y-43309047D01*
X61546190Y-43270952D01*
X61470000Y-43232857D01*
X61355714Y-43156666D01*
X61317619Y-43118571D01*
X62193809Y-42851904D02*
X62231904Y-42737619D01*
X62231904Y-42547142D01*
X62193809Y-42470952D01*
X62155714Y-42432857D01*
X62079523Y-42394761D01*
X62003333Y-42394761D01*
X61927142Y-42432857D01*
X61889047Y-42470952D01*
X61850952Y-42547142D01*
X61812857Y-42699523D01*
X61774761Y-42775714D01*
X61736666Y-42813809D01*
X61660476Y-42851904D01*
X61584285Y-42851904D01*
X61508095Y-42813809D01*
X61470000Y-42775714D01*
X61431904Y-42699523D01*
X61431904Y-42509047D01*
X61470000Y-42394761D01*
X61812857Y-42051904D02*
X61812857Y-41785238D01*
X62231904Y-41670952D02*
X62231904Y-42051904D01*
X61431904Y-42051904D01*
X61431904Y-41670952D01*
X61470000Y-40909047D02*
X61431904Y-40985238D01*
X61431904Y-41099523D01*
X61470000Y-41213809D01*
X61546190Y-41290000D01*
X61622380Y-41328095D01*
X61774761Y-41366190D01*
X61889047Y-41366190D01*
X62041428Y-41328095D01*
X62117619Y-41290000D01*
X62193809Y-41213809D01*
X62231904Y-41099523D01*
X62231904Y-41023333D01*
X62193809Y-40909047D01*
X62155714Y-40870952D01*
X61889047Y-40870952D01*
X61889047Y-41023333D01*
X61470000Y-40109047D02*
X61431904Y-40185238D01*
X61431904Y-40299523D01*
X61470000Y-40413809D01*
X61546190Y-40490000D01*
X61622380Y-40528095D01*
X61774761Y-40566190D01*
X61889047Y-40566190D01*
X62041428Y-40528095D01*
X62117619Y-40490000D01*
X62193809Y-40413809D01*
X62231904Y-40299523D01*
X62231904Y-40223333D01*
X62193809Y-40109047D01*
X62155714Y-40070952D01*
X61889047Y-40070952D01*
X61889047Y-40223333D01*
X61812857Y-39728095D02*
X61812857Y-39461428D01*
X62231904Y-39347142D02*
X62231904Y-39728095D01*
X61431904Y-39728095D01*
X61431904Y-39347142D01*
X62231904Y-38547142D02*
X61850952Y-38813809D01*
X62231904Y-39004285D02*
X61431904Y-39004285D01*
X61431904Y-38699523D01*
X61470000Y-38623333D01*
X61508095Y-38585238D01*
X61584285Y-38547142D01*
X61698571Y-38547142D01*
X61774761Y-38585238D01*
X61812857Y-38623333D01*
X61850952Y-38699523D01*
X61850952Y-39004285D01*
X61431904Y-37366190D02*
X62003333Y-37366190D01*
X62117619Y-37404285D01*
X62193809Y-37480476D01*
X62231904Y-37594761D01*
X62231904Y-37670952D01*
X61927142Y-36985238D02*
X61927142Y-36375714D01*
X62231904Y-35613809D02*
X62231904Y-35994761D01*
X61431904Y-35994761D01*
X62231904Y-35347142D02*
X61431904Y-35347142D01*
X62231904Y-34966190D02*
X61431904Y-34966190D01*
X62231904Y-34509047D01*
X61431904Y-34509047D01*
X62231904Y-34128095D02*
X61431904Y-34128095D01*
X62231904Y-33670952D02*
X61774761Y-34013809D01*
X61431904Y-33670952D02*
X61889047Y-34128095D01*
X61698571Y-32718571D02*
X62498571Y-32718571D01*
X61736666Y-32718571D02*
X61698571Y-32642380D01*
X61698571Y-32490000D01*
X61736666Y-32413809D01*
X61774761Y-32375714D01*
X61850952Y-32337619D01*
X62079523Y-32337619D01*
X62155714Y-32375714D01*
X62193809Y-32413809D01*
X62231904Y-32490000D01*
X62231904Y-32642380D01*
X62193809Y-32718571D01*
X62231904Y-31994761D02*
X61698571Y-31994761D01*
X61431904Y-31994761D02*
X61470000Y-32032857D01*
X61508095Y-31994761D01*
X61470000Y-31956666D01*
X61431904Y-31994761D01*
X61508095Y-31994761D01*
X61698571Y-31613809D02*
X62231904Y-31613809D01*
X61774761Y-31613809D02*
X61736666Y-31575714D01*
X61698571Y-31499523D01*
X61698571Y-31385238D01*
X61736666Y-31309047D01*
X61812857Y-31270952D01*
X62231904Y-31270952D01*
X62231904Y-30775714D02*
X62193809Y-30851904D01*
X62155714Y-30890000D01*
X62079523Y-30928095D01*
X61850952Y-30928095D01*
X61774761Y-30890000D01*
X61736666Y-30851904D01*
X61698571Y-30775714D01*
X61698571Y-30661428D01*
X61736666Y-30585238D01*
X61774761Y-30547142D01*
X61850952Y-30509047D01*
X62079523Y-30509047D01*
X62155714Y-30547142D01*
X62193809Y-30585238D01*
X62231904Y-30661428D01*
X62231904Y-30775714D01*
X61698571Y-29823333D02*
X62231904Y-29823333D01*
X61698571Y-30166190D02*
X62117619Y-30166190D01*
X62193809Y-30128095D01*
X62231904Y-30051904D01*
X62231904Y-29937619D01*
X62193809Y-29861428D01*
X62155714Y-29823333D01*
X61698571Y-29556666D02*
X61698571Y-29251904D01*
X61431904Y-29442380D02*
X62117619Y-29442380D01*
X62193809Y-29404285D01*
X62231904Y-29328095D01*
X62231904Y-29251904D01*
X62536666Y-29061428D02*
X62498571Y-29023333D01*
X62384285Y-28947142D01*
X62308095Y-28909047D01*
X62193809Y-28870952D01*
X62003333Y-28832857D01*
X61850952Y-28832857D01*
X61660476Y-28870952D01*
X61546190Y-28909047D01*
X61470000Y-28947142D01*
X61355714Y-29023333D01*
X61317619Y-29061428D01*
D12*
X30600000Y-23480000D02*
X46180000Y-23480000D01*
D10*
X33402142Y-27916428D02*
X33509285Y-27952142D01*
X33545000Y-27987857D01*
X33580714Y-28059285D01*
X33580714Y-28166428D01*
X33545000Y-28237857D01*
X33509285Y-28273571D01*
X33437857Y-28309285D01*
X33152142Y-28309285D01*
X33152142Y-27559285D01*
X33402142Y-27559285D01*
X33473571Y-27595000D01*
X33509285Y-27630714D01*
X33545000Y-27702142D01*
X33545000Y-27773571D01*
X33509285Y-27845000D01*
X33473571Y-27880714D01*
X33402142Y-27916428D01*
X33152142Y-27916428D01*
X34045000Y-27559285D02*
X34187857Y-27559285D01*
X34259285Y-27595000D01*
X34330714Y-27666428D01*
X34366428Y-27809285D01*
X34366428Y-28059285D01*
X34330714Y-28202142D01*
X34259285Y-28273571D01*
X34187857Y-28309285D01*
X34045000Y-28309285D01*
X33973571Y-28273571D01*
X33902142Y-28202142D01*
X33866428Y-28059285D01*
X33866428Y-27809285D01*
X33902142Y-27666428D01*
X33973571Y-27595000D01*
X34045000Y-27559285D01*
X34830714Y-27559285D02*
X34973571Y-27559285D01*
X35045000Y-27595000D01*
X35116428Y-27666428D01*
X35152142Y-27809285D01*
X35152142Y-28059285D01*
X35116428Y-28202142D01*
X35045000Y-28273571D01*
X34973571Y-28309285D01*
X34830714Y-28309285D01*
X34759285Y-28273571D01*
X34687857Y-28202142D01*
X34652142Y-28059285D01*
X34652142Y-27809285D01*
X34687857Y-27666428D01*
X34759285Y-27595000D01*
X34830714Y-27559285D01*
X35366428Y-27559285D02*
X35795000Y-27559285D01*
X35580714Y-28309285D02*
X35580714Y-27559285D01*
X38697142Y-27916428D02*
X38947142Y-27916428D01*
X39054285Y-28309285D02*
X38697142Y-28309285D01*
X38697142Y-27559285D01*
X39054285Y-27559285D01*
X39375714Y-28309285D02*
X39375714Y-27559285D01*
X39804285Y-28309285D01*
X39804285Y-27559285D01*
X40125714Y-28095000D02*
X40482857Y-28095000D01*
X40054285Y-28309285D02*
X40304285Y-27559285D01*
X40554285Y-28309285D01*
X41054285Y-27916428D02*
X41161428Y-27952142D01*
X41197142Y-27987857D01*
X41232857Y-28059285D01*
X41232857Y-28166428D01*
X41197142Y-28237857D01*
X41161428Y-28273571D01*
X41090000Y-28309285D01*
X40804285Y-28309285D01*
X40804285Y-27559285D01*
X41054285Y-27559285D01*
X41125714Y-27595000D01*
X41161428Y-27630714D01*
X41197142Y-27702142D01*
X41197142Y-27773571D01*
X41161428Y-27845000D01*
X41125714Y-27880714D01*
X41054285Y-27916428D01*
X40804285Y-27916428D01*
X41911428Y-28309285D02*
X41554285Y-28309285D01*
X41554285Y-27559285D01*
X42161428Y-27916428D02*
X42411428Y-27916428D01*
X42518571Y-28309285D02*
X42161428Y-28309285D01*
X42161428Y-27559285D01*
X42518571Y-27559285D01*
X33259047Y-25432380D02*
X33259047Y-25670476D01*
X33020952Y-25575238D02*
X33259047Y-25670476D01*
X33497142Y-25575238D01*
X33116190Y-25860952D02*
X33259047Y-25670476D01*
X33401904Y-25860952D01*
X34020952Y-26432380D02*
X33925714Y-26384761D01*
X33878095Y-26337142D01*
X33830476Y-26241904D01*
X33830476Y-25956190D01*
X33878095Y-25860952D01*
X33925714Y-25813333D01*
X34020952Y-25765714D01*
X34163809Y-25765714D01*
X34259047Y-25813333D01*
X34306666Y-25860952D01*
X34354285Y-25956190D01*
X34354285Y-26241904D01*
X34306666Y-26337142D01*
X34259047Y-26384761D01*
X34163809Y-26432380D01*
X34020952Y-26432380D01*
X34782857Y-26432380D02*
X34782857Y-25765714D01*
X34782857Y-25956190D02*
X34830476Y-25860952D01*
X34878095Y-25813333D01*
X34973333Y-25765714D01*
X35068571Y-25765714D01*
X36592380Y-25765714D02*
X36592380Y-26432380D01*
X36163809Y-25765714D02*
X36163809Y-26289523D01*
X36211428Y-26384761D01*
X36306666Y-26432380D01*
X36449523Y-26432380D01*
X36544761Y-26384761D01*
X36592380Y-26337142D01*
X37020952Y-26384761D02*
X37116190Y-26432380D01*
X37306666Y-26432380D01*
X37401904Y-26384761D01*
X37449523Y-26289523D01*
X37449523Y-26241904D01*
X37401904Y-26146666D01*
X37306666Y-26099047D01*
X37163809Y-26099047D01*
X37068571Y-26051428D01*
X37020952Y-25956190D01*
X37020952Y-25908571D01*
X37068571Y-25813333D01*
X37163809Y-25765714D01*
X37306666Y-25765714D01*
X37401904Y-25813333D01*
X38259047Y-26384761D02*
X38163809Y-26432380D01*
X37973333Y-26432380D01*
X37878095Y-26384761D01*
X37830476Y-26289523D01*
X37830476Y-25908571D01*
X37878095Y-25813333D01*
X37973333Y-25765714D01*
X38163809Y-25765714D01*
X38259047Y-25813333D01*
X38306666Y-25908571D01*
X38306666Y-26003809D01*
X37830476Y-26099047D01*
X39782857Y-25432380D02*
X39782857Y-26146666D01*
X39735238Y-26289523D01*
X39640000Y-26384761D01*
X39497142Y-26432380D01*
X39401904Y-26432380D01*
X40116190Y-25432380D02*
X40687619Y-25432380D01*
X40401904Y-26432380D02*
X40401904Y-25432380D01*
X40973333Y-26146666D02*
X41449523Y-26146666D01*
X40878095Y-26432380D02*
X41211428Y-25432380D01*
X41544761Y-26432380D01*
X42401904Y-25480000D02*
X42306666Y-25432380D01*
X42163809Y-25432380D01*
X42020952Y-25480000D01*
X41925714Y-25575238D01*
X41878095Y-25670476D01*
X41830476Y-25860952D01*
X41830476Y-26003809D01*
X41878095Y-26194285D01*
X41925714Y-26289523D01*
X42020952Y-26384761D01*
X42163809Y-26432380D01*
X42259047Y-26432380D01*
X42401904Y-26384761D01*
X42449523Y-26337142D01*
X42449523Y-26003809D01*
X42259047Y-26003809D01*
X43020952Y-25432380D02*
X43020952Y-25670476D01*
X42782857Y-25575238D02*
X43020952Y-25670476D01*
X43259047Y-25575238D01*
X42878095Y-25860952D02*
X43020952Y-25670476D01*
X43163809Y-25860952D01*
X58161428Y-53701904D02*
X58618571Y-53701904D01*
X58389999Y-54501904D02*
X58389999Y-53701904D01*
X58885237Y-54501904D02*
X58885237Y-53701904D01*
X59151904Y-54273333D01*
X59418571Y-53701904D01*
X59418571Y-54501904D01*
X59761428Y-54463809D02*
X59875714Y-54501904D01*
X60066190Y-54501904D01*
X60142380Y-54463809D01*
X60180475Y-54425714D01*
X60218571Y-54349523D01*
X60218571Y-54273333D01*
X60180475Y-54197142D01*
X60142380Y-54159047D01*
X60066190Y-54120952D01*
X59913809Y-54082857D01*
X59837618Y-54044761D01*
X59799523Y-54006666D01*
X59761428Y-53930476D01*
X59761428Y-53854285D01*
X59799523Y-53778095D01*
X59837618Y-53740000D01*
X59913809Y-53701904D01*
X60104285Y-53701904D01*
X60218571Y-53740000D01*
X58161428Y-54958570D02*
X58618571Y-54958570D01*
X58390000Y-55758570D02*
X58390000Y-54958570D01*
X59342380Y-55682380D02*
X59304285Y-55720475D01*
X59190000Y-55758570D01*
X59113809Y-55758570D01*
X58999523Y-55720475D01*
X58923333Y-55644285D01*
X58885238Y-55568094D01*
X58847142Y-55415713D01*
X58847142Y-55301427D01*
X58885238Y-55149046D01*
X58923333Y-55072856D01*
X58999523Y-54996666D01*
X59113809Y-54958570D01*
X59190000Y-54958570D01*
X59304285Y-54996666D01*
X59342380Y-55034761D01*
X59685238Y-55758570D02*
X59685238Y-54958570D01*
X60142380Y-55758570D02*
X59799523Y-55301427D01*
X60142380Y-54958570D02*
X59685238Y-55415713D01*
X58161427Y-56215236D02*
X58618570Y-56215236D01*
X58389999Y-57015236D02*
X58389999Y-56215236D01*
X58885237Y-57015236D02*
X58885237Y-56215236D01*
X59075713Y-56215236D01*
X59189999Y-56253332D01*
X59266189Y-56329522D01*
X59304285Y-56405712D01*
X59342380Y-56558093D01*
X59342380Y-56672379D01*
X59304285Y-56824760D01*
X59266189Y-56900951D01*
X59189999Y-56977141D01*
X59075713Y-57015236D01*
X58885237Y-57015236D01*
X59837618Y-56215236D02*
X59989999Y-56215236D01*
X60066189Y-56253332D01*
X60142380Y-56329522D01*
X60180475Y-56481903D01*
X60180475Y-56748570D01*
X60142380Y-56900951D01*
X60066189Y-56977141D01*
X59989999Y-57015236D01*
X59837618Y-57015236D01*
X59761427Y-56977141D01*
X59685237Y-56900951D01*
X59647142Y-56748570D01*
X59647142Y-56481903D01*
X59685237Y-56329522D01*
X59761427Y-56253332D01*
X59837618Y-56215236D01*
X58161428Y-57471902D02*
X58618571Y-57471902D01*
X58389999Y-58271902D02*
X58389999Y-57471902D01*
X58885237Y-58271902D02*
X58885237Y-57471902D01*
X59075714Y-57471902D01*
X59189999Y-57509998D01*
X59266190Y-57586188D01*
X59304285Y-57662378D01*
X59342380Y-57814759D01*
X59342380Y-57929045D01*
X59304285Y-58081426D01*
X59266190Y-58157617D01*
X59189999Y-58233807D01*
X59075714Y-58271902D01*
X58885237Y-58271902D01*
X59685237Y-58271902D02*
X59685237Y-57471902D01*
X58275714Y-58995235D02*
X58275714Y-59528568D01*
X58275714Y-59071425D02*
X58313809Y-59033330D01*
X58389999Y-58995235D01*
X58504285Y-58995235D01*
X58580476Y-59033330D01*
X58618571Y-59109521D01*
X58618571Y-59528568D01*
X59456666Y-59528568D02*
X59189999Y-59147616D01*
X58999523Y-59528568D02*
X58999523Y-58728568D01*
X59304285Y-58728568D01*
X59380476Y-58766664D01*
X59418571Y-58804759D01*
X59456666Y-58880949D01*
X59456666Y-58995235D01*
X59418571Y-59071425D01*
X59380476Y-59109521D01*
X59304285Y-59147616D01*
X58999523Y-59147616D01*
X59761428Y-59490473D02*
X59875714Y-59528568D01*
X60066190Y-59528568D01*
X60142380Y-59490473D01*
X60180476Y-59452378D01*
X60218571Y-59376187D01*
X60218571Y-59299997D01*
X60180476Y-59223806D01*
X60142380Y-59185711D01*
X60066190Y-59147616D01*
X59913809Y-59109521D01*
X59837618Y-59071425D01*
X59799523Y-59033330D01*
X59761428Y-58957140D01*
X59761428Y-58880949D01*
X59799523Y-58804759D01*
X59837618Y-58766664D01*
X59913809Y-58728568D01*
X60104285Y-58728568D01*
X60218571Y-58766664D01*
X60447142Y-58728568D02*
X60904285Y-58728568D01*
X60675714Y-59528568D02*
X60675714Y-58728568D01*
X58275714Y-60785234D02*
X58275714Y-59985234D01*
X58809047Y-59985234D02*
X58961428Y-59985234D01*
X59037618Y-60023330D01*
X59113809Y-60099520D01*
X59151904Y-60251901D01*
X59151904Y-60518568D01*
X59113809Y-60670949D01*
X59037618Y-60747139D01*
X58961428Y-60785234D01*
X58809047Y-60785234D01*
X58732856Y-60747139D01*
X58656666Y-60670949D01*
X58618571Y-60518568D01*
X58618571Y-60251901D01*
X58656666Y-60099520D01*
X58732856Y-60023330D01*
X58809047Y-59985234D01*
X59647142Y-59985234D02*
X59723333Y-59985234D01*
X59799523Y-60023330D01*
X59837618Y-60061425D01*
X59875714Y-60137615D01*
X59913809Y-60289996D01*
X59913809Y-60480472D01*
X59875714Y-60632853D01*
X59837618Y-60709044D01*
X59799523Y-60747139D01*
X59723333Y-60785234D01*
X59647142Y-60785234D01*
X59570952Y-60747139D01*
X59532856Y-60709044D01*
X59494761Y-60632853D01*
X59456666Y-60480472D01*
X59456666Y-60289996D01*
X59494761Y-60137615D01*
X59532856Y-60061425D01*
X59570952Y-60023330D01*
X59647142Y-59985234D01*
X58161427Y-61241900D02*
X58428094Y-62041900D01*
X58694761Y-61241900D01*
X58847142Y-61241900D02*
X59304284Y-61241900D01*
X59075713Y-62041900D02*
X59075713Y-61241900D01*
X59570951Y-62041900D02*
X59570951Y-61508567D01*
X59570951Y-61660948D02*
X59609046Y-61584757D01*
X59647142Y-61546662D01*
X59723332Y-61508567D01*
X59799523Y-61508567D01*
X60370951Y-62003805D02*
X60294761Y-62041900D01*
X60142380Y-62041900D01*
X60066189Y-62003805D01*
X60028094Y-61927615D01*
X60028094Y-61622853D01*
X60066189Y-61546662D01*
X60142380Y-61508567D01*
X60294761Y-61508567D01*
X60370951Y-61546662D01*
X60409046Y-61622853D01*
X60409046Y-61699043D01*
X60028094Y-61775234D01*
X60637618Y-61508567D02*
X60942380Y-61508567D01*
X60751904Y-62041900D02*
X60751904Y-61356186D01*
X60789999Y-61279996D01*
X60866189Y-61241900D01*
X60942380Y-61241900D01*
X58732857Y-63298566D02*
X58466190Y-62917614D01*
X58275714Y-63298566D02*
X58275714Y-62498566D01*
X58580476Y-62498566D01*
X58656666Y-62536662D01*
X58694762Y-62574757D01*
X58732857Y-62650947D01*
X58732857Y-62765233D01*
X58694762Y-62841423D01*
X58656666Y-62879519D01*
X58580476Y-62917614D01*
X58275714Y-62917614D01*
X58999523Y-62498566D02*
X59532857Y-63298566D01*
X59532857Y-62498566D02*
X58999523Y-63298566D01*
X59837619Y-63298566D02*
X59837619Y-62498566D01*
X60028095Y-62498566D01*
X60142381Y-62536662D01*
X60218571Y-62612852D01*
X60256666Y-62689042D01*
X60294762Y-62841423D01*
X60294762Y-62955709D01*
X60256666Y-63108090D01*
X60218571Y-63184281D01*
X60142381Y-63260471D01*
X60028095Y-63298566D01*
X59837619Y-63298566D01*
X60790000Y-62498566D02*
X60866190Y-62498566D01*
X60942381Y-62536662D01*
X60980476Y-62574757D01*
X61018571Y-62650947D01*
X61056666Y-62803328D01*
X61056666Y-62993804D01*
X61018571Y-63146185D01*
X60980476Y-63222376D01*
X60942381Y-63260471D01*
X60866190Y-63298566D01*
X60790000Y-63298566D01*
X60713809Y-63260471D01*
X60675714Y-63222376D01*
X60637619Y-63146185D01*
X60599523Y-62993804D01*
X60599523Y-62803328D01*
X60637619Y-62650947D01*
X60675714Y-62574757D01*
X60713809Y-62536662D01*
X60790000Y-62498566D01*
X58161427Y-63755232D02*
X58618570Y-63755232D01*
X58389999Y-64555232D02*
X58389999Y-63755232D01*
X58809046Y-63755232D02*
X59342380Y-64555232D01*
X59342380Y-63755232D02*
X58809046Y-64555232D01*
X59647142Y-64555232D02*
X59647142Y-63755232D01*
X59837618Y-63755232D01*
X59951904Y-63793328D01*
X60028094Y-63869518D01*
X60066189Y-63945708D01*
X60104284Y-64098089D01*
X60104284Y-64212375D01*
X60066189Y-64364756D01*
X60028094Y-64440947D01*
X59951904Y-64517137D01*
X59837618Y-64555232D01*
X59647142Y-64555232D01*
X60599523Y-63755232D02*
X60675713Y-63755232D01*
X60751904Y-63793328D01*
X60789999Y-63831423D01*
X60828094Y-63907613D01*
X60866189Y-64059994D01*
X60866189Y-64250470D01*
X60828094Y-64402851D01*
X60789999Y-64479042D01*
X60751904Y-64517137D01*
X60675713Y-64555232D01*
X60599523Y-64555232D01*
X60523332Y-64517137D01*
X60485237Y-64479042D01*
X60447142Y-64402851D01*
X60409046Y-64250470D01*
X60409046Y-64059994D01*
X60447142Y-63907613D01*
X60485237Y-63831423D01*
X60523332Y-63793328D01*
X60599523Y-63755232D01*
X58275714Y-65278565D02*
X58275714Y-65811898D01*
X58275714Y-65354755D02*
X58313809Y-65316660D01*
X58390000Y-65278565D01*
X58504285Y-65278565D01*
X58580476Y-65316660D01*
X58618571Y-65392851D01*
X58618571Y-65811898D01*
X59342380Y-65773803D02*
X59266190Y-65811898D01*
X59113809Y-65811898D01*
X59037619Y-65773803D01*
X58999523Y-65735708D01*
X58961428Y-65659517D01*
X58961428Y-65430946D01*
X58999523Y-65354755D01*
X59037619Y-65316660D01*
X59113809Y-65278565D01*
X59266190Y-65278565D01*
X59342380Y-65316660D01*
X50250000Y-61660571D02*
X50250000Y-62193904D01*
X50250000Y-61736761D02*
X50288095Y-61698666D01*
X50364286Y-61660571D01*
X50478571Y-61660571D01*
X50554762Y-61698666D01*
X50592857Y-61774857D01*
X50592857Y-62193904D01*
X51316666Y-62155809D02*
X51240476Y-62193904D01*
X51088095Y-62193904D01*
X51011905Y-62155809D01*
X50973809Y-62117714D01*
X50935714Y-62041523D01*
X50935714Y-61812952D01*
X50973809Y-61736761D01*
X51011905Y-61698666D01*
X51088095Y-61660571D01*
X51240476Y-61660571D01*
X51316666Y-61698666D01*
X50225714Y-60374571D02*
X50225714Y-60907904D01*
X50225714Y-60450761D02*
X50263809Y-60412666D01*
X50340000Y-60374571D01*
X50454285Y-60374571D01*
X50530476Y-60412666D01*
X50568571Y-60488857D01*
X50568571Y-60907904D01*
X51292380Y-60869809D02*
X51216190Y-60907904D01*
X51063809Y-60907904D01*
X50987619Y-60869809D01*
X50949523Y-60831714D01*
X50911428Y-60755523D01*
X50911428Y-60526952D01*
X50949523Y-60450761D01*
X50987619Y-60412666D01*
X51063809Y-60374571D01*
X51216190Y-60374571D01*
X51292380Y-60412666D01*
X49640476Y-65290000D02*
X49564285Y-65251904D01*
X49450000Y-65251904D01*
X49335714Y-65290000D01*
X49259523Y-65366190D01*
X49221428Y-65442380D01*
X49183333Y-65594761D01*
X49183333Y-65709047D01*
X49221428Y-65861428D01*
X49259523Y-65937619D01*
X49335714Y-66013809D01*
X49450000Y-66051904D01*
X49526190Y-66051904D01*
X49640476Y-66013809D01*
X49678571Y-65975714D01*
X49678571Y-65709047D01*
X49526190Y-65709047D01*
X50021428Y-66051904D02*
X50021428Y-65251904D01*
X50478571Y-66051904D01*
X50478571Y-65251904D01*
X50859523Y-66051904D02*
X50859523Y-65251904D01*
X51050000Y-65251904D01*
X51164285Y-65290000D01*
X51240476Y-65366190D01*
X51278571Y-65442380D01*
X51316666Y-65594761D01*
X51316666Y-65709047D01*
X51278571Y-65861428D01*
X51240476Y-65937619D01*
X51164285Y-66013809D01*
X51050000Y-66051904D01*
X50859523Y-66051904D01*
X49640476Y-64004000D02*
X49564285Y-63965904D01*
X49450000Y-63965904D01*
X49335714Y-64004000D01*
X49259523Y-64080190D01*
X49221428Y-64156380D01*
X49183333Y-64308761D01*
X49183333Y-64423047D01*
X49221428Y-64575428D01*
X49259523Y-64651619D01*
X49335714Y-64727809D01*
X49450000Y-64765904D01*
X49526190Y-64765904D01*
X49640476Y-64727809D01*
X49678571Y-64689714D01*
X49678571Y-64423047D01*
X49526190Y-64423047D01*
X50021428Y-64765904D02*
X50021428Y-63965904D01*
X50478571Y-64765904D01*
X50478571Y-63965904D01*
X50859523Y-64765904D02*
X50859523Y-63965904D01*
X51050000Y-63965904D01*
X51164285Y-64004000D01*
X51240476Y-64080190D01*
X51278571Y-64156380D01*
X51316666Y-64308761D01*
X51316666Y-64423047D01*
X51278571Y-64575428D01*
X51240476Y-64651619D01*
X51164285Y-64727809D01*
X51050000Y-64765904D01*
X50859523Y-64765904D01*
X49640476Y-62718000D02*
X49564285Y-62679904D01*
X49450000Y-62679904D01*
X49335714Y-62718000D01*
X49259523Y-62794190D01*
X49221428Y-62870380D01*
X49183333Y-63022761D01*
X49183333Y-63137047D01*
X49221428Y-63289428D01*
X49259523Y-63365619D01*
X49335714Y-63441809D01*
X49450000Y-63479904D01*
X49526190Y-63479904D01*
X49640476Y-63441809D01*
X49678571Y-63403714D01*
X49678571Y-63137047D01*
X49526190Y-63137047D01*
X50021428Y-63479904D02*
X50021428Y-62679904D01*
X50478571Y-63479904D01*
X50478571Y-62679904D01*
X50859523Y-63479904D02*
X50859523Y-62679904D01*
X51050000Y-62679904D01*
X51164285Y-62718000D01*
X51240476Y-62794190D01*
X51278571Y-62870380D01*
X51316666Y-63022761D01*
X51316666Y-63137047D01*
X51278571Y-63289428D01*
X51240476Y-63365619D01*
X51164285Y-63441809D01*
X51050000Y-63479904D01*
X50859523Y-63479904D01*
X49831904Y-59621904D02*
X49565238Y-59240952D01*
X49374761Y-59621904D02*
X49374761Y-58821904D01*
X49679523Y-58821904D01*
X49755714Y-58860000D01*
X49793809Y-58898095D01*
X49831904Y-58974285D01*
X49831904Y-59088571D01*
X49793809Y-59164761D01*
X49755714Y-59202857D01*
X49679523Y-59240952D01*
X49374761Y-59240952D01*
X50136666Y-59583809D02*
X50250952Y-59621904D01*
X50441428Y-59621904D01*
X50517619Y-59583809D01*
X50555714Y-59545714D01*
X50593809Y-59469523D01*
X50593809Y-59393333D01*
X50555714Y-59317142D01*
X50517619Y-59279047D01*
X50441428Y-59240952D01*
X50289047Y-59202857D01*
X50212857Y-59164761D01*
X50174761Y-59126666D01*
X50136666Y-59050476D01*
X50136666Y-58974285D01*
X50174761Y-58898095D01*
X50212857Y-58860000D01*
X50289047Y-58821904D01*
X50479523Y-58821904D01*
X50593809Y-58860000D01*
X50822380Y-58821904D02*
X51279523Y-58821904D01*
X51050952Y-59621904D02*
X51050952Y-58821904D01*
X49640476Y-56250000D02*
X49564285Y-56211904D01*
X49450000Y-56211904D01*
X49335714Y-56250000D01*
X49259523Y-56326190D01*
X49221428Y-56402380D01*
X49183333Y-56554761D01*
X49183333Y-56669047D01*
X49221428Y-56821428D01*
X49259523Y-56897619D01*
X49335714Y-56973809D01*
X49450000Y-57011904D01*
X49526190Y-57011904D01*
X49640476Y-56973809D01*
X49678571Y-56935714D01*
X49678571Y-56669047D01*
X49526190Y-56669047D01*
X50021428Y-57011904D02*
X50021428Y-56211904D01*
X50478571Y-57011904D01*
X50478571Y-56211904D01*
X50859523Y-57011904D02*
X50859523Y-56211904D01*
X51050000Y-56211904D01*
X51164285Y-56250000D01*
X51240476Y-56326190D01*
X51278571Y-56402380D01*
X51316666Y-56554761D01*
X51316666Y-56669047D01*
X51278571Y-56821428D01*
X51240476Y-56897619D01*
X51164285Y-56973809D01*
X51050000Y-57011904D01*
X50859523Y-57011904D01*
X49640476Y-54990000D02*
X49564285Y-54951904D01*
X49450000Y-54951904D01*
X49335714Y-54990000D01*
X49259523Y-55066190D01*
X49221428Y-55142380D01*
X49183333Y-55294761D01*
X49183333Y-55409047D01*
X49221428Y-55561428D01*
X49259523Y-55637619D01*
X49335714Y-55713809D01*
X49450000Y-55751904D01*
X49526190Y-55751904D01*
X49640476Y-55713809D01*
X49678571Y-55675714D01*
X49678571Y-55409047D01*
X49526190Y-55409047D01*
X50021428Y-55751904D02*
X50021428Y-54951904D01*
X50478571Y-55751904D01*
X50478571Y-54951904D01*
X50859523Y-55751904D02*
X50859523Y-54951904D01*
X51050000Y-54951904D01*
X51164285Y-54990000D01*
X51240476Y-55066190D01*
X51278571Y-55142380D01*
X51316666Y-55294761D01*
X51316666Y-55409047D01*
X51278571Y-55561428D01*
X51240476Y-55637619D01*
X51164285Y-55713809D01*
X51050000Y-55751904D01*
X50859523Y-55751904D01*
X50250000Y-53671904D02*
X50516667Y-54471904D01*
X50783333Y-53671904D01*
X50935714Y-53671904D02*
X51392857Y-53671904D01*
X51164286Y-54471904D02*
X51164286Y-53671904D01*
D11*
X61432380Y-66484285D02*
X61432380Y-65798571D01*
X62432380Y-66141428D02*
X61432380Y-66141428D01*
X61432380Y-65170000D02*
X61432380Y-64941428D01*
X61480000Y-64827142D01*
X61575238Y-64712857D01*
X61765714Y-64655714D01*
X62099047Y-64655714D01*
X62289523Y-64712857D01*
X62384761Y-64827142D01*
X62432380Y-64941428D01*
X62432380Y-65170000D01*
X62384761Y-65284285D01*
X62289523Y-65398571D01*
X62099047Y-65455714D01*
X61765714Y-65455714D01*
X61575238Y-65398571D01*
X61480000Y-65284285D01*
X61432380Y-65170000D01*
X61908571Y-63227142D02*
X61908571Y-62827142D01*
X62432380Y-62655714D02*
X62432380Y-63227142D01*
X61432380Y-63227142D01*
X61432380Y-62655714D01*
X62384761Y-62198571D02*
X62432380Y-62027142D01*
X62432380Y-61741428D01*
X62384761Y-61627142D01*
X62337142Y-61570000D01*
X62241904Y-61512857D01*
X62146666Y-61512857D01*
X62051428Y-61570000D01*
X62003809Y-61627142D01*
X61956190Y-61741428D01*
X61908571Y-61970000D01*
X61860952Y-62084285D01*
X61813333Y-62141428D01*
X61718095Y-62198571D01*
X61622857Y-62198571D01*
X61527619Y-62141428D01*
X61480000Y-62084285D01*
X61432380Y-61970000D01*
X61432380Y-61684285D01*
X61480000Y-61512857D01*
X62432380Y-60998571D02*
X61432380Y-60998571D01*
X61432380Y-60541428D01*
X61480000Y-60427142D01*
X61527619Y-60370000D01*
X61622857Y-60312857D01*
X61765714Y-60312857D01*
X61860952Y-60370000D01*
X61908571Y-60427142D01*
X61956190Y-60541428D01*
X61956190Y-60998571D01*
X61432380Y-59912857D02*
X61432380Y-59170000D01*
X61813333Y-59570000D01*
X61813333Y-59398571D01*
X61860952Y-59284285D01*
X61908571Y-59227142D01*
X62003809Y-59170000D01*
X62241904Y-59170000D01*
X62337142Y-59227142D01*
X62384761Y-59284285D01*
X62432380Y-59398571D01*
X62432380Y-59741428D01*
X62384761Y-59855714D01*
X62337142Y-59912857D01*
X61527619Y-58712857D02*
X61480000Y-58655714D01*
X61432380Y-58541428D01*
X61432380Y-58255714D01*
X61480000Y-58141428D01*
X61527619Y-58084285D01*
X61622857Y-58027142D01*
X61718095Y-58027142D01*
X61860952Y-58084285D01*
X62432380Y-58770000D01*
X62432380Y-58027142D01*
X61432380Y-56770000D02*
X61432380Y-56084285D01*
X62432380Y-56427142D02*
X61432380Y-56427142D01*
X62146666Y-55741428D02*
X62146666Y-55170000D01*
X62432380Y-55855714D02*
X61432380Y-55455714D01*
X62432380Y-55055714D01*
X62432380Y-53970000D02*
X61956190Y-54370000D01*
X62432380Y-54655714D02*
X61432380Y-54655714D01*
X61432380Y-54198571D01*
X61480000Y-54084285D01*
X61527619Y-54027142D01*
X61622857Y-53970000D01*
X61765714Y-53970000D01*
X61860952Y-54027142D01*
X61908571Y-54084285D01*
X61956190Y-54198571D01*
X61956190Y-54655714D01*
X61480000Y-52827142D02*
X61432380Y-52941428D01*
X61432380Y-53112857D01*
X61480000Y-53284285D01*
X61575238Y-53398571D01*
X61670476Y-53455714D01*
X61860952Y-53512857D01*
X62003809Y-53512857D01*
X62194285Y-53455714D01*
X62289523Y-53398571D01*
X62384761Y-53284285D01*
X62432380Y-53112857D01*
X62432380Y-52998571D01*
X62384761Y-52827142D01*
X62337142Y-52770000D01*
X62003809Y-52770000D01*
X62003809Y-52998571D01*
X61908571Y-52255714D02*
X61908571Y-51855714D01*
X62432380Y-51684285D02*
X62432380Y-52255714D01*
X61432380Y-52255714D01*
X61432380Y-51684285D01*
X61432380Y-51341428D02*
X61432380Y-50655714D01*
X62432380Y-50998571D02*
X61432380Y-50998571D01*
D13*
G36*
X58240000Y-33730000D02*
G01*
X58240000Y-37130000D01*
X56510000Y-37120000D01*
X56510000Y-33720000D01*
X58240000Y-33730000D01*
G37*
X58240000Y-33730000D02*
X58240000Y-37130000D01*
X56510000Y-37120000D01*
X56510000Y-33720000D01*
X58240000Y-33730000D01*
D10*
X60214285Y-45050000D02*
X60214285Y-45550000D01*
X60842857Y-45550000D02*
X59642857Y-45550000D01*
X59642857Y-44835714D01*
X60842857Y-43407142D02*
X60271428Y-43907142D01*
X60842857Y-44264285D02*
X59642857Y-44264285D01*
X59642857Y-43692857D01*
X59700000Y-43550000D01*
X59757142Y-43478571D01*
X59871428Y-43407142D01*
X60042857Y-43407142D01*
X60157142Y-43478571D01*
X60214285Y-43550000D01*
X60271428Y-43692857D01*
X60271428Y-44264285D01*
X59642857Y-42478571D02*
X59642857Y-42192857D01*
X59700000Y-42050000D01*
X59814285Y-41907142D01*
X60042857Y-41835714D01*
X60442857Y-41835714D01*
X60671428Y-41907142D01*
X60785714Y-42050000D01*
X60842857Y-42192857D01*
X60842857Y-42478571D01*
X60785714Y-42621428D01*
X60671428Y-42764285D01*
X60442857Y-42835714D01*
X60042857Y-42835714D01*
X59814285Y-42764285D01*
X59700000Y-42621428D01*
X59642857Y-42478571D01*
X60842857Y-41192857D02*
X59642857Y-41192857D01*
X60500000Y-40692857D01*
X59642857Y-40192857D01*
X60842857Y-40192857D01*
X59642857Y-37907142D02*
X60500000Y-37907142D01*
X60671428Y-37978571D01*
X60785714Y-38121428D01*
X60842857Y-38335714D01*
X60842857Y-38478571D01*
X59642857Y-37407142D02*
X59642857Y-36550000D01*
X60842857Y-36978571D02*
X59642857Y-36978571D01*
X60500000Y-36121428D02*
X60500000Y-35407142D01*
X60842857Y-36264285D02*
X59642857Y-35764285D01*
X60842857Y-35264285D01*
X59700000Y-33978571D02*
X59642857Y-34121428D01*
X59642857Y-34335714D01*
X59700000Y-34550000D01*
X59814285Y-34692857D01*
X59928571Y-34764285D01*
X60157142Y-34835714D01*
X60328571Y-34835714D01*
X60557142Y-34764285D01*
X60671428Y-34692857D01*
X60785714Y-34550000D01*
X60842857Y-34335714D01*
X60842857Y-34192857D01*
X60785714Y-33978571D01*
X60728571Y-33907142D01*
X60328571Y-33907142D01*
X60328571Y-34192857D01*
X60842857Y-32121428D02*
X59642857Y-32121428D01*
X59642857Y-31550000D01*
X59700000Y-31407142D01*
X59757142Y-31335714D01*
X59871428Y-31264285D01*
X60042857Y-31264285D01*
X60157142Y-31335714D01*
X60214285Y-31407142D01*
X60271428Y-31550000D01*
X60271428Y-32121428D01*
X60842857Y-29764285D02*
X60271428Y-30264285D01*
X60842857Y-30621428D02*
X59642857Y-30621428D01*
X59642857Y-30050000D01*
X59700000Y-29907142D01*
X59757142Y-29835714D01*
X59871428Y-29764285D01*
X60042857Y-29764285D01*
X60157142Y-29835714D01*
X60214285Y-29907142D01*
X60271428Y-30050000D01*
X60271428Y-30621428D01*
X59642857Y-28835714D02*
X59642857Y-28550000D01*
X59700000Y-28407142D01*
X59814285Y-28264285D01*
X60042857Y-28192857D01*
X60442857Y-28192857D01*
X60671428Y-28264285D01*
X60785714Y-28407142D01*
X60842857Y-28550000D01*
X60842857Y-28835714D01*
X60785714Y-28978571D01*
X60671428Y-29121428D01*
X60442857Y-29192857D01*
X60042857Y-29192857D01*
X59814285Y-29121428D01*
X59700000Y-28978571D01*
X59642857Y-28835714D01*
X59700000Y-26764285D02*
X59642857Y-26907142D01*
X59642857Y-27121428D01*
X59700000Y-27335714D01*
X59814285Y-27478571D01*
X59928571Y-27550000D01*
X60157142Y-27621428D01*
X60328571Y-27621428D01*
X60557142Y-27550000D01*
X60671428Y-27478571D01*
X60785714Y-27335714D01*
X60842857Y-27121428D01*
X60842857Y-26978571D01*
X60785714Y-26764285D01*
X60728571Y-26692857D01*
X60328571Y-26692857D01*
X60328571Y-26978571D01*
X60728571Y-26050000D02*
X60785714Y-25978571D01*
X60842857Y-26050000D01*
X60785714Y-26121428D01*
X60728571Y-26050000D01*
X60842857Y-26050000D01*
X31369047Y-23892380D02*
X31369047Y-24130476D01*
X31130952Y-24035238D02*
X31369047Y-24130476D01*
X31607142Y-24035238D01*
X31226190Y-24320952D02*
X31369047Y-24130476D01*
X31511904Y-24320952D01*
X32130952Y-24892380D02*
X32035714Y-24844761D01*
X31988095Y-24797142D01*
X31940476Y-24701904D01*
X31940476Y-24416190D01*
X31988095Y-24320952D01*
X32035714Y-24273333D01*
X32130952Y-24225714D01*
X32273809Y-24225714D01*
X32369047Y-24273333D01*
X32416666Y-24320952D01*
X32464285Y-24416190D01*
X32464285Y-24701904D01*
X32416666Y-24797142D01*
X32369047Y-24844761D01*
X32273809Y-24892380D01*
X32130952Y-24892380D01*
X32892857Y-24892380D02*
X32892857Y-24225714D01*
X32892857Y-24416190D02*
X32940476Y-24320952D01*
X32988095Y-24273333D01*
X33083333Y-24225714D01*
X33178571Y-24225714D01*
X34130952Y-24225714D02*
X34511904Y-24225714D01*
X34273809Y-24892380D02*
X34273809Y-24035238D01*
X34321428Y-23940000D01*
X34416666Y-23892380D01*
X34511904Y-23892380D01*
X34845238Y-24892380D02*
X34845238Y-24225714D01*
X34845238Y-23892380D02*
X34797619Y-23940000D01*
X34845238Y-23987619D01*
X34892857Y-23940000D01*
X34845238Y-23892380D01*
X34845238Y-23987619D01*
X35464285Y-24892380D02*
X35369047Y-24844761D01*
X35321428Y-24749523D01*
X35321428Y-23892380D01*
X35988095Y-24892380D02*
X35892857Y-24844761D01*
X35845238Y-24749523D01*
X35845238Y-23892380D01*
X37083333Y-24844761D02*
X37226190Y-24892380D01*
X37464285Y-24892380D01*
X37559523Y-24844761D01*
X37607142Y-24797142D01*
X37654761Y-24701904D01*
X37654761Y-24606666D01*
X37607142Y-24511428D01*
X37559523Y-24463809D01*
X37464285Y-24416190D01*
X37273809Y-24368571D01*
X37178571Y-24320952D01*
X37130952Y-24273333D01*
X37083333Y-24178095D01*
X37083333Y-24082857D01*
X37130952Y-23987619D01*
X37178571Y-23940000D01*
X37273809Y-23892380D01*
X37511904Y-23892380D01*
X37654761Y-23940000D01*
X38083333Y-24892380D02*
X38083333Y-23892380D01*
X38416666Y-24606666D01*
X38750000Y-23892380D01*
X38750000Y-24892380D01*
X39083333Y-23892380D02*
X39654761Y-23892380D01*
X39369047Y-24892380D02*
X39369047Y-23892380D01*
X40750000Y-24892380D02*
X40750000Y-23892380D01*
X40750000Y-24273333D02*
X40845238Y-24225714D01*
X41035714Y-24225714D01*
X41130952Y-24273333D01*
X41178571Y-24320952D01*
X41226190Y-24416190D01*
X41226190Y-24701904D01*
X41178571Y-24797142D01*
X41130952Y-24844761D01*
X41035714Y-24892380D01*
X40845238Y-24892380D01*
X40750000Y-24844761D01*
X42035714Y-24844761D02*
X41940476Y-24892380D01*
X41750000Y-24892380D01*
X41654761Y-24844761D01*
X41607142Y-24749523D01*
X41607142Y-24368571D01*
X41654761Y-24273333D01*
X41750000Y-24225714D01*
X41940476Y-24225714D01*
X42035714Y-24273333D01*
X42083333Y-24368571D01*
X42083333Y-24463809D01*
X41607142Y-24559047D01*
X42654761Y-24892380D02*
X42559523Y-24844761D01*
X42511904Y-24749523D01*
X42511904Y-23892380D01*
X43178571Y-24892380D02*
X43083333Y-24844761D01*
X43035714Y-24797142D01*
X42988095Y-24701904D01*
X42988095Y-24416190D01*
X43035714Y-24320952D01*
X43083333Y-24273333D01*
X43178571Y-24225714D01*
X43321428Y-24225714D01*
X43416666Y-24273333D01*
X43464285Y-24320952D01*
X43511904Y-24416190D01*
X43511904Y-24701904D01*
X43464285Y-24797142D01*
X43416666Y-24844761D01*
X43321428Y-24892380D01*
X43178571Y-24892380D01*
X43845238Y-24225714D02*
X44035714Y-24892380D01*
X44226190Y-24416190D01*
X44416666Y-24892380D01*
X44607142Y-24225714D01*
X45130952Y-23892380D02*
X45130952Y-24130476D01*
X44892857Y-24035238D02*
X45130952Y-24130476D01*
X45369047Y-24035238D01*
X44988095Y-24320952D02*
X45130952Y-24130476D01*
X45273809Y-24320952D01*
D12*
X47060000Y-27870000D02*
X47490000Y-27870000D01*
D11*
X47270000Y-22740000D02*
X46380000Y-22740000D01*
D12*
X47960000Y-27450000D02*
X47270000Y-28140000D01*
X46950000Y-27790000D02*
X47590000Y-27790000D01*
X47270000Y-28140000D02*
X46580000Y-27450000D01*
X46580000Y-27450000D02*
X47960000Y-27450000D01*
X46860000Y-27670000D02*
X47670000Y-27670000D01*
D11*
X47270000Y-22740000D02*
X47270000Y-27610000D01*
D12*
X47130000Y-27960000D02*
X47420000Y-27960000D01*
X46740000Y-27560000D02*
X47820000Y-27560000D01*
X47200000Y-28040000D02*
X47330000Y-28040000D01*
X29450000Y-28010000D02*
X29580000Y-28010000D01*
X29380000Y-27930000D02*
X29670000Y-27930000D01*
X29310000Y-27840000D02*
X29740000Y-27840000D01*
X29200000Y-27760000D02*
X29840000Y-27760000D01*
X29110000Y-27640000D02*
X29920000Y-27640000D01*
X28990000Y-27530000D02*
X30070000Y-27530000D01*
X30210000Y-27420000D02*
X29520000Y-28110000D01*
X28830000Y-27420000D02*
X30210000Y-27420000D01*
X29520000Y-28110000D02*
X28830000Y-27420000D01*
D11*
X29520000Y-22710000D02*
X29520000Y-27580000D01*
X30410000Y-22710000D02*
X29520000Y-22710000D01*
D12*
X30380000Y-26940000D02*
X45960000Y-26940000D01*
D11*
X30965714Y-22678571D02*
X31365714Y-22678571D01*
X31537142Y-23202380D02*
X30965714Y-23202380D01*
X30965714Y-22202380D01*
X31537142Y-22202380D01*
X31994285Y-23154761D02*
X32165714Y-23202380D01*
X32451428Y-23202380D01*
X32565714Y-23154761D01*
X32622857Y-23107142D01*
X32680000Y-23011904D01*
X32680000Y-22916666D01*
X32622857Y-22821428D01*
X32565714Y-22773809D01*
X32451428Y-22726190D01*
X32222857Y-22678571D01*
X32108571Y-22630952D01*
X32051428Y-22583333D01*
X31994285Y-22488095D01*
X31994285Y-22392857D01*
X32051428Y-22297619D01*
X32108571Y-22250000D01*
X32222857Y-22202380D01*
X32508571Y-22202380D01*
X32680000Y-22250000D01*
X33194285Y-23202380D02*
X33194285Y-22202380D01*
X33651428Y-22202380D01*
X33765714Y-22250000D01*
X33822857Y-22297619D01*
X33880000Y-22392857D01*
X33880000Y-22535714D01*
X33822857Y-22630952D01*
X33765714Y-22678571D01*
X33651428Y-22726190D01*
X33194285Y-22726190D01*
X34280000Y-22202380D02*
X35022857Y-22202380D01*
X34622857Y-22583333D01*
X34794285Y-22583333D01*
X34908571Y-22630952D01*
X34965714Y-22678571D01*
X35022857Y-22773809D01*
X35022857Y-23011904D01*
X34965714Y-23107142D01*
X34908571Y-23154761D01*
X34794285Y-23202380D01*
X34451428Y-23202380D01*
X34337142Y-23154761D01*
X34280000Y-23107142D01*
X35480000Y-22297619D02*
X35537142Y-22250000D01*
X35651428Y-22202380D01*
X35937142Y-22202380D01*
X36051428Y-22250000D01*
X36108571Y-22297619D01*
X36165714Y-22392857D01*
X36165714Y-22488095D01*
X36108571Y-22630952D01*
X35422857Y-23202380D01*
X36165714Y-23202380D01*
X36680000Y-22821428D02*
X37594285Y-22821428D01*
X38165714Y-23202380D02*
X38165714Y-22202380D01*
X38622857Y-22202380D01*
X38737142Y-22250000D01*
X38794285Y-22297619D01*
X38851428Y-22392857D01*
X38851428Y-22535714D01*
X38794285Y-22630952D01*
X38737142Y-22678571D01*
X38622857Y-22726190D01*
X38165714Y-22726190D01*
X39365714Y-23202380D02*
X39365714Y-22202380D01*
X40622857Y-23107142D02*
X40565714Y-23154761D01*
X40394285Y-23202380D01*
X40280000Y-23202380D01*
X40108571Y-23154761D01*
X39994285Y-23059523D01*
X39937142Y-22964285D01*
X39880000Y-22773809D01*
X39880000Y-22630952D01*
X39937142Y-22440476D01*
X39994285Y-22345238D01*
X40108571Y-22250000D01*
X40280000Y-22202380D01*
X40394285Y-22202380D01*
X40565714Y-22250000D01*
X40622857Y-22297619D01*
X41365714Y-22202380D02*
X41594285Y-22202380D01*
X41708571Y-22250000D01*
X41822857Y-22345238D01*
X41880000Y-22535714D01*
X41880000Y-22869047D01*
X41822857Y-23059523D01*
X41708571Y-23154761D01*
X41594285Y-23202380D01*
X41365714Y-23202380D01*
X41251428Y-23154761D01*
X41137142Y-23059523D01*
X41080000Y-22869047D01*
X41080000Y-22535714D01*
X41137142Y-22345238D01*
X41251428Y-22250000D01*
X41365714Y-22202380D01*
X42394285Y-22821428D02*
X43308571Y-22821428D01*
X43880000Y-23202380D02*
X43880000Y-22202380D01*
X44565714Y-23202380D02*
X44051428Y-22630952D01*
X44565714Y-22202380D02*
X43880000Y-22773809D01*
X45080000Y-23202380D02*
X45080000Y-22202380D01*
X45480000Y-22202380D02*
X46165714Y-22202380D01*
X45822857Y-23202380D02*
X45822857Y-22202380D01*
D12*
X27640000Y-73210000D02*
X27640000Y-21700000D01*
X48930000Y-73210000D02*
X27640000Y-73210000D01*
X48930000Y-21700000D02*
X48930000Y-73210000D01*
X27640000Y-21700000D02*
X48930000Y-21700000D01*
X40375000Y-46325000D02*
X40900000Y-46775000D01*
D10*
G36*
X50400000Y-57450000D02*
G01*
X50400000Y-58300000D01*
X51250000Y-58300000D01*
X51250000Y-57450000D01*
X50400000Y-57450000D01*
G37*
X50400000Y-57450000D02*
X50400000Y-58300000D01*
X51250000Y-58300000D01*
X51250000Y-57450000D01*
X50400000Y-57450000D01*
X54254000Y-66139000D02*
X54254000Y-53957000D01*
X55246000Y-66139000D02*
X54254000Y-66139000D01*
X55246000Y-53461000D02*
X55246000Y-66139000D01*
X54750000Y-53461000D02*
X55246000Y-53461000D01*
X54254000Y-53957000D02*
X54750000Y-53461000D01*
X56410000Y-70010000D02*
X56410000Y-71710000D01*
X55010000Y-71710000D02*
X55010000Y-70010000D01*
D14*
X57240000Y-68577500D02*
X57240000Y-68323500D01*
X57557500Y-68641000D02*
X56922500Y-68641000D01*
X57748000Y-69149000D02*
X56732000Y-69149000D01*
X57240000Y-68641000D02*
X56732000Y-69149000D01*
X57748000Y-69149000D02*
X57240000Y-68641000D01*
D12*
X56480000Y-69330000D02*
X56480000Y-71600000D01*
X58000000Y-69330000D02*
X56480000Y-69330000D01*
X58000000Y-71600000D02*
X58000000Y-69330000D01*
D15*
X41490000Y-32400000D02*
X39790000Y-32400000D01*
X41490000Y-28700000D02*
X39790000Y-28700000D01*
X38790000Y-31200000D02*
X38790000Y-29900000D01*
X42490000Y-31200000D02*
X42490000Y-29900000D01*
D10*
X40640000Y-28700000D02*
X40640000Y-30050000D01*
X40640000Y-30050000D02*
X40140000Y-30550000D01*
X40640000Y-30550000D02*
X40640000Y-32400000D01*
D15*
X35290000Y-32420000D02*
X33590000Y-32420000D01*
X35290000Y-28720000D02*
X33590000Y-28720000D01*
X32590000Y-31220000D02*
X32590000Y-29920000D01*
X36290000Y-31220000D02*
X36290000Y-29920000D01*
D10*
X34440000Y-28720000D02*
X34440000Y-30070000D01*
X34440000Y-30070000D02*
X33940000Y-30570000D01*
X34440000Y-30570000D02*
X34440000Y-32420000D01*
D12*
X40315000Y-51390000D02*
X39590000Y-51390000D01*
X44810000Y-56610000D02*
X44810000Y-55885000D01*
X44085000Y-56610000D02*
X44810000Y-56610000D01*
X39590000Y-56610000D02*
X39590000Y-55885000D01*
X40315000Y-56610000D02*
X39590000Y-56610000D01*
X44810000Y-51390000D02*
X44810000Y-52115000D01*
X44085000Y-51390000D02*
X44810000Y-51390000D01*
D16*
X31825000Y-44375000D02*
X31825000Y-47975000D01*
X38425000Y-44375000D02*
X31825000Y-44375000D01*
X38425000Y-47975000D02*
X38425000Y-44375000D01*
X31825000Y-47975000D02*
X38425000Y-47975000D01*
D10*
X37300000Y-60550000D02*
X35600000Y-60550000D01*
X35600000Y-59150000D02*
X37300000Y-59150000D01*
X35580000Y-57560000D02*
X37280000Y-57560000D01*
X37280000Y-58960000D02*
X35580000Y-58960000D01*
X44320000Y-58670000D02*
X42620000Y-58670000D01*
X42620000Y-57270000D02*
X44320000Y-57270000D01*
X37320000Y-57370000D02*
X35620000Y-57370000D01*
X35620000Y-55970000D02*
X37320000Y-55970000D01*
X44500000Y-40950000D02*
X44500000Y-42650000D01*
X43100000Y-42650000D02*
X43100000Y-40950000D01*
X39285000Y-49130000D02*
X39285000Y-47430000D01*
X40685000Y-47430000D02*
X40685000Y-49130000D01*
X43950000Y-46670000D02*
X43950000Y-44970000D01*
X45350000Y-44970000D02*
X45350000Y-46670000D01*
X43200000Y-38825000D02*
X43200000Y-37125000D01*
X44600000Y-37125000D02*
X44600000Y-38825000D01*
X40828333Y-49130000D02*
X40828333Y-47430000D01*
X42228333Y-47430000D02*
X42228333Y-49130000D01*
X42371666Y-49130000D02*
X42371666Y-47430000D01*
X43771666Y-47430000D02*
X43771666Y-49130000D01*
X40880000Y-33640000D02*
X40880000Y-35340000D01*
X39480000Y-35340000D02*
X39480000Y-33640000D01*
X34850000Y-33570000D02*
X34850000Y-35270000D01*
X33450000Y-35270000D02*
X33450000Y-33570000D01*
X31780000Y-67660000D02*
X31780000Y-65960000D01*
X33180000Y-65960000D02*
X33180000Y-67660000D01*
X39475180Y-45025240D02*
X39475180Y-44324200D01*
X39675840Y-45025240D02*
X39475180Y-45025240D01*
X42474820Y-45025240D02*
X42225900Y-45025240D01*
X42474820Y-44324200D02*
X42474820Y-45025240D01*
X39675840Y-45025240D02*
X39724100Y-45025240D01*
X42399820Y-38549760D02*
X42399820Y-39250800D01*
X42199160Y-38549760D02*
X42399820Y-38549760D01*
X39400180Y-38549760D02*
X39649100Y-38549760D01*
X39400180Y-39250800D02*
X39400180Y-38549760D01*
X42199160Y-38549760D02*
X42150900Y-38549760D01*
D13*
X54450000Y-72000000D02*
X49650000Y-72000000D01*
X54450000Y-69500000D02*
X54450000Y-72000000D01*
X49650000Y-69500000D02*
X54450000Y-69500000D01*
X49650000Y-72000000D02*
X49650000Y-69500000D01*
D12*
X56410000Y-48290000D02*
X55080000Y-48290000D01*
X56410000Y-46960000D02*
X56410000Y-48290000D01*
X53810000Y-48290000D02*
X51210000Y-48290000D01*
X53810000Y-45690000D02*
X53810000Y-48290000D01*
X56410000Y-45690000D02*
X53810000Y-45690000D01*
X51210000Y-48290000D02*
X51210000Y-22770000D01*
X56410000Y-45690000D02*
X56410000Y-22770000D01*
X56410000Y-22770000D02*
X51210000Y-22770000D01*
X29470000Y-28640000D02*
X30800000Y-28640000D01*
X30800000Y-28640000D02*
X30800000Y-29970000D01*
X30800000Y-31240000D02*
X30800000Y-71940000D01*
X28140000Y-71940000D02*
X30800000Y-71940000D01*
X28140000Y-31240000D02*
X28140000Y-71940000D01*
X28140000Y-31240000D02*
X30800000Y-31240000D01*
X47250000Y-28640000D02*
X48580000Y-28640000D01*
X48580000Y-28640000D02*
X48580000Y-29970000D01*
X48580000Y-31240000D02*
X48580000Y-71940000D01*
X45920000Y-71940000D02*
X48580000Y-71940000D01*
X45920000Y-31240000D02*
X45920000Y-71940000D01*
X45920000Y-31240000D02*
X48580000Y-31240000D01*
X36700000Y-68337500D02*
X36700000Y-68787500D01*
X36700000Y-68337500D02*
X37150000Y-68337500D01*
X42300000Y-68887500D02*
X41850000Y-68887500D01*
X42300000Y-70737500D02*
X42300000Y-68887500D01*
X34500000Y-73287500D02*
X34500000Y-73037500D01*
X42300000Y-73287500D02*
X42300000Y-73037500D01*
X34500000Y-70737500D02*
X34500000Y-68887500D01*
X34500000Y-68887500D02*
X34950000Y-68887500D01*
X42870000Y-63230000D02*
X42870000Y-60780000D01*
X39650000Y-61430000D02*
X39650000Y-63230000D01*
X38950000Y-66050000D02*
X36400000Y-66050000D01*
X38950000Y-64350000D02*
X36400000Y-64350000D01*
X38950000Y-66050000D02*
X38950000Y-64350000D01*
D14*
X32460000Y-72752500D02*
X32460000Y-73006500D01*
X32142500Y-72689000D02*
X32777500Y-72689000D01*
X31952000Y-72181000D02*
X32968000Y-72181000D01*
X32460000Y-72689000D02*
X32968000Y-72181000D01*
X31952000Y-72181000D02*
X32460000Y-72689000D01*
D12*
X33220000Y-72000000D02*
X33220000Y-69730000D01*
X31700000Y-72000000D02*
X33220000Y-72000000D01*
X31700000Y-69730000D02*
X31700000Y-72000000D01*
D10*
X36610000Y-55710000D02*
X36610000Y-54210000D01*
X36310000Y-54210000D02*
X36310000Y-55710000D01*
X41180000Y-34565000D02*
X42680000Y-34565000D01*
X42680000Y-34265000D02*
X41180000Y-34265000D01*
X35050000Y-34595000D02*
X36550000Y-34595000D01*
X36550000Y-34295000D02*
X35050000Y-34295000D01*
X36650000Y-52325000D02*
X36650000Y-50825000D01*
X36350000Y-50825000D02*
X36350000Y-52325000D01*
X33250000Y-52325000D02*
X33250000Y-50825000D01*
X32950000Y-50825000D02*
X32950000Y-52325000D01*
X54300000Y-52147142D02*
X54300000Y-52790000D01*
X54257142Y-52918571D01*
X54171428Y-53004285D01*
X54042857Y-53047142D01*
X53957142Y-53047142D01*
X55114285Y-52447142D02*
X55114285Y-53047142D01*
X54900000Y-52104285D02*
X54685714Y-52747142D01*
X55242857Y-52747142D01*
X55130000Y-73184047D02*
X54830000Y-72874523D01*
X54615714Y-73184047D02*
X54615714Y-72534047D01*
X54958571Y-72534047D01*
X55044285Y-72565000D01*
X55087142Y-72595952D01*
X55130000Y-72657857D01*
X55130000Y-72750714D01*
X55087142Y-72812619D01*
X55044285Y-72843571D01*
X54958571Y-72874523D01*
X54615714Y-72874523D01*
X55472857Y-72595952D02*
X55515714Y-72565000D01*
X55601428Y-72534047D01*
X55815714Y-72534047D01*
X55901428Y-72565000D01*
X55944285Y-72595952D01*
X55987142Y-72657857D01*
X55987142Y-72719761D01*
X55944285Y-72812619D01*
X55430000Y-73184047D01*
X55987142Y-73184047D01*
X57072857Y-73191733D02*
X56644285Y-73191733D01*
X56644285Y-72480533D01*
X57372857Y-72819200D02*
X57672857Y-72819200D01*
X57801428Y-73191733D02*
X57372857Y-73191733D01*
X57372857Y-72480533D01*
X57801428Y-72480533D01*
X58187142Y-73191733D02*
X58187142Y-72480533D01*
X58401428Y-72480533D01*
X58530000Y-72514400D01*
X58615714Y-72582133D01*
X58658571Y-72649866D01*
X58701428Y-72785333D01*
X58701428Y-72886933D01*
X58658571Y-73022400D01*
X58615714Y-73090133D01*
X58530000Y-73157866D01*
X58401428Y-73191733D01*
X58187142Y-73191733D01*
X59044285Y-72548266D02*
X59087142Y-72514400D01*
X59172857Y-72480533D01*
X59387142Y-72480533D01*
X59472857Y-72514400D01*
X59515714Y-72548266D01*
X59558571Y-72616000D01*
X59558571Y-72683733D01*
X59515714Y-72785333D01*
X59001428Y-73191733D01*
X59558571Y-73191733D01*
X38354285Y-32461071D02*
X38397142Y-32332500D01*
X38397142Y-32118214D01*
X38354285Y-32032500D01*
X38311428Y-31989642D01*
X38225714Y-31946785D01*
X38140000Y-31946785D01*
X38054285Y-31989642D01*
X38011428Y-32032500D01*
X37968571Y-32118214D01*
X37925714Y-32289642D01*
X37882857Y-32375357D01*
X37840000Y-32418214D01*
X37754285Y-32461071D01*
X37668571Y-32461071D01*
X37582857Y-32418214D01*
X37540000Y-32375357D01*
X37497142Y-32289642D01*
X37497142Y-32075357D01*
X37540000Y-31946785D01*
X37497142Y-31646785D02*
X38397142Y-31432500D01*
X37754285Y-31261071D01*
X38397142Y-31089642D01*
X37497142Y-30875357D01*
X37582857Y-30575357D02*
X37540000Y-30532500D01*
X37497142Y-30446785D01*
X37497142Y-30232500D01*
X37540000Y-30146785D01*
X37582857Y-30103928D01*
X37668571Y-30061071D01*
X37754285Y-30061071D01*
X37882857Y-30103928D01*
X38397142Y-30618214D01*
X38397142Y-30061071D01*
X31924285Y-32431071D02*
X31967142Y-32302500D01*
X31967142Y-32088214D01*
X31924285Y-32002500D01*
X31881428Y-31959642D01*
X31795714Y-31916785D01*
X31710000Y-31916785D01*
X31624285Y-31959642D01*
X31581428Y-32002500D01*
X31538571Y-32088214D01*
X31495714Y-32259642D01*
X31452857Y-32345357D01*
X31410000Y-32388214D01*
X31324285Y-32431071D01*
X31238571Y-32431071D01*
X31152857Y-32388214D01*
X31110000Y-32345357D01*
X31067142Y-32259642D01*
X31067142Y-32045357D01*
X31110000Y-31916785D01*
X31067142Y-31616785D02*
X31967142Y-31402500D01*
X31324285Y-31231071D01*
X31967142Y-31059642D01*
X31067142Y-30845357D01*
X31967142Y-30031071D02*
X31967142Y-30545357D01*
X31967142Y-30288214D02*
X31067142Y-30288214D01*
X31195714Y-30373928D01*
X31281428Y-30459642D01*
X31324285Y-30545357D01*
X39334285Y-57427142D02*
X39334285Y-58155714D01*
X39377142Y-58241428D01*
X39420000Y-58284285D01*
X39505714Y-58327142D01*
X39677142Y-58327142D01*
X39762857Y-58284285D01*
X39805714Y-58241428D01*
X39848571Y-58155714D01*
X39848571Y-57427142D01*
X40662857Y-57727142D02*
X40662857Y-58327142D01*
X40448571Y-57384285D02*
X40234285Y-58027142D01*
X40791428Y-58027142D01*
X31351785Y-42977142D02*
X31351785Y-43705714D01*
X31394642Y-43791428D01*
X31437500Y-43834285D01*
X31523214Y-43877142D01*
X31694642Y-43877142D01*
X31780357Y-43834285D01*
X31823214Y-43791428D01*
X31866071Y-43705714D01*
X31866071Y-42977142D01*
X32766071Y-43877142D02*
X32251785Y-43877142D01*
X32508928Y-43877142D02*
X32508928Y-42977142D01*
X32423214Y-43105714D01*
X32337500Y-43191428D01*
X32251785Y-43234285D01*
X35831428Y-61997142D02*
X35531428Y-61568571D01*
X35317142Y-61997142D02*
X35317142Y-61097142D01*
X35660000Y-61097142D01*
X35745714Y-61140000D01*
X35788571Y-61182857D01*
X35831428Y-61268571D01*
X35831428Y-61397142D01*
X35788571Y-61482857D01*
X35745714Y-61525714D01*
X35660000Y-61568571D01*
X35317142Y-61568571D01*
X36174285Y-61182857D02*
X36217142Y-61140000D01*
X36302857Y-61097142D01*
X36517142Y-61097142D01*
X36602857Y-61140000D01*
X36645714Y-61182857D01*
X36688571Y-61268571D01*
X36688571Y-61354285D01*
X36645714Y-61482857D01*
X36131428Y-61997142D01*
X36688571Y-61997142D01*
X36988571Y-61097142D02*
X37588571Y-61097142D01*
X37202857Y-61997142D01*
X32821428Y-58682142D02*
X32521428Y-58253571D01*
X32307142Y-58682142D02*
X32307142Y-57782142D01*
X32650000Y-57782142D01*
X32735714Y-57825000D01*
X32778571Y-57867857D01*
X32821428Y-57953571D01*
X32821428Y-58082142D01*
X32778571Y-58167857D01*
X32735714Y-58210714D01*
X32650000Y-58253571D01*
X32307142Y-58253571D01*
X33164285Y-57867857D02*
X33207142Y-57825000D01*
X33292857Y-57782142D01*
X33507142Y-57782142D01*
X33592857Y-57825000D01*
X33635714Y-57867857D01*
X33678571Y-57953571D01*
X33678571Y-58039285D01*
X33635714Y-58167857D01*
X33121428Y-58682142D01*
X33678571Y-58682142D01*
X34450000Y-57782142D02*
X34278571Y-57782142D01*
X34192857Y-57825000D01*
X34150000Y-57867857D01*
X34064285Y-57996428D01*
X34021428Y-58167857D01*
X34021428Y-58510714D01*
X34064285Y-58596428D01*
X34107142Y-58639285D01*
X34192857Y-58682142D01*
X34364285Y-58682142D01*
X34450000Y-58639285D01*
X34492857Y-58596428D01*
X34535714Y-58510714D01*
X34535714Y-58296428D01*
X34492857Y-58210714D01*
X34450000Y-58167857D01*
X34364285Y-58125000D01*
X34192857Y-58125000D01*
X34107142Y-58167857D01*
X34064285Y-58210714D01*
X34021428Y-58296428D01*
X42696428Y-59807142D02*
X42396428Y-59378571D01*
X42182142Y-59807142D02*
X42182142Y-58907142D01*
X42525000Y-58907142D01*
X42610714Y-58950000D01*
X42653571Y-58992857D01*
X42696428Y-59078571D01*
X42696428Y-59207142D01*
X42653571Y-59292857D01*
X42610714Y-59335714D01*
X42525000Y-59378571D01*
X42182142Y-59378571D01*
X43039285Y-58992857D02*
X43082142Y-58950000D01*
X43167857Y-58907142D01*
X43382142Y-58907142D01*
X43467857Y-58950000D01*
X43510714Y-58992857D01*
X43553571Y-59078571D01*
X43553571Y-59164285D01*
X43510714Y-59292857D01*
X42996428Y-59807142D01*
X43553571Y-59807142D01*
X44367857Y-58907142D02*
X43939285Y-58907142D01*
X43896428Y-59335714D01*
X43939285Y-59292857D01*
X44025000Y-59250000D01*
X44239285Y-59250000D01*
X44325000Y-59292857D01*
X44367857Y-59335714D01*
X44410714Y-59421428D01*
X44410714Y-59635714D01*
X44367857Y-59721428D01*
X44325000Y-59764285D01*
X44239285Y-59807142D01*
X44025000Y-59807142D01*
X43939285Y-59764285D01*
X43896428Y-59721428D01*
X31896428Y-57132142D02*
X31596428Y-56703571D01*
X31382142Y-57132142D02*
X31382142Y-56232142D01*
X31725000Y-56232142D01*
X31810714Y-56275000D01*
X31853571Y-56317857D01*
X31896428Y-56403571D01*
X31896428Y-56532142D01*
X31853571Y-56617857D01*
X31810714Y-56660714D01*
X31725000Y-56703571D01*
X31382142Y-56703571D01*
X32239285Y-56317857D02*
X32282142Y-56275000D01*
X32367857Y-56232142D01*
X32582142Y-56232142D01*
X32667857Y-56275000D01*
X32710714Y-56317857D01*
X32753571Y-56403571D01*
X32753571Y-56489285D01*
X32710714Y-56617857D01*
X32196428Y-57132142D01*
X32753571Y-57132142D01*
X33525000Y-56532142D02*
X33525000Y-57132142D01*
X33310714Y-56189285D02*
X33096428Y-56832142D01*
X33653571Y-56832142D01*
X45677142Y-42168571D02*
X45248571Y-42468571D01*
X45677142Y-42682857D02*
X44777142Y-42682857D01*
X44777142Y-42340000D01*
X44820000Y-42254285D01*
X44862857Y-42211428D01*
X44948571Y-42168571D01*
X45077142Y-42168571D01*
X45162857Y-42211428D01*
X45205714Y-42254285D01*
X45248571Y-42340000D01*
X45248571Y-42682857D01*
X44862857Y-41825714D02*
X44820000Y-41782857D01*
X44777142Y-41697142D01*
X44777142Y-41482857D01*
X44820000Y-41397142D01*
X44862857Y-41354285D01*
X44948571Y-41311428D01*
X45034285Y-41311428D01*
X45162857Y-41354285D01*
X45677142Y-41868571D01*
X45677142Y-41311428D01*
X44777142Y-40754285D02*
X44777142Y-40668571D01*
X44820000Y-40582857D01*
X44862857Y-40540000D01*
X44948571Y-40497142D01*
X45120000Y-40454285D01*
X45334285Y-40454285D01*
X45505714Y-40497142D01*
X45591428Y-40540000D01*
X45634285Y-40582857D01*
X45677142Y-40668571D01*
X45677142Y-40754285D01*
X45634285Y-40840000D01*
X45591428Y-40882857D01*
X45505714Y-40925714D01*
X45334285Y-40968571D01*
X45120000Y-40968571D01*
X44948571Y-40925714D01*
X44862857Y-40882857D01*
X44820000Y-40840000D01*
X44777142Y-40754285D01*
X39014285Y-49457142D02*
X38657142Y-49707142D01*
X39014285Y-49885714D02*
X38264285Y-49885714D01*
X38264285Y-49600000D01*
X38300000Y-49528571D01*
X38335714Y-49492857D01*
X38407142Y-49457142D01*
X38514285Y-49457142D01*
X38585714Y-49492857D01*
X38621428Y-49528571D01*
X38657142Y-49600000D01*
X38657142Y-49885714D01*
X39014285Y-48742857D02*
X39014285Y-49171428D01*
X39014285Y-48957142D02*
X38264285Y-48957142D01*
X38371428Y-49028571D01*
X38442857Y-49100000D01*
X38478571Y-49171428D01*
X39014285Y-48385714D02*
X39014285Y-48242857D01*
X38978571Y-48171428D01*
X38942857Y-48135714D01*
X38835714Y-48064285D01*
X38692857Y-48028571D01*
X38407142Y-48028571D01*
X38335714Y-48064285D01*
X38300000Y-48100000D01*
X38264285Y-48171428D01*
X38264285Y-48314285D01*
X38300000Y-48385714D01*
X38335714Y-48421428D01*
X38407142Y-48457142D01*
X38585714Y-48457142D01*
X38657142Y-48421428D01*
X38692857Y-48385714D01*
X38728571Y-48314285D01*
X38728571Y-48171428D01*
X38692857Y-48100000D01*
X38657142Y-48064285D01*
X38585714Y-48028571D01*
X43787142Y-45268571D02*
X43358571Y-45568571D01*
X43787142Y-45782857D02*
X42887142Y-45782857D01*
X42887142Y-45440000D01*
X42930000Y-45354285D01*
X42972857Y-45311428D01*
X43058571Y-45268571D01*
X43187142Y-45268571D01*
X43272857Y-45311428D01*
X43315714Y-45354285D01*
X43358571Y-45440000D01*
X43358571Y-45782857D01*
X43787142Y-44411428D02*
X43787142Y-44925714D01*
X43787142Y-44668571D02*
X42887142Y-44668571D01*
X43015714Y-44754285D01*
X43101428Y-44840000D01*
X43144285Y-44925714D01*
X43272857Y-43897142D02*
X43230000Y-43982857D01*
X43187142Y-44025714D01*
X43101428Y-44068571D01*
X43058571Y-44068571D01*
X42972857Y-44025714D01*
X42930000Y-43982857D01*
X42887142Y-43897142D01*
X42887142Y-43725714D01*
X42930000Y-43640000D01*
X42972857Y-43597142D01*
X43058571Y-43554285D01*
X43101428Y-43554285D01*
X43187142Y-43597142D01*
X43230000Y-43640000D01*
X43272857Y-43725714D01*
X43272857Y-43897142D01*
X43315714Y-43982857D01*
X43358571Y-44025714D01*
X43444285Y-44068571D01*
X43615714Y-44068571D01*
X43701428Y-44025714D01*
X43744285Y-43982857D01*
X43787142Y-43897142D01*
X43787142Y-43725714D01*
X43744285Y-43640000D01*
X43701428Y-43597142D01*
X43615714Y-43554285D01*
X43444285Y-43554285D01*
X43358571Y-43597142D01*
X43315714Y-43640000D01*
X43272857Y-43725714D01*
X45707142Y-37788571D02*
X45278571Y-38088571D01*
X45707142Y-38302857D02*
X44807142Y-38302857D01*
X44807142Y-37960000D01*
X44850000Y-37874285D01*
X44892857Y-37831428D01*
X44978571Y-37788571D01*
X45107142Y-37788571D01*
X45192857Y-37831428D01*
X45235714Y-37874285D01*
X45278571Y-37960000D01*
X45278571Y-38302857D01*
X45707142Y-36931428D02*
X45707142Y-37445714D01*
X45707142Y-37188571D02*
X44807142Y-37188571D01*
X44935714Y-37274285D01*
X45021428Y-37360000D01*
X45064285Y-37445714D01*
X44807142Y-36631428D02*
X44807142Y-36031428D01*
X45707142Y-36417142D01*
X38982142Y-46532142D02*
X38765476Y-46103571D01*
X38610714Y-46532142D02*
X38610714Y-45632142D01*
X38858333Y-45632142D01*
X38920238Y-45675000D01*
X38951190Y-45717857D01*
X38982142Y-45803571D01*
X38982142Y-45932142D01*
X38951190Y-46017857D01*
X38920238Y-46060714D01*
X38858333Y-46103571D01*
X38610714Y-46103571D01*
X39601190Y-46532142D02*
X39229761Y-46532142D01*
X39415476Y-46532142D02*
X39415476Y-45632142D01*
X39353571Y-45760714D01*
X39291666Y-45846428D01*
X39229761Y-45889285D01*
X40158333Y-45632142D02*
X40034523Y-45632142D01*
X39972619Y-45675000D01*
X39941666Y-45717857D01*
X39879761Y-45846428D01*
X39848809Y-46017857D01*
X39848809Y-46360714D01*
X39879761Y-46446428D01*
X39910714Y-46489285D01*
X39972619Y-46532142D01*
X40096428Y-46532142D01*
X40158333Y-46489285D01*
X40189285Y-46446428D01*
X40220238Y-46360714D01*
X40220238Y-46146428D01*
X40189285Y-46060714D01*
X40158333Y-46017857D01*
X40096428Y-45975000D01*
X39972619Y-45975000D01*
X39910714Y-46017857D01*
X39879761Y-46060714D01*
X39848809Y-46146428D01*
X44947142Y-49958571D02*
X44518571Y-50258571D01*
X44947142Y-50472857D02*
X44047142Y-50472857D01*
X44047142Y-50130000D01*
X44090000Y-50044285D01*
X44132857Y-50001428D01*
X44218571Y-49958571D01*
X44347142Y-49958571D01*
X44432857Y-50001428D01*
X44475714Y-50044285D01*
X44518571Y-50130000D01*
X44518571Y-50472857D01*
X44947142Y-49101428D02*
X44947142Y-49615714D01*
X44947142Y-49358571D02*
X44047142Y-49358571D01*
X44175714Y-49444285D01*
X44261428Y-49530000D01*
X44304285Y-49615714D01*
X44047142Y-48287142D02*
X44047142Y-48715714D01*
X44475714Y-48758571D01*
X44432857Y-48715714D01*
X44390000Y-48630000D01*
X44390000Y-48415714D01*
X44432857Y-48330000D01*
X44475714Y-48287142D01*
X44561428Y-48244285D01*
X44775714Y-48244285D01*
X44861428Y-48287142D01*
X44904285Y-48330000D01*
X44947142Y-48415714D01*
X44947142Y-48630000D01*
X44904285Y-48715714D01*
X44861428Y-48758571D01*
X39197142Y-34600000D02*
X38768571Y-34900000D01*
X39197142Y-35114285D02*
X38297142Y-35114285D01*
X38297142Y-34771428D01*
X38340000Y-34685714D01*
X38382857Y-34642857D01*
X38468571Y-34600000D01*
X38597142Y-34600000D01*
X38682857Y-34642857D01*
X38725714Y-34685714D01*
X38768571Y-34771428D01*
X38768571Y-35114285D01*
X38297142Y-34300000D02*
X38297142Y-33700000D01*
X39197142Y-34085714D01*
X33132142Y-34650000D02*
X32703571Y-34950000D01*
X33132142Y-35164285D02*
X32232142Y-35164285D01*
X32232142Y-34821428D01*
X32275000Y-34735714D01*
X32317857Y-34692857D01*
X32403571Y-34650000D01*
X32532142Y-34650000D01*
X32617857Y-34692857D01*
X32660714Y-34735714D01*
X32703571Y-34821428D01*
X32703571Y-35164285D01*
X32232142Y-33878571D02*
X32232142Y-34050000D01*
X32275000Y-34135714D01*
X32317857Y-34178571D01*
X32446428Y-34264285D01*
X32617857Y-34307142D01*
X32960714Y-34307142D01*
X33046428Y-34264285D01*
X33089285Y-34221428D01*
X33132142Y-34135714D01*
X33132142Y-33964285D01*
X33089285Y-33878571D01*
X33046428Y-33835714D01*
X32960714Y-33792857D01*
X32746428Y-33792857D01*
X32660714Y-33835714D01*
X32617857Y-33878571D01*
X32575000Y-33964285D01*
X32575000Y-34135714D01*
X32617857Y-34221428D01*
X32660714Y-34264285D01*
X32746428Y-34307142D01*
X34467142Y-66780000D02*
X34038571Y-67080000D01*
X34467142Y-67294285D02*
X33567142Y-67294285D01*
X33567142Y-66951428D01*
X33610000Y-66865714D01*
X33652857Y-66822857D01*
X33738571Y-66780000D01*
X33867142Y-66780000D01*
X33952857Y-66822857D01*
X33995714Y-66865714D01*
X34038571Y-66951428D01*
X34038571Y-67294285D01*
X34467142Y-65922857D02*
X34467142Y-66437142D01*
X34467142Y-66180000D02*
X33567142Y-66180000D01*
X33695714Y-66265714D01*
X33781428Y-66351428D01*
X33824285Y-66437142D01*
X38174285Y-43152857D02*
X38088571Y-43110000D01*
X38002857Y-43024285D01*
X37874285Y-42895714D01*
X37788571Y-42852857D01*
X37702857Y-42852857D01*
X37745714Y-43067142D02*
X37660000Y-43024285D01*
X37574285Y-42938571D01*
X37531428Y-42767142D01*
X37531428Y-42467142D01*
X37574285Y-42295714D01*
X37660000Y-42210000D01*
X37745714Y-42167142D01*
X37917142Y-42167142D01*
X38002857Y-42210000D01*
X38088571Y-42295714D01*
X38131428Y-42467142D01*
X38131428Y-42767142D01*
X38088571Y-42938571D01*
X38002857Y-43024285D01*
X37917142Y-43067142D01*
X37745714Y-43067142D01*
X38474285Y-42252857D02*
X38517142Y-42210000D01*
X38602857Y-42167142D01*
X38817142Y-42167142D01*
X38902857Y-42210000D01*
X38945714Y-42252857D01*
X38988571Y-42338571D01*
X38988571Y-42424285D01*
X38945714Y-42552857D01*
X38431428Y-43067142D01*
X38988571Y-43067142D01*
X38254285Y-39682857D02*
X38168571Y-39640000D01*
X38082857Y-39554285D01*
X37954285Y-39425714D01*
X37868571Y-39382857D01*
X37782857Y-39382857D01*
X37825714Y-39597142D02*
X37740000Y-39554285D01*
X37654285Y-39468571D01*
X37611428Y-39297142D01*
X37611428Y-38997142D01*
X37654285Y-38825714D01*
X37740000Y-38740000D01*
X37825714Y-38697142D01*
X37997142Y-38697142D01*
X38082857Y-38740000D01*
X38168571Y-38825714D01*
X38211428Y-38997142D01*
X38211428Y-39297142D01*
X38168571Y-39468571D01*
X38082857Y-39554285D01*
X37997142Y-39597142D01*
X37825714Y-39597142D01*
X39068571Y-39597142D02*
X38554285Y-39597142D01*
X38811428Y-39597142D02*
X38811428Y-38697142D01*
X38725714Y-38825714D01*
X38640000Y-38911428D01*
X38554285Y-38954285D01*
X51638928Y-72187142D02*
X51638928Y-72830000D01*
X51596071Y-72958571D01*
X51510357Y-73044285D01*
X51381785Y-73087142D01*
X51296071Y-73087142D01*
X52453214Y-72187142D02*
X52281785Y-72187142D01*
X52196071Y-72230000D01*
X52153214Y-72272857D01*
X52067500Y-72401428D01*
X52024642Y-72572857D01*
X52024642Y-72915714D01*
X52067500Y-73001428D01*
X52110357Y-73044285D01*
X52196071Y-73087142D01*
X52367500Y-73087142D01*
X52453214Y-73044285D01*
X52496071Y-73001428D01*
X52538928Y-72915714D01*
X52538928Y-72701428D01*
X52496071Y-72615714D01*
X52453214Y-72572857D01*
X52367500Y-72530000D01*
X52196071Y-72530000D01*
X52110357Y-72572857D01*
X52067500Y-72615714D01*
X52024642Y-72701428D01*
X50010000Y-22077142D02*
X50010000Y-22720000D01*
X49967142Y-22848571D01*
X49881428Y-22934285D01*
X49752857Y-22977142D01*
X49667142Y-22977142D01*
X50867142Y-22077142D02*
X50438571Y-22077142D01*
X50395714Y-22505714D01*
X50438571Y-22462857D01*
X50524285Y-22420000D01*
X50738571Y-22420000D01*
X50824285Y-22462857D01*
X50867142Y-22505714D01*
X50910000Y-22591428D01*
X50910000Y-22805714D01*
X50867142Y-22891428D01*
X50824285Y-22934285D01*
X50738571Y-22977142D01*
X50524285Y-22977142D01*
X50438571Y-22934285D01*
X50395714Y-22891428D01*
X29050000Y-72097142D02*
X29050000Y-72740000D01*
X29007142Y-72868571D01*
X28921428Y-72954285D01*
X28792857Y-72997142D01*
X28707142Y-72997142D01*
X29392857Y-72097142D02*
X29950000Y-72097142D01*
X29650000Y-72440000D01*
X29778571Y-72440000D01*
X29864285Y-72482857D01*
X29907142Y-72525714D01*
X29950000Y-72611428D01*
X29950000Y-72825714D01*
X29907142Y-72911428D01*
X29864285Y-72954285D01*
X29778571Y-72997142D01*
X29521428Y-72997142D01*
X29435714Y-72954285D01*
X29392857Y-72911428D01*
X46830000Y-72097142D02*
X46830000Y-72740000D01*
X46787142Y-72868571D01*
X46701428Y-72954285D01*
X46572857Y-72997142D01*
X46487142Y-72997142D01*
X47215714Y-72182857D02*
X47258571Y-72140000D01*
X47344285Y-72097142D01*
X47558571Y-72097142D01*
X47644285Y-72140000D01*
X47687142Y-72182857D01*
X47730000Y-72268571D01*
X47730000Y-72354285D01*
X47687142Y-72482857D01*
X47172857Y-72997142D01*
X47730000Y-72997142D01*
X41040000Y-67067142D02*
X41040000Y-67710000D01*
X40997142Y-67838571D01*
X40911428Y-67924285D01*
X40782857Y-67967142D01*
X40697142Y-67967142D01*
X41940000Y-67967142D02*
X41425714Y-67967142D01*
X41682857Y-67967142D02*
X41682857Y-67067142D01*
X41597142Y-67195714D01*
X41511428Y-67281428D01*
X41425714Y-67324285D01*
X44307142Y-64046428D02*
X43407142Y-64046428D01*
X43407142Y-63832142D01*
X43450000Y-63703571D01*
X43535714Y-63617857D01*
X43621428Y-63575000D01*
X43792857Y-63532142D01*
X43921428Y-63532142D01*
X44092857Y-63575000D01*
X44178571Y-63617857D01*
X44264285Y-63703571D01*
X44307142Y-63832142D01*
X44307142Y-64046428D01*
X43407142Y-63232142D02*
X43407142Y-62675000D01*
X43750000Y-62975000D01*
X43750000Y-62846428D01*
X43792857Y-62760714D01*
X43835714Y-62717857D01*
X43921428Y-62675000D01*
X44135714Y-62675000D01*
X44221428Y-62717857D01*
X44264285Y-62760714D01*
X44307142Y-62846428D01*
X44307142Y-63103571D01*
X44264285Y-63189285D01*
X44221428Y-63232142D01*
X43707142Y-61903571D02*
X44307142Y-61903571D01*
X43364285Y-62117857D02*
X44007142Y-62332142D01*
X44007142Y-61775000D01*
X43407142Y-61003571D02*
X43407142Y-61432142D01*
X43835714Y-61475000D01*
X43792857Y-61432142D01*
X43750000Y-61346428D01*
X43750000Y-61132142D01*
X43792857Y-61046428D01*
X43835714Y-61003571D01*
X43921428Y-60960714D01*
X44135714Y-60960714D01*
X44221428Y-61003571D01*
X44264285Y-61046428D01*
X44307142Y-61132142D01*
X44307142Y-61346428D01*
X44264285Y-61432142D01*
X44221428Y-61475000D01*
X35710714Y-67182142D02*
X35710714Y-66282142D01*
X35925000Y-66282142D01*
X36053571Y-66325000D01*
X36139285Y-66410714D01*
X36182142Y-66496428D01*
X36225000Y-66667857D01*
X36225000Y-66796428D01*
X36182142Y-66967857D01*
X36139285Y-67053571D01*
X36053571Y-67139285D01*
X35925000Y-67182142D01*
X35710714Y-67182142D01*
X36567857Y-66367857D02*
X36610714Y-66325000D01*
X36696428Y-66282142D01*
X36910714Y-66282142D01*
X36996428Y-66325000D01*
X37039285Y-66367857D01*
X37082142Y-66453571D01*
X37082142Y-66539285D01*
X37039285Y-66667857D01*
X36525000Y-67182142D01*
X37082142Y-67182142D01*
X31534047Y-71327142D02*
X31534047Y-71755714D01*
X30884047Y-71755714D01*
X31193571Y-71027142D02*
X31193571Y-70727142D01*
X31534047Y-70598571D02*
X31534047Y-71027142D01*
X30884047Y-71027142D01*
X30884047Y-70598571D01*
X31534047Y-70212857D02*
X30884047Y-70212857D01*
X30884047Y-69998571D01*
X30915000Y-69870000D01*
X30976904Y-69784285D01*
X31038809Y-69741428D01*
X31162619Y-69698571D01*
X31255476Y-69698571D01*
X31379285Y-69741428D01*
X31441190Y-69784285D01*
X31503095Y-69870000D01*
X31534047Y-69998571D01*
X31534047Y-70212857D01*
X31534047Y-68841428D02*
X31534047Y-69355714D01*
X31534047Y-69098571D02*
X30884047Y-69098571D01*
X30976904Y-69184285D01*
X31038809Y-69270000D01*
X31069761Y-69355714D01*
X32821428Y-55296428D02*
X32778571Y-55339285D01*
X32650000Y-55382142D01*
X32564285Y-55382142D01*
X32435714Y-55339285D01*
X32350000Y-55253571D01*
X32307142Y-55167857D01*
X32264285Y-54996428D01*
X32264285Y-54867857D01*
X32307142Y-54696428D01*
X32350000Y-54610714D01*
X32435714Y-54525000D01*
X32564285Y-54482142D01*
X32650000Y-54482142D01*
X32778571Y-54525000D01*
X32821428Y-54567857D01*
X33678571Y-55382142D02*
X33164285Y-55382142D01*
X33421428Y-55382142D02*
X33421428Y-54482142D01*
X33335714Y-54610714D01*
X33250000Y-54696428D01*
X33164285Y-54739285D01*
X34021428Y-54567857D02*
X34064285Y-54525000D01*
X34150000Y-54482142D01*
X34364285Y-54482142D01*
X34450000Y-54525000D01*
X34492857Y-54567857D01*
X34535714Y-54653571D01*
X34535714Y-54739285D01*
X34492857Y-54867857D01*
X33978571Y-55382142D01*
X34535714Y-55382142D01*
X43851428Y-34690000D02*
X43894285Y-34732857D01*
X43937142Y-34861428D01*
X43937142Y-34947142D01*
X43894285Y-35075714D01*
X43808571Y-35161428D01*
X43722857Y-35204285D01*
X43551428Y-35247142D01*
X43422857Y-35247142D01*
X43251428Y-35204285D01*
X43165714Y-35161428D01*
X43080000Y-35075714D01*
X43037142Y-34947142D01*
X43037142Y-34861428D01*
X43080000Y-34732857D01*
X43122857Y-34690000D01*
X43037142Y-34390000D02*
X43037142Y-33790000D01*
X43937142Y-34175714D01*
X37721428Y-34600000D02*
X37764285Y-34642857D01*
X37807142Y-34771428D01*
X37807142Y-34857142D01*
X37764285Y-34985714D01*
X37678571Y-35071428D01*
X37592857Y-35114285D01*
X37421428Y-35157142D01*
X37292857Y-35157142D01*
X37121428Y-35114285D01*
X37035714Y-35071428D01*
X36950000Y-34985714D01*
X36907142Y-34857142D01*
X36907142Y-34771428D01*
X36950000Y-34642857D01*
X36992857Y-34600000D01*
X36907142Y-33828571D02*
X36907142Y-34000000D01*
X36950000Y-34085714D01*
X36992857Y-34128571D01*
X37121428Y-34214285D01*
X37292857Y-34257142D01*
X37635714Y-34257142D01*
X37721428Y-34214285D01*
X37764285Y-34171428D01*
X37807142Y-34085714D01*
X37807142Y-33914285D01*
X37764285Y-33828571D01*
X37721428Y-33785714D01*
X37635714Y-33742857D01*
X37421428Y-33742857D01*
X37335714Y-33785714D01*
X37292857Y-33828571D01*
X37250000Y-33914285D01*
X37250000Y-34085714D01*
X37292857Y-34171428D01*
X37335714Y-34214285D01*
X37421428Y-34257142D01*
X36380000Y-53246428D02*
X36337142Y-53289285D01*
X36208571Y-53332142D01*
X36122857Y-53332142D01*
X35994285Y-53289285D01*
X35908571Y-53203571D01*
X35865714Y-53117857D01*
X35822857Y-52946428D01*
X35822857Y-52817857D01*
X35865714Y-52646428D01*
X35908571Y-52560714D01*
X35994285Y-52475000D01*
X36122857Y-52432142D01*
X36208571Y-52432142D01*
X36337142Y-52475000D01*
X36380000Y-52517857D01*
X37151428Y-52732142D02*
X37151428Y-53332142D01*
X36937142Y-52389285D02*
X36722857Y-53032142D01*
X37280000Y-53032142D01*
X32825000Y-53321428D02*
X32782142Y-53364285D01*
X32653571Y-53407142D01*
X32567857Y-53407142D01*
X32439285Y-53364285D01*
X32353571Y-53278571D01*
X32310714Y-53192857D01*
X32267857Y-53021428D01*
X32267857Y-52892857D01*
X32310714Y-52721428D01*
X32353571Y-52635714D01*
X32439285Y-52550000D01*
X32567857Y-52507142D01*
X32653571Y-52507142D01*
X32782142Y-52550000D01*
X32825000Y-52592857D01*
X33167857Y-52592857D02*
X33210714Y-52550000D01*
X33296428Y-52507142D01*
X33510714Y-52507142D01*
X33596428Y-52550000D01*
X33639285Y-52592857D01*
X33682142Y-52678571D01*
X33682142Y-52764285D01*
X33639285Y-52892857D01*
X33125000Y-53407142D01*
X33682142Y-53407142D01*
M02*
