G04 #@! TF.GenerationSoftware,KiCad,Pcbnew,(5.1.5-0-10_14)*
G04 #@! TF.CreationDate,2020-02-28T10:22:06-08:00*
G04 #@! TF.ProjectId,esp-prog,6573702d-7072-46f6-972e-6b696361645f,rev?*
G04 #@! TF.SameCoordinates,Original*
G04 #@! TF.FileFunction,Paste,Top*
G04 #@! TF.FilePolarity,Positive*
%FSLAX46Y46*%
G04 Gerber Fmt 4.6, Leading zero omitted, Abs format (unit mm)*
G04 Created by KiCad (PCBNEW (5.1.5-0-10_14)) date 2020-02-28 10:22:06*
%MOMM*%
%LPD*%
G04 APERTURE LIST*
%ADD10R,2.400000X0.740000*%
%ADD11R,1.000000X1.000000*%
%ADD12R,1.000000X0.820000*%
%ADD13R,0.600000X0.650000*%
%ADD14C,0.127000*%
%ADD15R,3.300000X1.500000*%
%ADD16R,1.200000X1.500000*%
%ADD17R,0.800100X0.800100*%
%ADD18R,1.500000X1.900000*%
%ADD19R,0.400000X1.350000*%
%ADD20R,0.650000X1.060000*%
%ADD21R,0.500000X0.500000*%
G04 APERTURE END LIST*
D10*
X52800000Y-65515000D03*
X56700000Y-65515000D03*
X52800000Y-64245000D03*
X56700000Y-64245000D03*
X52800000Y-62975000D03*
X56700000Y-62975000D03*
X52800000Y-61705000D03*
X56700000Y-61705000D03*
X52800000Y-60435000D03*
X56700000Y-60435000D03*
X52800000Y-59165000D03*
X56700000Y-59165000D03*
X52800000Y-57895000D03*
X56700000Y-57895000D03*
X52800000Y-56625000D03*
X56700000Y-56625000D03*
X52800000Y-55355000D03*
X56700000Y-55355000D03*
X52800000Y-54085000D03*
X56700000Y-54085000D03*
D11*
X55710000Y-71710000D03*
X55710000Y-70010000D03*
D12*
X57240000Y-71600000D03*
X57240000Y-70000000D03*
D13*
X42190000Y-31925000D03*
X39090000Y-31925000D03*
X42190000Y-29175000D03*
X39090000Y-29175000D03*
X35990000Y-31945000D03*
X32890000Y-31945000D03*
X35990000Y-29195000D03*
X32890000Y-29195000D03*
D14*
G36*
X40768626Y-51150301D02*
G01*
X40774693Y-51151201D01*
X40780643Y-51152691D01*
X40786418Y-51154758D01*
X40791962Y-51157380D01*
X40797223Y-51160533D01*
X40802150Y-51164187D01*
X40806694Y-51168306D01*
X40810813Y-51172850D01*
X40814467Y-51177777D01*
X40817620Y-51183038D01*
X40820242Y-51188582D01*
X40822309Y-51194357D01*
X40823799Y-51200307D01*
X40824699Y-51206374D01*
X40825000Y-51212500D01*
X40825000Y-51887500D01*
X40824699Y-51893626D01*
X40823799Y-51899693D01*
X40822309Y-51905643D01*
X40820242Y-51911418D01*
X40817620Y-51916962D01*
X40814467Y-51922223D01*
X40810813Y-51927150D01*
X40806694Y-51931694D01*
X40802150Y-51935813D01*
X40797223Y-51939467D01*
X40791962Y-51942620D01*
X40786418Y-51945242D01*
X40780643Y-51947309D01*
X40774693Y-51948799D01*
X40768626Y-51949699D01*
X40762500Y-51950000D01*
X40637500Y-51950000D01*
X40631374Y-51949699D01*
X40625307Y-51948799D01*
X40619357Y-51947309D01*
X40613582Y-51945242D01*
X40608038Y-51942620D01*
X40602777Y-51939467D01*
X40597850Y-51935813D01*
X40593306Y-51931694D01*
X40589187Y-51927150D01*
X40585533Y-51922223D01*
X40582380Y-51916962D01*
X40579758Y-51911418D01*
X40577691Y-51905643D01*
X40576201Y-51899693D01*
X40575301Y-51893626D01*
X40575000Y-51887500D01*
X40575000Y-51212500D01*
X40575301Y-51206374D01*
X40576201Y-51200307D01*
X40577691Y-51194357D01*
X40579758Y-51188582D01*
X40582380Y-51183038D01*
X40585533Y-51177777D01*
X40589187Y-51172850D01*
X40593306Y-51168306D01*
X40597850Y-51164187D01*
X40602777Y-51160533D01*
X40608038Y-51157380D01*
X40613582Y-51154758D01*
X40619357Y-51152691D01*
X40625307Y-51151201D01*
X40631374Y-51150301D01*
X40637500Y-51150000D01*
X40762500Y-51150000D01*
X40768626Y-51150301D01*
G37*
G36*
X41268626Y-51150301D02*
G01*
X41274693Y-51151201D01*
X41280643Y-51152691D01*
X41286418Y-51154758D01*
X41291962Y-51157380D01*
X41297223Y-51160533D01*
X41302150Y-51164187D01*
X41306694Y-51168306D01*
X41310813Y-51172850D01*
X41314467Y-51177777D01*
X41317620Y-51183038D01*
X41320242Y-51188582D01*
X41322309Y-51194357D01*
X41323799Y-51200307D01*
X41324699Y-51206374D01*
X41325000Y-51212500D01*
X41325000Y-51887500D01*
X41324699Y-51893626D01*
X41323799Y-51899693D01*
X41322309Y-51905643D01*
X41320242Y-51911418D01*
X41317620Y-51916962D01*
X41314467Y-51922223D01*
X41310813Y-51927150D01*
X41306694Y-51931694D01*
X41302150Y-51935813D01*
X41297223Y-51939467D01*
X41291962Y-51942620D01*
X41286418Y-51945242D01*
X41280643Y-51947309D01*
X41274693Y-51948799D01*
X41268626Y-51949699D01*
X41262500Y-51950000D01*
X41137500Y-51950000D01*
X41131374Y-51949699D01*
X41125307Y-51948799D01*
X41119357Y-51947309D01*
X41113582Y-51945242D01*
X41108038Y-51942620D01*
X41102777Y-51939467D01*
X41097850Y-51935813D01*
X41093306Y-51931694D01*
X41089187Y-51927150D01*
X41085533Y-51922223D01*
X41082380Y-51916962D01*
X41079758Y-51911418D01*
X41077691Y-51905643D01*
X41076201Y-51899693D01*
X41075301Y-51893626D01*
X41075000Y-51887500D01*
X41075000Y-51212500D01*
X41075301Y-51206374D01*
X41076201Y-51200307D01*
X41077691Y-51194357D01*
X41079758Y-51188582D01*
X41082380Y-51183038D01*
X41085533Y-51177777D01*
X41089187Y-51172850D01*
X41093306Y-51168306D01*
X41097850Y-51164187D01*
X41102777Y-51160533D01*
X41108038Y-51157380D01*
X41113582Y-51154758D01*
X41119357Y-51152691D01*
X41125307Y-51151201D01*
X41131374Y-51150301D01*
X41137500Y-51150000D01*
X41262500Y-51150000D01*
X41268626Y-51150301D01*
G37*
G36*
X41768626Y-51150301D02*
G01*
X41774693Y-51151201D01*
X41780643Y-51152691D01*
X41786418Y-51154758D01*
X41791962Y-51157380D01*
X41797223Y-51160533D01*
X41802150Y-51164187D01*
X41806694Y-51168306D01*
X41810813Y-51172850D01*
X41814467Y-51177777D01*
X41817620Y-51183038D01*
X41820242Y-51188582D01*
X41822309Y-51194357D01*
X41823799Y-51200307D01*
X41824699Y-51206374D01*
X41825000Y-51212500D01*
X41825000Y-51887500D01*
X41824699Y-51893626D01*
X41823799Y-51899693D01*
X41822309Y-51905643D01*
X41820242Y-51911418D01*
X41817620Y-51916962D01*
X41814467Y-51922223D01*
X41810813Y-51927150D01*
X41806694Y-51931694D01*
X41802150Y-51935813D01*
X41797223Y-51939467D01*
X41791962Y-51942620D01*
X41786418Y-51945242D01*
X41780643Y-51947309D01*
X41774693Y-51948799D01*
X41768626Y-51949699D01*
X41762500Y-51950000D01*
X41637500Y-51950000D01*
X41631374Y-51949699D01*
X41625307Y-51948799D01*
X41619357Y-51947309D01*
X41613582Y-51945242D01*
X41608038Y-51942620D01*
X41602777Y-51939467D01*
X41597850Y-51935813D01*
X41593306Y-51931694D01*
X41589187Y-51927150D01*
X41585533Y-51922223D01*
X41582380Y-51916962D01*
X41579758Y-51911418D01*
X41577691Y-51905643D01*
X41576201Y-51899693D01*
X41575301Y-51893626D01*
X41575000Y-51887500D01*
X41575000Y-51212500D01*
X41575301Y-51206374D01*
X41576201Y-51200307D01*
X41577691Y-51194357D01*
X41579758Y-51188582D01*
X41582380Y-51183038D01*
X41585533Y-51177777D01*
X41589187Y-51172850D01*
X41593306Y-51168306D01*
X41597850Y-51164187D01*
X41602777Y-51160533D01*
X41608038Y-51157380D01*
X41613582Y-51154758D01*
X41619357Y-51152691D01*
X41625307Y-51151201D01*
X41631374Y-51150301D01*
X41637500Y-51150000D01*
X41762500Y-51150000D01*
X41768626Y-51150301D01*
G37*
G36*
X42268626Y-51150301D02*
G01*
X42274693Y-51151201D01*
X42280643Y-51152691D01*
X42286418Y-51154758D01*
X42291962Y-51157380D01*
X42297223Y-51160533D01*
X42302150Y-51164187D01*
X42306694Y-51168306D01*
X42310813Y-51172850D01*
X42314467Y-51177777D01*
X42317620Y-51183038D01*
X42320242Y-51188582D01*
X42322309Y-51194357D01*
X42323799Y-51200307D01*
X42324699Y-51206374D01*
X42325000Y-51212500D01*
X42325000Y-51887500D01*
X42324699Y-51893626D01*
X42323799Y-51899693D01*
X42322309Y-51905643D01*
X42320242Y-51911418D01*
X42317620Y-51916962D01*
X42314467Y-51922223D01*
X42310813Y-51927150D01*
X42306694Y-51931694D01*
X42302150Y-51935813D01*
X42297223Y-51939467D01*
X42291962Y-51942620D01*
X42286418Y-51945242D01*
X42280643Y-51947309D01*
X42274693Y-51948799D01*
X42268626Y-51949699D01*
X42262500Y-51950000D01*
X42137500Y-51950000D01*
X42131374Y-51949699D01*
X42125307Y-51948799D01*
X42119357Y-51947309D01*
X42113582Y-51945242D01*
X42108038Y-51942620D01*
X42102777Y-51939467D01*
X42097850Y-51935813D01*
X42093306Y-51931694D01*
X42089187Y-51927150D01*
X42085533Y-51922223D01*
X42082380Y-51916962D01*
X42079758Y-51911418D01*
X42077691Y-51905643D01*
X42076201Y-51899693D01*
X42075301Y-51893626D01*
X42075000Y-51887500D01*
X42075000Y-51212500D01*
X42075301Y-51206374D01*
X42076201Y-51200307D01*
X42077691Y-51194357D01*
X42079758Y-51188582D01*
X42082380Y-51183038D01*
X42085533Y-51177777D01*
X42089187Y-51172850D01*
X42093306Y-51168306D01*
X42097850Y-51164187D01*
X42102777Y-51160533D01*
X42108038Y-51157380D01*
X42113582Y-51154758D01*
X42119357Y-51152691D01*
X42125307Y-51151201D01*
X42131374Y-51150301D01*
X42137500Y-51150000D01*
X42262500Y-51150000D01*
X42268626Y-51150301D01*
G37*
G36*
X42768626Y-51150301D02*
G01*
X42774693Y-51151201D01*
X42780643Y-51152691D01*
X42786418Y-51154758D01*
X42791962Y-51157380D01*
X42797223Y-51160533D01*
X42802150Y-51164187D01*
X42806694Y-51168306D01*
X42810813Y-51172850D01*
X42814467Y-51177777D01*
X42817620Y-51183038D01*
X42820242Y-51188582D01*
X42822309Y-51194357D01*
X42823799Y-51200307D01*
X42824699Y-51206374D01*
X42825000Y-51212500D01*
X42825000Y-51887500D01*
X42824699Y-51893626D01*
X42823799Y-51899693D01*
X42822309Y-51905643D01*
X42820242Y-51911418D01*
X42817620Y-51916962D01*
X42814467Y-51922223D01*
X42810813Y-51927150D01*
X42806694Y-51931694D01*
X42802150Y-51935813D01*
X42797223Y-51939467D01*
X42791962Y-51942620D01*
X42786418Y-51945242D01*
X42780643Y-51947309D01*
X42774693Y-51948799D01*
X42768626Y-51949699D01*
X42762500Y-51950000D01*
X42637500Y-51950000D01*
X42631374Y-51949699D01*
X42625307Y-51948799D01*
X42619357Y-51947309D01*
X42613582Y-51945242D01*
X42608038Y-51942620D01*
X42602777Y-51939467D01*
X42597850Y-51935813D01*
X42593306Y-51931694D01*
X42589187Y-51927150D01*
X42585533Y-51922223D01*
X42582380Y-51916962D01*
X42579758Y-51911418D01*
X42577691Y-51905643D01*
X42576201Y-51899693D01*
X42575301Y-51893626D01*
X42575000Y-51887500D01*
X42575000Y-51212500D01*
X42575301Y-51206374D01*
X42576201Y-51200307D01*
X42577691Y-51194357D01*
X42579758Y-51188582D01*
X42582380Y-51183038D01*
X42585533Y-51177777D01*
X42589187Y-51172850D01*
X42593306Y-51168306D01*
X42597850Y-51164187D01*
X42602777Y-51160533D01*
X42608038Y-51157380D01*
X42613582Y-51154758D01*
X42619357Y-51152691D01*
X42625307Y-51151201D01*
X42631374Y-51150301D01*
X42637500Y-51150000D01*
X42762500Y-51150000D01*
X42768626Y-51150301D01*
G37*
G36*
X43268626Y-51150301D02*
G01*
X43274693Y-51151201D01*
X43280643Y-51152691D01*
X43286418Y-51154758D01*
X43291962Y-51157380D01*
X43297223Y-51160533D01*
X43302150Y-51164187D01*
X43306694Y-51168306D01*
X43310813Y-51172850D01*
X43314467Y-51177777D01*
X43317620Y-51183038D01*
X43320242Y-51188582D01*
X43322309Y-51194357D01*
X43323799Y-51200307D01*
X43324699Y-51206374D01*
X43325000Y-51212500D01*
X43325000Y-51887500D01*
X43324699Y-51893626D01*
X43323799Y-51899693D01*
X43322309Y-51905643D01*
X43320242Y-51911418D01*
X43317620Y-51916962D01*
X43314467Y-51922223D01*
X43310813Y-51927150D01*
X43306694Y-51931694D01*
X43302150Y-51935813D01*
X43297223Y-51939467D01*
X43291962Y-51942620D01*
X43286418Y-51945242D01*
X43280643Y-51947309D01*
X43274693Y-51948799D01*
X43268626Y-51949699D01*
X43262500Y-51950000D01*
X43137500Y-51950000D01*
X43131374Y-51949699D01*
X43125307Y-51948799D01*
X43119357Y-51947309D01*
X43113582Y-51945242D01*
X43108038Y-51942620D01*
X43102777Y-51939467D01*
X43097850Y-51935813D01*
X43093306Y-51931694D01*
X43089187Y-51927150D01*
X43085533Y-51922223D01*
X43082380Y-51916962D01*
X43079758Y-51911418D01*
X43077691Y-51905643D01*
X43076201Y-51899693D01*
X43075301Y-51893626D01*
X43075000Y-51887500D01*
X43075000Y-51212500D01*
X43075301Y-51206374D01*
X43076201Y-51200307D01*
X43077691Y-51194357D01*
X43079758Y-51188582D01*
X43082380Y-51183038D01*
X43085533Y-51177777D01*
X43089187Y-51172850D01*
X43093306Y-51168306D01*
X43097850Y-51164187D01*
X43102777Y-51160533D01*
X43108038Y-51157380D01*
X43113582Y-51154758D01*
X43119357Y-51152691D01*
X43125307Y-51151201D01*
X43131374Y-51150301D01*
X43137500Y-51150000D01*
X43262500Y-51150000D01*
X43268626Y-51150301D01*
G37*
G36*
X43768626Y-51150301D02*
G01*
X43774693Y-51151201D01*
X43780643Y-51152691D01*
X43786418Y-51154758D01*
X43791962Y-51157380D01*
X43797223Y-51160533D01*
X43802150Y-51164187D01*
X43806694Y-51168306D01*
X43810813Y-51172850D01*
X43814467Y-51177777D01*
X43817620Y-51183038D01*
X43820242Y-51188582D01*
X43822309Y-51194357D01*
X43823799Y-51200307D01*
X43824699Y-51206374D01*
X43825000Y-51212500D01*
X43825000Y-51887500D01*
X43824699Y-51893626D01*
X43823799Y-51899693D01*
X43822309Y-51905643D01*
X43820242Y-51911418D01*
X43817620Y-51916962D01*
X43814467Y-51922223D01*
X43810813Y-51927150D01*
X43806694Y-51931694D01*
X43802150Y-51935813D01*
X43797223Y-51939467D01*
X43791962Y-51942620D01*
X43786418Y-51945242D01*
X43780643Y-51947309D01*
X43774693Y-51948799D01*
X43768626Y-51949699D01*
X43762500Y-51950000D01*
X43637500Y-51950000D01*
X43631374Y-51949699D01*
X43625307Y-51948799D01*
X43619357Y-51947309D01*
X43613582Y-51945242D01*
X43608038Y-51942620D01*
X43602777Y-51939467D01*
X43597850Y-51935813D01*
X43593306Y-51931694D01*
X43589187Y-51927150D01*
X43585533Y-51922223D01*
X43582380Y-51916962D01*
X43579758Y-51911418D01*
X43577691Y-51905643D01*
X43576201Y-51899693D01*
X43575301Y-51893626D01*
X43575000Y-51887500D01*
X43575000Y-51212500D01*
X43575301Y-51206374D01*
X43576201Y-51200307D01*
X43577691Y-51194357D01*
X43579758Y-51188582D01*
X43582380Y-51183038D01*
X43585533Y-51177777D01*
X43589187Y-51172850D01*
X43593306Y-51168306D01*
X43597850Y-51164187D01*
X43602777Y-51160533D01*
X43608038Y-51157380D01*
X43613582Y-51154758D01*
X43619357Y-51152691D01*
X43625307Y-51151201D01*
X43631374Y-51150301D01*
X43637500Y-51150000D01*
X43762500Y-51150000D01*
X43768626Y-51150301D01*
G37*
G36*
X44993626Y-52375301D02*
G01*
X44999693Y-52376201D01*
X45005643Y-52377691D01*
X45011418Y-52379758D01*
X45016962Y-52382380D01*
X45022223Y-52385533D01*
X45027150Y-52389187D01*
X45031694Y-52393306D01*
X45035813Y-52397850D01*
X45039467Y-52402777D01*
X45042620Y-52408038D01*
X45045242Y-52413582D01*
X45047309Y-52419357D01*
X45048799Y-52425307D01*
X45049699Y-52431374D01*
X45050000Y-52437500D01*
X45050000Y-52562500D01*
X45049699Y-52568626D01*
X45048799Y-52574693D01*
X45047309Y-52580643D01*
X45045242Y-52586418D01*
X45042620Y-52591962D01*
X45039467Y-52597223D01*
X45035813Y-52602150D01*
X45031694Y-52606694D01*
X45027150Y-52610813D01*
X45022223Y-52614467D01*
X45016962Y-52617620D01*
X45011418Y-52620242D01*
X45005643Y-52622309D01*
X44999693Y-52623799D01*
X44993626Y-52624699D01*
X44987500Y-52625000D01*
X44312500Y-52625000D01*
X44306374Y-52624699D01*
X44300307Y-52623799D01*
X44294357Y-52622309D01*
X44288582Y-52620242D01*
X44283038Y-52617620D01*
X44277777Y-52614467D01*
X44272850Y-52610813D01*
X44268306Y-52606694D01*
X44264187Y-52602150D01*
X44260533Y-52597223D01*
X44257380Y-52591962D01*
X44254758Y-52586418D01*
X44252691Y-52580643D01*
X44251201Y-52574693D01*
X44250301Y-52568626D01*
X44250000Y-52562500D01*
X44250000Y-52437500D01*
X44250301Y-52431374D01*
X44251201Y-52425307D01*
X44252691Y-52419357D01*
X44254758Y-52413582D01*
X44257380Y-52408038D01*
X44260533Y-52402777D01*
X44264187Y-52397850D01*
X44268306Y-52393306D01*
X44272850Y-52389187D01*
X44277777Y-52385533D01*
X44283038Y-52382380D01*
X44288582Y-52379758D01*
X44294357Y-52377691D01*
X44300307Y-52376201D01*
X44306374Y-52375301D01*
X44312500Y-52375000D01*
X44987500Y-52375000D01*
X44993626Y-52375301D01*
G37*
G36*
X44993626Y-52875301D02*
G01*
X44999693Y-52876201D01*
X45005643Y-52877691D01*
X45011418Y-52879758D01*
X45016962Y-52882380D01*
X45022223Y-52885533D01*
X45027150Y-52889187D01*
X45031694Y-52893306D01*
X45035813Y-52897850D01*
X45039467Y-52902777D01*
X45042620Y-52908038D01*
X45045242Y-52913582D01*
X45047309Y-52919357D01*
X45048799Y-52925307D01*
X45049699Y-52931374D01*
X45050000Y-52937500D01*
X45050000Y-53062500D01*
X45049699Y-53068626D01*
X45048799Y-53074693D01*
X45047309Y-53080643D01*
X45045242Y-53086418D01*
X45042620Y-53091962D01*
X45039467Y-53097223D01*
X45035813Y-53102150D01*
X45031694Y-53106694D01*
X45027150Y-53110813D01*
X45022223Y-53114467D01*
X45016962Y-53117620D01*
X45011418Y-53120242D01*
X45005643Y-53122309D01*
X44999693Y-53123799D01*
X44993626Y-53124699D01*
X44987500Y-53125000D01*
X44312500Y-53125000D01*
X44306374Y-53124699D01*
X44300307Y-53123799D01*
X44294357Y-53122309D01*
X44288582Y-53120242D01*
X44283038Y-53117620D01*
X44277777Y-53114467D01*
X44272850Y-53110813D01*
X44268306Y-53106694D01*
X44264187Y-53102150D01*
X44260533Y-53097223D01*
X44257380Y-53091962D01*
X44254758Y-53086418D01*
X44252691Y-53080643D01*
X44251201Y-53074693D01*
X44250301Y-53068626D01*
X44250000Y-53062500D01*
X44250000Y-52937500D01*
X44250301Y-52931374D01*
X44251201Y-52925307D01*
X44252691Y-52919357D01*
X44254758Y-52913582D01*
X44257380Y-52908038D01*
X44260533Y-52902777D01*
X44264187Y-52897850D01*
X44268306Y-52893306D01*
X44272850Y-52889187D01*
X44277777Y-52885533D01*
X44283038Y-52882380D01*
X44288582Y-52879758D01*
X44294357Y-52877691D01*
X44300307Y-52876201D01*
X44306374Y-52875301D01*
X44312500Y-52875000D01*
X44987500Y-52875000D01*
X44993626Y-52875301D01*
G37*
G36*
X44993626Y-53375301D02*
G01*
X44999693Y-53376201D01*
X45005643Y-53377691D01*
X45011418Y-53379758D01*
X45016962Y-53382380D01*
X45022223Y-53385533D01*
X45027150Y-53389187D01*
X45031694Y-53393306D01*
X45035813Y-53397850D01*
X45039467Y-53402777D01*
X45042620Y-53408038D01*
X45045242Y-53413582D01*
X45047309Y-53419357D01*
X45048799Y-53425307D01*
X45049699Y-53431374D01*
X45050000Y-53437500D01*
X45050000Y-53562500D01*
X45049699Y-53568626D01*
X45048799Y-53574693D01*
X45047309Y-53580643D01*
X45045242Y-53586418D01*
X45042620Y-53591962D01*
X45039467Y-53597223D01*
X45035813Y-53602150D01*
X45031694Y-53606694D01*
X45027150Y-53610813D01*
X45022223Y-53614467D01*
X45016962Y-53617620D01*
X45011418Y-53620242D01*
X45005643Y-53622309D01*
X44999693Y-53623799D01*
X44993626Y-53624699D01*
X44987500Y-53625000D01*
X44312500Y-53625000D01*
X44306374Y-53624699D01*
X44300307Y-53623799D01*
X44294357Y-53622309D01*
X44288582Y-53620242D01*
X44283038Y-53617620D01*
X44277777Y-53614467D01*
X44272850Y-53610813D01*
X44268306Y-53606694D01*
X44264187Y-53602150D01*
X44260533Y-53597223D01*
X44257380Y-53591962D01*
X44254758Y-53586418D01*
X44252691Y-53580643D01*
X44251201Y-53574693D01*
X44250301Y-53568626D01*
X44250000Y-53562500D01*
X44250000Y-53437500D01*
X44250301Y-53431374D01*
X44251201Y-53425307D01*
X44252691Y-53419357D01*
X44254758Y-53413582D01*
X44257380Y-53408038D01*
X44260533Y-53402777D01*
X44264187Y-53397850D01*
X44268306Y-53393306D01*
X44272850Y-53389187D01*
X44277777Y-53385533D01*
X44283038Y-53382380D01*
X44288582Y-53379758D01*
X44294357Y-53377691D01*
X44300307Y-53376201D01*
X44306374Y-53375301D01*
X44312500Y-53375000D01*
X44987500Y-53375000D01*
X44993626Y-53375301D01*
G37*
G36*
X44993626Y-53875301D02*
G01*
X44999693Y-53876201D01*
X45005643Y-53877691D01*
X45011418Y-53879758D01*
X45016962Y-53882380D01*
X45022223Y-53885533D01*
X45027150Y-53889187D01*
X45031694Y-53893306D01*
X45035813Y-53897850D01*
X45039467Y-53902777D01*
X45042620Y-53908038D01*
X45045242Y-53913582D01*
X45047309Y-53919357D01*
X45048799Y-53925307D01*
X45049699Y-53931374D01*
X45050000Y-53937500D01*
X45050000Y-54062500D01*
X45049699Y-54068626D01*
X45048799Y-54074693D01*
X45047309Y-54080643D01*
X45045242Y-54086418D01*
X45042620Y-54091962D01*
X45039467Y-54097223D01*
X45035813Y-54102150D01*
X45031694Y-54106694D01*
X45027150Y-54110813D01*
X45022223Y-54114467D01*
X45016962Y-54117620D01*
X45011418Y-54120242D01*
X45005643Y-54122309D01*
X44999693Y-54123799D01*
X44993626Y-54124699D01*
X44987500Y-54125000D01*
X44312500Y-54125000D01*
X44306374Y-54124699D01*
X44300307Y-54123799D01*
X44294357Y-54122309D01*
X44288582Y-54120242D01*
X44283038Y-54117620D01*
X44277777Y-54114467D01*
X44272850Y-54110813D01*
X44268306Y-54106694D01*
X44264187Y-54102150D01*
X44260533Y-54097223D01*
X44257380Y-54091962D01*
X44254758Y-54086418D01*
X44252691Y-54080643D01*
X44251201Y-54074693D01*
X44250301Y-54068626D01*
X44250000Y-54062500D01*
X44250000Y-53937500D01*
X44250301Y-53931374D01*
X44251201Y-53925307D01*
X44252691Y-53919357D01*
X44254758Y-53913582D01*
X44257380Y-53908038D01*
X44260533Y-53902777D01*
X44264187Y-53897850D01*
X44268306Y-53893306D01*
X44272850Y-53889187D01*
X44277777Y-53885533D01*
X44283038Y-53882380D01*
X44288582Y-53879758D01*
X44294357Y-53877691D01*
X44300307Y-53876201D01*
X44306374Y-53875301D01*
X44312500Y-53875000D01*
X44987500Y-53875000D01*
X44993626Y-53875301D01*
G37*
G36*
X44993626Y-54375301D02*
G01*
X44999693Y-54376201D01*
X45005643Y-54377691D01*
X45011418Y-54379758D01*
X45016962Y-54382380D01*
X45022223Y-54385533D01*
X45027150Y-54389187D01*
X45031694Y-54393306D01*
X45035813Y-54397850D01*
X45039467Y-54402777D01*
X45042620Y-54408038D01*
X45045242Y-54413582D01*
X45047309Y-54419357D01*
X45048799Y-54425307D01*
X45049699Y-54431374D01*
X45050000Y-54437500D01*
X45050000Y-54562500D01*
X45049699Y-54568626D01*
X45048799Y-54574693D01*
X45047309Y-54580643D01*
X45045242Y-54586418D01*
X45042620Y-54591962D01*
X45039467Y-54597223D01*
X45035813Y-54602150D01*
X45031694Y-54606694D01*
X45027150Y-54610813D01*
X45022223Y-54614467D01*
X45016962Y-54617620D01*
X45011418Y-54620242D01*
X45005643Y-54622309D01*
X44999693Y-54623799D01*
X44993626Y-54624699D01*
X44987500Y-54625000D01*
X44312500Y-54625000D01*
X44306374Y-54624699D01*
X44300307Y-54623799D01*
X44294357Y-54622309D01*
X44288582Y-54620242D01*
X44283038Y-54617620D01*
X44277777Y-54614467D01*
X44272850Y-54610813D01*
X44268306Y-54606694D01*
X44264187Y-54602150D01*
X44260533Y-54597223D01*
X44257380Y-54591962D01*
X44254758Y-54586418D01*
X44252691Y-54580643D01*
X44251201Y-54574693D01*
X44250301Y-54568626D01*
X44250000Y-54562500D01*
X44250000Y-54437500D01*
X44250301Y-54431374D01*
X44251201Y-54425307D01*
X44252691Y-54419357D01*
X44254758Y-54413582D01*
X44257380Y-54408038D01*
X44260533Y-54402777D01*
X44264187Y-54397850D01*
X44268306Y-54393306D01*
X44272850Y-54389187D01*
X44277777Y-54385533D01*
X44283038Y-54382380D01*
X44288582Y-54379758D01*
X44294357Y-54377691D01*
X44300307Y-54376201D01*
X44306374Y-54375301D01*
X44312500Y-54375000D01*
X44987500Y-54375000D01*
X44993626Y-54375301D01*
G37*
G36*
X44993626Y-54875301D02*
G01*
X44999693Y-54876201D01*
X45005643Y-54877691D01*
X45011418Y-54879758D01*
X45016962Y-54882380D01*
X45022223Y-54885533D01*
X45027150Y-54889187D01*
X45031694Y-54893306D01*
X45035813Y-54897850D01*
X45039467Y-54902777D01*
X45042620Y-54908038D01*
X45045242Y-54913582D01*
X45047309Y-54919357D01*
X45048799Y-54925307D01*
X45049699Y-54931374D01*
X45050000Y-54937500D01*
X45050000Y-55062500D01*
X45049699Y-55068626D01*
X45048799Y-55074693D01*
X45047309Y-55080643D01*
X45045242Y-55086418D01*
X45042620Y-55091962D01*
X45039467Y-55097223D01*
X45035813Y-55102150D01*
X45031694Y-55106694D01*
X45027150Y-55110813D01*
X45022223Y-55114467D01*
X45016962Y-55117620D01*
X45011418Y-55120242D01*
X45005643Y-55122309D01*
X44999693Y-55123799D01*
X44993626Y-55124699D01*
X44987500Y-55125000D01*
X44312500Y-55125000D01*
X44306374Y-55124699D01*
X44300307Y-55123799D01*
X44294357Y-55122309D01*
X44288582Y-55120242D01*
X44283038Y-55117620D01*
X44277777Y-55114467D01*
X44272850Y-55110813D01*
X44268306Y-55106694D01*
X44264187Y-55102150D01*
X44260533Y-55097223D01*
X44257380Y-55091962D01*
X44254758Y-55086418D01*
X44252691Y-55080643D01*
X44251201Y-55074693D01*
X44250301Y-55068626D01*
X44250000Y-55062500D01*
X44250000Y-54937500D01*
X44250301Y-54931374D01*
X44251201Y-54925307D01*
X44252691Y-54919357D01*
X44254758Y-54913582D01*
X44257380Y-54908038D01*
X44260533Y-54902777D01*
X44264187Y-54897850D01*
X44268306Y-54893306D01*
X44272850Y-54889187D01*
X44277777Y-54885533D01*
X44283038Y-54882380D01*
X44288582Y-54879758D01*
X44294357Y-54877691D01*
X44300307Y-54876201D01*
X44306374Y-54875301D01*
X44312500Y-54875000D01*
X44987500Y-54875000D01*
X44993626Y-54875301D01*
G37*
G36*
X44993626Y-55375301D02*
G01*
X44999693Y-55376201D01*
X45005643Y-55377691D01*
X45011418Y-55379758D01*
X45016962Y-55382380D01*
X45022223Y-55385533D01*
X45027150Y-55389187D01*
X45031694Y-55393306D01*
X45035813Y-55397850D01*
X45039467Y-55402777D01*
X45042620Y-55408038D01*
X45045242Y-55413582D01*
X45047309Y-55419357D01*
X45048799Y-55425307D01*
X45049699Y-55431374D01*
X45050000Y-55437500D01*
X45050000Y-55562500D01*
X45049699Y-55568626D01*
X45048799Y-55574693D01*
X45047309Y-55580643D01*
X45045242Y-55586418D01*
X45042620Y-55591962D01*
X45039467Y-55597223D01*
X45035813Y-55602150D01*
X45031694Y-55606694D01*
X45027150Y-55610813D01*
X45022223Y-55614467D01*
X45016962Y-55617620D01*
X45011418Y-55620242D01*
X45005643Y-55622309D01*
X44999693Y-55623799D01*
X44993626Y-55624699D01*
X44987500Y-55625000D01*
X44312500Y-55625000D01*
X44306374Y-55624699D01*
X44300307Y-55623799D01*
X44294357Y-55622309D01*
X44288582Y-55620242D01*
X44283038Y-55617620D01*
X44277777Y-55614467D01*
X44272850Y-55610813D01*
X44268306Y-55606694D01*
X44264187Y-55602150D01*
X44260533Y-55597223D01*
X44257380Y-55591962D01*
X44254758Y-55586418D01*
X44252691Y-55580643D01*
X44251201Y-55574693D01*
X44250301Y-55568626D01*
X44250000Y-55562500D01*
X44250000Y-55437500D01*
X44250301Y-55431374D01*
X44251201Y-55425307D01*
X44252691Y-55419357D01*
X44254758Y-55413582D01*
X44257380Y-55408038D01*
X44260533Y-55402777D01*
X44264187Y-55397850D01*
X44268306Y-55393306D01*
X44272850Y-55389187D01*
X44277777Y-55385533D01*
X44283038Y-55382380D01*
X44288582Y-55379758D01*
X44294357Y-55377691D01*
X44300307Y-55376201D01*
X44306374Y-55375301D01*
X44312500Y-55375000D01*
X44987500Y-55375000D01*
X44993626Y-55375301D01*
G37*
G36*
X43768626Y-56050301D02*
G01*
X43774693Y-56051201D01*
X43780643Y-56052691D01*
X43786418Y-56054758D01*
X43791962Y-56057380D01*
X43797223Y-56060533D01*
X43802150Y-56064187D01*
X43806694Y-56068306D01*
X43810813Y-56072850D01*
X43814467Y-56077777D01*
X43817620Y-56083038D01*
X43820242Y-56088582D01*
X43822309Y-56094357D01*
X43823799Y-56100307D01*
X43824699Y-56106374D01*
X43825000Y-56112500D01*
X43825000Y-56787500D01*
X43824699Y-56793626D01*
X43823799Y-56799693D01*
X43822309Y-56805643D01*
X43820242Y-56811418D01*
X43817620Y-56816962D01*
X43814467Y-56822223D01*
X43810813Y-56827150D01*
X43806694Y-56831694D01*
X43802150Y-56835813D01*
X43797223Y-56839467D01*
X43791962Y-56842620D01*
X43786418Y-56845242D01*
X43780643Y-56847309D01*
X43774693Y-56848799D01*
X43768626Y-56849699D01*
X43762500Y-56850000D01*
X43637500Y-56850000D01*
X43631374Y-56849699D01*
X43625307Y-56848799D01*
X43619357Y-56847309D01*
X43613582Y-56845242D01*
X43608038Y-56842620D01*
X43602777Y-56839467D01*
X43597850Y-56835813D01*
X43593306Y-56831694D01*
X43589187Y-56827150D01*
X43585533Y-56822223D01*
X43582380Y-56816962D01*
X43579758Y-56811418D01*
X43577691Y-56805643D01*
X43576201Y-56799693D01*
X43575301Y-56793626D01*
X43575000Y-56787500D01*
X43575000Y-56112500D01*
X43575301Y-56106374D01*
X43576201Y-56100307D01*
X43577691Y-56094357D01*
X43579758Y-56088582D01*
X43582380Y-56083038D01*
X43585533Y-56077777D01*
X43589187Y-56072850D01*
X43593306Y-56068306D01*
X43597850Y-56064187D01*
X43602777Y-56060533D01*
X43608038Y-56057380D01*
X43613582Y-56054758D01*
X43619357Y-56052691D01*
X43625307Y-56051201D01*
X43631374Y-56050301D01*
X43637500Y-56050000D01*
X43762500Y-56050000D01*
X43768626Y-56050301D01*
G37*
G36*
X43268626Y-56050301D02*
G01*
X43274693Y-56051201D01*
X43280643Y-56052691D01*
X43286418Y-56054758D01*
X43291962Y-56057380D01*
X43297223Y-56060533D01*
X43302150Y-56064187D01*
X43306694Y-56068306D01*
X43310813Y-56072850D01*
X43314467Y-56077777D01*
X43317620Y-56083038D01*
X43320242Y-56088582D01*
X43322309Y-56094357D01*
X43323799Y-56100307D01*
X43324699Y-56106374D01*
X43325000Y-56112500D01*
X43325000Y-56787500D01*
X43324699Y-56793626D01*
X43323799Y-56799693D01*
X43322309Y-56805643D01*
X43320242Y-56811418D01*
X43317620Y-56816962D01*
X43314467Y-56822223D01*
X43310813Y-56827150D01*
X43306694Y-56831694D01*
X43302150Y-56835813D01*
X43297223Y-56839467D01*
X43291962Y-56842620D01*
X43286418Y-56845242D01*
X43280643Y-56847309D01*
X43274693Y-56848799D01*
X43268626Y-56849699D01*
X43262500Y-56850000D01*
X43137500Y-56850000D01*
X43131374Y-56849699D01*
X43125307Y-56848799D01*
X43119357Y-56847309D01*
X43113582Y-56845242D01*
X43108038Y-56842620D01*
X43102777Y-56839467D01*
X43097850Y-56835813D01*
X43093306Y-56831694D01*
X43089187Y-56827150D01*
X43085533Y-56822223D01*
X43082380Y-56816962D01*
X43079758Y-56811418D01*
X43077691Y-56805643D01*
X43076201Y-56799693D01*
X43075301Y-56793626D01*
X43075000Y-56787500D01*
X43075000Y-56112500D01*
X43075301Y-56106374D01*
X43076201Y-56100307D01*
X43077691Y-56094357D01*
X43079758Y-56088582D01*
X43082380Y-56083038D01*
X43085533Y-56077777D01*
X43089187Y-56072850D01*
X43093306Y-56068306D01*
X43097850Y-56064187D01*
X43102777Y-56060533D01*
X43108038Y-56057380D01*
X43113582Y-56054758D01*
X43119357Y-56052691D01*
X43125307Y-56051201D01*
X43131374Y-56050301D01*
X43137500Y-56050000D01*
X43262500Y-56050000D01*
X43268626Y-56050301D01*
G37*
G36*
X42768626Y-56050301D02*
G01*
X42774693Y-56051201D01*
X42780643Y-56052691D01*
X42786418Y-56054758D01*
X42791962Y-56057380D01*
X42797223Y-56060533D01*
X42802150Y-56064187D01*
X42806694Y-56068306D01*
X42810813Y-56072850D01*
X42814467Y-56077777D01*
X42817620Y-56083038D01*
X42820242Y-56088582D01*
X42822309Y-56094357D01*
X42823799Y-56100307D01*
X42824699Y-56106374D01*
X42825000Y-56112500D01*
X42825000Y-56787500D01*
X42824699Y-56793626D01*
X42823799Y-56799693D01*
X42822309Y-56805643D01*
X42820242Y-56811418D01*
X42817620Y-56816962D01*
X42814467Y-56822223D01*
X42810813Y-56827150D01*
X42806694Y-56831694D01*
X42802150Y-56835813D01*
X42797223Y-56839467D01*
X42791962Y-56842620D01*
X42786418Y-56845242D01*
X42780643Y-56847309D01*
X42774693Y-56848799D01*
X42768626Y-56849699D01*
X42762500Y-56850000D01*
X42637500Y-56850000D01*
X42631374Y-56849699D01*
X42625307Y-56848799D01*
X42619357Y-56847309D01*
X42613582Y-56845242D01*
X42608038Y-56842620D01*
X42602777Y-56839467D01*
X42597850Y-56835813D01*
X42593306Y-56831694D01*
X42589187Y-56827150D01*
X42585533Y-56822223D01*
X42582380Y-56816962D01*
X42579758Y-56811418D01*
X42577691Y-56805643D01*
X42576201Y-56799693D01*
X42575301Y-56793626D01*
X42575000Y-56787500D01*
X42575000Y-56112500D01*
X42575301Y-56106374D01*
X42576201Y-56100307D01*
X42577691Y-56094357D01*
X42579758Y-56088582D01*
X42582380Y-56083038D01*
X42585533Y-56077777D01*
X42589187Y-56072850D01*
X42593306Y-56068306D01*
X42597850Y-56064187D01*
X42602777Y-56060533D01*
X42608038Y-56057380D01*
X42613582Y-56054758D01*
X42619357Y-56052691D01*
X42625307Y-56051201D01*
X42631374Y-56050301D01*
X42637500Y-56050000D01*
X42762500Y-56050000D01*
X42768626Y-56050301D01*
G37*
G36*
X42268626Y-56050301D02*
G01*
X42274693Y-56051201D01*
X42280643Y-56052691D01*
X42286418Y-56054758D01*
X42291962Y-56057380D01*
X42297223Y-56060533D01*
X42302150Y-56064187D01*
X42306694Y-56068306D01*
X42310813Y-56072850D01*
X42314467Y-56077777D01*
X42317620Y-56083038D01*
X42320242Y-56088582D01*
X42322309Y-56094357D01*
X42323799Y-56100307D01*
X42324699Y-56106374D01*
X42325000Y-56112500D01*
X42325000Y-56787500D01*
X42324699Y-56793626D01*
X42323799Y-56799693D01*
X42322309Y-56805643D01*
X42320242Y-56811418D01*
X42317620Y-56816962D01*
X42314467Y-56822223D01*
X42310813Y-56827150D01*
X42306694Y-56831694D01*
X42302150Y-56835813D01*
X42297223Y-56839467D01*
X42291962Y-56842620D01*
X42286418Y-56845242D01*
X42280643Y-56847309D01*
X42274693Y-56848799D01*
X42268626Y-56849699D01*
X42262500Y-56850000D01*
X42137500Y-56850000D01*
X42131374Y-56849699D01*
X42125307Y-56848799D01*
X42119357Y-56847309D01*
X42113582Y-56845242D01*
X42108038Y-56842620D01*
X42102777Y-56839467D01*
X42097850Y-56835813D01*
X42093306Y-56831694D01*
X42089187Y-56827150D01*
X42085533Y-56822223D01*
X42082380Y-56816962D01*
X42079758Y-56811418D01*
X42077691Y-56805643D01*
X42076201Y-56799693D01*
X42075301Y-56793626D01*
X42075000Y-56787500D01*
X42075000Y-56112500D01*
X42075301Y-56106374D01*
X42076201Y-56100307D01*
X42077691Y-56094357D01*
X42079758Y-56088582D01*
X42082380Y-56083038D01*
X42085533Y-56077777D01*
X42089187Y-56072850D01*
X42093306Y-56068306D01*
X42097850Y-56064187D01*
X42102777Y-56060533D01*
X42108038Y-56057380D01*
X42113582Y-56054758D01*
X42119357Y-56052691D01*
X42125307Y-56051201D01*
X42131374Y-56050301D01*
X42137500Y-56050000D01*
X42262500Y-56050000D01*
X42268626Y-56050301D01*
G37*
G36*
X41768626Y-56050301D02*
G01*
X41774693Y-56051201D01*
X41780643Y-56052691D01*
X41786418Y-56054758D01*
X41791962Y-56057380D01*
X41797223Y-56060533D01*
X41802150Y-56064187D01*
X41806694Y-56068306D01*
X41810813Y-56072850D01*
X41814467Y-56077777D01*
X41817620Y-56083038D01*
X41820242Y-56088582D01*
X41822309Y-56094357D01*
X41823799Y-56100307D01*
X41824699Y-56106374D01*
X41825000Y-56112500D01*
X41825000Y-56787500D01*
X41824699Y-56793626D01*
X41823799Y-56799693D01*
X41822309Y-56805643D01*
X41820242Y-56811418D01*
X41817620Y-56816962D01*
X41814467Y-56822223D01*
X41810813Y-56827150D01*
X41806694Y-56831694D01*
X41802150Y-56835813D01*
X41797223Y-56839467D01*
X41791962Y-56842620D01*
X41786418Y-56845242D01*
X41780643Y-56847309D01*
X41774693Y-56848799D01*
X41768626Y-56849699D01*
X41762500Y-56850000D01*
X41637500Y-56850000D01*
X41631374Y-56849699D01*
X41625307Y-56848799D01*
X41619357Y-56847309D01*
X41613582Y-56845242D01*
X41608038Y-56842620D01*
X41602777Y-56839467D01*
X41597850Y-56835813D01*
X41593306Y-56831694D01*
X41589187Y-56827150D01*
X41585533Y-56822223D01*
X41582380Y-56816962D01*
X41579758Y-56811418D01*
X41577691Y-56805643D01*
X41576201Y-56799693D01*
X41575301Y-56793626D01*
X41575000Y-56787500D01*
X41575000Y-56112500D01*
X41575301Y-56106374D01*
X41576201Y-56100307D01*
X41577691Y-56094357D01*
X41579758Y-56088582D01*
X41582380Y-56083038D01*
X41585533Y-56077777D01*
X41589187Y-56072850D01*
X41593306Y-56068306D01*
X41597850Y-56064187D01*
X41602777Y-56060533D01*
X41608038Y-56057380D01*
X41613582Y-56054758D01*
X41619357Y-56052691D01*
X41625307Y-56051201D01*
X41631374Y-56050301D01*
X41637500Y-56050000D01*
X41762500Y-56050000D01*
X41768626Y-56050301D01*
G37*
G36*
X41268626Y-56050301D02*
G01*
X41274693Y-56051201D01*
X41280643Y-56052691D01*
X41286418Y-56054758D01*
X41291962Y-56057380D01*
X41297223Y-56060533D01*
X41302150Y-56064187D01*
X41306694Y-56068306D01*
X41310813Y-56072850D01*
X41314467Y-56077777D01*
X41317620Y-56083038D01*
X41320242Y-56088582D01*
X41322309Y-56094357D01*
X41323799Y-56100307D01*
X41324699Y-56106374D01*
X41325000Y-56112500D01*
X41325000Y-56787500D01*
X41324699Y-56793626D01*
X41323799Y-56799693D01*
X41322309Y-56805643D01*
X41320242Y-56811418D01*
X41317620Y-56816962D01*
X41314467Y-56822223D01*
X41310813Y-56827150D01*
X41306694Y-56831694D01*
X41302150Y-56835813D01*
X41297223Y-56839467D01*
X41291962Y-56842620D01*
X41286418Y-56845242D01*
X41280643Y-56847309D01*
X41274693Y-56848799D01*
X41268626Y-56849699D01*
X41262500Y-56850000D01*
X41137500Y-56850000D01*
X41131374Y-56849699D01*
X41125307Y-56848799D01*
X41119357Y-56847309D01*
X41113582Y-56845242D01*
X41108038Y-56842620D01*
X41102777Y-56839467D01*
X41097850Y-56835813D01*
X41093306Y-56831694D01*
X41089187Y-56827150D01*
X41085533Y-56822223D01*
X41082380Y-56816962D01*
X41079758Y-56811418D01*
X41077691Y-56805643D01*
X41076201Y-56799693D01*
X41075301Y-56793626D01*
X41075000Y-56787500D01*
X41075000Y-56112500D01*
X41075301Y-56106374D01*
X41076201Y-56100307D01*
X41077691Y-56094357D01*
X41079758Y-56088582D01*
X41082380Y-56083038D01*
X41085533Y-56077777D01*
X41089187Y-56072850D01*
X41093306Y-56068306D01*
X41097850Y-56064187D01*
X41102777Y-56060533D01*
X41108038Y-56057380D01*
X41113582Y-56054758D01*
X41119357Y-56052691D01*
X41125307Y-56051201D01*
X41131374Y-56050301D01*
X41137500Y-56050000D01*
X41262500Y-56050000D01*
X41268626Y-56050301D01*
G37*
G36*
X40768626Y-56050301D02*
G01*
X40774693Y-56051201D01*
X40780643Y-56052691D01*
X40786418Y-56054758D01*
X40791962Y-56057380D01*
X40797223Y-56060533D01*
X40802150Y-56064187D01*
X40806694Y-56068306D01*
X40810813Y-56072850D01*
X40814467Y-56077777D01*
X40817620Y-56083038D01*
X40820242Y-56088582D01*
X40822309Y-56094357D01*
X40823799Y-56100307D01*
X40824699Y-56106374D01*
X40825000Y-56112500D01*
X40825000Y-56787500D01*
X40824699Y-56793626D01*
X40823799Y-56799693D01*
X40822309Y-56805643D01*
X40820242Y-56811418D01*
X40817620Y-56816962D01*
X40814467Y-56822223D01*
X40810813Y-56827150D01*
X40806694Y-56831694D01*
X40802150Y-56835813D01*
X40797223Y-56839467D01*
X40791962Y-56842620D01*
X40786418Y-56845242D01*
X40780643Y-56847309D01*
X40774693Y-56848799D01*
X40768626Y-56849699D01*
X40762500Y-56850000D01*
X40637500Y-56850000D01*
X40631374Y-56849699D01*
X40625307Y-56848799D01*
X40619357Y-56847309D01*
X40613582Y-56845242D01*
X40608038Y-56842620D01*
X40602777Y-56839467D01*
X40597850Y-56835813D01*
X40593306Y-56831694D01*
X40589187Y-56827150D01*
X40585533Y-56822223D01*
X40582380Y-56816962D01*
X40579758Y-56811418D01*
X40577691Y-56805643D01*
X40576201Y-56799693D01*
X40575301Y-56793626D01*
X40575000Y-56787500D01*
X40575000Y-56112500D01*
X40575301Y-56106374D01*
X40576201Y-56100307D01*
X40577691Y-56094357D01*
X40579758Y-56088582D01*
X40582380Y-56083038D01*
X40585533Y-56077777D01*
X40589187Y-56072850D01*
X40593306Y-56068306D01*
X40597850Y-56064187D01*
X40602777Y-56060533D01*
X40608038Y-56057380D01*
X40613582Y-56054758D01*
X40619357Y-56052691D01*
X40625307Y-56051201D01*
X40631374Y-56050301D01*
X40637500Y-56050000D01*
X40762500Y-56050000D01*
X40768626Y-56050301D01*
G37*
G36*
X40093626Y-55375301D02*
G01*
X40099693Y-55376201D01*
X40105643Y-55377691D01*
X40111418Y-55379758D01*
X40116962Y-55382380D01*
X40122223Y-55385533D01*
X40127150Y-55389187D01*
X40131694Y-55393306D01*
X40135813Y-55397850D01*
X40139467Y-55402777D01*
X40142620Y-55408038D01*
X40145242Y-55413582D01*
X40147309Y-55419357D01*
X40148799Y-55425307D01*
X40149699Y-55431374D01*
X40150000Y-55437500D01*
X40150000Y-55562500D01*
X40149699Y-55568626D01*
X40148799Y-55574693D01*
X40147309Y-55580643D01*
X40145242Y-55586418D01*
X40142620Y-55591962D01*
X40139467Y-55597223D01*
X40135813Y-55602150D01*
X40131694Y-55606694D01*
X40127150Y-55610813D01*
X40122223Y-55614467D01*
X40116962Y-55617620D01*
X40111418Y-55620242D01*
X40105643Y-55622309D01*
X40099693Y-55623799D01*
X40093626Y-55624699D01*
X40087500Y-55625000D01*
X39412500Y-55625000D01*
X39406374Y-55624699D01*
X39400307Y-55623799D01*
X39394357Y-55622309D01*
X39388582Y-55620242D01*
X39383038Y-55617620D01*
X39377777Y-55614467D01*
X39372850Y-55610813D01*
X39368306Y-55606694D01*
X39364187Y-55602150D01*
X39360533Y-55597223D01*
X39357380Y-55591962D01*
X39354758Y-55586418D01*
X39352691Y-55580643D01*
X39351201Y-55574693D01*
X39350301Y-55568626D01*
X39350000Y-55562500D01*
X39350000Y-55437500D01*
X39350301Y-55431374D01*
X39351201Y-55425307D01*
X39352691Y-55419357D01*
X39354758Y-55413582D01*
X39357380Y-55408038D01*
X39360533Y-55402777D01*
X39364187Y-55397850D01*
X39368306Y-55393306D01*
X39372850Y-55389187D01*
X39377777Y-55385533D01*
X39383038Y-55382380D01*
X39388582Y-55379758D01*
X39394357Y-55377691D01*
X39400307Y-55376201D01*
X39406374Y-55375301D01*
X39412500Y-55375000D01*
X40087500Y-55375000D01*
X40093626Y-55375301D01*
G37*
G36*
X40093626Y-54875301D02*
G01*
X40099693Y-54876201D01*
X40105643Y-54877691D01*
X40111418Y-54879758D01*
X40116962Y-54882380D01*
X40122223Y-54885533D01*
X40127150Y-54889187D01*
X40131694Y-54893306D01*
X40135813Y-54897850D01*
X40139467Y-54902777D01*
X40142620Y-54908038D01*
X40145242Y-54913582D01*
X40147309Y-54919357D01*
X40148799Y-54925307D01*
X40149699Y-54931374D01*
X40150000Y-54937500D01*
X40150000Y-55062500D01*
X40149699Y-55068626D01*
X40148799Y-55074693D01*
X40147309Y-55080643D01*
X40145242Y-55086418D01*
X40142620Y-55091962D01*
X40139467Y-55097223D01*
X40135813Y-55102150D01*
X40131694Y-55106694D01*
X40127150Y-55110813D01*
X40122223Y-55114467D01*
X40116962Y-55117620D01*
X40111418Y-55120242D01*
X40105643Y-55122309D01*
X40099693Y-55123799D01*
X40093626Y-55124699D01*
X40087500Y-55125000D01*
X39412500Y-55125000D01*
X39406374Y-55124699D01*
X39400307Y-55123799D01*
X39394357Y-55122309D01*
X39388582Y-55120242D01*
X39383038Y-55117620D01*
X39377777Y-55114467D01*
X39372850Y-55110813D01*
X39368306Y-55106694D01*
X39364187Y-55102150D01*
X39360533Y-55097223D01*
X39357380Y-55091962D01*
X39354758Y-55086418D01*
X39352691Y-55080643D01*
X39351201Y-55074693D01*
X39350301Y-55068626D01*
X39350000Y-55062500D01*
X39350000Y-54937500D01*
X39350301Y-54931374D01*
X39351201Y-54925307D01*
X39352691Y-54919357D01*
X39354758Y-54913582D01*
X39357380Y-54908038D01*
X39360533Y-54902777D01*
X39364187Y-54897850D01*
X39368306Y-54893306D01*
X39372850Y-54889187D01*
X39377777Y-54885533D01*
X39383038Y-54882380D01*
X39388582Y-54879758D01*
X39394357Y-54877691D01*
X39400307Y-54876201D01*
X39406374Y-54875301D01*
X39412500Y-54875000D01*
X40087500Y-54875000D01*
X40093626Y-54875301D01*
G37*
G36*
X40093626Y-54375301D02*
G01*
X40099693Y-54376201D01*
X40105643Y-54377691D01*
X40111418Y-54379758D01*
X40116962Y-54382380D01*
X40122223Y-54385533D01*
X40127150Y-54389187D01*
X40131694Y-54393306D01*
X40135813Y-54397850D01*
X40139467Y-54402777D01*
X40142620Y-54408038D01*
X40145242Y-54413582D01*
X40147309Y-54419357D01*
X40148799Y-54425307D01*
X40149699Y-54431374D01*
X40150000Y-54437500D01*
X40150000Y-54562500D01*
X40149699Y-54568626D01*
X40148799Y-54574693D01*
X40147309Y-54580643D01*
X40145242Y-54586418D01*
X40142620Y-54591962D01*
X40139467Y-54597223D01*
X40135813Y-54602150D01*
X40131694Y-54606694D01*
X40127150Y-54610813D01*
X40122223Y-54614467D01*
X40116962Y-54617620D01*
X40111418Y-54620242D01*
X40105643Y-54622309D01*
X40099693Y-54623799D01*
X40093626Y-54624699D01*
X40087500Y-54625000D01*
X39412500Y-54625000D01*
X39406374Y-54624699D01*
X39400307Y-54623799D01*
X39394357Y-54622309D01*
X39388582Y-54620242D01*
X39383038Y-54617620D01*
X39377777Y-54614467D01*
X39372850Y-54610813D01*
X39368306Y-54606694D01*
X39364187Y-54602150D01*
X39360533Y-54597223D01*
X39357380Y-54591962D01*
X39354758Y-54586418D01*
X39352691Y-54580643D01*
X39351201Y-54574693D01*
X39350301Y-54568626D01*
X39350000Y-54562500D01*
X39350000Y-54437500D01*
X39350301Y-54431374D01*
X39351201Y-54425307D01*
X39352691Y-54419357D01*
X39354758Y-54413582D01*
X39357380Y-54408038D01*
X39360533Y-54402777D01*
X39364187Y-54397850D01*
X39368306Y-54393306D01*
X39372850Y-54389187D01*
X39377777Y-54385533D01*
X39383038Y-54382380D01*
X39388582Y-54379758D01*
X39394357Y-54377691D01*
X39400307Y-54376201D01*
X39406374Y-54375301D01*
X39412500Y-54375000D01*
X40087500Y-54375000D01*
X40093626Y-54375301D01*
G37*
G36*
X40093626Y-53875301D02*
G01*
X40099693Y-53876201D01*
X40105643Y-53877691D01*
X40111418Y-53879758D01*
X40116962Y-53882380D01*
X40122223Y-53885533D01*
X40127150Y-53889187D01*
X40131694Y-53893306D01*
X40135813Y-53897850D01*
X40139467Y-53902777D01*
X40142620Y-53908038D01*
X40145242Y-53913582D01*
X40147309Y-53919357D01*
X40148799Y-53925307D01*
X40149699Y-53931374D01*
X40150000Y-53937500D01*
X40150000Y-54062500D01*
X40149699Y-54068626D01*
X40148799Y-54074693D01*
X40147309Y-54080643D01*
X40145242Y-54086418D01*
X40142620Y-54091962D01*
X40139467Y-54097223D01*
X40135813Y-54102150D01*
X40131694Y-54106694D01*
X40127150Y-54110813D01*
X40122223Y-54114467D01*
X40116962Y-54117620D01*
X40111418Y-54120242D01*
X40105643Y-54122309D01*
X40099693Y-54123799D01*
X40093626Y-54124699D01*
X40087500Y-54125000D01*
X39412500Y-54125000D01*
X39406374Y-54124699D01*
X39400307Y-54123799D01*
X39394357Y-54122309D01*
X39388582Y-54120242D01*
X39383038Y-54117620D01*
X39377777Y-54114467D01*
X39372850Y-54110813D01*
X39368306Y-54106694D01*
X39364187Y-54102150D01*
X39360533Y-54097223D01*
X39357380Y-54091962D01*
X39354758Y-54086418D01*
X39352691Y-54080643D01*
X39351201Y-54074693D01*
X39350301Y-54068626D01*
X39350000Y-54062500D01*
X39350000Y-53937500D01*
X39350301Y-53931374D01*
X39351201Y-53925307D01*
X39352691Y-53919357D01*
X39354758Y-53913582D01*
X39357380Y-53908038D01*
X39360533Y-53902777D01*
X39364187Y-53897850D01*
X39368306Y-53893306D01*
X39372850Y-53889187D01*
X39377777Y-53885533D01*
X39383038Y-53882380D01*
X39388582Y-53879758D01*
X39394357Y-53877691D01*
X39400307Y-53876201D01*
X39406374Y-53875301D01*
X39412500Y-53875000D01*
X40087500Y-53875000D01*
X40093626Y-53875301D01*
G37*
G36*
X40093626Y-53375301D02*
G01*
X40099693Y-53376201D01*
X40105643Y-53377691D01*
X40111418Y-53379758D01*
X40116962Y-53382380D01*
X40122223Y-53385533D01*
X40127150Y-53389187D01*
X40131694Y-53393306D01*
X40135813Y-53397850D01*
X40139467Y-53402777D01*
X40142620Y-53408038D01*
X40145242Y-53413582D01*
X40147309Y-53419357D01*
X40148799Y-53425307D01*
X40149699Y-53431374D01*
X40150000Y-53437500D01*
X40150000Y-53562500D01*
X40149699Y-53568626D01*
X40148799Y-53574693D01*
X40147309Y-53580643D01*
X40145242Y-53586418D01*
X40142620Y-53591962D01*
X40139467Y-53597223D01*
X40135813Y-53602150D01*
X40131694Y-53606694D01*
X40127150Y-53610813D01*
X40122223Y-53614467D01*
X40116962Y-53617620D01*
X40111418Y-53620242D01*
X40105643Y-53622309D01*
X40099693Y-53623799D01*
X40093626Y-53624699D01*
X40087500Y-53625000D01*
X39412500Y-53625000D01*
X39406374Y-53624699D01*
X39400307Y-53623799D01*
X39394357Y-53622309D01*
X39388582Y-53620242D01*
X39383038Y-53617620D01*
X39377777Y-53614467D01*
X39372850Y-53610813D01*
X39368306Y-53606694D01*
X39364187Y-53602150D01*
X39360533Y-53597223D01*
X39357380Y-53591962D01*
X39354758Y-53586418D01*
X39352691Y-53580643D01*
X39351201Y-53574693D01*
X39350301Y-53568626D01*
X39350000Y-53562500D01*
X39350000Y-53437500D01*
X39350301Y-53431374D01*
X39351201Y-53425307D01*
X39352691Y-53419357D01*
X39354758Y-53413582D01*
X39357380Y-53408038D01*
X39360533Y-53402777D01*
X39364187Y-53397850D01*
X39368306Y-53393306D01*
X39372850Y-53389187D01*
X39377777Y-53385533D01*
X39383038Y-53382380D01*
X39388582Y-53379758D01*
X39394357Y-53377691D01*
X39400307Y-53376201D01*
X39406374Y-53375301D01*
X39412500Y-53375000D01*
X40087500Y-53375000D01*
X40093626Y-53375301D01*
G37*
G36*
X40093626Y-52875301D02*
G01*
X40099693Y-52876201D01*
X40105643Y-52877691D01*
X40111418Y-52879758D01*
X40116962Y-52882380D01*
X40122223Y-52885533D01*
X40127150Y-52889187D01*
X40131694Y-52893306D01*
X40135813Y-52897850D01*
X40139467Y-52902777D01*
X40142620Y-52908038D01*
X40145242Y-52913582D01*
X40147309Y-52919357D01*
X40148799Y-52925307D01*
X40149699Y-52931374D01*
X40150000Y-52937500D01*
X40150000Y-53062500D01*
X40149699Y-53068626D01*
X40148799Y-53074693D01*
X40147309Y-53080643D01*
X40145242Y-53086418D01*
X40142620Y-53091962D01*
X40139467Y-53097223D01*
X40135813Y-53102150D01*
X40131694Y-53106694D01*
X40127150Y-53110813D01*
X40122223Y-53114467D01*
X40116962Y-53117620D01*
X40111418Y-53120242D01*
X40105643Y-53122309D01*
X40099693Y-53123799D01*
X40093626Y-53124699D01*
X40087500Y-53125000D01*
X39412500Y-53125000D01*
X39406374Y-53124699D01*
X39400307Y-53123799D01*
X39394357Y-53122309D01*
X39388582Y-53120242D01*
X39383038Y-53117620D01*
X39377777Y-53114467D01*
X39372850Y-53110813D01*
X39368306Y-53106694D01*
X39364187Y-53102150D01*
X39360533Y-53097223D01*
X39357380Y-53091962D01*
X39354758Y-53086418D01*
X39352691Y-53080643D01*
X39351201Y-53074693D01*
X39350301Y-53068626D01*
X39350000Y-53062500D01*
X39350000Y-52937500D01*
X39350301Y-52931374D01*
X39351201Y-52925307D01*
X39352691Y-52919357D01*
X39354758Y-52913582D01*
X39357380Y-52908038D01*
X39360533Y-52902777D01*
X39364187Y-52897850D01*
X39368306Y-52893306D01*
X39372850Y-52889187D01*
X39377777Y-52885533D01*
X39383038Y-52882380D01*
X39388582Y-52879758D01*
X39394357Y-52877691D01*
X39400307Y-52876201D01*
X39406374Y-52875301D01*
X39412500Y-52875000D01*
X40087500Y-52875000D01*
X40093626Y-52875301D01*
G37*
G36*
X40093626Y-52375301D02*
G01*
X40099693Y-52376201D01*
X40105643Y-52377691D01*
X40111418Y-52379758D01*
X40116962Y-52382380D01*
X40122223Y-52385533D01*
X40127150Y-52389187D01*
X40131694Y-52393306D01*
X40135813Y-52397850D01*
X40139467Y-52402777D01*
X40142620Y-52408038D01*
X40145242Y-52413582D01*
X40147309Y-52419357D01*
X40148799Y-52425307D01*
X40149699Y-52431374D01*
X40150000Y-52437500D01*
X40150000Y-52562500D01*
X40149699Y-52568626D01*
X40148799Y-52574693D01*
X40147309Y-52580643D01*
X40145242Y-52586418D01*
X40142620Y-52591962D01*
X40139467Y-52597223D01*
X40135813Y-52602150D01*
X40131694Y-52606694D01*
X40127150Y-52610813D01*
X40122223Y-52614467D01*
X40116962Y-52617620D01*
X40111418Y-52620242D01*
X40105643Y-52622309D01*
X40099693Y-52623799D01*
X40093626Y-52624699D01*
X40087500Y-52625000D01*
X39412500Y-52625000D01*
X39406374Y-52624699D01*
X39400307Y-52623799D01*
X39394357Y-52622309D01*
X39388582Y-52620242D01*
X39383038Y-52617620D01*
X39377777Y-52614467D01*
X39372850Y-52610813D01*
X39368306Y-52606694D01*
X39364187Y-52602150D01*
X39360533Y-52597223D01*
X39357380Y-52591962D01*
X39354758Y-52586418D01*
X39352691Y-52580643D01*
X39351201Y-52574693D01*
X39350301Y-52568626D01*
X39350000Y-52562500D01*
X39350000Y-52437500D01*
X39350301Y-52431374D01*
X39351201Y-52425307D01*
X39352691Y-52419357D01*
X39354758Y-52413582D01*
X39357380Y-52408038D01*
X39360533Y-52402777D01*
X39364187Y-52397850D01*
X39368306Y-52393306D01*
X39372850Y-52389187D01*
X39377777Y-52385533D01*
X39383038Y-52382380D01*
X39388582Y-52379758D01*
X39394357Y-52377691D01*
X39400307Y-52376201D01*
X39406374Y-52375301D01*
X39412500Y-52375000D01*
X40087500Y-52375000D01*
X40093626Y-52375301D01*
G37*
G36*
X43567054Y-54671083D02*
G01*
X43588895Y-54674323D01*
X43610314Y-54679688D01*
X43631104Y-54687127D01*
X43651064Y-54696568D01*
X43670003Y-54707919D01*
X43687738Y-54721073D01*
X43704099Y-54735901D01*
X43718927Y-54752262D01*
X43732081Y-54769997D01*
X43743432Y-54788936D01*
X43752873Y-54808896D01*
X43760312Y-54829686D01*
X43765677Y-54851105D01*
X43768917Y-54872946D01*
X43770000Y-54895000D01*
X43770000Y-55345000D01*
X43768917Y-55367054D01*
X43765677Y-55388895D01*
X43760312Y-55410314D01*
X43752873Y-55431104D01*
X43743432Y-55451064D01*
X43732081Y-55470003D01*
X43718927Y-55487738D01*
X43704099Y-55504099D01*
X43687738Y-55518927D01*
X43670003Y-55532081D01*
X43651064Y-55543432D01*
X43631104Y-55552873D01*
X43610314Y-55560312D01*
X43588895Y-55565677D01*
X43567054Y-55568917D01*
X43545000Y-55570000D01*
X43095000Y-55570000D01*
X43072946Y-55568917D01*
X43051105Y-55565677D01*
X43029686Y-55560312D01*
X43008896Y-55552873D01*
X42988936Y-55543432D01*
X42969997Y-55532081D01*
X42952262Y-55518927D01*
X42935901Y-55504099D01*
X42921073Y-55487738D01*
X42907919Y-55470003D01*
X42896568Y-55451064D01*
X42887127Y-55431104D01*
X42879688Y-55410314D01*
X42874323Y-55388895D01*
X42871083Y-55367054D01*
X42870000Y-55345000D01*
X42870000Y-54895000D01*
X42871083Y-54872946D01*
X42874323Y-54851105D01*
X42879688Y-54829686D01*
X42887127Y-54808896D01*
X42896568Y-54788936D01*
X42907919Y-54769997D01*
X42921073Y-54752262D01*
X42935901Y-54735901D01*
X42952262Y-54721073D01*
X42969997Y-54707919D01*
X42988936Y-54696568D01*
X43008896Y-54687127D01*
X43029686Y-54679688D01*
X43051105Y-54674323D01*
X43072946Y-54671083D01*
X43095000Y-54670000D01*
X43545000Y-54670000D01*
X43567054Y-54671083D01*
G37*
G36*
X43567054Y-53551083D02*
G01*
X43588895Y-53554323D01*
X43610314Y-53559688D01*
X43631104Y-53567127D01*
X43651064Y-53576568D01*
X43670003Y-53587919D01*
X43687738Y-53601073D01*
X43704099Y-53615901D01*
X43718927Y-53632262D01*
X43732081Y-53649997D01*
X43743432Y-53668936D01*
X43752873Y-53688896D01*
X43760312Y-53709686D01*
X43765677Y-53731105D01*
X43768917Y-53752946D01*
X43770000Y-53775000D01*
X43770000Y-54225000D01*
X43768917Y-54247054D01*
X43765677Y-54268895D01*
X43760312Y-54290314D01*
X43752873Y-54311104D01*
X43743432Y-54331064D01*
X43732081Y-54350003D01*
X43718927Y-54367738D01*
X43704099Y-54384099D01*
X43687738Y-54398927D01*
X43670003Y-54412081D01*
X43651064Y-54423432D01*
X43631104Y-54432873D01*
X43610314Y-54440312D01*
X43588895Y-54445677D01*
X43567054Y-54448917D01*
X43545000Y-54450000D01*
X43095000Y-54450000D01*
X43072946Y-54448917D01*
X43051105Y-54445677D01*
X43029686Y-54440312D01*
X43008896Y-54432873D01*
X42988936Y-54423432D01*
X42969997Y-54412081D01*
X42952262Y-54398927D01*
X42935901Y-54384099D01*
X42921073Y-54367738D01*
X42907919Y-54350003D01*
X42896568Y-54331064D01*
X42887127Y-54311104D01*
X42879688Y-54290314D01*
X42874323Y-54268895D01*
X42871083Y-54247054D01*
X42870000Y-54225000D01*
X42870000Y-53775000D01*
X42871083Y-53752946D01*
X42874323Y-53731105D01*
X42879688Y-53709686D01*
X42887127Y-53688896D01*
X42896568Y-53668936D01*
X42907919Y-53649997D01*
X42921073Y-53632262D01*
X42935901Y-53615901D01*
X42952262Y-53601073D01*
X42969997Y-53587919D01*
X42988936Y-53576568D01*
X43008896Y-53567127D01*
X43029686Y-53559688D01*
X43051105Y-53554323D01*
X43072946Y-53551083D01*
X43095000Y-53550000D01*
X43545000Y-53550000D01*
X43567054Y-53551083D01*
G37*
G36*
X43567054Y-52431083D02*
G01*
X43588895Y-52434323D01*
X43610314Y-52439688D01*
X43631104Y-52447127D01*
X43651064Y-52456568D01*
X43670003Y-52467919D01*
X43687738Y-52481073D01*
X43704099Y-52495901D01*
X43718927Y-52512262D01*
X43732081Y-52529997D01*
X43743432Y-52548936D01*
X43752873Y-52568896D01*
X43760312Y-52589686D01*
X43765677Y-52611105D01*
X43768917Y-52632946D01*
X43770000Y-52655000D01*
X43770000Y-53105000D01*
X43768917Y-53127054D01*
X43765677Y-53148895D01*
X43760312Y-53170314D01*
X43752873Y-53191104D01*
X43743432Y-53211064D01*
X43732081Y-53230003D01*
X43718927Y-53247738D01*
X43704099Y-53264099D01*
X43687738Y-53278927D01*
X43670003Y-53292081D01*
X43651064Y-53303432D01*
X43631104Y-53312873D01*
X43610314Y-53320312D01*
X43588895Y-53325677D01*
X43567054Y-53328917D01*
X43545000Y-53330000D01*
X43095000Y-53330000D01*
X43072946Y-53328917D01*
X43051105Y-53325677D01*
X43029686Y-53320312D01*
X43008896Y-53312873D01*
X42988936Y-53303432D01*
X42969997Y-53292081D01*
X42952262Y-53278927D01*
X42935901Y-53264099D01*
X42921073Y-53247738D01*
X42907919Y-53230003D01*
X42896568Y-53211064D01*
X42887127Y-53191104D01*
X42879688Y-53170314D01*
X42874323Y-53148895D01*
X42871083Y-53127054D01*
X42870000Y-53105000D01*
X42870000Y-52655000D01*
X42871083Y-52632946D01*
X42874323Y-52611105D01*
X42879688Y-52589686D01*
X42887127Y-52568896D01*
X42896568Y-52548936D01*
X42907919Y-52529997D01*
X42921073Y-52512262D01*
X42935901Y-52495901D01*
X42952262Y-52481073D01*
X42969997Y-52467919D01*
X42988936Y-52456568D01*
X43008896Y-52447127D01*
X43029686Y-52439688D01*
X43051105Y-52434323D01*
X43072946Y-52431083D01*
X43095000Y-52430000D01*
X43545000Y-52430000D01*
X43567054Y-52431083D01*
G37*
G36*
X42447054Y-54671083D02*
G01*
X42468895Y-54674323D01*
X42490314Y-54679688D01*
X42511104Y-54687127D01*
X42531064Y-54696568D01*
X42550003Y-54707919D01*
X42567738Y-54721073D01*
X42584099Y-54735901D01*
X42598927Y-54752262D01*
X42612081Y-54769997D01*
X42623432Y-54788936D01*
X42632873Y-54808896D01*
X42640312Y-54829686D01*
X42645677Y-54851105D01*
X42648917Y-54872946D01*
X42650000Y-54895000D01*
X42650000Y-55345000D01*
X42648917Y-55367054D01*
X42645677Y-55388895D01*
X42640312Y-55410314D01*
X42632873Y-55431104D01*
X42623432Y-55451064D01*
X42612081Y-55470003D01*
X42598927Y-55487738D01*
X42584099Y-55504099D01*
X42567738Y-55518927D01*
X42550003Y-55532081D01*
X42531064Y-55543432D01*
X42511104Y-55552873D01*
X42490314Y-55560312D01*
X42468895Y-55565677D01*
X42447054Y-55568917D01*
X42425000Y-55570000D01*
X41975000Y-55570000D01*
X41952946Y-55568917D01*
X41931105Y-55565677D01*
X41909686Y-55560312D01*
X41888896Y-55552873D01*
X41868936Y-55543432D01*
X41849997Y-55532081D01*
X41832262Y-55518927D01*
X41815901Y-55504099D01*
X41801073Y-55487738D01*
X41787919Y-55470003D01*
X41776568Y-55451064D01*
X41767127Y-55431104D01*
X41759688Y-55410314D01*
X41754323Y-55388895D01*
X41751083Y-55367054D01*
X41750000Y-55345000D01*
X41750000Y-54895000D01*
X41751083Y-54872946D01*
X41754323Y-54851105D01*
X41759688Y-54829686D01*
X41767127Y-54808896D01*
X41776568Y-54788936D01*
X41787919Y-54769997D01*
X41801073Y-54752262D01*
X41815901Y-54735901D01*
X41832262Y-54721073D01*
X41849997Y-54707919D01*
X41868936Y-54696568D01*
X41888896Y-54687127D01*
X41909686Y-54679688D01*
X41931105Y-54674323D01*
X41952946Y-54671083D01*
X41975000Y-54670000D01*
X42425000Y-54670000D01*
X42447054Y-54671083D01*
G37*
G36*
X42447054Y-53551083D02*
G01*
X42468895Y-53554323D01*
X42490314Y-53559688D01*
X42511104Y-53567127D01*
X42531064Y-53576568D01*
X42550003Y-53587919D01*
X42567738Y-53601073D01*
X42584099Y-53615901D01*
X42598927Y-53632262D01*
X42612081Y-53649997D01*
X42623432Y-53668936D01*
X42632873Y-53688896D01*
X42640312Y-53709686D01*
X42645677Y-53731105D01*
X42648917Y-53752946D01*
X42650000Y-53775000D01*
X42650000Y-54225000D01*
X42648917Y-54247054D01*
X42645677Y-54268895D01*
X42640312Y-54290314D01*
X42632873Y-54311104D01*
X42623432Y-54331064D01*
X42612081Y-54350003D01*
X42598927Y-54367738D01*
X42584099Y-54384099D01*
X42567738Y-54398927D01*
X42550003Y-54412081D01*
X42531064Y-54423432D01*
X42511104Y-54432873D01*
X42490314Y-54440312D01*
X42468895Y-54445677D01*
X42447054Y-54448917D01*
X42425000Y-54450000D01*
X41975000Y-54450000D01*
X41952946Y-54448917D01*
X41931105Y-54445677D01*
X41909686Y-54440312D01*
X41888896Y-54432873D01*
X41868936Y-54423432D01*
X41849997Y-54412081D01*
X41832262Y-54398927D01*
X41815901Y-54384099D01*
X41801073Y-54367738D01*
X41787919Y-54350003D01*
X41776568Y-54331064D01*
X41767127Y-54311104D01*
X41759688Y-54290314D01*
X41754323Y-54268895D01*
X41751083Y-54247054D01*
X41750000Y-54225000D01*
X41750000Y-53775000D01*
X41751083Y-53752946D01*
X41754323Y-53731105D01*
X41759688Y-53709686D01*
X41767127Y-53688896D01*
X41776568Y-53668936D01*
X41787919Y-53649997D01*
X41801073Y-53632262D01*
X41815901Y-53615901D01*
X41832262Y-53601073D01*
X41849997Y-53587919D01*
X41868936Y-53576568D01*
X41888896Y-53567127D01*
X41909686Y-53559688D01*
X41931105Y-53554323D01*
X41952946Y-53551083D01*
X41975000Y-53550000D01*
X42425000Y-53550000D01*
X42447054Y-53551083D01*
G37*
G36*
X42447054Y-52431083D02*
G01*
X42468895Y-52434323D01*
X42490314Y-52439688D01*
X42511104Y-52447127D01*
X42531064Y-52456568D01*
X42550003Y-52467919D01*
X42567738Y-52481073D01*
X42584099Y-52495901D01*
X42598927Y-52512262D01*
X42612081Y-52529997D01*
X42623432Y-52548936D01*
X42632873Y-52568896D01*
X42640312Y-52589686D01*
X42645677Y-52611105D01*
X42648917Y-52632946D01*
X42650000Y-52655000D01*
X42650000Y-53105000D01*
X42648917Y-53127054D01*
X42645677Y-53148895D01*
X42640312Y-53170314D01*
X42632873Y-53191104D01*
X42623432Y-53211064D01*
X42612081Y-53230003D01*
X42598927Y-53247738D01*
X42584099Y-53264099D01*
X42567738Y-53278927D01*
X42550003Y-53292081D01*
X42531064Y-53303432D01*
X42511104Y-53312873D01*
X42490314Y-53320312D01*
X42468895Y-53325677D01*
X42447054Y-53328917D01*
X42425000Y-53330000D01*
X41975000Y-53330000D01*
X41952946Y-53328917D01*
X41931105Y-53325677D01*
X41909686Y-53320312D01*
X41888896Y-53312873D01*
X41868936Y-53303432D01*
X41849997Y-53292081D01*
X41832262Y-53278927D01*
X41815901Y-53264099D01*
X41801073Y-53247738D01*
X41787919Y-53230003D01*
X41776568Y-53211064D01*
X41767127Y-53191104D01*
X41759688Y-53170314D01*
X41754323Y-53148895D01*
X41751083Y-53127054D01*
X41750000Y-53105000D01*
X41750000Y-52655000D01*
X41751083Y-52632946D01*
X41754323Y-52611105D01*
X41759688Y-52589686D01*
X41767127Y-52568896D01*
X41776568Y-52548936D01*
X41787919Y-52529997D01*
X41801073Y-52512262D01*
X41815901Y-52495901D01*
X41832262Y-52481073D01*
X41849997Y-52467919D01*
X41868936Y-52456568D01*
X41888896Y-52447127D01*
X41909686Y-52439688D01*
X41931105Y-52434323D01*
X41952946Y-52431083D01*
X41975000Y-52430000D01*
X42425000Y-52430000D01*
X42447054Y-52431083D01*
G37*
G36*
X41327054Y-54671083D02*
G01*
X41348895Y-54674323D01*
X41370314Y-54679688D01*
X41391104Y-54687127D01*
X41411064Y-54696568D01*
X41430003Y-54707919D01*
X41447738Y-54721073D01*
X41464099Y-54735901D01*
X41478927Y-54752262D01*
X41492081Y-54769997D01*
X41503432Y-54788936D01*
X41512873Y-54808896D01*
X41520312Y-54829686D01*
X41525677Y-54851105D01*
X41528917Y-54872946D01*
X41530000Y-54895000D01*
X41530000Y-55345000D01*
X41528917Y-55367054D01*
X41525677Y-55388895D01*
X41520312Y-55410314D01*
X41512873Y-55431104D01*
X41503432Y-55451064D01*
X41492081Y-55470003D01*
X41478927Y-55487738D01*
X41464099Y-55504099D01*
X41447738Y-55518927D01*
X41430003Y-55532081D01*
X41411064Y-55543432D01*
X41391104Y-55552873D01*
X41370314Y-55560312D01*
X41348895Y-55565677D01*
X41327054Y-55568917D01*
X41305000Y-55570000D01*
X40855000Y-55570000D01*
X40832946Y-55568917D01*
X40811105Y-55565677D01*
X40789686Y-55560312D01*
X40768896Y-55552873D01*
X40748936Y-55543432D01*
X40729997Y-55532081D01*
X40712262Y-55518927D01*
X40695901Y-55504099D01*
X40681073Y-55487738D01*
X40667919Y-55470003D01*
X40656568Y-55451064D01*
X40647127Y-55431104D01*
X40639688Y-55410314D01*
X40634323Y-55388895D01*
X40631083Y-55367054D01*
X40630000Y-55345000D01*
X40630000Y-54895000D01*
X40631083Y-54872946D01*
X40634323Y-54851105D01*
X40639688Y-54829686D01*
X40647127Y-54808896D01*
X40656568Y-54788936D01*
X40667919Y-54769997D01*
X40681073Y-54752262D01*
X40695901Y-54735901D01*
X40712262Y-54721073D01*
X40729997Y-54707919D01*
X40748936Y-54696568D01*
X40768896Y-54687127D01*
X40789686Y-54679688D01*
X40811105Y-54674323D01*
X40832946Y-54671083D01*
X40855000Y-54670000D01*
X41305000Y-54670000D01*
X41327054Y-54671083D01*
G37*
G36*
X41327054Y-53551083D02*
G01*
X41348895Y-53554323D01*
X41370314Y-53559688D01*
X41391104Y-53567127D01*
X41411064Y-53576568D01*
X41430003Y-53587919D01*
X41447738Y-53601073D01*
X41464099Y-53615901D01*
X41478927Y-53632262D01*
X41492081Y-53649997D01*
X41503432Y-53668936D01*
X41512873Y-53688896D01*
X41520312Y-53709686D01*
X41525677Y-53731105D01*
X41528917Y-53752946D01*
X41530000Y-53775000D01*
X41530000Y-54225000D01*
X41528917Y-54247054D01*
X41525677Y-54268895D01*
X41520312Y-54290314D01*
X41512873Y-54311104D01*
X41503432Y-54331064D01*
X41492081Y-54350003D01*
X41478927Y-54367738D01*
X41464099Y-54384099D01*
X41447738Y-54398927D01*
X41430003Y-54412081D01*
X41411064Y-54423432D01*
X41391104Y-54432873D01*
X41370314Y-54440312D01*
X41348895Y-54445677D01*
X41327054Y-54448917D01*
X41305000Y-54450000D01*
X40855000Y-54450000D01*
X40832946Y-54448917D01*
X40811105Y-54445677D01*
X40789686Y-54440312D01*
X40768896Y-54432873D01*
X40748936Y-54423432D01*
X40729997Y-54412081D01*
X40712262Y-54398927D01*
X40695901Y-54384099D01*
X40681073Y-54367738D01*
X40667919Y-54350003D01*
X40656568Y-54331064D01*
X40647127Y-54311104D01*
X40639688Y-54290314D01*
X40634323Y-54268895D01*
X40631083Y-54247054D01*
X40630000Y-54225000D01*
X40630000Y-53775000D01*
X40631083Y-53752946D01*
X40634323Y-53731105D01*
X40639688Y-53709686D01*
X40647127Y-53688896D01*
X40656568Y-53668936D01*
X40667919Y-53649997D01*
X40681073Y-53632262D01*
X40695901Y-53615901D01*
X40712262Y-53601073D01*
X40729997Y-53587919D01*
X40748936Y-53576568D01*
X40768896Y-53567127D01*
X40789686Y-53559688D01*
X40811105Y-53554323D01*
X40832946Y-53551083D01*
X40855000Y-53550000D01*
X41305000Y-53550000D01*
X41327054Y-53551083D01*
G37*
G36*
X41327054Y-52431083D02*
G01*
X41348895Y-52434323D01*
X41370314Y-52439688D01*
X41391104Y-52447127D01*
X41411064Y-52456568D01*
X41430003Y-52467919D01*
X41447738Y-52481073D01*
X41464099Y-52495901D01*
X41478927Y-52512262D01*
X41492081Y-52529997D01*
X41503432Y-52548936D01*
X41512873Y-52568896D01*
X41520312Y-52589686D01*
X41525677Y-52611105D01*
X41528917Y-52632946D01*
X41530000Y-52655000D01*
X41530000Y-53105000D01*
X41528917Y-53127054D01*
X41525677Y-53148895D01*
X41520312Y-53170314D01*
X41512873Y-53191104D01*
X41503432Y-53211064D01*
X41492081Y-53230003D01*
X41478927Y-53247738D01*
X41464099Y-53264099D01*
X41447738Y-53278927D01*
X41430003Y-53292081D01*
X41411064Y-53303432D01*
X41391104Y-53312873D01*
X41370314Y-53320312D01*
X41348895Y-53325677D01*
X41327054Y-53328917D01*
X41305000Y-53330000D01*
X40855000Y-53330000D01*
X40832946Y-53328917D01*
X40811105Y-53325677D01*
X40789686Y-53320312D01*
X40768896Y-53312873D01*
X40748936Y-53303432D01*
X40729997Y-53292081D01*
X40712262Y-53278927D01*
X40695901Y-53264099D01*
X40681073Y-53247738D01*
X40667919Y-53230003D01*
X40656568Y-53211064D01*
X40647127Y-53191104D01*
X40639688Y-53170314D01*
X40634323Y-53148895D01*
X40631083Y-53127054D01*
X40630000Y-53105000D01*
X40630000Y-52655000D01*
X40631083Y-52632946D01*
X40634323Y-52611105D01*
X40639688Y-52589686D01*
X40647127Y-52568896D01*
X40656568Y-52548936D01*
X40667919Y-52529997D01*
X40681073Y-52512262D01*
X40695901Y-52495901D01*
X40712262Y-52481073D01*
X40729997Y-52467919D01*
X40748936Y-52456568D01*
X40768896Y-52447127D01*
X40789686Y-52439688D01*
X40811105Y-52434323D01*
X40832946Y-52431083D01*
X40855000Y-52430000D01*
X41305000Y-52430000D01*
X41327054Y-52431083D01*
G37*
D15*
X35125000Y-42975000D03*
D16*
X37325000Y-49375000D03*
X35125000Y-49375000D03*
X32825000Y-49375000D03*
D11*
X35600000Y-59850000D03*
X37300000Y-59850000D03*
X37280000Y-58260000D03*
X35580000Y-58260000D03*
X42620000Y-57970000D03*
X44320000Y-57970000D03*
X35620000Y-56670000D03*
X37320000Y-56670000D03*
X43800000Y-42650000D03*
X43800000Y-40950000D03*
X39985000Y-47430000D03*
X39985000Y-49130000D03*
X44650000Y-44970000D03*
X44650000Y-46670000D03*
X43900000Y-37125000D03*
X43900000Y-38825000D03*
X41528333Y-47430000D03*
X41528333Y-49130000D03*
X43071666Y-47430000D03*
X43071666Y-49130000D03*
X40180000Y-35340000D03*
X40180000Y-33640000D03*
X34150000Y-35270000D03*
X34150000Y-33570000D03*
X32480000Y-65960000D03*
X32480000Y-67660000D03*
D17*
X40975000Y-45373220D03*
X40025000Y-43374240D03*
X41925000Y-43374240D03*
X40900000Y-38201780D03*
X41850000Y-40200760D03*
X39950000Y-40200760D03*
D18*
X37400000Y-71887500D03*
D19*
X38400000Y-69187500D03*
X39050000Y-69187500D03*
X39700000Y-69187500D03*
X37100000Y-69187500D03*
X37750000Y-69187500D03*
D18*
X39400000Y-71887500D03*
D20*
X41260000Y-63430000D03*
X42210000Y-63430000D03*
X40310000Y-63430000D03*
X40310000Y-61230000D03*
X41260000Y-61230000D03*
X42210000Y-61230000D03*
D21*
X36350000Y-65200000D03*
X38550000Y-65200000D03*
D12*
X32460000Y-69730000D03*
X32460000Y-71330000D03*
D11*
X35610000Y-54960000D03*
X37310000Y-54960000D03*
X41930000Y-33565000D03*
X41930000Y-35265000D03*
X35800000Y-33595000D03*
X35800000Y-35295000D03*
X35650000Y-51575000D03*
X37350000Y-51575000D03*
X32250000Y-51575000D03*
X33950000Y-51575000D03*
M02*
