G04 #@! TF.GenerationSoftware,KiCad,Pcbnew,(5.1.5-0-10_14)*
G04 #@! TF.CreationDate,2020-02-28T10:22:06-08:00*
G04 #@! TF.ProjectId,esp-prog,6573702d-7072-46f6-972e-6b696361645f,rev?*
G04 #@! TF.SameCoordinates,Original*
G04 #@! TF.FileFunction,Copper,L2,Bot*
G04 #@! TF.FilePolarity,Positive*
%FSLAX46Y46*%
G04 Gerber Fmt 4.6, Leading zero omitted, Abs format (unit mm)*
G04 Created by KiCad (PCBNEW (5.1.5-0-10_14)) date 2020-02-28 10:22:06*
%MOMM*%
%LPD*%
G04 APERTURE LIST*
%ADD10C,3.505200*%
%ADD11C,1.651000*%
%ADD12O,1.700000X1.700000*%
%ADD13R,1.700000X1.700000*%
%ADD14O,1.200000X1.900000*%
%ADD15C,1.450000*%
%ADD16C,0.800000*%
%ADD17C,0.250000*%
G04 APERTURE END LIST*
D10*
X60170000Y-70620000D03*
X60250000Y-23920000D03*
D11*
X50780000Y-70750000D03*
X53320000Y-70750000D03*
D12*
X52540000Y-24100000D03*
X55080000Y-24100000D03*
X52540000Y-26640000D03*
X55080000Y-26640000D03*
X52540000Y-29180000D03*
X55080000Y-29180000D03*
X52540000Y-31720000D03*
X55080000Y-31720000D03*
X52540000Y-34260000D03*
X55080000Y-34260000D03*
X52540000Y-36800000D03*
X55080000Y-36800000D03*
X52540000Y-39340000D03*
X55080000Y-39340000D03*
X52540000Y-41880000D03*
X55080000Y-41880000D03*
X52540000Y-44420000D03*
X55080000Y-44420000D03*
X52540000Y-46960000D03*
D13*
X55080000Y-46960000D03*
D12*
X29470000Y-70610000D03*
X29470000Y-68070000D03*
X29470000Y-65530000D03*
X29470000Y-62990000D03*
X29470000Y-60450000D03*
X29470000Y-57910000D03*
X29470000Y-55370000D03*
X29470000Y-52830000D03*
X29470000Y-50290000D03*
X29470000Y-47750000D03*
X29470000Y-45210000D03*
X29470000Y-42670000D03*
X29470000Y-40130000D03*
X29470000Y-37590000D03*
X29470000Y-35050000D03*
X29470000Y-32510000D03*
D13*
X29470000Y-29970000D03*
D12*
X47250000Y-70610000D03*
X47250000Y-68070000D03*
X47250000Y-65530000D03*
X47250000Y-62990000D03*
X47250000Y-60450000D03*
X47250000Y-57910000D03*
X47250000Y-55370000D03*
X47250000Y-52830000D03*
X47250000Y-50290000D03*
X47250000Y-47750000D03*
X47250000Y-45210000D03*
X47250000Y-42670000D03*
X47250000Y-40130000D03*
X47250000Y-37590000D03*
X47250000Y-35050000D03*
X47250000Y-32510000D03*
D13*
X47250000Y-29970000D03*
D14*
X41900000Y-71887500D03*
X34900000Y-71887500D03*
D15*
X40900000Y-69187500D03*
X35900000Y-69187500D03*
D16*
X49440000Y-66980000D03*
X51140000Y-64850000D03*
X51850000Y-52590000D03*
X37010000Y-53990000D03*
X34395000Y-53197062D03*
X36320000Y-60800000D03*
X37390000Y-50650000D03*
X34024990Y-56750000D03*
X40300000Y-60150000D03*
X38400000Y-53850000D03*
X42400000Y-60325000D03*
X38515350Y-54843337D03*
X41730000Y-38080000D03*
X42535549Y-46409771D03*
X41360000Y-46560000D03*
X34290000Y-36430000D03*
X41630000Y-44380000D03*
X45680000Y-44110000D03*
X53660000Y-51670000D03*
X55060000Y-61720000D03*
X54410000Y-59180000D03*
X58600000Y-51330000D03*
X59550905Y-52358109D03*
X59610000Y-46020000D03*
X58550899Y-52361277D03*
X57560000Y-52660000D03*
X56649961Y-53074550D03*
X44280000Y-47880000D03*
X43549998Y-46310000D03*
D17*
X34900000Y-70187500D02*
X34900000Y-71887500D01*
X35900000Y-69187500D02*
X34900000Y-70187500D01*
X41050000Y-71887500D02*
X41900000Y-71887500D01*
X40900000Y-71737500D02*
X41050000Y-71887500D01*
X40900000Y-69187500D02*
X40900000Y-71737500D01*
X51140000Y-65280000D02*
X51140000Y-64850000D01*
X49440000Y-66980000D02*
X51140000Y-65280000D01*
X51690001Y-45269999D02*
X52540000Y-44420000D01*
X51364999Y-45595001D02*
X51690001Y-45269999D01*
X51364999Y-52104999D02*
X51364999Y-45595001D01*
X51850000Y-52590000D02*
X51364999Y-52104999D01*
X52540000Y-44420000D02*
X52540000Y-41880000D01*
X52540000Y-41880000D02*
X52540000Y-39340000D01*
X52540000Y-36800000D02*
X52540000Y-36700000D01*
X52540000Y-36700000D02*
X52540000Y-39340000D01*
X52540000Y-34010000D02*
X52500000Y-33970000D01*
X52540000Y-34260000D02*
X52540000Y-34010000D01*
X52500000Y-33970000D02*
X52540000Y-36700000D01*
X52540000Y-26640000D02*
X52500000Y-33970000D01*
X52540000Y-24100000D02*
X52540000Y-26640000D01*
X37010000Y-53990000D02*
X35187938Y-53990000D01*
X35187938Y-53990000D02*
X34395000Y-53197062D01*
X37010000Y-53990000D02*
X37040000Y-54020000D01*
X37040000Y-54020000D02*
X37040000Y-60080000D01*
X37040000Y-60080000D02*
X36320000Y-60800000D01*
X37440000Y-60800000D02*
X36320000Y-60800000D01*
X47250000Y-70610000D02*
X37440000Y-60800000D01*
X33669990Y-56395000D02*
X34024990Y-56750000D01*
X35839980Y-50650000D02*
X33669990Y-52819990D01*
X37390000Y-50650000D02*
X35839980Y-50650000D01*
X33669990Y-52819990D02*
X33669990Y-56395000D01*
X37718740Y-55418740D02*
X37718740Y-54531260D01*
X40300000Y-60150000D02*
X40300000Y-58000000D01*
X37718740Y-54531260D02*
X38400000Y-53850000D01*
X40300000Y-58000000D02*
X37718740Y-55418740D01*
X42400000Y-57950000D02*
X39293337Y-54843337D01*
X42400000Y-60325000D02*
X42400000Y-57950000D01*
X39293337Y-54843337D02*
X38515350Y-54843337D01*
X47250000Y-65530000D02*
X49545002Y-63234998D01*
X49545002Y-63234998D02*
X49545002Y-45766000D01*
X41730000Y-38645685D02*
X41730000Y-38080000D01*
X41730000Y-38889002D02*
X41730000Y-38645685D01*
X47624003Y-43845001D02*
X46685999Y-43845001D01*
X49545002Y-45766000D02*
X47624003Y-43845001D01*
X46685999Y-43845001D02*
X41730000Y-38889002D01*
X42535549Y-46975456D02*
X42535549Y-46409771D01*
X42535549Y-48115549D02*
X42535549Y-46975456D01*
X47250000Y-52830000D02*
X42535549Y-48115549D01*
X41360000Y-46560000D02*
X42420000Y-45500000D01*
X44274999Y-45961999D02*
X44274999Y-46324999D01*
X43813000Y-45500000D02*
X44274999Y-45961999D01*
X42420000Y-45500000D02*
X43813000Y-45500000D01*
X46400001Y-49440001D02*
X47250000Y-50290000D01*
X46074999Y-49114999D02*
X46400001Y-49440001D01*
X46074999Y-48124999D02*
X46074999Y-49114999D01*
X44274999Y-46324999D02*
X46074999Y-48124999D01*
X41630000Y-43814315D02*
X41630000Y-44380000D01*
X34290000Y-36430000D02*
X41630000Y-43770000D01*
X41630000Y-43770000D02*
X41630000Y-43814315D01*
X41900000Y-44110000D02*
X41630000Y-44380000D01*
X45680000Y-44110000D02*
X41900000Y-44110000D01*
X55080000Y-50250000D02*
X55080000Y-46960000D01*
X53660000Y-51670000D02*
X55080000Y-50250000D01*
X53320000Y-63460000D02*
X55060000Y-61720000D01*
X53320000Y-70750000D02*
X53320000Y-63460000D01*
X55080000Y-44420000D02*
X53904999Y-45595001D01*
X53904999Y-50105001D02*
X52799994Y-51210006D01*
X52799994Y-51210006D02*
X52799994Y-57569994D01*
X53904999Y-45595001D02*
X53904999Y-50105001D01*
X52799994Y-57569994D02*
X54010001Y-58780001D01*
X54010001Y-58780001D02*
X54410000Y-59180000D01*
X58600000Y-32700000D02*
X55080000Y-29180000D01*
X58600000Y-51330000D02*
X58600000Y-32700000D01*
X59550905Y-46079095D02*
X59610000Y-46020000D01*
X59550905Y-52358109D02*
X59550905Y-46079095D01*
X58150900Y-51961278D02*
X58550899Y-52361277D01*
X55080000Y-31720000D02*
X57389991Y-34029991D01*
X57389991Y-34029991D02*
X57389991Y-51200369D01*
X57389991Y-51200369D02*
X58150900Y-51961278D01*
X56939980Y-52039980D02*
X56939980Y-38659980D01*
X57560000Y-52660000D02*
X56939980Y-52039980D01*
X55929999Y-37649999D02*
X55080000Y-36800000D01*
X56939980Y-38659980D02*
X55929999Y-37649999D01*
X56649961Y-52508865D02*
X56649961Y-53074550D01*
X55080000Y-39340000D02*
X56489969Y-40749969D01*
X56489969Y-52348873D02*
X56649961Y-52508865D01*
X56489969Y-40749969D02*
X56489969Y-52348873D01*
X44280000Y-47040002D02*
X43549998Y-46310000D01*
X44280000Y-47880000D02*
X44280000Y-47040002D01*
M02*
