G04 #@! TF.GenerationSoftware,KiCad,Pcbnew,(5.1.5-0-10_14)*
G04 #@! TF.CreationDate,2020-02-28T10:22:06-08:00*
G04 #@! TF.ProjectId,esp-prog,6573702d-7072-46f6-972e-6b696361645f,rev?*
G04 #@! TF.SameCoordinates,Original*
G04 #@! TF.FileFunction,Soldermask,Top*
G04 #@! TF.FilePolarity,Negative*
%FSLAX46Y46*%
G04 Gerber Fmt 4.6, Leading zero omitted, Abs format (unit mm)*
G04 Created by KiCad (PCBNEW (5.1.5-0-10_14)) date 2020-02-28 10:22:06*
%MOMM*%
%LPD*%
G04 APERTURE LIST*
%ADD10C,0.127000*%
G04 APERTURE END LIST*
D10*
G36*
X34925862Y-70885898D02*
G01*
X34938114Y-70886500D01*
X36151000Y-70886500D01*
X36151000Y-72888500D01*
X34938114Y-72888500D01*
X34925862Y-72889102D01*
X34900000Y-72891649D01*
X34874138Y-72889102D01*
X34861886Y-72888500D01*
X34788594Y-72888500D01*
X34771836Y-72879543D01*
X34760299Y-72875415D01*
X34675307Y-72849632D01*
X34649664Y-72841854D01*
X34536575Y-72781406D01*
X34437447Y-72700054D01*
X34356094Y-72600924D01*
X34295646Y-72487835D01*
X34276161Y-72423600D01*
X34258420Y-72365117D01*
X34249000Y-72269472D01*
X34249000Y-71505527D01*
X34258420Y-71409882D01*
X34295645Y-71287168D01*
X34350601Y-71184354D01*
X34356095Y-71174075D01*
X34437447Y-71074946D01*
X34536576Y-70993594D01*
X34649666Y-70933146D01*
X34649669Y-70933145D01*
X34760290Y-70899588D01*
X34782925Y-70890212D01*
X34788481Y-70886500D01*
X34861886Y-70886500D01*
X34874138Y-70885898D01*
X34900000Y-70883351D01*
X34925862Y-70885898D01*
G37*
G36*
X41925862Y-70885898D02*
G01*
X41938114Y-70886500D01*
X42011406Y-70886500D01*
X42028164Y-70895457D01*
X42039707Y-70899587D01*
X42150331Y-70933145D01*
X42150334Y-70933146D01*
X42263424Y-70993594D01*
X42362554Y-71074947D01*
X42443906Y-71174075D01*
X42504354Y-71287164D01*
X42514040Y-71319096D01*
X42541580Y-71409882D01*
X42551000Y-71505527D01*
X42551000Y-72269473D01*
X42541580Y-72365118D01*
X42514040Y-72455904D01*
X42504354Y-72487836D01*
X42443906Y-72600925D01*
X42362554Y-72700054D01*
X42263425Y-72781406D01*
X42150336Y-72841854D01*
X42124693Y-72849632D01*
X42039708Y-72875413D01*
X42017075Y-72884787D01*
X42011518Y-72888500D01*
X41938114Y-72888500D01*
X41925862Y-72889102D01*
X41900000Y-72891649D01*
X41874138Y-72889102D01*
X41861886Y-72888500D01*
X40649000Y-72888500D01*
X40649000Y-70886500D01*
X41861886Y-70886500D01*
X41874138Y-70885898D01*
X41900000Y-70883351D01*
X41925862Y-70885898D01*
G37*
G36*
X40201000Y-72888500D02*
G01*
X38599000Y-72888500D01*
X38599000Y-70886500D01*
X40201000Y-70886500D01*
X40201000Y-72888500D01*
G37*
G36*
X38201000Y-72888500D02*
G01*
X36599000Y-72888500D01*
X36599000Y-70886500D01*
X38201000Y-70886500D01*
X38201000Y-72888500D01*
G37*
G36*
X60500350Y-68846776D02*
G01*
X60696091Y-68885711D01*
X61024325Y-69021670D01*
X61319728Y-69219052D01*
X61570948Y-69470272D01*
X61768330Y-69765675D01*
X61904289Y-70093909D01*
X61923601Y-70191000D01*
X61973600Y-70442360D01*
X61973600Y-70797640D01*
X61958647Y-70872812D01*
X61904289Y-71146091D01*
X61768330Y-71474325D01*
X61570948Y-71769728D01*
X61319728Y-72020948D01*
X61024325Y-72218330D01*
X60696091Y-72354289D01*
X60521865Y-72388945D01*
X60347640Y-72423600D01*
X59992360Y-72423600D01*
X59818135Y-72388945D01*
X59643909Y-72354289D01*
X59315675Y-72218330D01*
X59020272Y-72020948D01*
X58769052Y-71769728D01*
X58571670Y-71474325D01*
X58435711Y-71146091D01*
X58381353Y-70872812D01*
X58366400Y-70797640D01*
X58366400Y-70442360D01*
X58416399Y-70191000D01*
X58435711Y-70093909D01*
X58571670Y-69765675D01*
X58769052Y-69470272D01*
X59020272Y-69219052D01*
X59315675Y-69021670D01*
X59643909Y-68885711D01*
X59839650Y-68846776D01*
X59992360Y-68816400D01*
X60347640Y-68816400D01*
X60500350Y-68846776D01*
G37*
G36*
X56261000Y-72261000D02*
G01*
X55159000Y-72261000D01*
X55159000Y-71159000D01*
X56261000Y-71159000D01*
X56261000Y-72261000D01*
G37*
G36*
X57791000Y-72061000D02*
G01*
X56689000Y-72061000D01*
X56689000Y-71139000D01*
X57791000Y-71139000D01*
X57791000Y-72061000D01*
G37*
G36*
X33011000Y-71791000D02*
G01*
X31909000Y-71791000D01*
X31909000Y-70869000D01*
X33011000Y-70869000D01*
X33011000Y-71791000D01*
G37*
G36*
X50950997Y-69890342D02*
G01*
X51035666Y-69907183D01*
X51050916Y-69913500D01*
X51195177Y-69973255D01*
X51338736Y-70069178D01*
X51460822Y-70191264D01*
X51556745Y-70334823D01*
X51561867Y-70347189D01*
X51622817Y-70494334D01*
X51639658Y-70579003D01*
X51656500Y-70663671D01*
X51656500Y-70836329D01*
X51622817Y-71005665D01*
X51556745Y-71165177D01*
X51460822Y-71308736D01*
X51338736Y-71430822D01*
X51195177Y-71526745D01*
X51101738Y-71565449D01*
X51035666Y-71592817D01*
X50950997Y-71609658D01*
X50866329Y-71626500D01*
X50693671Y-71626500D01*
X50609003Y-71609658D01*
X50524334Y-71592817D01*
X50458262Y-71565449D01*
X50364823Y-71526745D01*
X50221264Y-71430822D01*
X50099178Y-71308736D01*
X50003255Y-71165177D01*
X49937183Y-71005665D01*
X49903500Y-70836329D01*
X49903500Y-70663671D01*
X49920342Y-70579003D01*
X49937183Y-70494334D01*
X49998133Y-70347189D01*
X50003255Y-70334823D01*
X50099178Y-70191264D01*
X50221264Y-70069178D01*
X50364823Y-69973255D01*
X50509084Y-69913500D01*
X50524334Y-69907183D01*
X50609003Y-69890342D01*
X50693671Y-69873500D01*
X50866329Y-69873500D01*
X50950997Y-69890342D01*
G37*
G36*
X53490997Y-69890342D02*
G01*
X53575666Y-69907183D01*
X53590916Y-69913500D01*
X53735177Y-69973255D01*
X53878736Y-70069178D01*
X54000822Y-70191264D01*
X54096745Y-70334823D01*
X54101867Y-70347189D01*
X54162817Y-70494334D01*
X54179658Y-70579003D01*
X54196500Y-70663671D01*
X54196500Y-70836329D01*
X54162817Y-71005665D01*
X54096745Y-71165177D01*
X54000822Y-71308736D01*
X53878736Y-71430822D01*
X53735177Y-71526745D01*
X53641738Y-71565449D01*
X53575666Y-71592817D01*
X53490997Y-71609658D01*
X53406329Y-71626500D01*
X53233671Y-71626500D01*
X53149003Y-71609658D01*
X53064334Y-71592817D01*
X52998262Y-71565449D01*
X52904823Y-71526745D01*
X52761264Y-71430822D01*
X52639178Y-71308736D01*
X52543255Y-71165177D01*
X52477183Y-71005665D01*
X52443500Y-70836329D01*
X52443500Y-70663671D01*
X52460342Y-70579003D01*
X52477183Y-70494334D01*
X52538133Y-70347189D01*
X52543255Y-70334823D01*
X52639178Y-70191264D01*
X52761264Y-70069178D01*
X52904823Y-69973255D01*
X53049084Y-69913500D01*
X53064334Y-69907183D01*
X53149003Y-69890342D01*
X53233671Y-69873500D01*
X53406329Y-69873500D01*
X53490997Y-69890342D01*
G37*
G36*
X29583512Y-69713927D02*
G01*
X29732812Y-69743624D01*
X29896784Y-69811544D01*
X30044354Y-69910147D01*
X30169853Y-70035646D01*
X30268456Y-70183216D01*
X30336376Y-70347188D01*
X30371000Y-70521259D01*
X30371000Y-70698741D01*
X30336376Y-70872812D01*
X30268456Y-71036784D01*
X30169853Y-71184354D01*
X30044354Y-71309853D01*
X29896784Y-71408456D01*
X29732812Y-71476376D01*
X29586261Y-71505526D01*
X29558742Y-71511000D01*
X29381258Y-71511000D01*
X29353739Y-71505526D01*
X29207188Y-71476376D01*
X29043216Y-71408456D01*
X28895646Y-71309853D01*
X28770147Y-71184354D01*
X28671544Y-71036784D01*
X28603624Y-70872812D01*
X28569000Y-70698741D01*
X28569000Y-70521259D01*
X28603624Y-70347188D01*
X28671544Y-70183216D01*
X28770147Y-70035646D01*
X28895646Y-69910147D01*
X29043216Y-69811544D01*
X29207188Y-69743624D01*
X29356488Y-69713927D01*
X29381258Y-69709000D01*
X29558742Y-69709000D01*
X29583512Y-69713927D01*
G37*
G36*
X47363512Y-69713927D02*
G01*
X47512812Y-69743624D01*
X47676784Y-69811544D01*
X47824354Y-69910147D01*
X47949853Y-70035646D01*
X48048456Y-70183216D01*
X48116376Y-70347188D01*
X48151000Y-70521259D01*
X48151000Y-70698741D01*
X48116376Y-70872812D01*
X48048456Y-71036784D01*
X47949853Y-71184354D01*
X47824354Y-71309853D01*
X47676784Y-71408456D01*
X47512812Y-71476376D01*
X47366261Y-71505526D01*
X47338742Y-71511000D01*
X47161258Y-71511000D01*
X47133739Y-71505526D01*
X46987188Y-71476376D01*
X46823216Y-71408456D01*
X46675646Y-71309853D01*
X46550147Y-71184354D01*
X46451544Y-71036784D01*
X46383624Y-70872812D01*
X46349000Y-70698741D01*
X46349000Y-70521259D01*
X46383624Y-70347188D01*
X46451544Y-70183216D01*
X46550147Y-70035646D01*
X46675646Y-69910147D01*
X46823216Y-69811544D01*
X46987188Y-69743624D01*
X47136488Y-69713927D01*
X47161258Y-69709000D01*
X47338742Y-69709000D01*
X47363512Y-69713927D01*
G37*
G36*
X56261000Y-70561000D02*
G01*
X55159000Y-70561000D01*
X55159000Y-69459000D01*
X56261000Y-69459000D01*
X56261000Y-70561000D01*
G37*
G36*
X57791000Y-70461000D02*
G01*
X56689000Y-70461000D01*
X56689000Y-69539000D01*
X57791000Y-69539000D01*
X57791000Y-70461000D01*
G37*
G36*
X33011000Y-70191000D02*
G01*
X31909000Y-70191000D01*
X31909000Y-69269000D01*
X33011000Y-69269000D01*
X33011000Y-70191000D01*
G37*
G36*
X36126348Y-68441320D02*
G01*
X36126350Y-68441321D01*
X36126351Y-68441321D01*
X36267574Y-68499817D01*
X36267577Y-68499819D01*
X36394669Y-68584739D01*
X36502761Y-68692831D01*
X36554224Y-68769852D01*
X36587683Y-68819926D01*
X36608517Y-68870225D01*
X36620068Y-68891836D01*
X36635614Y-68910778D01*
X36654556Y-68926323D01*
X36676166Y-68937874D01*
X36699615Y-68944987D01*
X36724001Y-68947389D01*
X36748387Y-68944987D01*
X36771836Y-68937874D01*
X36793447Y-68926323D01*
X36812389Y-68910777D01*
X36827934Y-68891835D01*
X36839485Y-68870225D01*
X36846598Y-68846776D01*
X36849000Y-68822390D01*
X36849000Y-68461500D01*
X39951000Y-68461500D01*
X39951000Y-68822390D01*
X39953402Y-68846776D01*
X39960515Y-68870225D01*
X39972066Y-68891836D01*
X39987611Y-68910778D01*
X40006553Y-68926323D01*
X40028164Y-68937874D01*
X40051613Y-68944987D01*
X40075999Y-68947389D01*
X40100385Y-68944987D01*
X40123834Y-68937874D01*
X40145445Y-68926323D01*
X40164387Y-68910778D01*
X40179932Y-68891836D01*
X40191483Y-68870225D01*
X40212317Y-68819926D01*
X40245776Y-68769852D01*
X40297239Y-68692831D01*
X40405331Y-68584739D01*
X40532423Y-68499819D01*
X40532426Y-68499817D01*
X40673649Y-68441321D01*
X40673650Y-68441321D01*
X40673652Y-68441320D01*
X40823569Y-68411500D01*
X40976431Y-68411500D01*
X41126348Y-68441320D01*
X41126350Y-68441321D01*
X41126351Y-68441321D01*
X41267574Y-68499817D01*
X41267577Y-68499819D01*
X41394669Y-68584739D01*
X41502761Y-68692831D01*
X41554225Y-68769853D01*
X41587683Y-68819926D01*
X41640479Y-68947389D01*
X41646180Y-68961152D01*
X41676000Y-69111069D01*
X41676000Y-69263931D01*
X41674992Y-69269000D01*
X41646179Y-69413851D01*
X41587683Y-69555074D01*
X41587682Y-69555075D01*
X41587681Y-69555077D01*
X41502761Y-69682169D01*
X41394669Y-69790261D01*
X41270093Y-69873500D01*
X41267574Y-69875183D01*
X41126351Y-69933679D01*
X41126350Y-69933679D01*
X41126348Y-69933680D01*
X40976431Y-69963500D01*
X40823569Y-69963500D01*
X40673652Y-69933680D01*
X40673650Y-69933679D01*
X40673649Y-69933679D01*
X40532426Y-69875183D01*
X40529907Y-69873500D01*
X40405331Y-69790261D01*
X40297239Y-69682169D01*
X40212318Y-69555075D01*
X40212317Y-69555074D01*
X40191481Y-69504772D01*
X40179932Y-69483164D01*
X40164386Y-69464222D01*
X40145444Y-69448677D01*
X40123834Y-69437126D01*
X40100385Y-69430013D01*
X40075999Y-69427611D01*
X40051613Y-69430013D01*
X40028164Y-69437126D01*
X40006553Y-69448677D01*
X39987611Y-69464223D01*
X39972066Y-69483165D01*
X39960515Y-69504775D01*
X39953402Y-69528224D01*
X39951000Y-69552610D01*
X39951000Y-69913500D01*
X36849000Y-69913500D01*
X36849000Y-69552610D01*
X36846598Y-69528224D01*
X36839485Y-69504775D01*
X36827934Y-69483164D01*
X36812389Y-69464222D01*
X36793447Y-69448677D01*
X36771836Y-69437126D01*
X36748387Y-69430013D01*
X36724001Y-69427611D01*
X36699615Y-69430013D01*
X36676166Y-69437126D01*
X36654555Y-69448677D01*
X36635613Y-69464222D01*
X36620068Y-69483164D01*
X36608519Y-69504772D01*
X36587683Y-69555074D01*
X36587682Y-69555075D01*
X36502761Y-69682169D01*
X36394669Y-69790261D01*
X36270093Y-69873500D01*
X36267574Y-69875183D01*
X36126351Y-69933679D01*
X36126350Y-69933679D01*
X36126348Y-69933680D01*
X35976431Y-69963500D01*
X35823569Y-69963500D01*
X35673652Y-69933680D01*
X35673650Y-69933679D01*
X35673649Y-69933679D01*
X35532426Y-69875183D01*
X35529907Y-69873500D01*
X35405331Y-69790261D01*
X35297239Y-69682169D01*
X35212319Y-69555077D01*
X35212318Y-69555075D01*
X35212317Y-69555074D01*
X35153821Y-69413851D01*
X35125009Y-69269000D01*
X35124000Y-69263931D01*
X35124000Y-69111069D01*
X35153820Y-68961152D01*
X35159521Y-68947389D01*
X35212317Y-68819926D01*
X35245775Y-68769853D01*
X35297239Y-68692831D01*
X35405331Y-68584739D01*
X35532423Y-68499819D01*
X35532426Y-68499817D01*
X35673649Y-68441321D01*
X35673650Y-68441321D01*
X35673652Y-68441320D01*
X35823569Y-68411500D01*
X35976431Y-68411500D01*
X36126348Y-68441320D01*
G37*
G36*
X47363512Y-67173927D02*
G01*
X47512812Y-67203624D01*
X47676784Y-67271544D01*
X47824354Y-67370147D01*
X47949853Y-67495646D01*
X48048456Y-67643216D01*
X48116376Y-67807188D01*
X48151000Y-67981259D01*
X48151000Y-68158741D01*
X48116376Y-68332812D01*
X48048456Y-68496784D01*
X47949853Y-68644354D01*
X47824354Y-68769853D01*
X47676784Y-68868456D01*
X47512812Y-68936376D01*
X47363512Y-68966073D01*
X47338742Y-68971000D01*
X47161258Y-68971000D01*
X47136488Y-68966073D01*
X46987188Y-68936376D01*
X46823216Y-68868456D01*
X46675646Y-68769853D01*
X46550147Y-68644354D01*
X46451544Y-68496784D01*
X46383624Y-68332812D01*
X46349000Y-68158741D01*
X46349000Y-67981259D01*
X46383624Y-67807188D01*
X46451544Y-67643216D01*
X46550147Y-67495646D01*
X46675646Y-67370147D01*
X46823216Y-67271544D01*
X46987188Y-67203624D01*
X47136488Y-67173927D01*
X47161258Y-67169000D01*
X47338742Y-67169000D01*
X47363512Y-67173927D01*
G37*
G36*
X29583512Y-67173927D02*
G01*
X29732812Y-67203624D01*
X29896784Y-67271544D01*
X30044354Y-67370147D01*
X30169853Y-67495646D01*
X30268456Y-67643216D01*
X30336376Y-67807188D01*
X30371000Y-67981259D01*
X30371000Y-68158741D01*
X30336376Y-68332812D01*
X30268456Y-68496784D01*
X30169853Y-68644354D01*
X30044354Y-68769853D01*
X29896784Y-68868456D01*
X29732812Y-68936376D01*
X29583512Y-68966073D01*
X29558742Y-68971000D01*
X29381258Y-68971000D01*
X29356488Y-68966073D01*
X29207188Y-68936376D01*
X29043216Y-68868456D01*
X28895646Y-68769853D01*
X28770147Y-68644354D01*
X28671544Y-68496784D01*
X28603624Y-68332812D01*
X28569000Y-68158741D01*
X28569000Y-67981259D01*
X28603624Y-67807188D01*
X28671544Y-67643216D01*
X28770147Y-67495646D01*
X28895646Y-67370147D01*
X29043216Y-67271544D01*
X29207188Y-67203624D01*
X29356488Y-67173927D01*
X29381258Y-67169000D01*
X29558742Y-67169000D01*
X29583512Y-67173927D01*
G37*
G36*
X33031000Y-68211000D02*
G01*
X31929000Y-68211000D01*
X31929000Y-67109000D01*
X33031000Y-67109000D01*
X33031000Y-68211000D01*
G37*
G36*
X33031000Y-66511000D02*
G01*
X31929000Y-66511000D01*
X31929000Y-65409000D01*
X33031000Y-65409000D01*
X33031000Y-66511000D01*
G37*
G36*
X29583512Y-64633927D02*
G01*
X29732812Y-64663624D01*
X29896784Y-64731544D01*
X30044354Y-64830147D01*
X30169853Y-64955646D01*
X30268456Y-65103216D01*
X30336376Y-65267188D01*
X30371000Y-65441259D01*
X30371000Y-65618741D01*
X30336376Y-65792812D01*
X30268456Y-65956784D01*
X30169853Y-66104354D01*
X30044354Y-66229853D01*
X29896784Y-66328456D01*
X29732812Y-66396376D01*
X29583512Y-66426073D01*
X29558742Y-66431000D01*
X29381258Y-66431000D01*
X29356488Y-66426073D01*
X29207188Y-66396376D01*
X29043216Y-66328456D01*
X28895646Y-66229853D01*
X28770147Y-66104354D01*
X28671544Y-65956784D01*
X28603624Y-65792812D01*
X28569000Y-65618741D01*
X28569000Y-65441259D01*
X28603624Y-65267188D01*
X28671544Y-65103216D01*
X28770147Y-64955646D01*
X28895646Y-64830147D01*
X29043216Y-64731544D01*
X29207188Y-64663624D01*
X29356488Y-64633927D01*
X29381258Y-64629000D01*
X29558742Y-64629000D01*
X29583512Y-64633927D01*
G37*
G36*
X47363512Y-64633927D02*
G01*
X47512812Y-64663624D01*
X47676784Y-64731544D01*
X47824354Y-64830147D01*
X47949853Y-64955646D01*
X48048456Y-65103216D01*
X48116376Y-65267188D01*
X48151000Y-65441259D01*
X48151000Y-65618741D01*
X48116376Y-65792812D01*
X48048456Y-65956784D01*
X47949853Y-66104354D01*
X47824354Y-66229853D01*
X47676784Y-66328456D01*
X47512812Y-66396376D01*
X47363512Y-66426073D01*
X47338742Y-66431000D01*
X47161258Y-66431000D01*
X47136488Y-66426073D01*
X46987188Y-66396376D01*
X46823216Y-66328456D01*
X46675646Y-66229853D01*
X46550147Y-66104354D01*
X46451544Y-65956784D01*
X46383624Y-65792812D01*
X46349000Y-65618741D01*
X46349000Y-65441259D01*
X46383624Y-65267188D01*
X46451544Y-65103216D01*
X46550147Y-64955646D01*
X46675646Y-64830147D01*
X46823216Y-64731544D01*
X46987188Y-64663624D01*
X47136488Y-64633927D01*
X47161258Y-64629000D01*
X47338742Y-64629000D01*
X47363512Y-64633927D01*
G37*
G36*
X54051000Y-65936000D02*
G01*
X51549000Y-65936000D01*
X51549000Y-65094000D01*
X54051000Y-65094000D01*
X54051000Y-65936000D01*
G37*
G36*
X57951000Y-65936000D02*
G01*
X55449000Y-65936000D01*
X55449000Y-65094000D01*
X57951000Y-65094000D01*
X57951000Y-65936000D01*
G37*
G36*
X36651000Y-65501000D02*
G01*
X36049000Y-65501000D01*
X36049000Y-64899000D01*
X36651000Y-64899000D01*
X36651000Y-65501000D01*
G37*
G36*
X38851000Y-65501000D02*
G01*
X38249000Y-65501000D01*
X38249000Y-64899000D01*
X38851000Y-64899000D01*
X38851000Y-65501000D01*
G37*
G36*
X54051000Y-64666000D02*
G01*
X51549000Y-64666000D01*
X51549000Y-63824000D01*
X54051000Y-63824000D01*
X54051000Y-64666000D01*
G37*
G36*
X57951000Y-64666000D02*
G01*
X55449000Y-64666000D01*
X55449000Y-63824000D01*
X57951000Y-63824000D01*
X57951000Y-64666000D01*
G37*
G36*
X42586000Y-64011000D02*
G01*
X39934000Y-64011000D01*
X39934000Y-62849000D01*
X42586000Y-62849000D01*
X42586000Y-64011000D01*
G37*
G36*
X29583512Y-62093927D02*
G01*
X29732812Y-62123624D01*
X29896784Y-62191544D01*
X30044354Y-62290147D01*
X30169853Y-62415646D01*
X30268456Y-62563216D01*
X30336376Y-62727188D01*
X30371000Y-62901259D01*
X30371000Y-63078741D01*
X30336376Y-63252812D01*
X30268456Y-63416784D01*
X30169853Y-63564354D01*
X30044354Y-63689853D01*
X29896784Y-63788456D01*
X29732812Y-63856376D01*
X29583512Y-63886073D01*
X29558742Y-63891000D01*
X29381258Y-63891000D01*
X29356488Y-63886073D01*
X29207188Y-63856376D01*
X29043216Y-63788456D01*
X28895646Y-63689853D01*
X28770147Y-63564354D01*
X28671544Y-63416784D01*
X28603624Y-63252812D01*
X28569000Y-63078741D01*
X28569000Y-62901259D01*
X28603624Y-62727188D01*
X28671544Y-62563216D01*
X28770147Y-62415646D01*
X28895646Y-62290147D01*
X29043216Y-62191544D01*
X29207188Y-62123624D01*
X29356488Y-62093927D01*
X29381258Y-62089000D01*
X29558742Y-62089000D01*
X29583512Y-62093927D01*
G37*
G36*
X47363512Y-62093927D02*
G01*
X47512812Y-62123624D01*
X47676784Y-62191544D01*
X47824354Y-62290147D01*
X47949853Y-62415646D01*
X48048456Y-62563216D01*
X48116376Y-62727188D01*
X48151000Y-62901259D01*
X48151000Y-63078741D01*
X48116376Y-63252812D01*
X48048456Y-63416784D01*
X47949853Y-63564354D01*
X47824354Y-63689853D01*
X47676784Y-63788456D01*
X47512812Y-63856376D01*
X47363512Y-63886073D01*
X47338742Y-63891000D01*
X47161258Y-63891000D01*
X47136488Y-63886073D01*
X46987188Y-63856376D01*
X46823216Y-63788456D01*
X46675646Y-63689853D01*
X46550147Y-63564354D01*
X46451544Y-63416784D01*
X46383624Y-63252812D01*
X46349000Y-63078741D01*
X46349000Y-62901259D01*
X46383624Y-62727188D01*
X46451544Y-62563216D01*
X46550147Y-62415646D01*
X46675646Y-62290147D01*
X46823216Y-62191544D01*
X46987188Y-62123624D01*
X47136488Y-62093927D01*
X47161258Y-62089000D01*
X47338742Y-62089000D01*
X47363512Y-62093927D01*
G37*
G36*
X54051000Y-63396000D02*
G01*
X51549000Y-63396000D01*
X51549000Y-62554000D01*
X54051000Y-62554000D01*
X54051000Y-63396000D01*
G37*
G36*
X57951000Y-63396000D02*
G01*
X55449000Y-63396000D01*
X55449000Y-62554000D01*
X57951000Y-62554000D01*
X57951000Y-63396000D01*
G37*
G36*
X54051000Y-62126000D02*
G01*
X51549000Y-62126000D01*
X51549000Y-61284000D01*
X54051000Y-61284000D01*
X54051000Y-62126000D01*
G37*
G36*
X57951000Y-62126000D02*
G01*
X55449000Y-62126000D01*
X55449000Y-61284000D01*
X57951000Y-61284000D01*
X57951000Y-62126000D01*
G37*
G36*
X42586000Y-61811000D02*
G01*
X39934000Y-61811000D01*
X39934000Y-60649000D01*
X42586000Y-60649000D01*
X42586000Y-61811000D01*
G37*
G36*
X29583512Y-59553927D02*
G01*
X29732812Y-59583624D01*
X29896784Y-59651544D01*
X30044354Y-59750147D01*
X30169853Y-59875646D01*
X30268456Y-60023216D01*
X30336376Y-60187188D01*
X30371000Y-60361259D01*
X30371000Y-60538741D01*
X30336376Y-60712812D01*
X30268456Y-60876784D01*
X30169853Y-61024354D01*
X30044354Y-61149853D01*
X29896784Y-61248456D01*
X29732812Y-61316376D01*
X29583512Y-61346073D01*
X29558742Y-61351000D01*
X29381258Y-61351000D01*
X29356488Y-61346073D01*
X29207188Y-61316376D01*
X29043216Y-61248456D01*
X28895646Y-61149853D01*
X28770147Y-61024354D01*
X28671544Y-60876784D01*
X28603624Y-60712812D01*
X28569000Y-60538741D01*
X28569000Y-60361259D01*
X28603624Y-60187188D01*
X28671544Y-60023216D01*
X28770147Y-59875646D01*
X28895646Y-59750147D01*
X29043216Y-59651544D01*
X29207188Y-59583624D01*
X29356488Y-59553927D01*
X29381258Y-59549000D01*
X29558742Y-59549000D01*
X29583512Y-59553927D01*
G37*
G36*
X47363512Y-59553927D02*
G01*
X47512812Y-59583624D01*
X47676784Y-59651544D01*
X47824354Y-59750147D01*
X47949853Y-59875646D01*
X48048456Y-60023216D01*
X48116376Y-60187188D01*
X48151000Y-60361259D01*
X48151000Y-60538741D01*
X48116376Y-60712812D01*
X48048456Y-60876784D01*
X47949853Y-61024354D01*
X47824354Y-61149853D01*
X47676784Y-61248456D01*
X47512812Y-61316376D01*
X47363512Y-61346073D01*
X47338742Y-61351000D01*
X47161258Y-61351000D01*
X47136488Y-61346073D01*
X46987188Y-61316376D01*
X46823216Y-61248456D01*
X46675646Y-61149853D01*
X46550147Y-61024354D01*
X46451544Y-60876784D01*
X46383624Y-60712812D01*
X46349000Y-60538741D01*
X46349000Y-60361259D01*
X46383624Y-60187188D01*
X46451544Y-60023216D01*
X46550147Y-59875646D01*
X46675646Y-59750147D01*
X46823216Y-59651544D01*
X46987188Y-59583624D01*
X47136488Y-59553927D01*
X47161258Y-59549000D01*
X47338742Y-59549000D01*
X47363512Y-59553927D01*
G37*
G36*
X57951000Y-60856000D02*
G01*
X55449000Y-60856000D01*
X55449000Y-60014000D01*
X57951000Y-60014000D01*
X57951000Y-60856000D01*
G37*
G36*
X54051000Y-60856000D02*
G01*
X51549000Y-60856000D01*
X51549000Y-60014000D01*
X54051000Y-60014000D01*
X54051000Y-60856000D01*
G37*
G36*
X37851000Y-60401000D02*
G01*
X36749000Y-60401000D01*
X36749000Y-59299000D01*
X37851000Y-59299000D01*
X37851000Y-60401000D01*
G37*
G36*
X36151000Y-60401000D02*
G01*
X35049000Y-60401000D01*
X35049000Y-59299000D01*
X36151000Y-59299000D01*
X36151000Y-60401000D01*
G37*
G36*
X57951000Y-59586000D02*
G01*
X55449000Y-59586000D01*
X55449000Y-58744000D01*
X57951000Y-58744000D01*
X57951000Y-59586000D01*
G37*
G36*
X54051000Y-59586000D02*
G01*
X51549000Y-59586000D01*
X51549000Y-58744000D01*
X54051000Y-58744000D01*
X54051000Y-59586000D01*
G37*
G36*
X29583512Y-57013927D02*
G01*
X29732812Y-57043624D01*
X29896784Y-57111544D01*
X30044354Y-57210147D01*
X30169853Y-57335646D01*
X30268456Y-57483216D01*
X30336376Y-57647188D01*
X30371000Y-57821259D01*
X30371000Y-57998741D01*
X30336376Y-58172812D01*
X30268456Y-58336784D01*
X30169853Y-58484354D01*
X30044354Y-58609853D01*
X29896784Y-58708456D01*
X29732812Y-58776376D01*
X29583512Y-58806073D01*
X29558742Y-58811000D01*
X29381258Y-58811000D01*
X29356488Y-58806073D01*
X29207188Y-58776376D01*
X29043216Y-58708456D01*
X28895646Y-58609853D01*
X28770147Y-58484354D01*
X28671544Y-58336784D01*
X28603624Y-58172812D01*
X28569000Y-57998741D01*
X28569000Y-57821259D01*
X28603624Y-57647188D01*
X28671544Y-57483216D01*
X28770147Y-57335646D01*
X28895646Y-57210147D01*
X29043216Y-57111544D01*
X29207188Y-57043624D01*
X29356488Y-57013927D01*
X29381258Y-57009000D01*
X29558742Y-57009000D01*
X29583512Y-57013927D01*
G37*
G36*
X37831000Y-58811000D02*
G01*
X36729000Y-58811000D01*
X36729000Y-57709000D01*
X37831000Y-57709000D01*
X37831000Y-58811000D01*
G37*
G36*
X36131000Y-58811000D02*
G01*
X35029000Y-58811000D01*
X35029000Y-57709000D01*
X36131000Y-57709000D01*
X36131000Y-58811000D01*
G37*
G36*
X47363512Y-57013927D02*
G01*
X47512812Y-57043624D01*
X47676784Y-57111544D01*
X47824354Y-57210147D01*
X47949853Y-57335646D01*
X48048456Y-57483216D01*
X48116376Y-57647188D01*
X48151000Y-57821259D01*
X48151000Y-57998741D01*
X48116376Y-58172812D01*
X48048456Y-58336784D01*
X47949853Y-58484354D01*
X47824354Y-58609853D01*
X47676784Y-58708456D01*
X47512812Y-58776376D01*
X47363512Y-58806073D01*
X47338742Y-58811000D01*
X47161258Y-58811000D01*
X47136488Y-58806073D01*
X46987188Y-58776376D01*
X46823216Y-58708456D01*
X46675646Y-58609853D01*
X46550147Y-58484354D01*
X46451544Y-58336784D01*
X46383624Y-58172812D01*
X46349000Y-57998741D01*
X46349000Y-57821259D01*
X46383624Y-57647188D01*
X46451544Y-57483216D01*
X46550147Y-57335646D01*
X46675646Y-57210147D01*
X46823216Y-57111544D01*
X46987188Y-57043624D01*
X47136488Y-57013927D01*
X47161258Y-57009000D01*
X47338742Y-57009000D01*
X47363512Y-57013927D01*
G37*
G36*
X44871000Y-58521000D02*
G01*
X43769000Y-58521000D01*
X43769000Y-57419000D01*
X44871000Y-57419000D01*
X44871000Y-58521000D01*
G37*
G36*
X43171000Y-58521000D02*
G01*
X42069000Y-58521000D01*
X42069000Y-57419000D01*
X43171000Y-57419000D01*
X43171000Y-58521000D01*
G37*
G36*
X57951000Y-58316000D02*
G01*
X55449000Y-58316000D01*
X55449000Y-57474000D01*
X57951000Y-57474000D01*
X57951000Y-58316000D01*
G37*
G36*
X54051000Y-58316000D02*
G01*
X51549000Y-58316000D01*
X51549000Y-57474000D01*
X54051000Y-57474000D01*
X54051000Y-58316000D01*
G37*
G36*
X36171000Y-57221000D02*
G01*
X35069000Y-57221000D01*
X35069000Y-56119000D01*
X36171000Y-56119000D01*
X36171000Y-57221000D01*
G37*
G36*
X37871000Y-57221000D02*
G01*
X36769000Y-57221000D01*
X36769000Y-56119000D01*
X37871000Y-56119000D01*
X37871000Y-57221000D01*
G37*
G36*
X57951000Y-57046000D02*
G01*
X55449000Y-57046000D01*
X55449000Y-56204000D01*
X57951000Y-56204000D01*
X57951000Y-57046000D01*
G37*
G36*
X54051000Y-57046000D02*
G01*
X51549000Y-57046000D01*
X51549000Y-56204000D01*
X54051000Y-56204000D01*
X54051000Y-57046000D01*
G37*
G36*
X40855355Y-56000083D02*
G01*
X40860029Y-56001501D01*
X40864330Y-56003800D01*
X40870702Y-56009029D01*
X40891076Y-56022643D01*
X40913715Y-56032020D01*
X40937749Y-56036800D01*
X40962253Y-56036800D01*
X40986286Y-56032019D01*
X41008925Y-56022642D01*
X41029298Y-56009029D01*
X41035670Y-56003800D01*
X41039971Y-56001501D01*
X41044645Y-56000083D01*
X41055641Y-55999000D01*
X41344359Y-55999000D01*
X41355355Y-56000083D01*
X41360029Y-56001501D01*
X41364330Y-56003800D01*
X41370702Y-56009029D01*
X41391076Y-56022643D01*
X41413715Y-56032020D01*
X41437749Y-56036800D01*
X41462253Y-56036800D01*
X41486286Y-56032019D01*
X41508925Y-56022642D01*
X41529298Y-56009029D01*
X41535670Y-56003800D01*
X41539971Y-56001501D01*
X41544645Y-56000083D01*
X41555641Y-55999000D01*
X41844359Y-55999000D01*
X41855355Y-56000083D01*
X41860029Y-56001501D01*
X41864330Y-56003800D01*
X41870702Y-56009029D01*
X41891076Y-56022643D01*
X41913715Y-56032020D01*
X41937749Y-56036800D01*
X41962253Y-56036800D01*
X41986286Y-56032019D01*
X42008925Y-56022642D01*
X42029298Y-56009029D01*
X42035670Y-56003800D01*
X42039971Y-56001501D01*
X42044645Y-56000083D01*
X42055641Y-55999000D01*
X42344359Y-55999000D01*
X42355355Y-56000083D01*
X42360029Y-56001501D01*
X42364330Y-56003800D01*
X42370702Y-56009029D01*
X42391076Y-56022643D01*
X42413715Y-56032020D01*
X42437749Y-56036800D01*
X42462253Y-56036800D01*
X42486286Y-56032019D01*
X42508925Y-56022642D01*
X42529298Y-56009029D01*
X42535670Y-56003800D01*
X42539971Y-56001501D01*
X42544645Y-56000083D01*
X42555641Y-55999000D01*
X42844359Y-55999000D01*
X42855355Y-56000083D01*
X42860029Y-56001501D01*
X42864330Y-56003800D01*
X42870702Y-56009029D01*
X42891076Y-56022643D01*
X42913715Y-56032020D01*
X42937749Y-56036800D01*
X42962253Y-56036800D01*
X42986286Y-56032019D01*
X43008925Y-56022642D01*
X43029298Y-56009029D01*
X43035670Y-56003800D01*
X43039971Y-56001501D01*
X43044645Y-56000083D01*
X43055641Y-55999000D01*
X43344359Y-55999000D01*
X43355355Y-56000083D01*
X43360029Y-56001501D01*
X43364330Y-56003800D01*
X43370702Y-56009029D01*
X43391076Y-56022643D01*
X43413715Y-56032020D01*
X43437749Y-56036800D01*
X43462253Y-56036800D01*
X43486286Y-56032019D01*
X43508925Y-56022642D01*
X43529298Y-56009029D01*
X43535670Y-56003800D01*
X43539971Y-56001501D01*
X43544645Y-56000083D01*
X43555641Y-55999000D01*
X43844359Y-55999000D01*
X43855355Y-56000083D01*
X43860029Y-56001501D01*
X43864331Y-56003800D01*
X43868104Y-56006896D01*
X43871200Y-56010669D01*
X43873499Y-56014971D01*
X43874917Y-56019645D01*
X43876000Y-56030641D01*
X43876000Y-56869359D01*
X43874917Y-56880355D01*
X43873499Y-56885029D01*
X43871200Y-56889331D01*
X43868104Y-56893104D01*
X43864331Y-56896200D01*
X43860029Y-56898499D01*
X43855355Y-56899917D01*
X43844359Y-56901000D01*
X43555641Y-56901000D01*
X43544645Y-56899917D01*
X43539971Y-56898499D01*
X43535670Y-56896200D01*
X43529298Y-56890971D01*
X43508924Y-56877357D01*
X43486285Y-56867980D01*
X43462251Y-56863200D01*
X43437747Y-56863200D01*
X43413714Y-56867981D01*
X43391075Y-56877358D01*
X43370702Y-56890971D01*
X43364330Y-56896200D01*
X43360029Y-56898499D01*
X43355355Y-56899917D01*
X43344359Y-56901000D01*
X43055641Y-56901000D01*
X43044645Y-56899917D01*
X43039971Y-56898499D01*
X43035670Y-56896200D01*
X43029298Y-56890971D01*
X43008924Y-56877357D01*
X42986285Y-56867980D01*
X42962251Y-56863200D01*
X42937747Y-56863200D01*
X42913714Y-56867981D01*
X42891075Y-56877358D01*
X42870702Y-56890971D01*
X42864330Y-56896200D01*
X42860029Y-56898499D01*
X42855355Y-56899917D01*
X42844359Y-56901000D01*
X42555641Y-56901000D01*
X42544645Y-56899917D01*
X42539971Y-56898499D01*
X42535670Y-56896200D01*
X42529298Y-56890971D01*
X42508924Y-56877357D01*
X42486285Y-56867980D01*
X42462251Y-56863200D01*
X42437747Y-56863200D01*
X42413714Y-56867981D01*
X42391075Y-56877358D01*
X42370702Y-56890971D01*
X42364330Y-56896200D01*
X42360029Y-56898499D01*
X42355355Y-56899917D01*
X42344359Y-56901000D01*
X42055641Y-56901000D01*
X42044645Y-56899917D01*
X42039971Y-56898499D01*
X42035670Y-56896200D01*
X42029298Y-56890971D01*
X42008924Y-56877357D01*
X41986285Y-56867980D01*
X41962251Y-56863200D01*
X41937747Y-56863200D01*
X41913714Y-56867981D01*
X41891075Y-56877358D01*
X41870702Y-56890971D01*
X41864330Y-56896200D01*
X41860029Y-56898499D01*
X41855355Y-56899917D01*
X41844359Y-56901000D01*
X41555641Y-56901000D01*
X41544645Y-56899917D01*
X41539971Y-56898499D01*
X41535670Y-56896200D01*
X41529298Y-56890971D01*
X41508924Y-56877357D01*
X41486285Y-56867980D01*
X41462251Y-56863200D01*
X41437747Y-56863200D01*
X41413714Y-56867981D01*
X41391075Y-56877358D01*
X41370702Y-56890971D01*
X41364330Y-56896200D01*
X41360029Y-56898499D01*
X41355355Y-56899917D01*
X41344359Y-56901000D01*
X41055641Y-56901000D01*
X41044645Y-56899917D01*
X41039971Y-56898499D01*
X41035670Y-56896200D01*
X41029298Y-56890971D01*
X41008924Y-56877357D01*
X40986285Y-56867980D01*
X40962251Y-56863200D01*
X40937747Y-56863200D01*
X40913714Y-56867981D01*
X40891075Y-56877358D01*
X40870702Y-56890971D01*
X40864330Y-56896200D01*
X40860029Y-56898499D01*
X40855355Y-56899917D01*
X40844359Y-56901000D01*
X40555641Y-56901000D01*
X40544645Y-56899917D01*
X40539971Y-56898499D01*
X40535669Y-56896200D01*
X40531896Y-56893104D01*
X40528800Y-56889331D01*
X40526501Y-56885029D01*
X40525083Y-56880355D01*
X40524000Y-56869359D01*
X40524000Y-56030641D01*
X40525083Y-56019645D01*
X40526501Y-56014971D01*
X40528800Y-56010669D01*
X40531896Y-56006896D01*
X40535669Y-56003800D01*
X40539971Y-56001501D01*
X40544645Y-56000083D01*
X40555641Y-55999000D01*
X40844359Y-55999000D01*
X40855355Y-56000083D01*
G37*
G36*
X29583512Y-54473927D02*
G01*
X29732812Y-54503624D01*
X29896784Y-54571544D01*
X30044354Y-54670147D01*
X30169853Y-54795646D01*
X30268456Y-54943216D01*
X30336376Y-55107188D01*
X30371000Y-55281259D01*
X30371000Y-55458741D01*
X30336376Y-55632812D01*
X30268456Y-55796784D01*
X30169853Y-55944354D01*
X30044354Y-56069853D01*
X29896784Y-56168456D01*
X29732812Y-56236376D01*
X29583512Y-56266073D01*
X29558742Y-56271000D01*
X29381258Y-56271000D01*
X29356488Y-56266073D01*
X29207188Y-56236376D01*
X29043216Y-56168456D01*
X28895646Y-56069853D01*
X28770147Y-55944354D01*
X28671544Y-55796784D01*
X28603624Y-55632812D01*
X28569000Y-55458741D01*
X28569000Y-55281259D01*
X28603624Y-55107188D01*
X28671544Y-54943216D01*
X28770147Y-54795646D01*
X28895646Y-54670147D01*
X29043216Y-54571544D01*
X29207188Y-54503624D01*
X29356488Y-54473927D01*
X29381258Y-54469000D01*
X29558742Y-54469000D01*
X29583512Y-54473927D01*
G37*
G36*
X47363512Y-54473927D02*
G01*
X47512812Y-54503624D01*
X47676784Y-54571544D01*
X47824354Y-54670147D01*
X47949853Y-54795646D01*
X48048456Y-54943216D01*
X48116376Y-55107188D01*
X48151000Y-55281259D01*
X48151000Y-55458741D01*
X48116376Y-55632812D01*
X48048456Y-55796784D01*
X47949853Y-55944354D01*
X47824354Y-56069853D01*
X47676784Y-56168456D01*
X47512812Y-56236376D01*
X47363512Y-56266073D01*
X47338742Y-56271000D01*
X47161258Y-56271000D01*
X47136488Y-56266073D01*
X46987188Y-56236376D01*
X46823216Y-56168456D01*
X46675646Y-56069853D01*
X46550147Y-55944354D01*
X46451544Y-55796784D01*
X46383624Y-55632812D01*
X46349000Y-55458741D01*
X46349000Y-55281259D01*
X46383624Y-55107188D01*
X46451544Y-54943216D01*
X46550147Y-54795646D01*
X46675646Y-54670147D01*
X46823216Y-54571544D01*
X46987188Y-54503624D01*
X47136488Y-54473927D01*
X47161258Y-54469000D01*
X47338742Y-54469000D01*
X47363512Y-54473927D01*
G37*
G36*
X57951000Y-55776000D02*
G01*
X55449000Y-55776000D01*
X55449000Y-54934000D01*
X57951000Y-54934000D01*
X57951000Y-55776000D01*
G37*
G36*
X54051000Y-55776000D02*
G01*
X51549000Y-55776000D01*
X51549000Y-54934000D01*
X54051000Y-54934000D01*
X54051000Y-55776000D01*
G37*
G36*
X43804124Y-52277499D02*
G01*
X43832387Y-52286073D01*
X43858434Y-52299996D01*
X43881267Y-52318733D01*
X43900004Y-52341566D01*
X43913927Y-52367613D01*
X43922501Y-52395876D01*
X43926000Y-52431408D01*
X43926000Y-55568592D01*
X43922501Y-55604124D01*
X43913927Y-55632387D01*
X43900004Y-55658434D01*
X43881267Y-55681267D01*
X43858434Y-55700004D01*
X43832387Y-55713927D01*
X43804124Y-55722501D01*
X43768592Y-55726000D01*
X40631408Y-55726000D01*
X40595876Y-55722501D01*
X40567613Y-55713927D01*
X40541566Y-55700004D01*
X40518733Y-55681267D01*
X40499996Y-55658434D01*
X40486073Y-55632387D01*
X40477499Y-55604124D01*
X40474000Y-55568592D01*
X40474000Y-52431408D01*
X40477499Y-52395876D01*
X40486073Y-52367613D01*
X40499996Y-52341566D01*
X40518733Y-52318733D01*
X40541566Y-52299996D01*
X40567613Y-52286073D01*
X40595876Y-52277499D01*
X40631408Y-52274000D01*
X43768592Y-52274000D01*
X43804124Y-52277499D01*
G37*
G36*
X40180355Y-52325083D02*
G01*
X40185029Y-52326501D01*
X40189331Y-52328800D01*
X40193104Y-52331896D01*
X40196200Y-52335669D01*
X40198499Y-52339971D01*
X40199917Y-52344645D01*
X40201000Y-52355641D01*
X40201000Y-52644359D01*
X40199917Y-52655355D01*
X40198499Y-52660029D01*
X40196200Y-52664330D01*
X40190971Y-52670702D01*
X40177357Y-52691076D01*
X40167980Y-52713715D01*
X40163200Y-52737749D01*
X40163200Y-52762253D01*
X40167981Y-52786286D01*
X40177358Y-52808925D01*
X40190971Y-52829298D01*
X40196200Y-52835670D01*
X40198499Y-52839971D01*
X40199917Y-52844645D01*
X40201000Y-52855641D01*
X40201000Y-53144359D01*
X40199917Y-53155355D01*
X40198499Y-53160029D01*
X40196200Y-53164330D01*
X40190971Y-53170702D01*
X40177357Y-53191076D01*
X40167980Y-53213715D01*
X40163200Y-53237749D01*
X40163200Y-53262253D01*
X40167981Y-53286286D01*
X40177358Y-53308925D01*
X40190971Y-53329298D01*
X40196200Y-53335670D01*
X40198499Y-53339971D01*
X40199917Y-53344645D01*
X40201000Y-53355641D01*
X40201000Y-53644359D01*
X40199917Y-53655355D01*
X40198499Y-53660029D01*
X40196200Y-53664330D01*
X40190971Y-53670702D01*
X40177357Y-53691076D01*
X40167980Y-53713715D01*
X40163200Y-53737749D01*
X40163200Y-53762253D01*
X40167981Y-53786286D01*
X40177358Y-53808925D01*
X40190971Y-53829298D01*
X40196200Y-53835670D01*
X40198499Y-53839971D01*
X40199917Y-53844645D01*
X40201000Y-53855641D01*
X40201000Y-54144359D01*
X40199917Y-54155355D01*
X40198499Y-54160029D01*
X40196200Y-54164330D01*
X40190971Y-54170702D01*
X40177357Y-54191076D01*
X40167980Y-54213715D01*
X40163200Y-54237749D01*
X40163200Y-54262253D01*
X40167981Y-54286286D01*
X40177358Y-54308925D01*
X40190971Y-54329298D01*
X40196200Y-54335670D01*
X40198499Y-54339971D01*
X40199917Y-54344645D01*
X40201000Y-54355641D01*
X40201000Y-54644359D01*
X40199917Y-54655355D01*
X40198499Y-54660029D01*
X40196200Y-54664330D01*
X40190971Y-54670702D01*
X40177357Y-54691076D01*
X40167980Y-54713715D01*
X40163200Y-54737749D01*
X40163200Y-54762253D01*
X40167981Y-54786286D01*
X40177358Y-54808925D01*
X40190971Y-54829298D01*
X40196200Y-54835670D01*
X40198499Y-54839971D01*
X40199917Y-54844645D01*
X40201000Y-54855641D01*
X40201000Y-55144359D01*
X40199917Y-55155355D01*
X40198499Y-55160029D01*
X40196200Y-55164330D01*
X40190971Y-55170702D01*
X40177357Y-55191076D01*
X40167980Y-55213715D01*
X40163200Y-55237749D01*
X40163200Y-55262253D01*
X40167981Y-55286286D01*
X40177358Y-55308925D01*
X40190971Y-55329298D01*
X40196200Y-55335670D01*
X40198499Y-55339971D01*
X40199917Y-55344645D01*
X40201000Y-55355641D01*
X40201000Y-55644359D01*
X40199917Y-55655355D01*
X40198499Y-55660029D01*
X40196200Y-55664331D01*
X40193104Y-55668104D01*
X40189331Y-55671200D01*
X40185029Y-55673499D01*
X40180355Y-55674917D01*
X40169359Y-55676000D01*
X39330641Y-55676000D01*
X39319645Y-55674917D01*
X39314971Y-55673499D01*
X39310669Y-55671200D01*
X39306896Y-55668104D01*
X39303800Y-55664331D01*
X39301501Y-55660029D01*
X39300083Y-55655355D01*
X39299000Y-55644359D01*
X39299000Y-55355641D01*
X39300083Y-55344645D01*
X39301501Y-55339971D01*
X39303800Y-55335670D01*
X39309029Y-55329298D01*
X39322643Y-55308924D01*
X39332020Y-55286285D01*
X39336800Y-55262251D01*
X39336800Y-55237747D01*
X39332019Y-55213714D01*
X39322642Y-55191075D01*
X39309029Y-55170702D01*
X39303800Y-55164330D01*
X39301501Y-55160029D01*
X39300083Y-55155355D01*
X39299000Y-55144359D01*
X39299000Y-54855641D01*
X39300083Y-54844645D01*
X39301501Y-54839971D01*
X39303800Y-54835670D01*
X39309029Y-54829298D01*
X39322643Y-54808924D01*
X39332020Y-54786285D01*
X39336800Y-54762251D01*
X39336800Y-54737747D01*
X39332019Y-54713714D01*
X39322642Y-54691075D01*
X39309029Y-54670702D01*
X39303800Y-54664330D01*
X39301501Y-54660029D01*
X39300083Y-54655355D01*
X39299000Y-54644359D01*
X39299000Y-54355641D01*
X39300083Y-54344645D01*
X39301501Y-54339971D01*
X39303800Y-54335670D01*
X39309029Y-54329298D01*
X39322643Y-54308924D01*
X39332020Y-54286285D01*
X39336800Y-54262251D01*
X39336800Y-54237747D01*
X39332019Y-54213714D01*
X39322642Y-54191075D01*
X39309029Y-54170702D01*
X39303800Y-54164330D01*
X39301501Y-54160029D01*
X39300083Y-54155355D01*
X39299000Y-54144359D01*
X39299000Y-53855641D01*
X39300083Y-53844645D01*
X39301501Y-53839971D01*
X39303800Y-53835670D01*
X39309029Y-53829298D01*
X39322643Y-53808924D01*
X39332020Y-53786285D01*
X39336800Y-53762251D01*
X39336800Y-53737747D01*
X39332019Y-53713714D01*
X39322642Y-53691075D01*
X39309029Y-53670702D01*
X39303800Y-53664330D01*
X39301501Y-53660029D01*
X39300083Y-53655355D01*
X39299000Y-53644359D01*
X39299000Y-53355641D01*
X39300083Y-53344645D01*
X39301501Y-53339971D01*
X39303800Y-53335670D01*
X39309029Y-53329298D01*
X39322643Y-53308924D01*
X39332020Y-53286285D01*
X39336800Y-53262251D01*
X39336800Y-53237747D01*
X39332019Y-53213714D01*
X39322642Y-53191075D01*
X39309029Y-53170702D01*
X39303800Y-53164330D01*
X39301501Y-53160029D01*
X39300083Y-53155355D01*
X39299000Y-53144359D01*
X39299000Y-52855641D01*
X39300083Y-52844645D01*
X39301501Y-52839971D01*
X39303800Y-52835670D01*
X39309029Y-52829298D01*
X39322643Y-52808924D01*
X39332020Y-52786285D01*
X39336800Y-52762251D01*
X39336800Y-52737747D01*
X39332019Y-52713714D01*
X39322642Y-52691075D01*
X39309029Y-52670702D01*
X39303800Y-52664330D01*
X39301501Y-52660029D01*
X39300083Y-52655355D01*
X39299000Y-52644359D01*
X39299000Y-52355641D01*
X39300083Y-52344645D01*
X39301501Y-52339971D01*
X39303800Y-52335669D01*
X39306896Y-52331896D01*
X39310669Y-52328800D01*
X39314971Y-52326501D01*
X39319645Y-52325083D01*
X39330641Y-52324000D01*
X40169359Y-52324000D01*
X40180355Y-52325083D01*
G37*
G36*
X45080355Y-52325083D02*
G01*
X45085029Y-52326501D01*
X45089331Y-52328800D01*
X45093104Y-52331896D01*
X45096200Y-52335669D01*
X45098499Y-52339971D01*
X45099917Y-52344645D01*
X45101000Y-52355641D01*
X45101000Y-52644359D01*
X45099917Y-52655355D01*
X45098499Y-52660029D01*
X45096200Y-52664330D01*
X45090971Y-52670702D01*
X45077357Y-52691076D01*
X45067980Y-52713715D01*
X45063200Y-52737749D01*
X45063200Y-52762253D01*
X45067981Y-52786286D01*
X45077358Y-52808925D01*
X45090971Y-52829298D01*
X45096200Y-52835670D01*
X45098499Y-52839971D01*
X45099917Y-52844645D01*
X45101000Y-52855641D01*
X45101000Y-53144359D01*
X45099917Y-53155355D01*
X45098499Y-53160029D01*
X45096200Y-53164330D01*
X45090971Y-53170702D01*
X45077357Y-53191076D01*
X45067980Y-53213715D01*
X45063200Y-53237749D01*
X45063200Y-53262253D01*
X45067981Y-53286286D01*
X45077358Y-53308925D01*
X45090971Y-53329298D01*
X45096200Y-53335670D01*
X45098499Y-53339971D01*
X45099917Y-53344645D01*
X45101000Y-53355641D01*
X45101000Y-53644359D01*
X45099917Y-53655355D01*
X45098499Y-53660029D01*
X45096200Y-53664330D01*
X45090971Y-53670702D01*
X45077357Y-53691076D01*
X45067980Y-53713715D01*
X45063200Y-53737749D01*
X45063200Y-53762253D01*
X45067981Y-53786286D01*
X45077358Y-53808925D01*
X45090971Y-53829298D01*
X45096200Y-53835670D01*
X45098499Y-53839971D01*
X45099917Y-53844645D01*
X45101000Y-53855641D01*
X45101000Y-54144359D01*
X45099917Y-54155355D01*
X45098499Y-54160029D01*
X45096200Y-54164330D01*
X45090971Y-54170702D01*
X45077357Y-54191076D01*
X45067980Y-54213715D01*
X45063200Y-54237749D01*
X45063200Y-54262253D01*
X45067981Y-54286286D01*
X45077358Y-54308925D01*
X45090971Y-54329298D01*
X45096200Y-54335670D01*
X45098499Y-54339971D01*
X45099917Y-54344645D01*
X45101000Y-54355641D01*
X45101000Y-54644359D01*
X45099917Y-54655355D01*
X45098499Y-54660029D01*
X45096200Y-54664330D01*
X45090971Y-54670702D01*
X45077357Y-54691076D01*
X45067980Y-54713715D01*
X45063200Y-54737749D01*
X45063200Y-54762253D01*
X45067981Y-54786286D01*
X45077358Y-54808925D01*
X45090971Y-54829298D01*
X45096200Y-54835670D01*
X45098499Y-54839971D01*
X45099917Y-54844645D01*
X45101000Y-54855641D01*
X45101000Y-55144359D01*
X45099917Y-55155355D01*
X45098499Y-55160029D01*
X45096200Y-55164330D01*
X45090971Y-55170702D01*
X45077357Y-55191076D01*
X45067980Y-55213715D01*
X45063200Y-55237749D01*
X45063200Y-55262253D01*
X45067981Y-55286286D01*
X45077358Y-55308925D01*
X45090971Y-55329298D01*
X45096200Y-55335670D01*
X45098499Y-55339971D01*
X45099917Y-55344645D01*
X45101000Y-55355641D01*
X45101000Y-55644359D01*
X45099917Y-55655355D01*
X45098499Y-55660029D01*
X45096200Y-55664331D01*
X45093104Y-55668104D01*
X45089331Y-55671200D01*
X45085029Y-55673499D01*
X45080355Y-55674917D01*
X45069359Y-55676000D01*
X44230641Y-55676000D01*
X44219645Y-55674917D01*
X44214971Y-55673499D01*
X44210669Y-55671200D01*
X44206896Y-55668104D01*
X44203800Y-55664331D01*
X44201501Y-55660029D01*
X44200083Y-55655355D01*
X44199000Y-55644359D01*
X44199000Y-55355641D01*
X44200083Y-55344645D01*
X44201501Y-55339971D01*
X44203800Y-55335670D01*
X44209029Y-55329298D01*
X44222643Y-55308924D01*
X44232020Y-55286285D01*
X44236800Y-55262251D01*
X44236800Y-55237747D01*
X44232019Y-55213714D01*
X44222642Y-55191075D01*
X44209029Y-55170702D01*
X44203800Y-55164330D01*
X44201501Y-55160029D01*
X44200083Y-55155355D01*
X44199000Y-55144359D01*
X44199000Y-54855641D01*
X44200083Y-54844645D01*
X44201501Y-54839971D01*
X44203800Y-54835670D01*
X44209029Y-54829298D01*
X44222643Y-54808924D01*
X44232020Y-54786285D01*
X44236800Y-54762251D01*
X44236800Y-54737747D01*
X44232019Y-54713714D01*
X44222642Y-54691075D01*
X44209029Y-54670702D01*
X44203800Y-54664330D01*
X44201501Y-54660029D01*
X44200083Y-54655355D01*
X44199000Y-54644359D01*
X44199000Y-54355641D01*
X44200083Y-54344645D01*
X44201501Y-54339971D01*
X44203800Y-54335670D01*
X44209029Y-54329298D01*
X44222643Y-54308924D01*
X44232020Y-54286285D01*
X44236800Y-54262251D01*
X44236800Y-54237747D01*
X44232019Y-54213714D01*
X44222642Y-54191075D01*
X44209029Y-54170702D01*
X44203800Y-54164330D01*
X44201501Y-54160029D01*
X44200083Y-54155355D01*
X44199000Y-54144359D01*
X44199000Y-53855641D01*
X44200083Y-53844645D01*
X44201501Y-53839971D01*
X44203800Y-53835670D01*
X44209029Y-53829298D01*
X44222643Y-53808924D01*
X44232020Y-53786285D01*
X44236800Y-53762251D01*
X44236800Y-53737747D01*
X44232019Y-53713714D01*
X44222642Y-53691075D01*
X44209029Y-53670702D01*
X44203800Y-53664330D01*
X44201501Y-53660029D01*
X44200083Y-53655355D01*
X44199000Y-53644359D01*
X44199000Y-53355641D01*
X44200083Y-53344645D01*
X44201501Y-53339971D01*
X44203800Y-53335670D01*
X44209029Y-53329298D01*
X44222643Y-53308924D01*
X44232020Y-53286285D01*
X44236800Y-53262251D01*
X44236800Y-53237747D01*
X44232019Y-53213714D01*
X44222642Y-53191075D01*
X44209029Y-53170702D01*
X44203800Y-53164330D01*
X44201501Y-53160029D01*
X44200083Y-53155355D01*
X44199000Y-53144359D01*
X44199000Y-52855641D01*
X44200083Y-52844645D01*
X44201501Y-52839971D01*
X44203800Y-52835670D01*
X44209029Y-52829298D01*
X44222643Y-52808924D01*
X44232020Y-52786285D01*
X44236800Y-52762251D01*
X44236800Y-52737747D01*
X44232019Y-52713714D01*
X44222642Y-52691075D01*
X44209029Y-52670702D01*
X44203800Y-52664330D01*
X44201501Y-52660029D01*
X44200083Y-52655355D01*
X44199000Y-52644359D01*
X44199000Y-52355641D01*
X44200083Y-52344645D01*
X44201501Y-52339971D01*
X44203800Y-52335669D01*
X44206896Y-52331896D01*
X44210669Y-52328800D01*
X44214971Y-52326501D01*
X44219645Y-52325083D01*
X44230641Y-52324000D01*
X45069359Y-52324000D01*
X45080355Y-52325083D01*
G37*
G36*
X37861000Y-55511000D02*
G01*
X36759000Y-55511000D01*
X36759000Y-54409000D01*
X37861000Y-54409000D01*
X37861000Y-55511000D01*
G37*
G36*
X36161000Y-55511000D02*
G01*
X35059000Y-55511000D01*
X35059000Y-54409000D01*
X36161000Y-54409000D01*
X36161000Y-55511000D01*
G37*
G36*
X57951000Y-54506000D02*
G01*
X55449000Y-54506000D01*
X55449000Y-53664000D01*
X57951000Y-53664000D01*
X57951000Y-54506000D01*
G37*
G36*
X54051000Y-54506000D02*
G01*
X51549000Y-54506000D01*
X51549000Y-53664000D01*
X54051000Y-53664000D01*
X54051000Y-54506000D01*
G37*
G36*
X29583512Y-51933927D02*
G01*
X29732812Y-51963624D01*
X29896784Y-52031544D01*
X30044354Y-52130147D01*
X30169853Y-52255646D01*
X30268456Y-52403216D01*
X30336376Y-52567188D01*
X30361018Y-52691075D01*
X30370302Y-52737747D01*
X30371000Y-52741259D01*
X30371000Y-52918741D01*
X30336376Y-53092812D01*
X30268456Y-53256784D01*
X30169853Y-53404354D01*
X30044354Y-53529853D01*
X29896784Y-53628456D01*
X29732812Y-53696376D01*
X29583512Y-53726073D01*
X29558742Y-53731000D01*
X29381258Y-53731000D01*
X29356488Y-53726073D01*
X29207188Y-53696376D01*
X29043216Y-53628456D01*
X28895646Y-53529853D01*
X28770147Y-53404354D01*
X28671544Y-53256784D01*
X28603624Y-53092812D01*
X28569000Y-52918741D01*
X28569000Y-52741259D01*
X28569699Y-52737747D01*
X28578982Y-52691075D01*
X28603624Y-52567188D01*
X28671544Y-52403216D01*
X28770147Y-52255646D01*
X28895646Y-52130147D01*
X29043216Y-52031544D01*
X29207188Y-51963624D01*
X29356488Y-51933927D01*
X29381258Y-51929000D01*
X29558742Y-51929000D01*
X29583512Y-51933927D01*
G37*
G36*
X47363512Y-51933927D02*
G01*
X47512812Y-51963624D01*
X47676784Y-52031544D01*
X47824354Y-52130147D01*
X47949853Y-52255646D01*
X48048456Y-52403216D01*
X48116376Y-52567188D01*
X48141018Y-52691075D01*
X48150302Y-52737747D01*
X48151000Y-52741259D01*
X48151000Y-52918741D01*
X48116376Y-53092812D01*
X48048456Y-53256784D01*
X47949853Y-53404354D01*
X47824354Y-53529853D01*
X47676784Y-53628456D01*
X47512812Y-53696376D01*
X47363512Y-53726073D01*
X47338742Y-53731000D01*
X47161258Y-53731000D01*
X47136488Y-53726073D01*
X46987188Y-53696376D01*
X46823216Y-53628456D01*
X46675646Y-53529853D01*
X46550147Y-53404354D01*
X46451544Y-53256784D01*
X46383624Y-53092812D01*
X46349000Y-52918741D01*
X46349000Y-52741259D01*
X46349699Y-52737747D01*
X46358982Y-52691075D01*
X46383624Y-52567188D01*
X46451544Y-52403216D01*
X46550147Y-52255646D01*
X46675646Y-52130147D01*
X46823216Y-52031544D01*
X46987188Y-51963624D01*
X47136488Y-51933927D01*
X47161258Y-51929000D01*
X47338742Y-51929000D01*
X47363512Y-51933927D01*
G37*
G36*
X34501000Y-52126000D02*
G01*
X33399000Y-52126000D01*
X33399000Y-51024000D01*
X34501000Y-51024000D01*
X34501000Y-52126000D01*
G37*
G36*
X32801000Y-52126000D02*
G01*
X31699000Y-52126000D01*
X31699000Y-51024000D01*
X32801000Y-51024000D01*
X32801000Y-52126000D01*
G37*
G36*
X37901000Y-52126000D02*
G01*
X36799000Y-52126000D01*
X36799000Y-51024000D01*
X37901000Y-51024000D01*
X37901000Y-52126000D01*
G37*
G36*
X36201000Y-52126000D02*
G01*
X35099000Y-52126000D01*
X35099000Y-51024000D01*
X36201000Y-51024000D01*
X36201000Y-52126000D01*
G37*
G36*
X40855355Y-51100083D02*
G01*
X40860029Y-51101501D01*
X40864330Y-51103800D01*
X40870702Y-51109029D01*
X40891076Y-51122643D01*
X40913715Y-51132020D01*
X40937749Y-51136800D01*
X40962253Y-51136800D01*
X40986286Y-51132019D01*
X41008925Y-51122642D01*
X41029298Y-51109029D01*
X41035670Y-51103800D01*
X41039971Y-51101501D01*
X41044645Y-51100083D01*
X41055641Y-51099000D01*
X41344359Y-51099000D01*
X41355355Y-51100083D01*
X41360029Y-51101501D01*
X41364330Y-51103800D01*
X41370702Y-51109029D01*
X41391076Y-51122643D01*
X41413715Y-51132020D01*
X41437749Y-51136800D01*
X41462253Y-51136800D01*
X41486286Y-51132019D01*
X41508925Y-51122642D01*
X41529298Y-51109029D01*
X41535670Y-51103800D01*
X41539971Y-51101501D01*
X41544645Y-51100083D01*
X41555641Y-51099000D01*
X41844359Y-51099000D01*
X41855355Y-51100083D01*
X41860029Y-51101501D01*
X41864330Y-51103800D01*
X41870702Y-51109029D01*
X41891076Y-51122643D01*
X41913715Y-51132020D01*
X41937749Y-51136800D01*
X41962253Y-51136800D01*
X41986286Y-51132019D01*
X42008925Y-51122642D01*
X42029298Y-51109029D01*
X42035670Y-51103800D01*
X42039971Y-51101501D01*
X42044645Y-51100083D01*
X42055641Y-51099000D01*
X42344359Y-51099000D01*
X42355355Y-51100083D01*
X42360029Y-51101501D01*
X42364330Y-51103800D01*
X42370702Y-51109029D01*
X42391076Y-51122643D01*
X42413715Y-51132020D01*
X42437749Y-51136800D01*
X42462253Y-51136800D01*
X42486286Y-51132019D01*
X42508925Y-51122642D01*
X42529298Y-51109029D01*
X42535670Y-51103800D01*
X42539971Y-51101501D01*
X42544645Y-51100083D01*
X42555641Y-51099000D01*
X42844359Y-51099000D01*
X42855355Y-51100083D01*
X42860029Y-51101501D01*
X42864330Y-51103800D01*
X42870702Y-51109029D01*
X42891076Y-51122643D01*
X42913715Y-51132020D01*
X42937749Y-51136800D01*
X42962253Y-51136800D01*
X42986286Y-51132019D01*
X43008925Y-51122642D01*
X43029298Y-51109029D01*
X43035670Y-51103800D01*
X43039971Y-51101501D01*
X43044645Y-51100083D01*
X43055641Y-51099000D01*
X43344359Y-51099000D01*
X43355355Y-51100083D01*
X43360029Y-51101501D01*
X43364330Y-51103800D01*
X43370702Y-51109029D01*
X43391076Y-51122643D01*
X43413715Y-51132020D01*
X43437749Y-51136800D01*
X43462253Y-51136800D01*
X43486286Y-51132019D01*
X43508925Y-51122642D01*
X43529298Y-51109029D01*
X43535670Y-51103800D01*
X43539971Y-51101501D01*
X43544645Y-51100083D01*
X43555641Y-51099000D01*
X43844359Y-51099000D01*
X43855355Y-51100083D01*
X43860029Y-51101501D01*
X43864331Y-51103800D01*
X43868104Y-51106896D01*
X43871200Y-51110669D01*
X43873499Y-51114971D01*
X43874917Y-51119645D01*
X43876000Y-51130641D01*
X43876000Y-51969359D01*
X43874917Y-51980355D01*
X43873499Y-51985029D01*
X43871200Y-51989331D01*
X43868104Y-51993104D01*
X43864331Y-51996200D01*
X43860029Y-51998499D01*
X43855355Y-51999917D01*
X43844359Y-52001000D01*
X43555641Y-52001000D01*
X43544645Y-51999917D01*
X43539971Y-51998499D01*
X43535670Y-51996200D01*
X43529298Y-51990971D01*
X43508924Y-51977357D01*
X43486285Y-51967980D01*
X43462251Y-51963200D01*
X43437747Y-51963200D01*
X43413714Y-51967981D01*
X43391075Y-51977358D01*
X43370702Y-51990971D01*
X43364330Y-51996200D01*
X43360029Y-51998499D01*
X43355355Y-51999917D01*
X43344359Y-52001000D01*
X43055641Y-52001000D01*
X43044645Y-51999917D01*
X43039971Y-51998499D01*
X43035670Y-51996200D01*
X43029298Y-51990971D01*
X43008924Y-51977357D01*
X42986285Y-51967980D01*
X42962251Y-51963200D01*
X42937747Y-51963200D01*
X42913714Y-51967981D01*
X42891075Y-51977358D01*
X42870702Y-51990971D01*
X42864330Y-51996200D01*
X42860029Y-51998499D01*
X42855355Y-51999917D01*
X42844359Y-52001000D01*
X42555641Y-52001000D01*
X42544645Y-51999917D01*
X42539971Y-51998499D01*
X42535670Y-51996200D01*
X42529298Y-51990971D01*
X42508924Y-51977357D01*
X42486285Y-51967980D01*
X42462251Y-51963200D01*
X42437747Y-51963200D01*
X42413714Y-51967981D01*
X42391075Y-51977358D01*
X42370702Y-51990971D01*
X42364330Y-51996200D01*
X42360029Y-51998499D01*
X42355355Y-51999917D01*
X42344359Y-52001000D01*
X42055641Y-52001000D01*
X42044645Y-51999917D01*
X42039971Y-51998499D01*
X42035670Y-51996200D01*
X42029298Y-51990971D01*
X42008924Y-51977357D01*
X41986285Y-51967980D01*
X41962251Y-51963200D01*
X41937747Y-51963200D01*
X41913714Y-51967981D01*
X41891075Y-51977358D01*
X41870702Y-51990971D01*
X41864330Y-51996200D01*
X41860029Y-51998499D01*
X41855355Y-51999917D01*
X41844359Y-52001000D01*
X41555641Y-52001000D01*
X41544645Y-51999917D01*
X41539971Y-51998499D01*
X41535670Y-51996200D01*
X41529298Y-51990971D01*
X41508924Y-51977357D01*
X41486285Y-51967980D01*
X41462251Y-51963200D01*
X41437747Y-51963200D01*
X41413714Y-51967981D01*
X41391075Y-51977358D01*
X41370702Y-51990971D01*
X41364330Y-51996200D01*
X41360029Y-51998499D01*
X41355355Y-51999917D01*
X41344359Y-52001000D01*
X41055641Y-52001000D01*
X41044645Y-51999917D01*
X41039971Y-51998499D01*
X41035670Y-51996200D01*
X41029298Y-51990971D01*
X41008924Y-51977357D01*
X40986285Y-51967980D01*
X40962251Y-51963200D01*
X40937747Y-51963200D01*
X40913714Y-51967981D01*
X40891075Y-51977358D01*
X40870702Y-51990971D01*
X40864330Y-51996200D01*
X40860029Y-51998499D01*
X40855355Y-51999917D01*
X40844359Y-52001000D01*
X40555641Y-52001000D01*
X40544645Y-51999917D01*
X40539971Y-51998499D01*
X40535669Y-51996200D01*
X40531896Y-51993104D01*
X40528800Y-51989331D01*
X40526501Y-51985029D01*
X40525083Y-51980355D01*
X40524000Y-51969359D01*
X40524000Y-51130641D01*
X40525083Y-51119645D01*
X40526501Y-51114971D01*
X40528800Y-51110669D01*
X40531896Y-51106896D01*
X40535669Y-51103800D01*
X40539971Y-51101501D01*
X40544645Y-51100083D01*
X40555641Y-51099000D01*
X40844359Y-51099000D01*
X40855355Y-51100083D01*
G37*
G36*
X47363512Y-49393927D02*
G01*
X47512812Y-49423624D01*
X47676784Y-49491544D01*
X47824354Y-49590147D01*
X47949853Y-49715646D01*
X48048456Y-49863216D01*
X48116376Y-50027188D01*
X48151000Y-50201259D01*
X48151000Y-50378741D01*
X48116376Y-50552812D01*
X48048456Y-50716784D01*
X47949853Y-50864354D01*
X47824354Y-50989853D01*
X47676784Y-51088456D01*
X47512812Y-51156376D01*
X47363512Y-51186073D01*
X47338742Y-51191000D01*
X47161258Y-51191000D01*
X47136488Y-51186073D01*
X46987188Y-51156376D01*
X46823216Y-51088456D01*
X46675646Y-50989853D01*
X46550147Y-50864354D01*
X46451544Y-50716784D01*
X46383624Y-50552812D01*
X46349000Y-50378741D01*
X46349000Y-50201259D01*
X46383624Y-50027188D01*
X46451544Y-49863216D01*
X46550147Y-49715646D01*
X46675646Y-49590147D01*
X46823216Y-49491544D01*
X46987188Y-49423624D01*
X47136488Y-49393927D01*
X47161258Y-49389000D01*
X47338742Y-49389000D01*
X47363512Y-49393927D01*
G37*
G36*
X29583512Y-49393927D02*
G01*
X29732812Y-49423624D01*
X29896784Y-49491544D01*
X30044354Y-49590147D01*
X30169853Y-49715646D01*
X30268456Y-49863216D01*
X30336376Y-50027188D01*
X30371000Y-50201259D01*
X30371000Y-50378741D01*
X30336376Y-50552812D01*
X30268456Y-50716784D01*
X30169853Y-50864354D01*
X30044354Y-50989853D01*
X29896784Y-51088456D01*
X29732812Y-51156376D01*
X29583512Y-51186073D01*
X29558742Y-51191000D01*
X29381258Y-51191000D01*
X29356488Y-51186073D01*
X29207188Y-51156376D01*
X29043216Y-51088456D01*
X28895646Y-50989853D01*
X28770147Y-50864354D01*
X28671544Y-50716784D01*
X28603624Y-50552812D01*
X28569000Y-50378741D01*
X28569000Y-50201259D01*
X28603624Y-50027188D01*
X28671544Y-49863216D01*
X28770147Y-49715646D01*
X28895646Y-49590147D01*
X29043216Y-49491544D01*
X29207188Y-49423624D01*
X29356488Y-49393927D01*
X29381258Y-49389000D01*
X29558742Y-49389000D01*
X29583512Y-49393927D01*
G37*
G36*
X37976000Y-50176000D02*
G01*
X36674000Y-50176000D01*
X36674000Y-48574000D01*
X37976000Y-48574000D01*
X37976000Y-50176000D01*
G37*
G36*
X35776000Y-50176000D02*
G01*
X34474000Y-50176000D01*
X34474000Y-48574000D01*
X35776000Y-48574000D01*
X35776000Y-50176000D01*
G37*
G36*
X33476000Y-50176000D02*
G01*
X32174000Y-50176000D01*
X32174000Y-48574000D01*
X33476000Y-48574000D01*
X33476000Y-50176000D01*
G37*
G36*
X42079333Y-49681000D02*
G01*
X40977333Y-49681000D01*
X40977333Y-48579000D01*
X42079333Y-48579000D01*
X42079333Y-49681000D01*
G37*
G36*
X40536000Y-49681000D02*
G01*
X39434000Y-49681000D01*
X39434000Y-48579000D01*
X40536000Y-48579000D01*
X40536000Y-49681000D01*
G37*
G36*
X43622666Y-49681000D02*
G01*
X42520666Y-49681000D01*
X42520666Y-48579000D01*
X43622666Y-48579000D01*
X43622666Y-49681000D01*
G37*
G36*
X47363512Y-46853927D02*
G01*
X47512812Y-46883624D01*
X47676784Y-46951544D01*
X47824354Y-47050147D01*
X47949853Y-47175646D01*
X48048456Y-47323216D01*
X48116376Y-47487188D01*
X48146073Y-47636488D01*
X48150721Y-47659853D01*
X48151000Y-47661259D01*
X48151000Y-47838741D01*
X48116376Y-48012812D01*
X48048456Y-48176784D01*
X47949853Y-48324354D01*
X47824354Y-48449853D01*
X47676784Y-48548456D01*
X47512812Y-48616376D01*
X47363512Y-48646073D01*
X47338742Y-48651000D01*
X47161258Y-48651000D01*
X47136488Y-48646073D01*
X46987188Y-48616376D01*
X46823216Y-48548456D01*
X46675646Y-48449853D01*
X46550147Y-48324354D01*
X46451544Y-48176784D01*
X46383624Y-48012812D01*
X46349000Y-47838741D01*
X46349000Y-47661259D01*
X46349280Y-47659853D01*
X46353927Y-47636488D01*
X46383624Y-47487188D01*
X46451544Y-47323216D01*
X46550147Y-47175646D01*
X46675646Y-47050147D01*
X46823216Y-46951544D01*
X46987188Y-46883624D01*
X47136488Y-46853927D01*
X47161258Y-46849000D01*
X47338742Y-46849000D01*
X47363512Y-46853927D01*
G37*
G36*
X29583512Y-46853927D02*
G01*
X29732812Y-46883624D01*
X29896784Y-46951544D01*
X30044354Y-47050147D01*
X30169853Y-47175646D01*
X30268456Y-47323216D01*
X30336376Y-47487188D01*
X30366073Y-47636488D01*
X30370721Y-47659853D01*
X30371000Y-47661259D01*
X30371000Y-47838741D01*
X30336376Y-48012812D01*
X30268456Y-48176784D01*
X30169853Y-48324354D01*
X30044354Y-48449853D01*
X29896784Y-48548456D01*
X29732812Y-48616376D01*
X29583512Y-48646073D01*
X29558742Y-48651000D01*
X29381258Y-48651000D01*
X29356488Y-48646073D01*
X29207188Y-48616376D01*
X29043216Y-48548456D01*
X28895646Y-48449853D01*
X28770147Y-48324354D01*
X28671544Y-48176784D01*
X28603624Y-48012812D01*
X28569000Y-47838741D01*
X28569000Y-47661259D01*
X28569280Y-47659853D01*
X28573927Y-47636488D01*
X28603624Y-47487188D01*
X28671544Y-47323216D01*
X28770147Y-47175646D01*
X28895646Y-47050147D01*
X29043216Y-46951544D01*
X29207188Y-46883624D01*
X29356488Y-46853927D01*
X29381258Y-46849000D01*
X29558742Y-46849000D01*
X29583512Y-46853927D01*
G37*
G36*
X43622666Y-47981000D02*
G01*
X42520666Y-47981000D01*
X42520666Y-46879000D01*
X43622666Y-46879000D01*
X43622666Y-47981000D01*
G37*
G36*
X42079333Y-47981000D02*
G01*
X40977333Y-47981000D01*
X40977333Y-46879000D01*
X42079333Y-46879000D01*
X42079333Y-47981000D01*
G37*
G36*
X40536000Y-47981000D02*
G01*
X39434000Y-47981000D01*
X39434000Y-46879000D01*
X40536000Y-46879000D01*
X40536000Y-47981000D01*
G37*
G36*
X52653512Y-46063927D02*
G01*
X52802812Y-46093624D01*
X52966784Y-46161544D01*
X53114354Y-46260147D01*
X53239853Y-46385646D01*
X53338456Y-46533216D01*
X53406376Y-46697188D01*
X53436073Y-46846488D01*
X53441000Y-46871258D01*
X53441000Y-47048742D01*
X53440720Y-47050148D01*
X53406376Y-47222812D01*
X53338456Y-47386784D01*
X53239853Y-47534354D01*
X53114354Y-47659853D01*
X52966784Y-47758456D01*
X52802812Y-47826376D01*
X52653512Y-47856073D01*
X52628742Y-47861000D01*
X52451258Y-47861000D01*
X52426488Y-47856073D01*
X52277188Y-47826376D01*
X52113216Y-47758456D01*
X51965646Y-47659853D01*
X51840147Y-47534354D01*
X51741544Y-47386784D01*
X51673624Y-47222812D01*
X51639280Y-47050148D01*
X51639000Y-47048742D01*
X51639000Y-46871258D01*
X51643927Y-46846488D01*
X51673624Y-46697188D01*
X51741544Y-46533216D01*
X51840147Y-46385646D01*
X51965646Y-46260147D01*
X52113216Y-46161544D01*
X52277188Y-46093624D01*
X52426488Y-46063927D01*
X52451258Y-46059000D01*
X52628742Y-46059000D01*
X52653512Y-46063927D01*
G37*
G36*
X55981000Y-47861000D02*
G01*
X54179000Y-47861000D01*
X54179000Y-46059000D01*
X55981000Y-46059000D01*
X55981000Y-47861000D01*
G37*
G36*
X45201000Y-47221000D02*
G01*
X44099000Y-47221000D01*
X44099000Y-46119000D01*
X45201000Y-46119000D01*
X45201000Y-47221000D01*
G37*
G36*
X29583512Y-44313927D02*
G01*
X29732812Y-44343624D01*
X29896784Y-44411544D01*
X30044354Y-44510147D01*
X30169853Y-44635646D01*
X30268456Y-44783216D01*
X30336376Y-44947188D01*
X30366073Y-45096488D01*
X30370721Y-45119853D01*
X30371000Y-45121259D01*
X30371000Y-45298741D01*
X30336376Y-45472812D01*
X30268456Y-45636784D01*
X30169853Y-45784354D01*
X30044354Y-45909853D01*
X29896784Y-46008456D01*
X29732812Y-46076376D01*
X29583512Y-46106073D01*
X29558742Y-46111000D01*
X29381258Y-46111000D01*
X29356488Y-46106073D01*
X29207188Y-46076376D01*
X29043216Y-46008456D01*
X28895646Y-45909853D01*
X28770147Y-45784354D01*
X28671544Y-45636784D01*
X28603624Y-45472812D01*
X28569000Y-45298741D01*
X28569000Y-45121259D01*
X28569280Y-45119853D01*
X28573927Y-45096488D01*
X28603624Y-44947188D01*
X28671544Y-44783216D01*
X28770147Y-44635646D01*
X28895646Y-44510147D01*
X29043216Y-44411544D01*
X29207188Y-44343624D01*
X29356488Y-44313927D01*
X29381258Y-44309000D01*
X29558742Y-44309000D01*
X29583512Y-44313927D01*
G37*
G36*
X47363512Y-44313927D02*
G01*
X47512812Y-44343624D01*
X47676784Y-44411544D01*
X47824354Y-44510147D01*
X47949853Y-44635646D01*
X48048456Y-44783216D01*
X48116376Y-44947188D01*
X48146073Y-45096488D01*
X48150721Y-45119853D01*
X48151000Y-45121259D01*
X48151000Y-45298741D01*
X48116376Y-45472812D01*
X48048456Y-45636784D01*
X47949853Y-45784354D01*
X47824354Y-45909853D01*
X47676784Y-46008456D01*
X47512812Y-46076376D01*
X47363512Y-46106073D01*
X47338742Y-46111000D01*
X47161258Y-46111000D01*
X47136488Y-46106073D01*
X46987188Y-46076376D01*
X46823216Y-46008456D01*
X46675646Y-45909853D01*
X46550147Y-45784354D01*
X46451544Y-45636784D01*
X46383624Y-45472812D01*
X46349000Y-45298741D01*
X46349000Y-45121259D01*
X46349280Y-45119853D01*
X46353927Y-45096488D01*
X46383624Y-44947188D01*
X46451544Y-44783216D01*
X46550147Y-44635646D01*
X46675646Y-44510147D01*
X46823216Y-44411544D01*
X46987188Y-44343624D01*
X47136488Y-44313927D01*
X47161258Y-44309000D01*
X47338742Y-44309000D01*
X47363512Y-44313927D01*
G37*
G36*
X41426050Y-45824270D02*
G01*
X40523950Y-45824270D01*
X40523950Y-44922170D01*
X41426050Y-44922170D01*
X41426050Y-45824270D01*
G37*
G36*
X45201000Y-45521000D02*
G01*
X44099000Y-45521000D01*
X44099000Y-44419000D01*
X45201000Y-44419000D01*
X45201000Y-45521000D01*
G37*
G36*
X52653512Y-43523927D02*
G01*
X52802812Y-43553624D01*
X52966784Y-43621544D01*
X53114354Y-43720147D01*
X53239853Y-43845646D01*
X53338456Y-43993216D01*
X53406376Y-44157188D01*
X53436073Y-44306488D01*
X53441000Y-44331258D01*
X53441000Y-44508742D01*
X53440720Y-44510148D01*
X53406376Y-44682812D01*
X53338456Y-44846784D01*
X53239853Y-44994354D01*
X53114354Y-45119853D01*
X52966784Y-45218456D01*
X52802812Y-45286376D01*
X52653512Y-45316073D01*
X52628742Y-45321000D01*
X52451258Y-45321000D01*
X52426488Y-45316073D01*
X52277188Y-45286376D01*
X52113216Y-45218456D01*
X51965646Y-45119853D01*
X51840147Y-44994354D01*
X51741544Y-44846784D01*
X51673624Y-44682812D01*
X51639280Y-44510148D01*
X51639000Y-44508742D01*
X51639000Y-44331258D01*
X51643927Y-44306488D01*
X51673624Y-44157188D01*
X51741544Y-43993216D01*
X51840147Y-43845646D01*
X51965646Y-43720147D01*
X52113216Y-43621544D01*
X52277188Y-43553624D01*
X52426488Y-43523927D01*
X52451258Y-43519000D01*
X52628742Y-43519000D01*
X52653512Y-43523927D01*
G37*
G36*
X55193512Y-43523927D02*
G01*
X55342812Y-43553624D01*
X55506784Y-43621544D01*
X55654354Y-43720147D01*
X55779853Y-43845646D01*
X55878456Y-43993216D01*
X55946376Y-44157188D01*
X55976073Y-44306488D01*
X55981000Y-44331258D01*
X55981000Y-44508742D01*
X55980720Y-44510148D01*
X55946376Y-44682812D01*
X55878456Y-44846784D01*
X55779853Y-44994354D01*
X55654354Y-45119853D01*
X55506784Y-45218456D01*
X55342812Y-45286376D01*
X55193512Y-45316073D01*
X55168742Y-45321000D01*
X54991258Y-45321000D01*
X54966488Y-45316073D01*
X54817188Y-45286376D01*
X54653216Y-45218456D01*
X54505646Y-45119853D01*
X54380147Y-44994354D01*
X54281544Y-44846784D01*
X54213624Y-44682812D01*
X54179280Y-44510148D01*
X54179000Y-44508742D01*
X54179000Y-44331258D01*
X54183927Y-44306488D01*
X54213624Y-44157188D01*
X54281544Y-43993216D01*
X54380147Y-43845646D01*
X54505646Y-43720147D01*
X54653216Y-43621544D01*
X54817188Y-43553624D01*
X54966488Y-43523927D01*
X54991258Y-43519000D01*
X55168742Y-43519000D01*
X55193512Y-43523927D01*
G37*
G36*
X42376050Y-43825290D02*
G01*
X41473950Y-43825290D01*
X41473950Y-42923190D01*
X42376050Y-42923190D01*
X42376050Y-43825290D01*
G37*
G36*
X40476050Y-43825290D02*
G01*
X39573950Y-43825290D01*
X39573950Y-42923190D01*
X40476050Y-42923190D01*
X40476050Y-43825290D01*
G37*
G36*
X36826000Y-43776000D02*
G01*
X33424000Y-43776000D01*
X33424000Y-42174000D01*
X36826000Y-42174000D01*
X36826000Y-43776000D01*
G37*
G36*
X29583512Y-41773927D02*
G01*
X29732812Y-41803624D01*
X29896784Y-41871544D01*
X30044354Y-41970147D01*
X30169853Y-42095646D01*
X30268456Y-42243216D01*
X30336376Y-42407188D01*
X30366073Y-42556488D01*
X30370721Y-42579853D01*
X30371000Y-42581259D01*
X30371000Y-42758741D01*
X30336376Y-42932812D01*
X30268456Y-43096784D01*
X30169853Y-43244354D01*
X30044354Y-43369853D01*
X29896784Y-43468456D01*
X29732812Y-43536376D01*
X29583512Y-43566073D01*
X29558742Y-43571000D01*
X29381258Y-43571000D01*
X29356488Y-43566073D01*
X29207188Y-43536376D01*
X29043216Y-43468456D01*
X28895646Y-43369853D01*
X28770147Y-43244354D01*
X28671544Y-43096784D01*
X28603624Y-42932812D01*
X28569000Y-42758741D01*
X28569000Y-42581259D01*
X28569280Y-42579853D01*
X28573927Y-42556488D01*
X28603624Y-42407188D01*
X28671544Y-42243216D01*
X28770147Y-42095646D01*
X28895646Y-41970147D01*
X29043216Y-41871544D01*
X29207188Y-41803624D01*
X29356488Y-41773927D01*
X29381258Y-41769000D01*
X29558742Y-41769000D01*
X29583512Y-41773927D01*
G37*
G36*
X47363512Y-41773927D02*
G01*
X47512812Y-41803624D01*
X47676784Y-41871544D01*
X47824354Y-41970147D01*
X47949853Y-42095646D01*
X48048456Y-42243216D01*
X48116376Y-42407188D01*
X48146073Y-42556488D01*
X48150721Y-42579853D01*
X48151000Y-42581259D01*
X48151000Y-42758741D01*
X48116376Y-42932812D01*
X48048456Y-43096784D01*
X47949853Y-43244354D01*
X47824354Y-43369853D01*
X47676784Y-43468456D01*
X47512812Y-43536376D01*
X47363512Y-43566073D01*
X47338742Y-43571000D01*
X47161258Y-43571000D01*
X47136488Y-43566073D01*
X46987188Y-43536376D01*
X46823216Y-43468456D01*
X46675646Y-43369853D01*
X46550147Y-43244354D01*
X46451544Y-43096784D01*
X46383624Y-42932812D01*
X46349000Y-42758741D01*
X46349000Y-42581259D01*
X46349280Y-42579853D01*
X46353927Y-42556488D01*
X46383624Y-42407188D01*
X46451544Y-42243216D01*
X46550147Y-42095646D01*
X46675646Y-41970147D01*
X46823216Y-41871544D01*
X46987188Y-41803624D01*
X47136488Y-41773927D01*
X47161258Y-41769000D01*
X47338742Y-41769000D01*
X47363512Y-41773927D01*
G37*
G36*
X44351000Y-43201000D02*
G01*
X43249000Y-43201000D01*
X43249000Y-42099000D01*
X44351000Y-42099000D01*
X44351000Y-43201000D01*
G37*
G36*
X52653512Y-40983927D02*
G01*
X52802812Y-41013624D01*
X52966784Y-41081544D01*
X53114354Y-41180147D01*
X53239853Y-41305646D01*
X53338456Y-41453216D01*
X53406376Y-41617188D01*
X53436073Y-41766488D01*
X53441000Y-41791258D01*
X53441000Y-41968742D01*
X53440720Y-41970148D01*
X53406376Y-42142812D01*
X53338456Y-42306784D01*
X53239853Y-42454354D01*
X53114354Y-42579853D01*
X52966784Y-42678456D01*
X52802812Y-42746376D01*
X52653512Y-42776073D01*
X52628742Y-42781000D01*
X52451258Y-42781000D01*
X52426488Y-42776073D01*
X52277188Y-42746376D01*
X52113216Y-42678456D01*
X51965646Y-42579853D01*
X51840147Y-42454354D01*
X51741544Y-42306784D01*
X51673624Y-42142812D01*
X51639280Y-41970148D01*
X51639000Y-41968742D01*
X51639000Y-41791258D01*
X51643927Y-41766488D01*
X51673624Y-41617188D01*
X51741544Y-41453216D01*
X51840147Y-41305646D01*
X51965646Y-41180147D01*
X52113216Y-41081544D01*
X52277188Y-41013624D01*
X52426488Y-40983927D01*
X52451258Y-40979000D01*
X52628742Y-40979000D01*
X52653512Y-40983927D01*
G37*
G36*
X55193512Y-40983927D02*
G01*
X55342812Y-41013624D01*
X55506784Y-41081544D01*
X55654354Y-41180147D01*
X55779853Y-41305646D01*
X55878456Y-41453216D01*
X55946376Y-41617188D01*
X55976073Y-41766488D01*
X55981000Y-41791258D01*
X55981000Y-41968742D01*
X55980720Y-41970148D01*
X55946376Y-42142812D01*
X55878456Y-42306784D01*
X55779853Y-42454354D01*
X55654354Y-42579853D01*
X55506784Y-42678456D01*
X55342812Y-42746376D01*
X55193512Y-42776073D01*
X55168742Y-42781000D01*
X54991258Y-42781000D01*
X54966488Y-42776073D01*
X54817188Y-42746376D01*
X54653216Y-42678456D01*
X54505646Y-42579853D01*
X54380147Y-42454354D01*
X54281544Y-42306784D01*
X54213624Y-42142812D01*
X54179280Y-41970148D01*
X54179000Y-41968742D01*
X54179000Y-41791258D01*
X54183927Y-41766488D01*
X54213624Y-41617188D01*
X54281544Y-41453216D01*
X54380147Y-41305646D01*
X54505646Y-41180147D01*
X54653216Y-41081544D01*
X54817188Y-41013624D01*
X54966488Y-40983927D01*
X54991258Y-40979000D01*
X55168742Y-40979000D01*
X55193512Y-40983927D01*
G37*
G36*
X44351000Y-41501000D02*
G01*
X43249000Y-41501000D01*
X43249000Y-40399000D01*
X44351000Y-40399000D01*
X44351000Y-41501000D01*
G37*
G36*
X47363512Y-39233927D02*
G01*
X47512812Y-39263624D01*
X47676784Y-39331544D01*
X47824354Y-39430147D01*
X47949853Y-39555646D01*
X48048456Y-39703216D01*
X48116376Y-39867188D01*
X48146073Y-40016488D01*
X48150721Y-40039853D01*
X48151000Y-40041259D01*
X48151000Y-40218741D01*
X48116376Y-40392812D01*
X48048456Y-40556784D01*
X47949853Y-40704354D01*
X47824354Y-40829853D01*
X47676784Y-40928456D01*
X47512812Y-40996376D01*
X47363512Y-41026073D01*
X47338742Y-41031000D01*
X47161258Y-41031000D01*
X47136488Y-41026073D01*
X46987188Y-40996376D01*
X46823216Y-40928456D01*
X46675646Y-40829853D01*
X46550147Y-40704354D01*
X46451544Y-40556784D01*
X46383624Y-40392812D01*
X46349000Y-40218741D01*
X46349000Y-40041259D01*
X46349280Y-40039853D01*
X46353927Y-40016488D01*
X46383624Y-39867188D01*
X46451544Y-39703216D01*
X46550147Y-39555646D01*
X46675646Y-39430147D01*
X46823216Y-39331544D01*
X46987188Y-39263624D01*
X47136488Y-39233927D01*
X47161258Y-39229000D01*
X47338742Y-39229000D01*
X47363512Y-39233927D01*
G37*
G36*
X29583512Y-39233927D02*
G01*
X29732812Y-39263624D01*
X29896784Y-39331544D01*
X30044354Y-39430147D01*
X30169853Y-39555646D01*
X30268456Y-39703216D01*
X30336376Y-39867188D01*
X30366073Y-40016488D01*
X30370721Y-40039853D01*
X30371000Y-40041259D01*
X30371000Y-40218741D01*
X30336376Y-40392812D01*
X30268456Y-40556784D01*
X30169853Y-40704354D01*
X30044354Y-40829853D01*
X29896784Y-40928456D01*
X29732812Y-40996376D01*
X29583512Y-41026073D01*
X29558742Y-41031000D01*
X29381258Y-41031000D01*
X29356488Y-41026073D01*
X29207188Y-40996376D01*
X29043216Y-40928456D01*
X28895646Y-40829853D01*
X28770147Y-40704354D01*
X28671544Y-40556784D01*
X28603624Y-40392812D01*
X28569000Y-40218741D01*
X28569000Y-40041259D01*
X28569280Y-40039853D01*
X28573927Y-40016488D01*
X28603624Y-39867188D01*
X28671544Y-39703216D01*
X28770147Y-39555646D01*
X28895646Y-39430147D01*
X29043216Y-39331544D01*
X29207188Y-39263624D01*
X29356488Y-39233927D01*
X29381258Y-39229000D01*
X29558742Y-39229000D01*
X29583512Y-39233927D01*
G37*
G36*
X40401050Y-40651810D02*
G01*
X39498950Y-40651810D01*
X39498950Y-39749710D01*
X40401050Y-39749710D01*
X40401050Y-40651810D01*
G37*
G36*
X42301050Y-40651810D02*
G01*
X41398950Y-40651810D01*
X41398950Y-39749710D01*
X42301050Y-39749710D01*
X42301050Y-40651810D01*
G37*
G36*
X52653512Y-38443927D02*
G01*
X52802812Y-38473624D01*
X52966784Y-38541544D01*
X53114354Y-38640147D01*
X53239853Y-38765646D01*
X53338456Y-38913216D01*
X53406376Y-39077188D01*
X53436073Y-39226488D01*
X53441000Y-39251258D01*
X53441000Y-39428742D01*
X53440720Y-39430148D01*
X53406376Y-39602812D01*
X53338456Y-39766784D01*
X53239853Y-39914354D01*
X53114354Y-40039853D01*
X52966784Y-40138456D01*
X52802812Y-40206376D01*
X52653512Y-40236073D01*
X52628742Y-40241000D01*
X52451258Y-40241000D01*
X52426488Y-40236073D01*
X52277188Y-40206376D01*
X52113216Y-40138456D01*
X51965646Y-40039853D01*
X51840147Y-39914354D01*
X51741544Y-39766784D01*
X51673624Y-39602812D01*
X51639280Y-39430148D01*
X51639000Y-39428742D01*
X51639000Y-39251258D01*
X51643927Y-39226488D01*
X51673624Y-39077188D01*
X51741544Y-38913216D01*
X51840147Y-38765646D01*
X51965646Y-38640147D01*
X52113216Y-38541544D01*
X52277188Y-38473624D01*
X52426488Y-38443927D01*
X52451258Y-38439000D01*
X52628742Y-38439000D01*
X52653512Y-38443927D01*
G37*
G36*
X55193512Y-38443927D02*
G01*
X55342812Y-38473624D01*
X55506784Y-38541544D01*
X55654354Y-38640147D01*
X55779853Y-38765646D01*
X55878456Y-38913216D01*
X55946376Y-39077188D01*
X55976073Y-39226488D01*
X55981000Y-39251258D01*
X55981000Y-39428742D01*
X55980720Y-39430148D01*
X55946376Y-39602812D01*
X55878456Y-39766784D01*
X55779853Y-39914354D01*
X55654354Y-40039853D01*
X55506784Y-40138456D01*
X55342812Y-40206376D01*
X55193512Y-40236073D01*
X55168742Y-40241000D01*
X54991258Y-40241000D01*
X54966488Y-40236073D01*
X54817188Y-40206376D01*
X54653216Y-40138456D01*
X54505646Y-40039853D01*
X54380147Y-39914354D01*
X54281544Y-39766784D01*
X54213624Y-39602812D01*
X54179280Y-39430148D01*
X54179000Y-39428742D01*
X54179000Y-39251258D01*
X54183927Y-39226488D01*
X54213624Y-39077188D01*
X54281544Y-38913216D01*
X54380147Y-38765646D01*
X54505646Y-38640147D01*
X54653216Y-38541544D01*
X54817188Y-38473624D01*
X54966488Y-38443927D01*
X54991258Y-38439000D01*
X55168742Y-38439000D01*
X55193512Y-38443927D01*
G37*
G36*
X44451000Y-39376000D02*
G01*
X43349000Y-39376000D01*
X43349000Y-38274000D01*
X44451000Y-38274000D01*
X44451000Y-39376000D01*
G37*
G36*
X41351050Y-38652830D02*
G01*
X40448950Y-38652830D01*
X40448950Y-37750730D01*
X41351050Y-37750730D01*
X41351050Y-38652830D01*
G37*
G36*
X47363512Y-36693927D02*
G01*
X47512812Y-36723624D01*
X47676784Y-36791544D01*
X47824354Y-36890147D01*
X47949853Y-37015646D01*
X48048456Y-37163216D01*
X48116376Y-37327188D01*
X48146073Y-37476488D01*
X48150721Y-37499853D01*
X48151000Y-37501259D01*
X48151000Y-37678741D01*
X48116376Y-37852812D01*
X48048456Y-38016784D01*
X47949853Y-38164354D01*
X47824354Y-38289853D01*
X47676784Y-38388456D01*
X47512812Y-38456376D01*
X47363512Y-38486073D01*
X47338742Y-38491000D01*
X47161258Y-38491000D01*
X47136488Y-38486073D01*
X46987188Y-38456376D01*
X46823216Y-38388456D01*
X46675646Y-38289853D01*
X46550147Y-38164354D01*
X46451544Y-38016784D01*
X46383624Y-37852812D01*
X46349000Y-37678741D01*
X46349000Y-37501259D01*
X46349280Y-37499853D01*
X46353927Y-37476488D01*
X46383624Y-37327188D01*
X46451544Y-37163216D01*
X46550147Y-37015646D01*
X46675646Y-36890147D01*
X46823216Y-36791544D01*
X46987188Y-36723624D01*
X47136488Y-36693927D01*
X47161258Y-36689000D01*
X47338742Y-36689000D01*
X47363512Y-36693927D01*
G37*
G36*
X29583512Y-36693927D02*
G01*
X29732812Y-36723624D01*
X29896784Y-36791544D01*
X30044354Y-36890147D01*
X30169853Y-37015646D01*
X30268456Y-37163216D01*
X30336376Y-37327188D01*
X30366073Y-37476488D01*
X30370721Y-37499853D01*
X30371000Y-37501259D01*
X30371000Y-37678741D01*
X30336376Y-37852812D01*
X30268456Y-38016784D01*
X30169853Y-38164354D01*
X30044354Y-38289853D01*
X29896784Y-38388456D01*
X29732812Y-38456376D01*
X29583512Y-38486073D01*
X29558742Y-38491000D01*
X29381258Y-38491000D01*
X29356488Y-38486073D01*
X29207188Y-38456376D01*
X29043216Y-38388456D01*
X28895646Y-38289853D01*
X28770147Y-38164354D01*
X28671544Y-38016784D01*
X28603624Y-37852812D01*
X28569000Y-37678741D01*
X28569000Y-37501259D01*
X28569280Y-37499853D01*
X28573927Y-37476488D01*
X28603624Y-37327188D01*
X28671544Y-37163216D01*
X28770147Y-37015646D01*
X28895646Y-36890147D01*
X29043216Y-36791544D01*
X29207188Y-36723624D01*
X29356488Y-36693927D01*
X29381258Y-36689000D01*
X29558742Y-36689000D01*
X29583512Y-36693927D01*
G37*
G36*
X52653512Y-35903927D02*
G01*
X52802812Y-35933624D01*
X52966784Y-36001544D01*
X53114354Y-36100147D01*
X53239853Y-36225646D01*
X53338456Y-36373216D01*
X53406376Y-36537188D01*
X53436073Y-36686488D01*
X53441000Y-36711258D01*
X53441000Y-36888742D01*
X53440720Y-36890148D01*
X53406376Y-37062812D01*
X53338456Y-37226784D01*
X53239853Y-37374354D01*
X53114354Y-37499853D01*
X52966784Y-37598456D01*
X52802812Y-37666376D01*
X52653512Y-37696073D01*
X52628742Y-37701000D01*
X52451258Y-37701000D01*
X52426488Y-37696073D01*
X52277188Y-37666376D01*
X52113216Y-37598456D01*
X51965646Y-37499853D01*
X51840147Y-37374354D01*
X51741544Y-37226784D01*
X51673624Y-37062812D01*
X51639280Y-36890148D01*
X51639000Y-36888742D01*
X51639000Y-36711258D01*
X51643927Y-36686488D01*
X51673624Y-36537188D01*
X51741544Y-36373216D01*
X51840147Y-36225646D01*
X51965646Y-36100147D01*
X52113216Y-36001544D01*
X52277188Y-35933624D01*
X52426488Y-35903927D01*
X52451258Y-35899000D01*
X52628742Y-35899000D01*
X52653512Y-35903927D01*
G37*
G36*
X55193512Y-35903927D02*
G01*
X55342812Y-35933624D01*
X55506784Y-36001544D01*
X55654354Y-36100147D01*
X55779853Y-36225646D01*
X55878456Y-36373216D01*
X55946376Y-36537188D01*
X55976073Y-36686488D01*
X55981000Y-36711258D01*
X55981000Y-36888742D01*
X55980720Y-36890148D01*
X55946376Y-37062812D01*
X55878456Y-37226784D01*
X55779853Y-37374354D01*
X55654354Y-37499853D01*
X55506784Y-37598456D01*
X55342812Y-37666376D01*
X55193512Y-37696073D01*
X55168742Y-37701000D01*
X54991258Y-37701000D01*
X54966488Y-37696073D01*
X54817188Y-37666376D01*
X54653216Y-37598456D01*
X54505646Y-37499853D01*
X54380147Y-37374354D01*
X54281544Y-37226784D01*
X54213624Y-37062812D01*
X54179280Y-36890148D01*
X54179000Y-36888742D01*
X54179000Y-36711258D01*
X54183927Y-36686488D01*
X54213624Y-36537188D01*
X54281544Y-36373216D01*
X54380147Y-36225646D01*
X54505646Y-36100147D01*
X54653216Y-36001544D01*
X54817188Y-35933624D01*
X54966488Y-35903927D01*
X54991258Y-35899000D01*
X55168742Y-35899000D01*
X55193512Y-35903927D01*
G37*
G36*
X44451000Y-37676000D02*
G01*
X43349000Y-37676000D01*
X43349000Y-36574000D01*
X44451000Y-36574000D01*
X44451000Y-37676000D01*
G37*
G36*
X47363512Y-34153927D02*
G01*
X47512812Y-34183624D01*
X47676784Y-34251544D01*
X47824354Y-34350147D01*
X47949853Y-34475646D01*
X48048456Y-34623216D01*
X48116376Y-34787188D01*
X48146073Y-34936488D01*
X48150721Y-34959853D01*
X48151000Y-34961259D01*
X48151000Y-35138741D01*
X48116376Y-35312812D01*
X48048456Y-35476784D01*
X47949853Y-35624354D01*
X47824354Y-35749853D01*
X47676784Y-35848456D01*
X47512812Y-35916376D01*
X47363512Y-35946073D01*
X47338742Y-35951000D01*
X47161258Y-35951000D01*
X47136488Y-35946073D01*
X46987188Y-35916376D01*
X46823216Y-35848456D01*
X46675646Y-35749853D01*
X46550147Y-35624354D01*
X46451544Y-35476784D01*
X46383624Y-35312812D01*
X46349000Y-35138741D01*
X46349000Y-34961259D01*
X46349280Y-34959853D01*
X46353927Y-34936488D01*
X46383624Y-34787188D01*
X46451544Y-34623216D01*
X46550147Y-34475646D01*
X46675646Y-34350147D01*
X46823216Y-34251544D01*
X46987188Y-34183624D01*
X47136488Y-34153927D01*
X47161258Y-34149000D01*
X47338742Y-34149000D01*
X47363512Y-34153927D01*
G37*
G36*
X29583512Y-34153927D02*
G01*
X29732812Y-34183624D01*
X29896784Y-34251544D01*
X30044354Y-34350147D01*
X30169853Y-34475646D01*
X30268456Y-34623216D01*
X30336376Y-34787188D01*
X30366073Y-34936488D01*
X30370721Y-34959853D01*
X30371000Y-34961259D01*
X30371000Y-35138741D01*
X30336376Y-35312812D01*
X30268456Y-35476784D01*
X30169853Y-35624354D01*
X30044354Y-35749853D01*
X29896784Y-35848456D01*
X29732812Y-35916376D01*
X29583512Y-35946073D01*
X29558742Y-35951000D01*
X29381258Y-35951000D01*
X29356488Y-35946073D01*
X29207188Y-35916376D01*
X29043216Y-35848456D01*
X28895646Y-35749853D01*
X28770147Y-35624354D01*
X28671544Y-35476784D01*
X28603624Y-35312812D01*
X28569000Y-35138741D01*
X28569000Y-34961259D01*
X28569280Y-34959853D01*
X28573927Y-34936488D01*
X28603624Y-34787188D01*
X28671544Y-34623216D01*
X28770147Y-34475646D01*
X28895646Y-34350147D01*
X29043216Y-34251544D01*
X29207188Y-34183624D01*
X29356488Y-34153927D01*
X29381258Y-34149000D01*
X29558742Y-34149000D01*
X29583512Y-34153927D01*
G37*
G36*
X40731000Y-35891000D02*
G01*
X39629000Y-35891000D01*
X39629000Y-34789000D01*
X40731000Y-34789000D01*
X40731000Y-35891000D01*
G37*
G36*
X36351000Y-35846000D02*
G01*
X35249000Y-35846000D01*
X35249000Y-34744000D01*
X36351000Y-34744000D01*
X36351000Y-35846000D01*
G37*
G36*
X34701000Y-35821000D02*
G01*
X33599000Y-35821000D01*
X33599000Y-34719000D01*
X34701000Y-34719000D01*
X34701000Y-35821000D01*
G37*
G36*
X42481000Y-35816000D02*
G01*
X41379000Y-35816000D01*
X41379000Y-34714000D01*
X42481000Y-34714000D01*
X42481000Y-35816000D01*
G37*
G36*
X52653512Y-33363927D02*
G01*
X52802812Y-33393624D01*
X52966784Y-33461544D01*
X53114354Y-33560147D01*
X53239853Y-33685646D01*
X53338456Y-33833216D01*
X53406376Y-33997188D01*
X53431003Y-34121000D01*
X53441000Y-34171258D01*
X53441000Y-34348742D01*
X53440720Y-34350148D01*
X53406376Y-34522812D01*
X53338456Y-34686784D01*
X53239853Y-34834354D01*
X53114354Y-34959853D01*
X52966784Y-35058456D01*
X52802812Y-35126376D01*
X52653512Y-35156073D01*
X52628742Y-35161000D01*
X52451258Y-35161000D01*
X52426488Y-35156073D01*
X52277188Y-35126376D01*
X52113216Y-35058456D01*
X51965646Y-34959853D01*
X51840147Y-34834354D01*
X51741544Y-34686784D01*
X51673624Y-34522812D01*
X51639280Y-34350148D01*
X51639000Y-34348742D01*
X51639000Y-34171258D01*
X51648997Y-34121000D01*
X51673624Y-33997188D01*
X51741544Y-33833216D01*
X51840147Y-33685646D01*
X51965646Y-33560147D01*
X52113216Y-33461544D01*
X52277188Y-33393624D01*
X52426488Y-33363927D01*
X52451258Y-33359000D01*
X52628742Y-33359000D01*
X52653512Y-33363927D01*
G37*
G36*
X55193512Y-33363927D02*
G01*
X55342812Y-33393624D01*
X55506784Y-33461544D01*
X55654354Y-33560147D01*
X55779853Y-33685646D01*
X55878456Y-33833216D01*
X55946376Y-33997188D01*
X55971003Y-34121000D01*
X55981000Y-34171258D01*
X55981000Y-34348742D01*
X55980720Y-34350148D01*
X55946376Y-34522812D01*
X55878456Y-34686784D01*
X55779853Y-34834354D01*
X55654354Y-34959853D01*
X55506784Y-35058456D01*
X55342812Y-35126376D01*
X55193512Y-35156073D01*
X55168742Y-35161000D01*
X54991258Y-35161000D01*
X54966488Y-35156073D01*
X54817188Y-35126376D01*
X54653216Y-35058456D01*
X54505646Y-34959853D01*
X54380147Y-34834354D01*
X54281544Y-34686784D01*
X54213624Y-34522812D01*
X54179280Y-34350148D01*
X54179000Y-34348742D01*
X54179000Y-34171258D01*
X54188997Y-34121000D01*
X54213624Y-33997188D01*
X54281544Y-33833216D01*
X54380147Y-33685646D01*
X54505646Y-33560147D01*
X54653216Y-33461544D01*
X54817188Y-33393624D01*
X54966488Y-33363927D01*
X54991258Y-33359000D01*
X55168742Y-33359000D01*
X55193512Y-33363927D01*
G37*
G36*
X40731000Y-34191000D02*
G01*
X39629000Y-34191000D01*
X39629000Y-33089000D01*
X40731000Y-33089000D01*
X40731000Y-34191000D01*
G37*
G36*
X36351000Y-34146000D02*
G01*
X35249000Y-34146000D01*
X35249000Y-33044000D01*
X36351000Y-33044000D01*
X36351000Y-34146000D01*
G37*
G36*
X34701000Y-34121000D02*
G01*
X33599000Y-34121000D01*
X33599000Y-33019000D01*
X34701000Y-33019000D01*
X34701000Y-34121000D01*
G37*
G36*
X42481000Y-34116000D02*
G01*
X41379000Y-34116000D01*
X41379000Y-33014000D01*
X42481000Y-33014000D01*
X42481000Y-34116000D01*
G37*
G36*
X29583512Y-31613927D02*
G01*
X29732812Y-31643624D01*
X29896784Y-31711544D01*
X30044354Y-31810147D01*
X30169853Y-31935646D01*
X30268456Y-32083216D01*
X30336376Y-32247188D01*
X30366073Y-32396488D01*
X30370721Y-32419853D01*
X30371000Y-32421259D01*
X30371000Y-32598741D01*
X30336376Y-32772812D01*
X30268456Y-32936784D01*
X30169853Y-33084354D01*
X30044354Y-33209853D01*
X29896784Y-33308456D01*
X29732812Y-33376376D01*
X29583512Y-33406073D01*
X29558742Y-33411000D01*
X29381258Y-33411000D01*
X29356488Y-33406073D01*
X29207188Y-33376376D01*
X29043216Y-33308456D01*
X28895646Y-33209853D01*
X28770147Y-33084354D01*
X28671544Y-32936784D01*
X28603624Y-32772812D01*
X28569000Y-32598741D01*
X28569000Y-32421259D01*
X28569280Y-32419853D01*
X28573927Y-32396488D01*
X28603624Y-32247188D01*
X28671544Y-32083216D01*
X28770147Y-31935646D01*
X28895646Y-31810147D01*
X29043216Y-31711544D01*
X29207188Y-31643624D01*
X29356488Y-31613927D01*
X29381258Y-31609000D01*
X29558742Y-31609000D01*
X29583512Y-31613927D01*
G37*
G36*
X47363512Y-31613927D02*
G01*
X47512812Y-31643624D01*
X47676784Y-31711544D01*
X47824354Y-31810147D01*
X47949853Y-31935646D01*
X48048456Y-32083216D01*
X48116376Y-32247188D01*
X48146073Y-32396488D01*
X48150721Y-32419853D01*
X48151000Y-32421259D01*
X48151000Y-32598741D01*
X48116376Y-32772812D01*
X48048456Y-32936784D01*
X47949853Y-33084354D01*
X47824354Y-33209853D01*
X47676784Y-33308456D01*
X47512812Y-33376376D01*
X47363512Y-33406073D01*
X47338742Y-33411000D01*
X47161258Y-33411000D01*
X47136488Y-33406073D01*
X46987188Y-33376376D01*
X46823216Y-33308456D01*
X46675646Y-33209853D01*
X46550147Y-33084354D01*
X46451544Y-32936784D01*
X46383624Y-32772812D01*
X46349000Y-32598741D01*
X46349000Y-32421259D01*
X46349280Y-32419853D01*
X46353927Y-32396488D01*
X46383624Y-32247188D01*
X46451544Y-32083216D01*
X46550147Y-31935646D01*
X46675646Y-31810147D01*
X46823216Y-31711544D01*
X46987188Y-31643624D01*
X47136488Y-31613927D01*
X47161258Y-31609000D01*
X47338742Y-31609000D01*
X47363512Y-31613927D01*
G37*
G36*
X55193512Y-30823927D02*
G01*
X55342812Y-30853624D01*
X55506784Y-30921544D01*
X55654354Y-31020147D01*
X55779853Y-31145646D01*
X55878456Y-31293216D01*
X55946376Y-31457188D01*
X55964638Y-31549000D01*
X55981000Y-31631258D01*
X55981000Y-31808742D01*
X55980720Y-31810148D01*
X55946376Y-31982812D01*
X55878456Y-32146784D01*
X55779853Y-32294354D01*
X55654354Y-32419853D01*
X55506784Y-32518456D01*
X55342812Y-32586376D01*
X55193512Y-32616073D01*
X55168742Y-32621000D01*
X54991258Y-32621000D01*
X54966488Y-32616073D01*
X54817188Y-32586376D01*
X54653216Y-32518456D01*
X54505646Y-32419853D01*
X54380147Y-32294354D01*
X54281544Y-32146784D01*
X54213624Y-31982812D01*
X54179280Y-31810148D01*
X54179000Y-31808742D01*
X54179000Y-31631258D01*
X54195362Y-31549000D01*
X54213624Y-31457188D01*
X54281544Y-31293216D01*
X54380147Y-31145646D01*
X54505646Y-31020147D01*
X54653216Y-30921544D01*
X54817188Y-30853624D01*
X54966488Y-30823927D01*
X54991258Y-30819000D01*
X55168742Y-30819000D01*
X55193512Y-30823927D01*
G37*
G36*
X52653512Y-30823927D02*
G01*
X52802812Y-30853624D01*
X52966784Y-30921544D01*
X53114354Y-31020147D01*
X53239853Y-31145646D01*
X53338456Y-31293216D01*
X53406376Y-31457188D01*
X53424638Y-31549000D01*
X53441000Y-31631258D01*
X53441000Y-31808742D01*
X53440720Y-31810148D01*
X53406376Y-31982812D01*
X53338456Y-32146784D01*
X53239853Y-32294354D01*
X53114354Y-32419853D01*
X52966784Y-32518456D01*
X52802812Y-32586376D01*
X52653512Y-32616073D01*
X52628742Y-32621000D01*
X52451258Y-32621000D01*
X52426488Y-32616073D01*
X52277188Y-32586376D01*
X52113216Y-32518456D01*
X51965646Y-32419853D01*
X51840147Y-32294354D01*
X51741544Y-32146784D01*
X51673624Y-31982812D01*
X51639280Y-31810148D01*
X51639000Y-31808742D01*
X51639000Y-31631258D01*
X51655362Y-31549000D01*
X51673624Y-31457188D01*
X51741544Y-31293216D01*
X51840147Y-31145646D01*
X51965646Y-31020147D01*
X52113216Y-30921544D01*
X52277188Y-30853624D01*
X52426488Y-30823927D01*
X52451258Y-30819000D01*
X52628742Y-30819000D01*
X52653512Y-30823927D01*
G37*
G36*
X33241000Y-32321000D02*
G01*
X32539000Y-32321000D01*
X32539000Y-31569000D01*
X33241000Y-31569000D01*
X33241000Y-32321000D01*
G37*
G36*
X36341000Y-32321000D02*
G01*
X35639000Y-32321000D01*
X35639000Y-31569000D01*
X36341000Y-31569000D01*
X36341000Y-32321000D01*
G37*
G36*
X39441000Y-32301000D02*
G01*
X38739000Y-32301000D01*
X38739000Y-31549000D01*
X39441000Y-31549000D01*
X39441000Y-32301000D01*
G37*
G36*
X42541000Y-32301000D02*
G01*
X41839000Y-32301000D01*
X41839000Y-31549000D01*
X42541000Y-31549000D01*
X42541000Y-32301000D01*
G37*
G36*
X48151000Y-30871000D02*
G01*
X46349000Y-30871000D01*
X46349000Y-29069000D01*
X48151000Y-29069000D01*
X48151000Y-30871000D01*
G37*
G36*
X30371000Y-30871000D02*
G01*
X28569000Y-30871000D01*
X28569000Y-29069000D01*
X30371000Y-29069000D01*
X30371000Y-30871000D01*
G37*
G36*
X55193512Y-28283927D02*
G01*
X55342812Y-28313624D01*
X55506784Y-28381544D01*
X55654354Y-28480147D01*
X55779853Y-28605646D01*
X55878456Y-28753216D01*
X55946376Y-28917188D01*
X55981000Y-29091259D01*
X55981000Y-29268741D01*
X55946376Y-29442812D01*
X55878456Y-29606784D01*
X55779853Y-29754354D01*
X55654354Y-29879853D01*
X55506784Y-29978456D01*
X55342812Y-30046376D01*
X55193512Y-30076073D01*
X55168742Y-30081000D01*
X54991258Y-30081000D01*
X54966488Y-30076073D01*
X54817188Y-30046376D01*
X54653216Y-29978456D01*
X54505646Y-29879853D01*
X54380147Y-29754354D01*
X54281544Y-29606784D01*
X54213624Y-29442812D01*
X54179000Y-29268741D01*
X54179000Y-29091259D01*
X54213624Y-28917188D01*
X54281544Y-28753216D01*
X54380147Y-28605646D01*
X54505646Y-28480147D01*
X54653216Y-28381544D01*
X54817188Y-28313624D01*
X54966488Y-28283927D01*
X54991258Y-28279000D01*
X55168742Y-28279000D01*
X55193512Y-28283927D01*
G37*
G36*
X52653512Y-28283927D02*
G01*
X52802812Y-28313624D01*
X52966784Y-28381544D01*
X53114354Y-28480147D01*
X53239853Y-28605646D01*
X53338456Y-28753216D01*
X53406376Y-28917188D01*
X53441000Y-29091259D01*
X53441000Y-29268741D01*
X53406376Y-29442812D01*
X53338456Y-29606784D01*
X53239853Y-29754354D01*
X53114354Y-29879853D01*
X52966784Y-29978456D01*
X52802812Y-30046376D01*
X52653512Y-30076073D01*
X52628742Y-30081000D01*
X52451258Y-30081000D01*
X52426488Y-30076073D01*
X52277188Y-30046376D01*
X52113216Y-29978456D01*
X51965646Y-29879853D01*
X51840147Y-29754354D01*
X51741544Y-29606784D01*
X51673624Y-29442812D01*
X51639000Y-29268741D01*
X51639000Y-29091259D01*
X51673624Y-28917188D01*
X51741544Y-28753216D01*
X51840147Y-28605646D01*
X51965646Y-28480147D01*
X52113216Y-28381544D01*
X52277188Y-28313624D01*
X52426488Y-28283927D01*
X52451258Y-28279000D01*
X52628742Y-28279000D01*
X52653512Y-28283927D01*
G37*
G36*
X36341000Y-29571000D02*
G01*
X35639000Y-29571000D01*
X35639000Y-28819000D01*
X36341000Y-28819000D01*
X36341000Y-29571000D01*
G37*
G36*
X33241000Y-29571000D02*
G01*
X32539000Y-29571000D01*
X32539000Y-28819000D01*
X33241000Y-28819000D01*
X33241000Y-29571000D01*
G37*
G36*
X39441000Y-29551000D02*
G01*
X38739000Y-29551000D01*
X38739000Y-28799000D01*
X39441000Y-28799000D01*
X39441000Y-29551000D01*
G37*
G36*
X42541000Y-29551000D02*
G01*
X41839000Y-29551000D01*
X41839000Y-28799000D01*
X42541000Y-28799000D01*
X42541000Y-29551000D01*
G37*
G36*
X52653512Y-25743927D02*
G01*
X52802812Y-25773624D01*
X52966784Y-25841544D01*
X53114354Y-25940147D01*
X53239853Y-26065646D01*
X53338456Y-26213216D01*
X53406376Y-26377188D01*
X53441000Y-26551259D01*
X53441000Y-26728741D01*
X53406376Y-26902812D01*
X53338456Y-27066784D01*
X53239853Y-27214354D01*
X53114354Y-27339853D01*
X52966784Y-27438456D01*
X52802812Y-27506376D01*
X52653512Y-27536073D01*
X52628742Y-27541000D01*
X52451258Y-27541000D01*
X52426488Y-27536073D01*
X52277188Y-27506376D01*
X52113216Y-27438456D01*
X51965646Y-27339853D01*
X51840147Y-27214354D01*
X51741544Y-27066784D01*
X51673624Y-26902812D01*
X51639000Y-26728741D01*
X51639000Y-26551259D01*
X51673624Y-26377188D01*
X51741544Y-26213216D01*
X51840147Y-26065646D01*
X51965646Y-25940147D01*
X52113216Y-25841544D01*
X52277188Y-25773624D01*
X52426488Y-25743927D01*
X52451258Y-25739000D01*
X52628742Y-25739000D01*
X52653512Y-25743927D01*
G37*
G36*
X55193512Y-25743927D02*
G01*
X55342812Y-25773624D01*
X55506784Y-25841544D01*
X55654354Y-25940147D01*
X55779853Y-26065646D01*
X55878456Y-26213216D01*
X55946376Y-26377188D01*
X55981000Y-26551259D01*
X55981000Y-26728741D01*
X55946376Y-26902812D01*
X55878456Y-27066784D01*
X55779853Y-27214354D01*
X55654354Y-27339853D01*
X55506784Y-27438456D01*
X55342812Y-27506376D01*
X55193512Y-27536073D01*
X55168742Y-27541000D01*
X54991258Y-27541000D01*
X54966488Y-27536073D01*
X54817188Y-27506376D01*
X54653216Y-27438456D01*
X54505646Y-27339853D01*
X54380147Y-27214354D01*
X54281544Y-27066784D01*
X54213624Y-26902812D01*
X54179000Y-26728741D01*
X54179000Y-26551259D01*
X54213624Y-26377188D01*
X54281544Y-26213216D01*
X54380147Y-26065646D01*
X54505646Y-25940147D01*
X54653216Y-25841544D01*
X54817188Y-25773624D01*
X54966488Y-25743927D01*
X54991258Y-25739000D01*
X55168742Y-25739000D01*
X55193512Y-25743927D01*
G37*
G36*
X60601865Y-22151056D02*
G01*
X60776091Y-22185711D01*
X61104325Y-22321670D01*
X61399728Y-22519052D01*
X61650948Y-22770272D01*
X61848330Y-23065675D01*
X61984289Y-23393909D01*
X62053600Y-23742361D01*
X62053600Y-24097639D01*
X61984289Y-24446091D01*
X61848330Y-24774325D01*
X61650948Y-25069728D01*
X61399728Y-25320948D01*
X61104325Y-25518330D01*
X60776091Y-25654289D01*
X60601865Y-25688944D01*
X60427640Y-25723600D01*
X60072360Y-25723600D01*
X59898135Y-25688944D01*
X59723909Y-25654289D01*
X59395675Y-25518330D01*
X59100272Y-25320948D01*
X58849052Y-25069728D01*
X58651670Y-24774325D01*
X58515711Y-24446091D01*
X58446400Y-24097639D01*
X58446400Y-23742361D01*
X58515711Y-23393909D01*
X58651670Y-23065675D01*
X58849052Y-22770272D01*
X59100272Y-22519052D01*
X59395675Y-22321670D01*
X59723909Y-22185711D01*
X59898135Y-22151055D01*
X60072360Y-22116400D01*
X60427640Y-22116400D01*
X60601865Y-22151056D01*
G37*
G36*
X52653512Y-23203927D02*
G01*
X52802812Y-23233624D01*
X52966784Y-23301544D01*
X53114354Y-23400147D01*
X53239853Y-23525646D01*
X53338456Y-23673216D01*
X53406376Y-23837188D01*
X53441000Y-24011259D01*
X53441000Y-24188741D01*
X53406376Y-24362812D01*
X53338456Y-24526784D01*
X53239853Y-24674354D01*
X53114354Y-24799853D01*
X52966784Y-24898456D01*
X52802812Y-24966376D01*
X52653512Y-24996073D01*
X52628742Y-25001000D01*
X52451258Y-25001000D01*
X52426488Y-24996073D01*
X52277188Y-24966376D01*
X52113216Y-24898456D01*
X51965646Y-24799853D01*
X51840147Y-24674354D01*
X51741544Y-24526784D01*
X51673624Y-24362812D01*
X51639000Y-24188741D01*
X51639000Y-24011259D01*
X51673624Y-23837188D01*
X51741544Y-23673216D01*
X51840147Y-23525646D01*
X51965646Y-23400147D01*
X52113216Y-23301544D01*
X52277188Y-23233624D01*
X52426488Y-23203927D01*
X52451258Y-23199000D01*
X52628742Y-23199000D01*
X52653512Y-23203927D01*
G37*
G36*
X55193512Y-23203927D02*
G01*
X55342812Y-23233624D01*
X55506784Y-23301544D01*
X55654354Y-23400147D01*
X55779853Y-23525646D01*
X55878456Y-23673216D01*
X55946376Y-23837188D01*
X55981000Y-24011259D01*
X55981000Y-24188741D01*
X55946376Y-24362812D01*
X55878456Y-24526784D01*
X55779853Y-24674354D01*
X55654354Y-24799853D01*
X55506784Y-24898456D01*
X55342812Y-24966376D01*
X55193512Y-24996073D01*
X55168742Y-25001000D01*
X54991258Y-25001000D01*
X54966488Y-24996073D01*
X54817188Y-24966376D01*
X54653216Y-24898456D01*
X54505646Y-24799853D01*
X54380147Y-24674354D01*
X54281544Y-24526784D01*
X54213624Y-24362812D01*
X54179000Y-24188741D01*
X54179000Y-24011259D01*
X54213624Y-23837188D01*
X54281544Y-23673216D01*
X54380147Y-23525646D01*
X54505646Y-23400147D01*
X54653216Y-23301544D01*
X54817188Y-23233624D01*
X54966488Y-23203927D01*
X54991258Y-23199000D01*
X55168742Y-23199000D01*
X55193512Y-23203927D01*
G37*
M02*
