%FSLAX45Y45*%
G04 Gerber Fmt 4.5, Leading zero omitted, Abs format (unit mm)*
G04 Created by KiCad (PCBNEW (5.1.5-0-10_14)) date 2020-02-28 10:22:09*
%MOMM*%
%LPD*%
G04 APERTURE LIST*
%TA.AperFunction,Profile*%
%ADD10C,0.050000*%
%TD*%
%ADD11C,0.200000*%
%ADD12C,0.300000*%
G04 APERTURE END LIST*
D10*
X6277500Y-2140000D02*
X2732500Y-2140000D01*
X6277500Y-7335000D02*
X6277500Y-2140000D01*
X2732500Y-7335000D02*
X6277500Y-7335000D01*
X2732500Y-2140000D02*
X2732500Y-7335000D01*
D11*
X3382499Y-5655000D02*
X3422499Y-5695000D01*
X3422499Y-5655000D02*
X3382499Y-5695000D01*
X3409000Y-3623000D02*
X3449000Y-3663000D01*
X3449000Y-3623000D02*
X3409000Y-3663000D01*
X3419500Y-5299706D02*
X3459500Y-5339706D01*
X3459500Y-5299706D02*
X3419500Y-5339706D01*
X3612000Y-6060000D02*
X3652000Y-6100000D01*
X3652000Y-6060000D02*
X3612000Y-6100000D01*
X3681000Y-5379000D02*
X3721000Y-5419000D01*
X3721000Y-5379000D02*
X3681000Y-5419000D01*
X3719000Y-5045000D02*
X3759000Y-5085000D01*
X3759000Y-5045000D02*
X3719000Y-5085000D01*
X3820000Y-5365000D02*
X3860000Y-5405000D01*
X3860000Y-5365000D02*
X3820000Y-5405000D01*
X3831535Y-5464334D02*
X3871535Y-5504334D01*
X3871535Y-5464334D02*
X3831535Y-5504334D01*
X4010000Y-5995000D02*
X4050000Y-6035000D01*
X4050000Y-5995000D02*
X4010000Y-6035000D01*
X4116000Y-4636000D02*
X4156000Y-4676000D01*
X4156000Y-4636000D02*
X4116000Y-4676000D01*
X4143000Y-4418000D02*
X4183000Y-4458000D01*
X4183000Y-4418000D02*
X4143000Y-4458000D01*
X4153000Y-3788000D02*
X4193000Y-3828000D01*
X4193000Y-3788000D02*
X4153000Y-3828000D01*
X4220000Y-6012500D02*
X4260000Y-6052500D01*
X4260000Y-6012500D02*
X4220000Y-6052500D01*
X4233555Y-4620977D02*
X4273555Y-4660977D01*
X4273555Y-4620977D02*
X4233555Y-4660977D01*
X4335000Y-4611000D02*
X4375000Y-4651000D01*
X4375000Y-4611000D02*
X4335000Y-4651000D01*
X4408000Y-4768000D02*
X4448000Y-4808000D01*
X4448000Y-4768000D02*
X4408000Y-4808000D01*
X4548000Y-4391000D02*
X4588000Y-4431000D01*
X4588000Y-4391000D02*
X4548000Y-4431000D01*
X4924000Y-6678000D02*
X4964000Y-6718000D01*
X4964000Y-6678000D02*
X4924000Y-6718000D01*
X5094000Y-6465000D02*
X5134000Y-6505000D01*
X5134000Y-6465000D02*
X5094000Y-6505000D01*
X5165000Y-5239000D02*
X5205000Y-5279000D01*
X5205000Y-5239000D02*
X5165000Y-5279000D01*
X5346000Y-5147000D02*
X5386000Y-5187000D01*
X5386000Y-5147000D02*
X5346000Y-5187000D01*
X5421000Y-5898000D02*
X5461000Y-5938000D01*
X5461000Y-5898000D02*
X5421000Y-5938000D01*
X5486000Y-6152000D02*
X5526000Y-6192000D01*
X5526000Y-6152000D02*
X5486000Y-6192000D01*
X5644996Y-5287455D02*
X5684996Y-5327455D01*
X5684996Y-5287455D02*
X5644996Y-5327455D01*
X5736000Y-5246000D02*
X5776000Y-5286000D01*
X5776000Y-5246000D02*
X5736000Y-5286000D01*
X5835090Y-5216128D02*
X5875090Y-5256128D01*
X5875090Y-5216128D02*
X5835090Y-5256128D01*
X5840000Y-5113000D02*
X5880000Y-5153000D01*
X5880000Y-5113000D02*
X5840000Y-5153000D01*
X5935090Y-5215811D02*
X5975090Y-5255811D01*
X5975090Y-5215811D02*
X5935090Y-5255811D01*
X5941000Y-4582000D02*
X5981000Y-4622000D01*
X5981000Y-4582000D02*
X5941000Y-4622000D01*
X3520000Y-7188750D02*
G75*
G03X3520000Y-7188750I-30000J0D01*
G01*
X3510000Y-7223750D02*
X3510000Y-7153750D01*
X3470000Y-7223750D02*
X3470000Y-7153750D01*
X3510000Y-7153750D02*
G75*
G03X3470000Y-7153750I-20000J0D01*
G01*
X3470000Y-7223750D02*
G75*
G03X3510000Y-7223750I20000J0D01*
G01*
X4220000Y-7188750D02*
G75*
G03X4220000Y-7188750I-30000J0D01*
G01*
X4170000Y-7153750D02*
X4170000Y-7223750D01*
X4210000Y-7153750D02*
X4210000Y-7223750D01*
X4170000Y-7223750D02*
G75*
G03X4210000Y-7223750I20000J0D01*
G01*
X4210000Y-7153750D02*
G75*
G03X4170000Y-7153750I-20000J0D01*
G01*
X3590000Y-6876250D02*
X3590000Y-6961250D01*
X3547500Y-6918750D02*
X3632500Y-6918750D01*
X4090000Y-6876250D02*
X4090000Y-6961250D01*
X4047500Y-6918750D02*
X4132500Y-6918750D01*
X5109820Y-7106820D02*
X5109820Y-7043180D01*
X5046180Y-7043180D01*
X5046180Y-7106820D01*
X5109820Y-7106820D01*
X5363820Y-7106820D02*
X5363820Y-7043180D01*
X5300180Y-7043180D01*
X5300180Y-7106820D01*
X5363820Y-7106820D01*
X4725000Y-3047000D02*
X4775000Y-2997000D01*
X4725000Y-2947000D01*
X4675000Y-2997000D01*
X4725000Y-3047000D01*
X4725000Y-3301000D02*
X4775000Y-3251000D01*
X4725000Y-3201000D01*
X4675000Y-3251000D01*
X4725000Y-3301000D01*
X4725000Y-3555000D02*
X4775000Y-3505000D01*
X4725000Y-3455000D01*
X4675000Y-3505000D01*
X4725000Y-3555000D01*
X4725000Y-3809000D02*
X4775000Y-3759000D01*
X4725000Y-3709000D01*
X4675000Y-3759000D01*
X4725000Y-3809000D01*
X4725000Y-4063000D02*
X4775000Y-4013000D01*
X4725000Y-3963000D01*
X4675000Y-4013000D01*
X4725000Y-4063000D01*
X4725000Y-4317000D02*
X4775000Y-4267000D01*
X4725000Y-4217000D01*
X4675000Y-4267000D01*
X4725000Y-4317000D01*
X4725000Y-4571000D02*
X4775000Y-4521000D01*
X4725000Y-4471000D01*
X4675000Y-4521000D01*
X4725000Y-4571000D01*
X4725000Y-4825000D02*
X4775000Y-4775000D01*
X4725000Y-4725000D01*
X4675000Y-4775000D01*
X4725000Y-4825000D01*
X4725000Y-5079000D02*
X4775000Y-5029000D01*
X4725000Y-4979000D01*
X4675000Y-5029000D01*
X4725000Y-5079000D01*
X4725000Y-5333000D02*
X4775000Y-5283000D01*
X4725000Y-5233000D01*
X4675000Y-5283000D01*
X4725000Y-5333000D01*
X4725000Y-5587000D02*
X4775000Y-5537000D01*
X4725000Y-5487000D01*
X4675000Y-5537000D01*
X4725000Y-5587000D01*
X4725000Y-5841000D02*
X4775000Y-5791000D01*
X4725000Y-5741000D01*
X4675000Y-5791000D01*
X4725000Y-5841000D01*
X4725000Y-6095000D02*
X4775000Y-6045000D01*
X4725000Y-5995000D01*
X4675000Y-6045000D01*
X4725000Y-6095000D01*
X4725000Y-6349000D02*
X4775000Y-6299000D01*
X4725000Y-6249000D01*
X4675000Y-6299000D01*
X4725000Y-6349000D01*
X4725000Y-6603000D02*
X4775000Y-6553000D01*
X4725000Y-6503000D01*
X4675000Y-6553000D01*
X4725000Y-6603000D01*
X4725000Y-6857000D02*
X4775000Y-6807000D01*
X4725000Y-6757000D01*
X4675000Y-6807000D01*
X4725000Y-6857000D01*
X4725000Y-7111000D02*
X4775000Y-7061000D01*
X4725000Y-7011000D01*
X4675000Y-7061000D01*
X4725000Y-7111000D01*
X5254000Y-2460000D02*
X5304000Y-2410000D01*
X5254000Y-2360000D01*
X5204000Y-2410000D01*
X5254000Y-2460000D01*
X5254000Y-2714000D02*
X5304000Y-2664000D01*
X5254000Y-2614000D01*
X5204000Y-2664000D01*
X5254000Y-2714000D01*
X5254000Y-2968000D02*
X5304000Y-2918000D01*
X5254000Y-2868000D01*
X5204000Y-2918000D01*
X5254000Y-2968000D01*
X5254000Y-3222000D02*
X5304000Y-3172000D01*
X5254000Y-3122000D01*
X5204000Y-3172000D01*
X5254000Y-3222000D01*
X5254000Y-3476000D02*
X5304000Y-3426000D01*
X5254000Y-3376000D01*
X5204000Y-3426000D01*
X5254000Y-3476000D01*
X5254000Y-3730000D02*
X5304000Y-3680000D01*
X5254000Y-3630000D01*
X5204000Y-3680000D01*
X5254000Y-3730000D01*
X5254000Y-3984000D02*
X5304000Y-3934000D01*
X5254000Y-3884000D01*
X5204000Y-3934000D01*
X5254000Y-3984000D01*
X5254000Y-4238000D02*
X5304000Y-4188000D01*
X5254000Y-4138000D01*
X5204000Y-4188000D01*
X5254000Y-4238000D01*
X5254000Y-4492000D02*
X5304000Y-4442000D01*
X5254000Y-4392000D01*
X5204000Y-4442000D01*
X5254000Y-4492000D01*
X5254000Y-4746000D02*
X5304000Y-4696000D01*
X5254000Y-4646000D01*
X5204000Y-4696000D01*
X5254000Y-4746000D01*
X5508000Y-2460000D02*
X5558000Y-2410000D01*
X5508000Y-2360000D01*
X5458000Y-2410000D01*
X5508000Y-2460000D01*
X5508000Y-2714000D02*
X5558000Y-2664000D01*
X5508000Y-2614000D01*
X5458000Y-2664000D01*
X5508000Y-2714000D01*
X5508000Y-2968000D02*
X5558000Y-2918000D01*
X5508000Y-2868000D01*
X5458000Y-2918000D01*
X5508000Y-2968000D01*
X5508000Y-3222000D02*
X5558000Y-3172000D01*
X5508000Y-3122000D01*
X5458000Y-3172000D01*
X5508000Y-3222000D01*
X5508000Y-3476000D02*
X5558000Y-3426000D01*
X5508000Y-3376000D01*
X5458000Y-3426000D01*
X5508000Y-3476000D01*
X5508000Y-3730000D02*
X5558000Y-3680000D01*
X5508000Y-3630000D01*
X5458000Y-3680000D01*
X5508000Y-3730000D01*
X5508000Y-3984000D02*
X5558000Y-3934000D01*
X5508000Y-3884000D01*
X5458000Y-3934000D01*
X5508000Y-3984000D01*
X5508000Y-4238000D02*
X5558000Y-4188000D01*
X5508000Y-4138000D01*
X5458000Y-4188000D01*
X5508000Y-4238000D01*
X5508000Y-4492000D02*
X5558000Y-4442000D01*
X5508000Y-4392000D01*
X5458000Y-4442000D01*
X5508000Y-4492000D01*
X5508000Y-4746000D02*
X5558000Y-4696000D01*
X5508000Y-4646000D01*
X5458000Y-4696000D01*
X5508000Y-4746000D01*
X2947000Y-3047000D02*
X2997000Y-2997000D01*
X2947000Y-2947000D01*
X2897000Y-2997000D01*
X2947000Y-3047000D01*
X2947000Y-3301000D02*
X2997000Y-3251000D01*
X2947000Y-3201000D01*
X2897000Y-3251000D01*
X2947000Y-3301000D01*
X2947000Y-3555000D02*
X2997000Y-3505000D01*
X2947000Y-3455000D01*
X2897000Y-3505000D01*
X2947000Y-3555000D01*
X2947000Y-3809000D02*
X2997000Y-3759000D01*
X2947000Y-3709000D01*
X2897000Y-3759000D01*
X2947000Y-3809000D01*
X2947000Y-4063000D02*
X2997000Y-4013000D01*
X2947000Y-3963000D01*
X2897000Y-4013000D01*
X2947000Y-4063000D01*
X2947000Y-4317000D02*
X2997000Y-4267000D01*
X2947000Y-4217000D01*
X2897000Y-4267000D01*
X2947000Y-4317000D01*
X2947000Y-4571000D02*
X2997000Y-4521000D01*
X2947000Y-4471000D01*
X2897000Y-4521000D01*
X2947000Y-4571000D01*
X2947000Y-4825000D02*
X2997000Y-4775000D01*
X2947000Y-4725000D01*
X2897000Y-4775000D01*
X2947000Y-4825000D01*
X2947000Y-5079000D02*
X2997000Y-5029000D01*
X2947000Y-4979000D01*
X2897000Y-5029000D01*
X2947000Y-5079000D01*
X2947000Y-5333000D02*
X2997000Y-5283000D01*
X2947000Y-5233000D01*
X2897000Y-5283000D01*
X2947000Y-5333000D01*
X2947000Y-5587000D02*
X2997000Y-5537000D01*
X2947000Y-5487000D01*
X2897000Y-5537000D01*
X2947000Y-5587000D01*
X2947000Y-5841000D02*
X2997000Y-5791000D01*
X2947000Y-5741000D01*
X2897000Y-5791000D01*
X2947000Y-5841000D01*
X2947000Y-6095000D02*
X2997000Y-6045000D01*
X2947000Y-5995000D01*
X2897000Y-6045000D01*
X2947000Y-6095000D01*
X2947000Y-6349000D02*
X2997000Y-6299000D01*
X2947000Y-6249000D01*
X2897000Y-6299000D01*
X2947000Y-6349000D01*
X2947000Y-6603000D02*
X2997000Y-6553000D01*
X2947000Y-6503000D01*
X2897000Y-6553000D01*
X2947000Y-6603000D01*
X2947000Y-6857000D02*
X2997000Y-6807000D01*
X2947000Y-6757000D01*
X2897000Y-6807000D01*
X2947000Y-6857000D01*
X2947000Y-7111000D02*
X2997000Y-7061000D01*
X2947000Y-7011000D01*
X2897000Y-7061000D01*
X2947000Y-7111000D01*
X5858250Y-6903250D02*
X6175750Y-7220750D01*
X6175750Y-6903250D02*
X5858250Y-7220750D01*
X6175750Y-7062000D02*
G75*
G03X6175750Y-7062000I-158750J0D01*
G01*
X5866250Y-2233250D02*
X6183750Y-2550750D01*
X6183750Y-2233250D02*
X5866250Y-2550750D01*
X6183750Y-2392000D02*
G75*
G03X6183750Y-2392000I-158750J0D01*
G01*
D12*
X3016428Y-7803214D02*
X3016428Y-7503214D01*
X3087857Y-7503214D01*
X3130714Y-7517500D01*
X3159286Y-7546071D01*
X3173571Y-7574643D01*
X3187857Y-7631786D01*
X3187857Y-7674643D01*
X3173571Y-7731786D01*
X3159286Y-7760357D01*
X3130714Y-7788929D01*
X3087857Y-7803214D01*
X3016428Y-7803214D01*
X3316428Y-7803214D02*
X3316428Y-7603214D01*
X3316428Y-7660357D02*
X3330714Y-7631786D01*
X3345000Y-7617500D01*
X3373571Y-7603214D01*
X3402143Y-7603214D01*
X3502143Y-7803214D02*
X3502143Y-7603214D01*
X3502143Y-7503214D02*
X3487857Y-7517500D01*
X3502143Y-7531786D01*
X3516428Y-7517500D01*
X3502143Y-7503214D01*
X3502143Y-7531786D01*
X3687857Y-7803214D02*
X3659286Y-7788929D01*
X3645000Y-7760357D01*
X3645000Y-7503214D01*
X3845000Y-7803214D02*
X3816428Y-7788929D01*
X3802143Y-7760357D01*
X3802143Y-7503214D01*
X4187857Y-7803214D02*
X4187857Y-7503214D01*
X4287857Y-7717500D01*
X4387857Y-7503214D01*
X4387857Y-7803214D01*
X4659286Y-7803214D02*
X4659286Y-7646071D01*
X4645000Y-7617500D01*
X4616428Y-7603214D01*
X4559286Y-7603214D01*
X4530714Y-7617500D01*
X4659286Y-7788929D02*
X4630714Y-7803214D01*
X4559286Y-7803214D01*
X4530714Y-7788929D01*
X4516428Y-7760357D01*
X4516428Y-7731786D01*
X4530714Y-7703214D01*
X4559286Y-7688929D01*
X4630714Y-7688929D01*
X4659286Y-7674643D01*
X4802143Y-7603214D02*
X4802143Y-7903214D01*
X4802143Y-7617500D02*
X4830714Y-7603214D01*
X4887857Y-7603214D01*
X4916428Y-7617500D01*
X4930714Y-7631786D01*
X4945000Y-7660357D01*
X4945000Y-7746071D01*
X4930714Y-7774643D01*
X4916428Y-7788929D01*
X4887857Y-7803214D01*
X4830714Y-7803214D01*
X4802143Y-7788929D01*
X5073571Y-7774643D02*
X5087857Y-7788929D01*
X5073571Y-7803214D01*
X5059286Y-7788929D01*
X5073571Y-7774643D01*
X5073571Y-7803214D01*
X5073571Y-7617500D02*
X5087857Y-7631786D01*
X5073571Y-7646071D01*
X5059286Y-7631786D01*
X5073571Y-7617500D01*
X5073571Y-7646071D01*
X2690000Y-8277500D02*
X2730000Y-8317500D01*
X2730000Y-8277500D02*
X2690000Y-8317500D01*
X3073571Y-8133214D02*
X3102143Y-8133214D01*
X3130714Y-8147500D01*
X3145000Y-8161786D01*
X3159286Y-8190357D01*
X3173571Y-8247500D01*
X3173571Y-8318929D01*
X3159286Y-8376071D01*
X3145000Y-8404643D01*
X3130714Y-8418929D01*
X3102143Y-8433214D01*
X3073571Y-8433214D01*
X3045000Y-8418929D01*
X3030714Y-8404643D01*
X3016428Y-8376071D01*
X3002143Y-8318929D01*
X3002143Y-8247500D01*
X3016428Y-8190357D01*
X3030714Y-8161786D01*
X3045000Y-8147500D01*
X3073571Y-8133214D01*
X3302143Y-8404643D02*
X3316428Y-8418929D01*
X3302143Y-8433214D01*
X3287857Y-8418929D01*
X3302143Y-8404643D01*
X3302143Y-8433214D01*
X3573571Y-8233214D02*
X3573571Y-8433214D01*
X3502143Y-8118929D02*
X3430714Y-8333214D01*
X3616428Y-8333214D01*
X3787857Y-8133214D02*
X3816428Y-8133214D01*
X3845000Y-8147500D01*
X3859286Y-8161786D01*
X3873571Y-8190357D01*
X3887857Y-8247500D01*
X3887857Y-8318929D01*
X3873571Y-8376071D01*
X3859286Y-8404643D01*
X3845000Y-8418929D01*
X3816428Y-8433214D01*
X3787857Y-8433214D01*
X3759286Y-8418929D01*
X3745000Y-8404643D01*
X3730714Y-8376071D01*
X3716428Y-8318929D01*
X3716428Y-8247500D01*
X3730714Y-8190357D01*
X3745000Y-8161786D01*
X3759286Y-8147500D01*
X3787857Y-8133214D01*
X4016428Y-8433214D02*
X4016428Y-8233214D01*
X4016428Y-8261786D02*
X4030714Y-8247500D01*
X4059286Y-8233214D01*
X4102143Y-8233214D01*
X4130714Y-8247500D01*
X4145000Y-8276071D01*
X4145000Y-8433214D01*
X4145000Y-8276071D02*
X4159286Y-8247500D01*
X4187857Y-8233214D01*
X4230714Y-8233214D01*
X4259286Y-8247500D01*
X4273571Y-8276071D01*
X4273571Y-8433214D01*
X4416428Y-8433214D02*
X4416428Y-8233214D01*
X4416428Y-8261786D02*
X4430714Y-8247500D01*
X4459286Y-8233214D01*
X4502143Y-8233214D01*
X4530714Y-8247500D01*
X4545000Y-8276071D01*
X4545000Y-8433214D01*
X4545000Y-8276071D02*
X4559286Y-8247500D01*
X4587857Y-8233214D01*
X4630714Y-8233214D01*
X4659286Y-8247500D01*
X4673571Y-8276071D01*
X4673571Y-8433214D01*
X5259286Y-8118929D02*
X5002143Y-8504643D01*
X5645000Y-8133214D02*
X5673571Y-8133214D01*
X5702143Y-8147500D01*
X5716428Y-8161786D01*
X5730714Y-8190357D01*
X5745000Y-8247500D01*
X5745000Y-8318929D01*
X5730714Y-8376071D01*
X5716428Y-8404643D01*
X5702143Y-8418929D01*
X5673571Y-8433214D01*
X5645000Y-8433214D01*
X5616428Y-8418929D01*
X5602143Y-8404643D01*
X5587857Y-8376071D01*
X5573571Y-8318929D01*
X5573571Y-8247500D01*
X5587857Y-8190357D01*
X5602143Y-8161786D01*
X5616428Y-8147500D01*
X5645000Y-8133214D01*
X5873571Y-8404643D02*
X5887857Y-8418929D01*
X5873571Y-8433214D01*
X5859286Y-8418929D01*
X5873571Y-8404643D01*
X5873571Y-8433214D01*
X6073571Y-8133214D02*
X6102143Y-8133214D01*
X6130714Y-8147500D01*
X6145000Y-8161786D01*
X6159286Y-8190357D01*
X6173571Y-8247500D01*
X6173571Y-8318929D01*
X6159286Y-8376071D01*
X6145000Y-8404643D01*
X6130714Y-8418929D01*
X6102143Y-8433214D01*
X6073571Y-8433214D01*
X6045000Y-8418929D01*
X6030714Y-8404643D01*
X6016428Y-8376071D01*
X6002143Y-8318929D01*
X6002143Y-8247500D01*
X6016428Y-8190357D01*
X6030714Y-8161786D01*
X6045000Y-8147500D01*
X6073571Y-8133214D01*
X6459286Y-8433214D02*
X6287857Y-8433214D01*
X6373571Y-8433214D02*
X6373571Y-8133214D01*
X6345000Y-8176071D01*
X6316428Y-8204643D01*
X6287857Y-8218929D01*
X6716428Y-8133214D02*
X6659286Y-8133214D01*
X6630714Y-8147500D01*
X6616428Y-8161786D01*
X6587857Y-8204643D01*
X6573571Y-8261786D01*
X6573571Y-8376071D01*
X6587857Y-8404643D01*
X6602143Y-8418929D01*
X6630714Y-8433214D01*
X6687857Y-8433214D01*
X6716428Y-8418929D01*
X6730714Y-8404643D01*
X6745000Y-8376071D01*
X6745000Y-8304643D01*
X6730714Y-8276071D01*
X6716428Y-8261786D01*
X6687857Y-8247500D01*
X6630714Y-8247500D01*
X6602143Y-8261786D01*
X6587857Y-8276071D01*
X6573571Y-8304643D01*
X6859286Y-8133214D02*
X6859286Y-8190357D01*
X6973571Y-8133214D02*
X6973571Y-8190357D01*
X7416428Y-8547500D02*
X7402143Y-8533214D01*
X7373571Y-8490357D01*
X7359286Y-8461786D01*
X7345000Y-8418929D01*
X7330714Y-8347500D01*
X7330714Y-8290357D01*
X7345000Y-8218929D01*
X7359286Y-8176071D01*
X7373571Y-8147500D01*
X7402143Y-8104643D01*
X7416428Y-8090357D01*
X7516428Y-8161786D02*
X7530714Y-8147500D01*
X7559286Y-8133214D01*
X7630714Y-8133214D01*
X7659286Y-8147500D01*
X7673571Y-8161786D01*
X7687857Y-8190357D01*
X7687857Y-8218929D01*
X7673571Y-8261786D01*
X7502143Y-8433214D01*
X7687857Y-8433214D01*
X7830714Y-8433214D02*
X7887857Y-8433214D01*
X7916428Y-8418929D01*
X7930714Y-8404643D01*
X7959286Y-8361786D01*
X7973571Y-8304643D01*
X7973571Y-8190357D01*
X7959286Y-8161786D01*
X7945000Y-8147500D01*
X7916428Y-8133214D01*
X7859286Y-8133214D01*
X7830714Y-8147500D01*
X7816428Y-8161786D01*
X7802143Y-8190357D01*
X7802143Y-8261786D01*
X7816428Y-8290357D01*
X7830714Y-8304643D01*
X7859286Y-8318929D01*
X7916428Y-8318929D01*
X7945000Y-8304643D01*
X7959286Y-8290357D01*
X7973571Y-8261786D01*
X8330714Y-8433214D02*
X8330714Y-8133214D01*
X8459286Y-8433214D02*
X8459286Y-8276071D01*
X8445000Y-8247500D01*
X8416428Y-8233214D01*
X8373571Y-8233214D01*
X8345000Y-8247500D01*
X8330714Y-8261786D01*
X8645000Y-8433214D02*
X8616428Y-8418929D01*
X8602143Y-8404643D01*
X8587857Y-8376071D01*
X8587857Y-8290357D01*
X8602143Y-8261786D01*
X8616428Y-8247500D01*
X8645000Y-8233214D01*
X8687857Y-8233214D01*
X8716428Y-8247500D01*
X8730714Y-8261786D01*
X8745000Y-8290357D01*
X8745000Y-8376071D01*
X8730714Y-8404643D01*
X8716428Y-8418929D01*
X8687857Y-8433214D01*
X8645000Y-8433214D01*
X8916428Y-8433214D02*
X8887857Y-8418929D01*
X8873571Y-8390357D01*
X8873571Y-8133214D01*
X9145000Y-8418929D02*
X9116428Y-8433214D01*
X9059286Y-8433214D01*
X9030714Y-8418929D01*
X9016428Y-8390357D01*
X9016428Y-8276071D01*
X9030714Y-8247500D01*
X9059286Y-8233214D01*
X9116428Y-8233214D01*
X9145000Y-8247500D01*
X9159286Y-8276071D01*
X9159286Y-8304643D01*
X9016428Y-8333214D01*
X9273571Y-8418929D02*
X9302143Y-8433214D01*
X9359286Y-8433214D01*
X9387857Y-8418929D01*
X9402143Y-8390357D01*
X9402143Y-8376071D01*
X9387857Y-8347500D01*
X9359286Y-8333214D01*
X9316428Y-8333214D01*
X9287857Y-8318929D01*
X9273571Y-8290357D01*
X9273571Y-8276071D01*
X9287857Y-8247500D01*
X9316428Y-8233214D01*
X9359286Y-8233214D01*
X9387857Y-8247500D01*
X9502143Y-8547500D02*
X9516428Y-8533214D01*
X9545000Y-8490357D01*
X9559286Y-8461786D01*
X9573571Y-8418929D01*
X9587857Y-8347500D01*
X9587857Y-8290357D01*
X9573571Y-8218929D01*
X9559286Y-8176071D01*
X9545000Y-8147500D01*
X9516428Y-8104643D01*
X9502143Y-8090357D01*
X2730000Y-8693500D02*
G75*
G03X2730000Y-8693500I-30000J0D01*
G01*
X3073571Y-8529214D02*
X3102143Y-8529214D01*
X3130714Y-8543500D01*
X3145000Y-8557786D01*
X3159286Y-8586357D01*
X3173571Y-8643500D01*
X3173571Y-8714929D01*
X3159286Y-8772072D01*
X3145000Y-8800643D01*
X3130714Y-8814929D01*
X3102143Y-8829214D01*
X3073571Y-8829214D01*
X3045000Y-8814929D01*
X3030714Y-8800643D01*
X3016428Y-8772072D01*
X3002143Y-8714929D01*
X3002143Y-8643500D01*
X3016428Y-8586357D01*
X3030714Y-8557786D01*
X3045000Y-8543500D01*
X3073571Y-8529214D01*
X3302143Y-8800643D02*
X3316428Y-8814929D01*
X3302143Y-8829214D01*
X3287857Y-8814929D01*
X3302143Y-8800643D01*
X3302143Y-8829214D01*
X3573571Y-8529214D02*
X3516428Y-8529214D01*
X3487857Y-8543500D01*
X3473571Y-8557786D01*
X3445000Y-8600643D01*
X3430714Y-8657786D01*
X3430714Y-8772072D01*
X3445000Y-8800643D01*
X3459286Y-8814929D01*
X3487857Y-8829214D01*
X3545000Y-8829214D01*
X3573571Y-8814929D01*
X3587857Y-8800643D01*
X3602143Y-8772072D01*
X3602143Y-8700643D01*
X3587857Y-8672072D01*
X3573571Y-8657786D01*
X3545000Y-8643500D01*
X3487857Y-8643500D01*
X3459286Y-8657786D01*
X3445000Y-8672072D01*
X3430714Y-8700643D01*
X3787857Y-8529214D02*
X3816428Y-8529214D01*
X3845000Y-8543500D01*
X3859286Y-8557786D01*
X3873571Y-8586357D01*
X3887857Y-8643500D01*
X3887857Y-8714929D01*
X3873571Y-8772072D01*
X3859286Y-8800643D01*
X3845000Y-8814929D01*
X3816428Y-8829214D01*
X3787857Y-8829214D01*
X3759286Y-8814929D01*
X3745000Y-8800643D01*
X3730714Y-8772072D01*
X3716428Y-8714929D01*
X3716428Y-8643500D01*
X3730714Y-8586357D01*
X3745000Y-8557786D01*
X3759286Y-8543500D01*
X3787857Y-8529214D01*
X4016428Y-8829214D02*
X4016428Y-8629214D01*
X4016428Y-8657786D02*
X4030714Y-8643500D01*
X4059286Y-8629214D01*
X4102143Y-8629214D01*
X4130714Y-8643500D01*
X4145000Y-8672072D01*
X4145000Y-8829214D01*
X4145000Y-8672072D02*
X4159286Y-8643500D01*
X4187857Y-8629214D01*
X4230714Y-8629214D01*
X4259286Y-8643500D01*
X4273571Y-8672072D01*
X4273571Y-8829214D01*
X4416428Y-8829214D02*
X4416428Y-8629214D01*
X4416428Y-8657786D02*
X4430714Y-8643500D01*
X4459286Y-8629214D01*
X4502143Y-8629214D01*
X4530714Y-8643500D01*
X4545000Y-8672072D01*
X4545000Y-8829214D01*
X4545000Y-8672072D02*
X4559286Y-8643500D01*
X4587857Y-8629214D01*
X4630714Y-8629214D01*
X4659286Y-8643500D01*
X4673571Y-8672072D01*
X4673571Y-8829214D01*
X5259286Y-8514929D02*
X5002143Y-8900643D01*
X5645000Y-8529214D02*
X5673571Y-8529214D01*
X5702143Y-8543500D01*
X5716428Y-8557786D01*
X5730714Y-8586357D01*
X5745000Y-8643500D01*
X5745000Y-8714929D01*
X5730714Y-8772072D01*
X5716428Y-8800643D01*
X5702143Y-8814929D01*
X5673571Y-8829214D01*
X5645000Y-8829214D01*
X5616428Y-8814929D01*
X5602143Y-8800643D01*
X5587857Y-8772072D01*
X5573571Y-8714929D01*
X5573571Y-8643500D01*
X5587857Y-8586357D01*
X5602143Y-8557786D01*
X5616428Y-8543500D01*
X5645000Y-8529214D01*
X5873571Y-8800643D02*
X5887857Y-8814929D01*
X5873571Y-8829214D01*
X5859286Y-8814929D01*
X5873571Y-8800643D01*
X5873571Y-8829214D01*
X6073571Y-8529214D02*
X6102143Y-8529214D01*
X6130714Y-8543500D01*
X6145000Y-8557786D01*
X6159286Y-8586357D01*
X6173571Y-8643500D01*
X6173571Y-8714929D01*
X6159286Y-8772072D01*
X6145000Y-8800643D01*
X6130714Y-8814929D01*
X6102143Y-8829214D01*
X6073571Y-8829214D01*
X6045000Y-8814929D01*
X6030714Y-8800643D01*
X6016428Y-8772072D01*
X6002143Y-8714929D01*
X6002143Y-8643500D01*
X6016428Y-8586357D01*
X6030714Y-8557786D01*
X6045000Y-8543500D01*
X6073571Y-8529214D01*
X6287857Y-8557786D02*
X6302143Y-8543500D01*
X6330714Y-8529214D01*
X6402143Y-8529214D01*
X6430714Y-8543500D01*
X6445000Y-8557786D01*
X6459286Y-8586357D01*
X6459286Y-8614929D01*
X6445000Y-8657786D01*
X6273571Y-8829214D01*
X6459286Y-8829214D01*
X6716428Y-8629214D02*
X6716428Y-8829214D01*
X6645000Y-8514929D02*
X6573571Y-8729214D01*
X6759286Y-8729214D01*
X6859286Y-8529214D02*
X6859286Y-8586357D01*
X6973571Y-8529214D02*
X6973571Y-8586357D01*
X7416428Y-8943500D02*
X7402143Y-8929214D01*
X7373571Y-8886357D01*
X7359286Y-8857786D01*
X7345000Y-8814929D01*
X7330714Y-8743500D01*
X7330714Y-8686357D01*
X7345000Y-8614929D01*
X7359286Y-8572072D01*
X7373571Y-8543500D01*
X7402143Y-8500643D01*
X7416428Y-8486357D01*
X7587857Y-8529214D02*
X7616428Y-8529214D01*
X7645000Y-8543500D01*
X7659286Y-8557786D01*
X7673571Y-8586357D01*
X7687857Y-8643500D01*
X7687857Y-8714929D01*
X7673571Y-8772072D01*
X7659286Y-8800643D01*
X7645000Y-8814929D01*
X7616428Y-8829214D01*
X7587857Y-8829214D01*
X7559286Y-8814929D01*
X7545000Y-8800643D01*
X7530714Y-8772072D01*
X7516428Y-8714929D01*
X7516428Y-8643500D01*
X7530714Y-8586357D01*
X7545000Y-8557786D01*
X7559286Y-8543500D01*
X7587857Y-8529214D01*
X8045000Y-8829214D02*
X8045000Y-8529214D01*
X8173571Y-8829214D02*
X8173571Y-8672072D01*
X8159286Y-8643500D01*
X8130714Y-8629214D01*
X8087857Y-8629214D01*
X8059286Y-8643500D01*
X8045000Y-8657786D01*
X8359286Y-8829214D02*
X8330714Y-8814929D01*
X8316428Y-8800643D01*
X8302143Y-8772072D01*
X8302143Y-8686357D01*
X8316428Y-8657786D01*
X8330714Y-8643500D01*
X8359286Y-8629214D01*
X8402143Y-8629214D01*
X8430714Y-8643500D01*
X8445000Y-8657786D01*
X8459286Y-8686357D01*
X8459286Y-8772072D01*
X8445000Y-8800643D01*
X8430714Y-8814929D01*
X8402143Y-8829214D01*
X8359286Y-8829214D01*
X8630714Y-8829214D02*
X8602143Y-8814929D01*
X8587857Y-8786357D01*
X8587857Y-8529214D01*
X8859286Y-8814929D02*
X8830714Y-8829214D01*
X8773571Y-8829214D01*
X8745000Y-8814929D01*
X8730714Y-8786357D01*
X8730714Y-8672072D01*
X8745000Y-8643500D01*
X8773571Y-8629214D01*
X8830714Y-8629214D01*
X8859286Y-8643500D01*
X8873571Y-8672072D01*
X8873571Y-8700643D01*
X8730714Y-8729214D01*
X8987857Y-8814929D02*
X9016428Y-8829214D01*
X9073571Y-8829214D01*
X9102143Y-8814929D01*
X9116428Y-8786357D01*
X9116428Y-8772072D01*
X9102143Y-8743500D01*
X9073571Y-8729214D01*
X9030714Y-8729214D01*
X9002143Y-8714929D01*
X8987857Y-8686357D01*
X8987857Y-8672072D01*
X9002143Y-8643500D01*
X9030714Y-8629214D01*
X9073571Y-8629214D01*
X9102143Y-8643500D01*
X9473571Y-8714929D02*
X9702143Y-8714929D01*
X9587857Y-8829214D02*
X9587857Y-8600643D01*
X10059286Y-8557786D02*
X10073571Y-8543500D01*
X10102143Y-8529214D01*
X10173571Y-8529214D01*
X10202143Y-8543500D01*
X10216428Y-8557786D01*
X10230714Y-8586357D01*
X10230714Y-8614929D01*
X10216428Y-8657786D01*
X10045000Y-8829214D01*
X10230714Y-8829214D01*
X10573571Y-8814929D02*
X10602143Y-8829214D01*
X10659286Y-8829214D01*
X10687857Y-8814929D01*
X10702143Y-8786357D01*
X10702143Y-8772072D01*
X10687857Y-8743500D01*
X10659286Y-8729214D01*
X10616428Y-8729214D01*
X10587857Y-8714929D01*
X10573571Y-8686357D01*
X10573571Y-8672072D01*
X10587857Y-8643500D01*
X10616428Y-8629214D01*
X10659286Y-8629214D01*
X10687857Y-8643500D01*
X10873571Y-8829214D02*
X10845000Y-8814929D01*
X10830714Y-8786357D01*
X10830714Y-8529214D01*
X11030714Y-8829214D02*
X11002143Y-8814929D01*
X10987857Y-8800643D01*
X10973571Y-8772072D01*
X10973571Y-8686357D01*
X10987857Y-8657786D01*
X11002143Y-8643500D01*
X11030714Y-8629214D01*
X11073571Y-8629214D01*
X11102143Y-8643500D01*
X11116428Y-8657786D01*
X11130714Y-8686357D01*
X11130714Y-8772072D01*
X11116428Y-8800643D01*
X11102143Y-8814929D01*
X11073571Y-8829214D01*
X11030714Y-8829214D01*
X11216428Y-8629214D02*
X11330714Y-8629214D01*
X11259286Y-8529214D02*
X11259286Y-8786357D01*
X11273571Y-8814929D01*
X11302143Y-8829214D01*
X11330714Y-8829214D01*
X11416428Y-8814929D02*
X11445000Y-8829214D01*
X11502143Y-8829214D01*
X11530714Y-8814929D01*
X11545000Y-8786357D01*
X11545000Y-8772072D01*
X11530714Y-8743500D01*
X11502143Y-8729214D01*
X11459286Y-8729214D01*
X11430714Y-8714929D01*
X11416428Y-8686357D01*
X11416428Y-8672072D01*
X11430714Y-8643500D01*
X11459286Y-8629214D01*
X11502143Y-8629214D01*
X11530714Y-8643500D01*
X11645000Y-8943500D02*
X11659286Y-8929214D01*
X11687857Y-8886357D01*
X11702143Y-8857786D01*
X11716428Y-8814929D01*
X11730714Y-8743500D01*
X11730714Y-8686357D01*
X11716428Y-8614929D01*
X11702143Y-8572072D01*
X11687857Y-8543500D01*
X11659286Y-8500643D01*
X11645000Y-8486357D01*
X2687500Y-9047000D02*
X2687500Y-9132000D01*
X2645000Y-9089500D02*
X2730000Y-9089500D01*
X3073571Y-8925214D02*
X3102143Y-8925214D01*
X3130714Y-8939500D01*
X3145000Y-8953786D01*
X3159286Y-8982357D01*
X3173571Y-9039500D01*
X3173571Y-9110929D01*
X3159286Y-9168072D01*
X3145000Y-9196643D01*
X3130714Y-9210929D01*
X3102143Y-9225214D01*
X3073571Y-9225214D01*
X3045000Y-9210929D01*
X3030714Y-9196643D01*
X3016428Y-9168072D01*
X3002143Y-9110929D01*
X3002143Y-9039500D01*
X3016428Y-8982357D01*
X3030714Y-8953786D01*
X3045000Y-8939500D01*
X3073571Y-8925214D01*
X3302143Y-9196643D02*
X3316428Y-9210929D01*
X3302143Y-9225214D01*
X3287857Y-9210929D01*
X3302143Y-9196643D01*
X3302143Y-9225214D01*
X3487857Y-9053786D02*
X3459286Y-9039500D01*
X3445000Y-9025214D01*
X3430714Y-8996643D01*
X3430714Y-8982357D01*
X3445000Y-8953786D01*
X3459286Y-8939500D01*
X3487857Y-8925214D01*
X3545000Y-8925214D01*
X3573571Y-8939500D01*
X3587857Y-8953786D01*
X3602143Y-8982357D01*
X3602143Y-8996643D01*
X3587857Y-9025214D01*
X3573571Y-9039500D01*
X3545000Y-9053786D01*
X3487857Y-9053786D01*
X3459286Y-9068072D01*
X3445000Y-9082357D01*
X3430714Y-9110929D01*
X3430714Y-9168072D01*
X3445000Y-9196643D01*
X3459286Y-9210929D01*
X3487857Y-9225214D01*
X3545000Y-9225214D01*
X3573571Y-9210929D01*
X3587857Y-9196643D01*
X3602143Y-9168072D01*
X3602143Y-9110929D01*
X3587857Y-9082357D01*
X3573571Y-9068072D01*
X3545000Y-9053786D01*
X3873571Y-8925214D02*
X3730714Y-8925214D01*
X3716428Y-9068072D01*
X3730714Y-9053786D01*
X3759286Y-9039500D01*
X3830714Y-9039500D01*
X3859286Y-9053786D01*
X3873571Y-9068072D01*
X3887857Y-9096643D01*
X3887857Y-9168072D01*
X3873571Y-9196643D01*
X3859286Y-9210929D01*
X3830714Y-9225214D01*
X3759286Y-9225214D01*
X3730714Y-9210929D01*
X3716428Y-9196643D01*
X4016428Y-9225214D02*
X4016428Y-9025214D01*
X4016428Y-9053786D02*
X4030714Y-9039500D01*
X4059286Y-9025214D01*
X4102143Y-9025214D01*
X4130714Y-9039500D01*
X4145000Y-9068072D01*
X4145000Y-9225214D01*
X4145000Y-9068072D02*
X4159286Y-9039500D01*
X4187857Y-9025214D01*
X4230714Y-9025214D01*
X4259286Y-9039500D01*
X4273571Y-9068072D01*
X4273571Y-9225214D01*
X4416428Y-9225214D02*
X4416428Y-9025214D01*
X4416428Y-9053786D02*
X4430714Y-9039500D01*
X4459286Y-9025214D01*
X4502143Y-9025214D01*
X4530714Y-9039500D01*
X4545000Y-9068072D01*
X4545000Y-9225214D01*
X4545000Y-9068072D02*
X4559286Y-9039500D01*
X4587857Y-9025214D01*
X4630714Y-9025214D01*
X4659286Y-9039500D01*
X4673571Y-9068072D01*
X4673571Y-9225214D01*
X5259286Y-8910929D02*
X5002143Y-9296643D01*
X5645000Y-8925214D02*
X5673571Y-8925214D01*
X5702143Y-8939500D01*
X5716428Y-8953786D01*
X5730714Y-8982357D01*
X5745000Y-9039500D01*
X5745000Y-9110929D01*
X5730714Y-9168072D01*
X5716428Y-9196643D01*
X5702143Y-9210929D01*
X5673571Y-9225214D01*
X5645000Y-9225214D01*
X5616428Y-9210929D01*
X5602143Y-9196643D01*
X5587857Y-9168072D01*
X5573571Y-9110929D01*
X5573571Y-9039500D01*
X5587857Y-8982357D01*
X5602143Y-8953786D01*
X5616428Y-8939500D01*
X5645000Y-8925214D01*
X5873571Y-9196643D02*
X5887857Y-9210929D01*
X5873571Y-9225214D01*
X5859286Y-9210929D01*
X5873571Y-9196643D01*
X5873571Y-9225214D01*
X6073571Y-8925214D02*
X6102143Y-8925214D01*
X6130714Y-8939500D01*
X6145000Y-8953786D01*
X6159286Y-8982357D01*
X6173571Y-9039500D01*
X6173571Y-9110929D01*
X6159286Y-9168072D01*
X6145000Y-9196643D01*
X6130714Y-9210929D01*
X6102143Y-9225214D01*
X6073571Y-9225214D01*
X6045000Y-9210929D01*
X6030714Y-9196643D01*
X6016428Y-9168072D01*
X6002143Y-9110929D01*
X6002143Y-9039500D01*
X6016428Y-8982357D01*
X6030714Y-8953786D01*
X6045000Y-8939500D01*
X6073571Y-8925214D01*
X6273571Y-8925214D02*
X6459286Y-8925214D01*
X6359286Y-9039500D01*
X6402143Y-9039500D01*
X6430714Y-9053786D01*
X6445000Y-9068072D01*
X6459286Y-9096643D01*
X6459286Y-9168072D01*
X6445000Y-9196643D01*
X6430714Y-9210929D01*
X6402143Y-9225214D01*
X6316428Y-9225214D01*
X6287857Y-9210929D01*
X6273571Y-9196643D01*
X6559286Y-8925214D02*
X6745000Y-8925214D01*
X6645000Y-9039500D01*
X6687857Y-9039500D01*
X6716428Y-9053786D01*
X6730714Y-9068072D01*
X6745000Y-9096643D01*
X6745000Y-9168072D01*
X6730714Y-9196643D01*
X6716428Y-9210929D01*
X6687857Y-9225214D01*
X6602143Y-9225214D01*
X6573571Y-9210929D01*
X6559286Y-9196643D01*
X6859286Y-8925214D02*
X6859286Y-8982357D01*
X6973571Y-8925214D02*
X6973571Y-8982357D01*
X7416428Y-9339500D02*
X7402143Y-9325214D01*
X7373571Y-9282357D01*
X7359286Y-9253786D01*
X7345000Y-9210929D01*
X7330714Y-9139500D01*
X7330714Y-9082357D01*
X7345000Y-9010929D01*
X7359286Y-8968072D01*
X7373571Y-8939500D01*
X7402143Y-8896643D01*
X7416428Y-8882357D01*
X7516428Y-8953786D02*
X7530714Y-8939500D01*
X7559286Y-8925214D01*
X7630714Y-8925214D01*
X7659286Y-8939500D01*
X7673571Y-8953786D01*
X7687857Y-8982357D01*
X7687857Y-9010929D01*
X7673571Y-9053786D01*
X7502143Y-9225214D01*
X7687857Y-9225214D01*
X8045000Y-9225214D02*
X8045000Y-8925214D01*
X8173571Y-9225214D02*
X8173571Y-9068072D01*
X8159286Y-9039500D01*
X8130714Y-9025214D01*
X8087857Y-9025214D01*
X8059286Y-9039500D01*
X8045000Y-9053786D01*
X8359286Y-9225214D02*
X8330714Y-9210929D01*
X8316428Y-9196643D01*
X8302143Y-9168072D01*
X8302143Y-9082357D01*
X8316428Y-9053786D01*
X8330714Y-9039500D01*
X8359286Y-9025214D01*
X8402143Y-9025214D01*
X8430714Y-9039500D01*
X8445000Y-9053786D01*
X8459286Y-9082357D01*
X8459286Y-9168072D01*
X8445000Y-9196643D01*
X8430714Y-9210929D01*
X8402143Y-9225214D01*
X8359286Y-9225214D01*
X8630714Y-9225214D02*
X8602143Y-9210929D01*
X8587857Y-9182357D01*
X8587857Y-8925214D01*
X8859286Y-9210929D02*
X8830714Y-9225214D01*
X8773571Y-9225214D01*
X8745000Y-9210929D01*
X8730714Y-9182357D01*
X8730714Y-9068072D01*
X8745000Y-9039500D01*
X8773571Y-9025214D01*
X8830714Y-9025214D01*
X8859286Y-9039500D01*
X8873571Y-9068072D01*
X8873571Y-9096643D01*
X8730714Y-9125214D01*
X8987857Y-9210929D02*
X9016428Y-9225214D01*
X9073571Y-9225214D01*
X9102143Y-9210929D01*
X9116428Y-9182357D01*
X9116428Y-9168072D01*
X9102143Y-9139500D01*
X9073571Y-9125214D01*
X9030714Y-9125214D01*
X9002143Y-9110929D01*
X8987857Y-9082357D01*
X8987857Y-9068072D01*
X9002143Y-9039500D01*
X9030714Y-9025214D01*
X9073571Y-9025214D01*
X9102143Y-9039500D01*
X9216428Y-9339500D02*
X9230714Y-9325214D01*
X9259286Y-9282357D01*
X9273571Y-9253786D01*
X9287857Y-9210929D01*
X9302143Y-9139500D01*
X9302143Y-9082357D01*
X9287857Y-9010929D01*
X9273571Y-8968072D01*
X9259286Y-8939500D01*
X9230714Y-8896643D01*
X9216428Y-8882357D01*
X2716820Y-9517320D02*
X2716820Y-9453680D01*
X2653180Y-9453680D01*
X2653180Y-9517320D01*
X2716820Y-9517320D01*
X3073571Y-9321214D02*
X3102143Y-9321214D01*
X3130714Y-9335500D01*
X3145000Y-9349786D01*
X3159286Y-9378357D01*
X3173571Y-9435500D01*
X3173571Y-9506929D01*
X3159286Y-9564072D01*
X3145000Y-9592643D01*
X3130714Y-9606929D01*
X3102143Y-9621214D01*
X3073571Y-9621214D01*
X3045000Y-9606929D01*
X3030714Y-9592643D01*
X3016428Y-9564072D01*
X3002143Y-9506929D01*
X3002143Y-9435500D01*
X3016428Y-9378357D01*
X3030714Y-9349786D01*
X3045000Y-9335500D01*
X3073571Y-9321214D01*
X3302143Y-9592643D02*
X3316428Y-9606929D01*
X3302143Y-9621214D01*
X3287857Y-9606929D01*
X3302143Y-9592643D01*
X3302143Y-9621214D01*
X3459286Y-9621214D02*
X3516428Y-9621214D01*
X3545000Y-9606929D01*
X3559286Y-9592643D01*
X3587857Y-9549786D01*
X3602143Y-9492643D01*
X3602143Y-9378357D01*
X3587857Y-9349786D01*
X3573571Y-9335500D01*
X3545000Y-9321214D01*
X3487857Y-9321214D01*
X3459286Y-9335500D01*
X3445000Y-9349786D01*
X3430714Y-9378357D01*
X3430714Y-9449786D01*
X3445000Y-9478357D01*
X3459286Y-9492643D01*
X3487857Y-9506929D01*
X3545000Y-9506929D01*
X3573571Y-9492643D01*
X3587857Y-9478357D01*
X3602143Y-9449786D01*
X3787857Y-9321214D02*
X3816428Y-9321214D01*
X3845000Y-9335500D01*
X3859286Y-9349786D01*
X3873571Y-9378357D01*
X3887857Y-9435500D01*
X3887857Y-9506929D01*
X3873571Y-9564072D01*
X3859286Y-9592643D01*
X3845000Y-9606929D01*
X3816428Y-9621214D01*
X3787857Y-9621214D01*
X3759286Y-9606929D01*
X3745000Y-9592643D01*
X3730714Y-9564072D01*
X3716428Y-9506929D01*
X3716428Y-9435500D01*
X3730714Y-9378357D01*
X3745000Y-9349786D01*
X3759286Y-9335500D01*
X3787857Y-9321214D01*
X4016428Y-9621214D02*
X4016428Y-9421214D01*
X4016428Y-9449786D02*
X4030714Y-9435500D01*
X4059286Y-9421214D01*
X4102143Y-9421214D01*
X4130714Y-9435500D01*
X4145000Y-9464072D01*
X4145000Y-9621214D01*
X4145000Y-9464072D02*
X4159286Y-9435500D01*
X4187857Y-9421214D01*
X4230714Y-9421214D01*
X4259286Y-9435500D01*
X4273571Y-9464072D01*
X4273571Y-9621214D01*
X4416428Y-9621214D02*
X4416428Y-9421214D01*
X4416428Y-9449786D02*
X4430714Y-9435500D01*
X4459286Y-9421214D01*
X4502143Y-9421214D01*
X4530714Y-9435500D01*
X4545000Y-9464072D01*
X4545000Y-9621214D01*
X4545000Y-9464072D02*
X4559286Y-9435500D01*
X4587857Y-9421214D01*
X4630714Y-9421214D01*
X4659286Y-9435500D01*
X4673571Y-9464072D01*
X4673571Y-9621214D01*
X5259286Y-9306929D02*
X5002143Y-9692643D01*
X5645000Y-9321214D02*
X5673571Y-9321214D01*
X5702143Y-9335500D01*
X5716428Y-9349786D01*
X5730714Y-9378357D01*
X5745000Y-9435500D01*
X5745000Y-9506929D01*
X5730714Y-9564072D01*
X5716428Y-9592643D01*
X5702143Y-9606929D01*
X5673571Y-9621214D01*
X5645000Y-9621214D01*
X5616428Y-9606929D01*
X5602143Y-9592643D01*
X5587857Y-9564072D01*
X5573571Y-9506929D01*
X5573571Y-9435500D01*
X5587857Y-9378357D01*
X5602143Y-9349786D01*
X5616428Y-9335500D01*
X5645000Y-9321214D01*
X5873571Y-9592643D02*
X5887857Y-9606929D01*
X5873571Y-9621214D01*
X5859286Y-9606929D01*
X5873571Y-9592643D01*
X5873571Y-9621214D01*
X6073571Y-9321214D02*
X6102143Y-9321214D01*
X6130714Y-9335500D01*
X6145000Y-9349786D01*
X6159286Y-9378357D01*
X6173571Y-9435500D01*
X6173571Y-9506929D01*
X6159286Y-9564072D01*
X6145000Y-9592643D01*
X6130714Y-9606929D01*
X6102143Y-9621214D01*
X6073571Y-9621214D01*
X6045000Y-9606929D01*
X6030714Y-9592643D01*
X6016428Y-9564072D01*
X6002143Y-9506929D01*
X6002143Y-9435500D01*
X6016428Y-9378357D01*
X6030714Y-9349786D01*
X6045000Y-9335500D01*
X6073571Y-9321214D01*
X6273571Y-9321214D02*
X6459286Y-9321214D01*
X6359286Y-9435500D01*
X6402143Y-9435500D01*
X6430714Y-9449786D01*
X6445000Y-9464072D01*
X6459286Y-9492643D01*
X6459286Y-9564072D01*
X6445000Y-9592643D01*
X6430714Y-9606929D01*
X6402143Y-9621214D01*
X6316428Y-9621214D01*
X6287857Y-9606929D01*
X6273571Y-9592643D01*
X6730714Y-9321214D02*
X6587857Y-9321214D01*
X6573571Y-9464072D01*
X6587857Y-9449786D01*
X6616428Y-9435500D01*
X6687857Y-9435500D01*
X6716428Y-9449786D01*
X6730714Y-9464072D01*
X6745000Y-9492643D01*
X6745000Y-9564072D01*
X6730714Y-9592643D01*
X6716428Y-9606929D01*
X6687857Y-9621214D01*
X6616428Y-9621214D01*
X6587857Y-9606929D01*
X6573571Y-9592643D01*
X6859286Y-9321214D02*
X6859286Y-9378357D01*
X6973571Y-9321214D02*
X6973571Y-9378357D01*
X7416428Y-9735500D02*
X7402143Y-9721214D01*
X7373571Y-9678357D01*
X7359286Y-9649786D01*
X7345000Y-9606929D01*
X7330714Y-9535500D01*
X7330714Y-9478357D01*
X7345000Y-9406929D01*
X7359286Y-9364072D01*
X7373571Y-9335500D01*
X7402143Y-9292643D01*
X7416428Y-9278357D01*
X7516428Y-9349786D02*
X7530714Y-9335500D01*
X7559286Y-9321214D01*
X7630714Y-9321214D01*
X7659286Y-9335500D01*
X7673571Y-9349786D01*
X7687857Y-9378357D01*
X7687857Y-9406929D01*
X7673571Y-9449786D01*
X7502143Y-9621214D01*
X7687857Y-9621214D01*
X8045000Y-9621214D02*
X8045000Y-9321214D01*
X8173571Y-9621214D02*
X8173571Y-9464072D01*
X8159286Y-9435500D01*
X8130714Y-9421214D01*
X8087857Y-9421214D01*
X8059286Y-9435500D01*
X8045000Y-9449786D01*
X8359286Y-9621214D02*
X8330714Y-9606929D01*
X8316428Y-9592643D01*
X8302143Y-9564072D01*
X8302143Y-9478357D01*
X8316428Y-9449786D01*
X8330714Y-9435500D01*
X8359286Y-9421214D01*
X8402143Y-9421214D01*
X8430714Y-9435500D01*
X8445000Y-9449786D01*
X8459286Y-9478357D01*
X8459286Y-9564072D01*
X8445000Y-9592643D01*
X8430714Y-9606929D01*
X8402143Y-9621214D01*
X8359286Y-9621214D01*
X8630714Y-9621214D02*
X8602143Y-9606929D01*
X8587857Y-9578357D01*
X8587857Y-9321214D01*
X8859286Y-9606929D02*
X8830714Y-9621214D01*
X8773571Y-9621214D01*
X8745000Y-9606929D01*
X8730714Y-9578357D01*
X8730714Y-9464072D01*
X8745000Y-9435500D01*
X8773571Y-9421214D01*
X8830714Y-9421214D01*
X8859286Y-9435500D01*
X8873571Y-9464072D01*
X8873571Y-9492643D01*
X8730714Y-9521214D01*
X8987857Y-9606929D02*
X9016428Y-9621214D01*
X9073571Y-9621214D01*
X9102143Y-9606929D01*
X9116428Y-9578357D01*
X9116428Y-9564072D01*
X9102143Y-9535500D01*
X9073571Y-9521214D01*
X9030714Y-9521214D01*
X9002143Y-9506929D01*
X8987857Y-9478357D01*
X8987857Y-9464072D01*
X9002143Y-9435500D01*
X9030714Y-9421214D01*
X9073571Y-9421214D01*
X9102143Y-9435500D01*
X9216428Y-9735500D02*
X9230714Y-9721214D01*
X9259286Y-9678357D01*
X9273571Y-9649786D01*
X9287857Y-9606929D01*
X9302143Y-9535500D01*
X9302143Y-9478357D01*
X9287857Y-9406929D01*
X9273571Y-9364072D01*
X9259286Y-9335500D01*
X9230714Y-9292643D01*
X9216428Y-9278357D01*
X2680000Y-9931500D02*
X2730000Y-9881500D01*
X2680000Y-9831500D01*
X2630000Y-9881500D01*
X2680000Y-9931500D01*
X3173571Y-10017214D02*
X3002143Y-10017214D01*
X3087857Y-10017214D02*
X3087857Y-9717214D01*
X3059286Y-9760072D01*
X3030714Y-9788643D01*
X3002143Y-9802929D01*
X3302143Y-9988643D02*
X3316428Y-10002929D01*
X3302143Y-10017214D01*
X3287857Y-10002929D01*
X3302143Y-9988643D01*
X3302143Y-10017214D01*
X3502143Y-9717214D02*
X3530714Y-9717214D01*
X3559286Y-9731500D01*
X3573571Y-9745786D01*
X3587857Y-9774357D01*
X3602143Y-9831500D01*
X3602143Y-9902929D01*
X3587857Y-9960072D01*
X3573571Y-9988643D01*
X3559286Y-10002929D01*
X3530714Y-10017214D01*
X3502143Y-10017214D01*
X3473571Y-10002929D01*
X3459286Y-9988643D01*
X3445000Y-9960072D01*
X3430714Y-9902929D01*
X3430714Y-9831500D01*
X3445000Y-9774357D01*
X3459286Y-9745786D01*
X3473571Y-9731500D01*
X3502143Y-9717214D01*
X3787857Y-9717214D02*
X3816428Y-9717214D01*
X3845000Y-9731500D01*
X3859286Y-9745786D01*
X3873571Y-9774357D01*
X3887857Y-9831500D01*
X3887857Y-9902929D01*
X3873571Y-9960072D01*
X3859286Y-9988643D01*
X3845000Y-10002929D01*
X3816428Y-10017214D01*
X3787857Y-10017214D01*
X3759286Y-10002929D01*
X3745000Y-9988643D01*
X3730714Y-9960072D01*
X3716428Y-9902929D01*
X3716428Y-9831500D01*
X3730714Y-9774357D01*
X3745000Y-9745786D01*
X3759286Y-9731500D01*
X3787857Y-9717214D01*
X4016428Y-10017214D02*
X4016428Y-9817214D01*
X4016428Y-9845786D02*
X4030714Y-9831500D01*
X4059286Y-9817214D01*
X4102143Y-9817214D01*
X4130714Y-9831500D01*
X4145000Y-9860072D01*
X4145000Y-10017214D01*
X4145000Y-9860072D02*
X4159286Y-9831500D01*
X4187857Y-9817214D01*
X4230714Y-9817214D01*
X4259286Y-9831500D01*
X4273571Y-9860072D01*
X4273571Y-10017214D01*
X4416428Y-10017214D02*
X4416428Y-9817214D01*
X4416428Y-9845786D02*
X4430714Y-9831500D01*
X4459286Y-9817214D01*
X4502143Y-9817214D01*
X4530714Y-9831500D01*
X4545000Y-9860072D01*
X4545000Y-10017214D01*
X4545000Y-9860072D02*
X4559286Y-9831500D01*
X4587857Y-9817214D01*
X4630714Y-9817214D01*
X4659286Y-9831500D01*
X4673571Y-9860072D01*
X4673571Y-10017214D01*
X5259286Y-9702929D02*
X5002143Y-10088643D01*
X5645000Y-9717214D02*
X5673571Y-9717214D01*
X5702143Y-9731500D01*
X5716428Y-9745786D01*
X5730714Y-9774357D01*
X5745000Y-9831500D01*
X5745000Y-9902929D01*
X5730714Y-9960072D01*
X5716428Y-9988643D01*
X5702143Y-10002929D01*
X5673571Y-10017214D01*
X5645000Y-10017214D01*
X5616428Y-10002929D01*
X5602143Y-9988643D01*
X5587857Y-9960072D01*
X5573571Y-9902929D01*
X5573571Y-9831500D01*
X5587857Y-9774357D01*
X5602143Y-9745786D01*
X5616428Y-9731500D01*
X5645000Y-9717214D01*
X5873571Y-9988643D02*
X5887857Y-10002929D01*
X5873571Y-10017214D01*
X5859286Y-10002929D01*
X5873571Y-9988643D01*
X5873571Y-10017214D01*
X6073571Y-9717214D02*
X6102143Y-9717214D01*
X6130714Y-9731500D01*
X6145000Y-9745786D01*
X6159286Y-9774357D01*
X6173571Y-9831500D01*
X6173571Y-9902929D01*
X6159286Y-9960072D01*
X6145000Y-9988643D01*
X6130714Y-10002929D01*
X6102143Y-10017214D01*
X6073571Y-10017214D01*
X6045000Y-10002929D01*
X6030714Y-9988643D01*
X6016428Y-9960072D01*
X6002143Y-9902929D01*
X6002143Y-9831500D01*
X6016428Y-9774357D01*
X6030714Y-9745786D01*
X6045000Y-9731500D01*
X6073571Y-9717214D01*
X6273571Y-9717214D02*
X6459286Y-9717214D01*
X6359286Y-9831500D01*
X6402143Y-9831500D01*
X6430714Y-9845786D01*
X6445000Y-9860072D01*
X6459286Y-9888643D01*
X6459286Y-9960072D01*
X6445000Y-9988643D01*
X6430714Y-10002929D01*
X6402143Y-10017214D01*
X6316428Y-10017214D01*
X6287857Y-10002929D01*
X6273571Y-9988643D01*
X6602143Y-10017214D02*
X6659286Y-10017214D01*
X6687857Y-10002929D01*
X6702143Y-9988643D01*
X6730714Y-9945786D01*
X6745000Y-9888643D01*
X6745000Y-9774357D01*
X6730714Y-9745786D01*
X6716428Y-9731500D01*
X6687857Y-9717214D01*
X6630714Y-9717214D01*
X6602143Y-9731500D01*
X6587857Y-9745786D01*
X6573571Y-9774357D01*
X6573571Y-9845786D01*
X6587857Y-9874357D01*
X6602143Y-9888643D01*
X6630714Y-9902929D01*
X6687857Y-9902929D01*
X6716428Y-9888643D01*
X6730714Y-9874357D01*
X6745000Y-9845786D01*
X6859286Y-9717214D02*
X6859286Y-9774357D01*
X6973571Y-9717214D02*
X6973571Y-9774357D01*
X7416428Y-10131500D02*
X7402143Y-10117214D01*
X7373571Y-10074357D01*
X7359286Y-10045786D01*
X7345000Y-10002929D01*
X7330714Y-9931500D01*
X7330714Y-9874357D01*
X7345000Y-9802929D01*
X7359286Y-9760072D01*
X7373571Y-9731500D01*
X7402143Y-9688643D01*
X7416428Y-9674357D01*
X7673571Y-9717214D02*
X7530714Y-9717214D01*
X7516428Y-9860072D01*
X7530714Y-9845786D01*
X7559286Y-9831500D01*
X7630714Y-9831500D01*
X7659286Y-9845786D01*
X7673571Y-9860072D01*
X7687857Y-9888643D01*
X7687857Y-9960072D01*
X7673571Y-9988643D01*
X7659286Y-10002929D01*
X7630714Y-10017214D01*
X7559286Y-10017214D01*
X7530714Y-10002929D01*
X7516428Y-9988643D01*
X7945000Y-9817214D02*
X7945000Y-10017214D01*
X7873571Y-9702929D02*
X7802143Y-9917214D01*
X7987857Y-9917214D01*
X8330714Y-10017214D02*
X8330714Y-9717214D01*
X8459286Y-10017214D02*
X8459286Y-9860072D01*
X8445000Y-9831500D01*
X8416428Y-9817214D01*
X8373571Y-9817214D01*
X8345000Y-9831500D01*
X8330714Y-9845786D01*
X8645000Y-10017214D02*
X8616428Y-10002929D01*
X8602143Y-9988643D01*
X8587857Y-9960072D01*
X8587857Y-9874357D01*
X8602143Y-9845786D01*
X8616428Y-9831500D01*
X8645000Y-9817214D01*
X8687857Y-9817214D01*
X8716428Y-9831500D01*
X8730714Y-9845786D01*
X8745000Y-9874357D01*
X8745000Y-9960072D01*
X8730714Y-9988643D01*
X8716428Y-10002929D01*
X8687857Y-10017214D01*
X8645000Y-10017214D01*
X8916428Y-10017214D02*
X8887857Y-10002929D01*
X8873571Y-9974357D01*
X8873571Y-9717214D01*
X9145000Y-10002929D02*
X9116428Y-10017214D01*
X9059286Y-10017214D01*
X9030714Y-10002929D01*
X9016428Y-9974357D01*
X9016428Y-9860072D01*
X9030714Y-9831500D01*
X9059286Y-9817214D01*
X9116428Y-9817214D01*
X9145000Y-9831500D01*
X9159286Y-9860072D01*
X9159286Y-9888643D01*
X9016428Y-9917214D01*
X9273571Y-10002929D02*
X9302143Y-10017214D01*
X9359286Y-10017214D01*
X9387857Y-10002929D01*
X9402143Y-9974357D01*
X9402143Y-9960072D01*
X9387857Y-9931500D01*
X9359286Y-9917214D01*
X9316428Y-9917214D01*
X9287857Y-9902929D01*
X9273571Y-9874357D01*
X9273571Y-9860072D01*
X9287857Y-9831500D01*
X9316428Y-9817214D01*
X9359286Y-9817214D01*
X9387857Y-9831500D01*
X9502143Y-10131500D02*
X9516428Y-10117214D01*
X9545000Y-10074357D01*
X9559286Y-10045786D01*
X9573571Y-10002929D01*
X9587857Y-9931500D01*
X9587857Y-9874357D01*
X9573571Y-9802929D01*
X9559286Y-9760072D01*
X9545000Y-9731500D01*
X9516428Y-9688643D01*
X9502143Y-9674357D01*
X2412500Y-10118750D02*
X2730000Y-10436250D01*
X2730000Y-10118750D02*
X2412500Y-10436250D01*
X2730000Y-10277500D02*
G75*
G03X2730000Y-10277500I-158750J0D01*
G01*
X2987857Y-10113214D02*
X3173571Y-10113214D01*
X3073571Y-10227500D01*
X3116428Y-10227500D01*
X3145000Y-10241786D01*
X3159286Y-10256072D01*
X3173571Y-10284643D01*
X3173571Y-10356072D01*
X3159286Y-10384643D01*
X3145000Y-10398929D01*
X3116428Y-10413214D01*
X3030714Y-10413214D01*
X3002143Y-10398929D01*
X2987857Y-10384643D01*
X3302143Y-10384643D02*
X3316428Y-10398929D01*
X3302143Y-10413214D01*
X3287857Y-10398929D01*
X3302143Y-10384643D01*
X3302143Y-10413214D01*
X3602143Y-10413214D02*
X3430714Y-10413214D01*
X3516428Y-10413214D02*
X3516428Y-10113214D01*
X3487857Y-10156072D01*
X3459286Y-10184643D01*
X3430714Y-10198929D01*
X3702143Y-10113214D02*
X3902143Y-10113214D01*
X3773571Y-10413214D01*
X4016428Y-10413214D02*
X4016428Y-10213214D01*
X4016428Y-10241786D02*
X4030714Y-10227500D01*
X4059286Y-10213214D01*
X4102143Y-10213214D01*
X4130714Y-10227500D01*
X4145000Y-10256072D01*
X4145000Y-10413214D01*
X4145000Y-10256072D02*
X4159286Y-10227500D01*
X4187857Y-10213214D01*
X4230714Y-10213214D01*
X4259286Y-10227500D01*
X4273571Y-10256072D01*
X4273571Y-10413214D01*
X4416428Y-10413214D02*
X4416428Y-10213214D01*
X4416428Y-10241786D02*
X4430714Y-10227500D01*
X4459286Y-10213214D01*
X4502143Y-10213214D01*
X4530714Y-10227500D01*
X4545000Y-10256072D01*
X4545000Y-10413214D01*
X4545000Y-10256072D02*
X4559286Y-10227500D01*
X4587857Y-10213214D01*
X4630714Y-10213214D01*
X4659286Y-10227500D01*
X4673571Y-10256072D01*
X4673571Y-10413214D01*
X5259286Y-10098929D02*
X5002143Y-10484643D01*
X5645000Y-10113214D02*
X5673571Y-10113214D01*
X5702143Y-10127500D01*
X5716428Y-10141786D01*
X5730714Y-10170357D01*
X5745000Y-10227500D01*
X5745000Y-10298929D01*
X5730714Y-10356072D01*
X5716428Y-10384643D01*
X5702143Y-10398929D01*
X5673571Y-10413214D01*
X5645000Y-10413214D01*
X5616428Y-10398929D01*
X5602143Y-10384643D01*
X5587857Y-10356072D01*
X5573571Y-10298929D01*
X5573571Y-10227500D01*
X5587857Y-10170357D01*
X5602143Y-10141786D01*
X5616428Y-10127500D01*
X5645000Y-10113214D01*
X5873571Y-10384643D02*
X5887857Y-10398929D01*
X5873571Y-10413214D01*
X5859286Y-10398929D01*
X5873571Y-10384643D01*
X5873571Y-10413214D01*
X6173571Y-10413214D02*
X6002143Y-10413214D01*
X6087857Y-10413214D02*
X6087857Y-10113214D01*
X6059286Y-10156072D01*
X6030714Y-10184643D01*
X6002143Y-10198929D01*
X6287857Y-10141786D02*
X6302143Y-10127500D01*
X6330714Y-10113214D01*
X6402143Y-10113214D01*
X6430714Y-10127500D01*
X6445000Y-10141786D01*
X6459286Y-10170357D01*
X6459286Y-10198929D01*
X6445000Y-10241786D01*
X6273571Y-10413214D01*
X6459286Y-10413214D01*
X6730714Y-10113214D02*
X6587857Y-10113214D01*
X6573571Y-10256072D01*
X6587857Y-10241786D01*
X6616428Y-10227500D01*
X6687857Y-10227500D01*
X6716428Y-10241786D01*
X6730714Y-10256072D01*
X6745000Y-10284643D01*
X6745000Y-10356072D01*
X6730714Y-10384643D01*
X6716428Y-10398929D01*
X6687857Y-10413214D01*
X6616428Y-10413214D01*
X6587857Y-10398929D01*
X6573571Y-10384643D01*
X6859286Y-10113214D02*
X6859286Y-10170357D01*
X6973571Y-10113214D02*
X6973571Y-10170357D01*
X7416428Y-10527500D02*
X7402143Y-10513214D01*
X7373571Y-10470357D01*
X7359286Y-10441786D01*
X7345000Y-10398929D01*
X7330714Y-10327500D01*
X7330714Y-10270357D01*
X7345000Y-10198929D01*
X7359286Y-10156072D01*
X7373571Y-10127500D01*
X7402143Y-10084643D01*
X7416428Y-10070357D01*
X7516428Y-10141786D02*
X7530714Y-10127500D01*
X7559286Y-10113214D01*
X7630714Y-10113214D01*
X7659286Y-10127500D01*
X7673571Y-10141786D01*
X7687857Y-10170357D01*
X7687857Y-10198929D01*
X7673571Y-10241786D01*
X7502143Y-10413214D01*
X7687857Y-10413214D01*
X8045000Y-10413214D02*
X8045000Y-10113214D01*
X8173571Y-10413214D02*
X8173571Y-10256072D01*
X8159286Y-10227500D01*
X8130714Y-10213214D01*
X8087857Y-10213214D01*
X8059286Y-10227500D01*
X8045000Y-10241786D01*
X8359286Y-10413214D02*
X8330714Y-10398929D01*
X8316428Y-10384643D01*
X8302143Y-10356072D01*
X8302143Y-10270357D01*
X8316428Y-10241786D01*
X8330714Y-10227500D01*
X8359286Y-10213214D01*
X8402143Y-10213214D01*
X8430714Y-10227500D01*
X8445000Y-10241786D01*
X8459286Y-10270357D01*
X8459286Y-10356072D01*
X8445000Y-10384643D01*
X8430714Y-10398929D01*
X8402143Y-10413214D01*
X8359286Y-10413214D01*
X8630714Y-10413214D02*
X8602143Y-10398929D01*
X8587857Y-10370357D01*
X8587857Y-10113214D01*
X8859286Y-10398929D02*
X8830714Y-10413214D01*
X8773571Y-10413214D01*
X8745000Y-10398929D01*
X8730714Y-10370357D01*
X8730714Y-10256072D01*
X8745000Y-10227500D01*
X8773571Y-10213214D01*
X8830714Y-10213214D01*
X8859286Y-10227500D01*
X8873571Y-10256072D01*
X8873571Y-10284643D01*
X8730714Y-10313214D01*
X8987857Y-10398929D02*
X9016428Y-10413214D01*
X9073571Y-10413214D01*
X9102143Y-10398929D01*
X9116428Y-10370357D01*
X9116428Y-10356072D01*
X9102143Y-10327500D01*
X9073571Y-10313214D01*
X9030714Y-10313214D01*
X9002143Y-10298929D01*
X8987857Y-10270357D01*
X8987857Y-10256072D01*
X9002143Y-10227500D01*
X9030714Y-10213214D01*
X9073571Y-10213214D01*
X9102143Y-10227500D01*
X9216428Y-10527500D02*
X9230714Y-10513214D01*
X9259286Y-10470357D01*
X9273571Y-10441786D01*
X9287857Y-10398929D01*
X9302143Y-10327500D01*
X9302143Y-10270357D01*
X9287857Y-10198929D01*
X9273571Y-10156072D01*
X9259286Y-10127500D01*
X9230714Y-10084643D01*
X9216428Y-10070357D01*
M02*
