M48
; DRILL file {KiCad (5.1.5-0-10_14)} date Friday, 28 February 2020 at 10:22:08
; FORMAT={2:4/ absolute / inch / suppress leading zeros}
; #@! TF.CreationDate,2020-02-28T10:22:08-08:00
; #@! TF.GenerationSoftware,Kicad,Pcbnew,(5.1.5-0-10_14)
FMAT,2
INCH,TZ
T1C0.0157
T2C0.0236
T3C0.0335
T4C0.0354
T5C0.0394
T6C0.1250
%
G90
G05
T1
X13396Y-22343
X13500Y-14343
X13541Y-20944
X14299Y-23937
X14571Y-21256
X14720Y-19941
X15118Y-21201
X15164Y-21592
X15866Y-23681
X16283Y-18331
X16390Y-17472
X16429Y-14992
X16693Y-23750
X16746Y-18272
X17146Y-18232
X17433Y-18850
X17984Y-17366
X19465Y-26370
X20134Y-25531
X20413Y-20705
X21126Y-20343
X21421Y-23299
X21677Y-24299
X22303Y-20895
X22661Y-20732
X23052Y-20615
X23071Y-20209
X23445Y-20613
X23469Y-18118
T3
X14134Y-27239
X16102Y-27239
T4
X19992Y-27854
X20992Y-27854
T5
X18602Y-11799
X18602Y-12799
X18602Y-13799
X18602Y-14799
X18602Y-15799
X18602Y-16799
X18602Y-17799
X18602Y-18799
X18602Y-19799
X18602Y-20799
X18602Y-21799
X18602Y-22799
X18602Y-23799
X18602Y-24799
X18602Y-25799
X18602Y-26799
X18602Y-27799
X20685Y-9488
X20685Y-10488
X20685Y-11488
X20685Y-12488
X20685Y-13488
X20685Y-14488
X20685Y-15488
X20685Y-16488
X20685Y-17488
X20685Y-18488
X21685Y-9488
X21685Y-10488
X21685Y-11488
X21685Y-12488
X21685Y-13488
X21685Y-14488
X21685Y-15488
X21685Y-16488
X21685Y-17488
X21685Y-18488
X11602Y-11799
X11602Y-12799
X11602Y-13799
X11602Y-14799
X11602Y-15799
X11602Y-16799
X11602Y-17799
X11602Y-18799
X11602Y-19799
X11602Y-20799
X11602Y-21799
X11602Y-22799
X11602Y-23799
X11602Y-24799
X11602Y-25799
X11602Y-26799
X11602Y-27799
T6
X23689Y-27803
X23720Y-9417
T2
G00X13740Y-28440
M15
G01X13740Y-28164
M16
G05
G00X16496Y-28164
M15
G01X16496Y-28440
M16
G05
T0
M30
